<svg width="20" height="20" viewBox="0 0 20 20" fill="none" xmlns="http://www.w3.org/2000/svg">
<path opacity="0.5" d="M12.7574 5.12132C13.9289 6.29289 15.8284 6.29289 17 5.12132C17.5858 4.53553 17.8787 3.76777 17.8787 3C17.8787 2.23223 17.5858 1.46447 17 0.878677C15.8284 -0.292892 13.9289 -0.292892 12.7574 0.878677C12.1716 1.46447 11.8787 2.23223 11.8787 3C11.8787 3.76777 12.1716 4.53553 12.7574 5.12132Z" fill="#CE364C"/>
<path opacity="0.5" d="M18.9052 15.381C20.3649 13.9213 20.3649 11.5546 18.9052 10.0948C17.4454 8.6351 15.0787 8.6351 13.619 10.0948L10.0948 13.619C8.6351 15.0787 8.6351 17.4454 10.0948 18.9052C11.5546 20.3649 13.9213 20.3649 15.381 18.9052L18.9052 15.381Z" fill="#CE364C"/>
<path d="M17.8779 16.4084L17.8784 16.4054L17.1465 16.2644C17.1424 16.2635 17.132 16.2611 17.1177 16.2575C17.089 16.2503 17.0405 16.2371 16.9748 16.2161C16.8432 16.1741 16.6427 16.1007 16.3923 15.9801C15.8925 15.7392 15.1913 15.3087 14.4415 14.5589C13.6916 13.8091 13.2611 13.1078 13.0201 12.6078C12.8994 12.3575 12.826 12.1569 12.784 12.0253C12.763 11.9595 12.7431 11.8831 12.7359 11.8544L12.5946 11.1216L12.5916 11.1222L11.3262 12.3876C11.3348 12.4167 11.3444 12.4481 11.3551 12.4817C11.4168 12.6747 11.5155 12.9409 11.6689 13.2591C11.976 13.8964 12.501 14.7397 13.3808 15.6195C14.2606 16.4994 15.1039 17.0243 15.7412 17.3314C16.0593 17.4847 16.3255 17.5834 16.5185 17.6451C16.552 17.6558 16.5833 17.6653 16.6123 17.6739L17.8779 16.4084Z" fill="#CE364C"/>
<path d="M7.72685 10.682C5.94471 12.4393 3.05529 12.4393 1.27315 10.682C0.57624 9.9948 0.15185 9.1406 0 8.25H9C8.8481 9.1406 8.4238 9.9948 7.72685 10.682Z" fill="#CE364C"/>
<path d="M9 6.75H0C0.15185 5.85943 0.57624 5.00524 1.27315 4.31802C3.05529 2.56066 5.94471 2.56066 7.72685 4.31802C8.4238 5.00524 8.8481 5.85943 9 6.75Z" fill="#CE364C"/>
</svg>
