<svg preserveAspectRatio="none" width="100%" height="100%" overflow="visible" style="display: block;" viewBox="0 0 55.7 29.4558" fill="none" xmlns="http://www.w3.org/2000/svg">
<path id="Arrow 1" d="M2 12.7279C0.89543 12.7279 0 13.6234 0 14.7279C0 15.8325 0.89543 16.7279 2 16.7279V14.7279V12.7279ZM55.1142 16.1421C55.8953 15.3611 55.8953 14.0948 55.1142 13.3137L42.3863 0.585787C41.6052 -0.195262 40.3389 -0.195262 39.5579 0.585787C38.7768 1.36684 38.7768 2.63317 39.5579 3.41421L50.8716 14.7279L39.5579 26.0416C38.7768 26.8227 38.7768 28.089 39.5579 28.8701C40.3389 29.6511 41.6052 29.6511 42.3863 28.8701L55.1142 16.1421ZM2 14.7279V16.7279H53.7V14.7279V12.7279H2V14.7279Z" fill="var(--stroke-0, #00BAC0)"/>
</svg>
