<svg preserveAspectRatio="none" width="100%" height="100%" overflow="visible" style="display: block;" viewBox="0 0 45.2 29.4558" fill="none" xmlns="http://www.w3.org/2000/svg">
<path id="Arrow 1" d="M2 12.7279C0.89543 12.7279 0 13.6234 0 14.7279C0 15.8325 0.89543 16.7279 2 16.7279V14.7279V12.7279ZM44.6142 16.1421C45.3953 15.3611 45.3953 14.0948 44.6142 13.3137L31.8863 0.585787C31.1052 -0.195262 29.8389 -0.195262 29.0579 0.585787C28.2768 1.36684 28.2768 2.63317 29.0579 3.41421L40.3716 14.7279L29.0579 26.0416C28.2768 26.8227 28.2768 28.089 29.0579 28.8701C29.8389 29.6511 31.1052 29.6511 31.8863 28.8701L44.6142 16.1421ZM2 14.7279V16.7279H43.2V14.7279V12.7279H2V14.7279Z" fill="var(--stroke-0, #00BAC0)"/>
</svg>
