<svg preserveAspectRatio="none" width="100%" height="100%" overflow="visible" style="display: block;" viewBox="0 0 42.2 29.4558" fill="none" xmlns="http://www.w3.org/2000/svg">
<path id="Arrow 1" d="M2 12.7279C0.89543 12.7279 0 13.6234 0 14.7279C0 15.8325 0.89543 16.7279 2 16.7279V14.7279V12.7279ZM41.6142 16.1421C42.3952 15.3611 42.3952 14.0948 41.6142 13.3137L28.8863 0.585787C28.1052 -0.195262 26.8389 -0.195262 26.0578 0.585787C25.2768 1.36684 25.2768 2.63317 26.0578 3.41421L37.3716 14.7279L26.0578 26.0416C25.2768 26.8227 25.2768 28.089 26.0578 28.8701C26.8389 29.6511 28.1052 29.6511 28.8863 28.8701L41.6142 16.1421ZM2 14.7279V16.7279H40.2V14.7279V12.7279H2V14.7279Z" fill="var(--stroke-0, #00BAC0)"/>
</svg>
