<?xml version="1.0" encoding="utf-8"?>
<!-- Generator: Adobe Illustrator 27.5.0, SVG Export Plug-In . SVG Version: 6.00 Build 0)  -->
<svg version="1.1" id="Layer_1" xmlns="http://www.w3.org/2000/svg" xmlns:xlink="http://www.w3.org/1999/xlink" x="0px" y="0px"
	 viewBox="0 0 671.081 400" style="enable-background:new 0 0 671.081 400;" xml:space="preserve">
<rect x="0" style="fill:#D8C5BF;" width="671.081" height="400"/>
<g>
	<path style="fill:#EDDDD6;" d="M133.786,79.05c0,4.14-0.54,8.16-1.56,11.98c-2.38,8.97-7.36,16.88-14.1,22.86
		c-2.07,1.86-4.32,3.53-6.71,4.98c-0.82,0.5-1.65,0.98-2.5,1.43c-6.49,3.43-13.9,5.37-21.75,5.37c-2.58,0-5.11-0.21-7.58-0.62
		c-1.77-0.28-3.5-0.67-5.2-1.15c-6.98-1.99-13.29-5.55-18.52-10.3c-1.71-1.54-3.31-3.22-4.77-5c-6.59-8.05-10.55-18.34-10.55-29.55
		c0-25.75,20.87-46.62,46.62-46.62S133.786,53.3,133.786,79.05z"/>
</g>
<g>
	<path style="fill:#EDDDD6;" d="M257.966,79.05c0,8.51-2.28,16.49-6.27,23.36c-0.15,0.26-0.31,0.52-0.47,0.78
		c-0.37,0.62-0.76,1.24-1.17,1.84c-0.17,0.25-0.34,0.5-0.53,0.75c-6.08,8.71-15.08,15.21-25.56,18.16
		c-0.22,0.06-0.45,0.12-0.67,0.18c-3.81,1.01-7.82,1.55-11.95,1.55c-16.11,0-30.32-8.17-38.67-20.6c-0.79-1.15-1.52-2.35-2.19-3.57
		c-3.67-6.66-5.76-14.31-5.76-22.45c0-25.75,20.87-46.62,46.62-46.62S257.966,53.3,257.966,79.05z"/>
</g>
<g>
	<path style="fill:#EDDDD6;" d="M382.146,79.05c0,9.24-2.69,17.86-7.33,25.1c-0.99,1.55-2.07,3.04-3.24,4.46
		c-0.13,0.17-0.26,0.33-0.4,0.49c-0.86,1.02-1.77,2.01-2.71,2.95c-1.52,1.52-3.15,2.94-4.88,4.23c-0.05,0.04-0.1,0.07-0.15,0.11
		c-0.36,0.28-0.73,0.54-1.1,0.8c-0.44,0.32-0.89,0.62-1.35,0.92c-0.1,0.07-0.2,0.13-0.31,0.19c-1.26,0.82-2.57,1.58-3.92,2.26
		c-0.31,0.16-0.62,0.32-0.94,0.47c-1.45,0.7-2.94,1.33-4.46,1.88c-2.02,0.73-4.1,1.33-6.24,1.77c-3.1,0.65-6.3,0.99-9.59,0.99
		c-0.65,0-1.31-0.01-1.96-0.04c-0.75-0.03-1.49-0.08-2.23-0.15c-0.05,0-0.09-0.01-0.14-0.01c-1.39-0.13-2.77-0.32-4.12-0.58
		c-0.78-0.14-1.55-0.3-2.31-0.48c-2.22-0.52-4.37-1.2-6.45-2.04c-1.81-0.71-3.56-1.54-5.26-2.48c-0.04-0.02-0.07-0.04-0.11-0.06
		c-0.2-0.11-0.4-0.22-0.59-0.34c-0.61-0.34-1.22-0.7-1.81-1.08c-0.55-0.34-1.08-0.7-1.61-1.07c-0.95-0.65-1.88-1.35-2.78-2.09
		c-0.11-0.08-0.21-0.16-0.32-0.25c-1.27-1.06-2.49-2.18-3.65-3.36c-0.33-0.33-0.65-0.67-0.96-1.01c-0.74-0.79-1.45-1.62-2.11-2.46
		c-0.15-0.18-0.29-0.35-0.43-0.53c-0.02-0.02-0.03-0.04-0.04-0.06c-0.78-1-1.51-2.03-2.2-3.09c-4.77-7.32-7.55-16.05-7.55-25.44
		c0-25.75,20.88-46.62,46.63-46.62S382.146,53.3,382.146,79.05z"/>
</g>
<g>
	<path style="fill:#EDDDD6;" d="M506.326,79.05c0,9.21-2.67,17.8-7.29,25.04c-1.7,2.67-3.66,5.14-5.85,7.4
		c-0.57,0.59-1.15,1.16-1.75,1.71c-1.61,1.5-3.33,2.88-5.15,4.15c-2.72,1.89-5.65,3.5-8.75,4.79c-4.85,2.01-10.12,3.22-15.65,3.48
		c-0.72,0.03-1.45,0.05-2.18,0.05c-0.36,0-0.73,0-1.1-0.01c-5.47-0.13-10.71-1.19-15.55-3.05c-5.1-1.94-9.76-4.76-13.82-8.27
		c-0.19-0.16-0.38-0.33-0.56-0.5c-1.18-1.04-2.29-2.14-3.35-3.3c-0.38-0.42-0.76-0.84-1.12-1.27c-6.95-8.14-11.13-18.69-11.13-30.22
		c0-25.75,20.88-46.62,46.63-46.62C485.446,32.43,506.326,53.3,506.326,79.05z"/>
</g>
<g>
	
		<ellipse transform="matrix(0.7071 -0.7071 0.7071 0.7071 115.1171 436.0201)" style="fill:#EDDDD6;" cx="583.881" cy="79.051" rx="46.622" ry="46.622"/>
</g>
<g>
	<path style="fill:#EDDDD6;" d="M133.786,200.09c0,4.87-0.74,9.57-2.13,13.98c-2.12,6.74-5.72,12.82-10.43,17.85
		c-0.1,0.12-0.2,0.23-0.31,0.34l-0.12,0.12c-0.1,0.11-0.21,0.22-0.31,0.32c-2.8,2.86-5.97,5.37-9.44,7.43
		c-6.98,4.18-15.15,6.58-23.88,6.58c-1.78,0-3.55-0.1-5.28-0.29c-0.24-0.02-0.47-0.05-0.7-0.08c-0.02-0.01-0.03-0.01-0.05-0.01
		c-2.21-0.29-4.37-0.73-6.47-1.32c-2.47-0.68-4.86-1.57-7.14-2.63c-0.35-0.16-0.7-0.33-1.05-0.5c-2.25-1.11-4.39-2.4-6.4-3.85
		c-2.02-1.44-3.92-3.04-5.68-4.79c-1.89-1.86-3.62-3.9-5.16-6.06c-0.38-0.54-0.76-1.08-1.12-1.64c-0.9-1.36-1.72-2.77-2.46-4.22
		c-3.27-6.37-5.11-13.58-5.11-21.23c0-25.75,20.87-46.62,46.62-46.62S133.786,174.34,133.786,200.09z"/>
</g>
<g>
	<path style="fill:#EDDDD6;" d="M257.966,200.09c0,8.9-2.5,17.22-6.82,24.3c-0.75,1.23-1.56,2.41-2.41,3.56
		c-3.13,4.18-6.93,7.82-11.26,10.76c-5.72,3.88-12.34,6.51-19.49,7.53c-1.87,0.27-3.77,0.42-5.71,0.45
		c-0.31,0.02-0.62,0.02-0.93,0.02c-3.76,0-7.43-0.45-10.93-1.29c-9.58-2.3-18.01-7.56-24.26-14.76c-0.95-1.1-1.86-2.24-2.71-3.42
		c-5.49-7.65-8.72-17.03-8.72-27.15c0-25.75,20.87-46.62,46.62-46.62S257.966,174.34,257.966,200.09z"/>
</g>
<g>
	<path style="fill:#EDDDD6;" d="M382.146,200.09c0,6.26-1.23,12.23-3.47,17.68c-1.64,3.99-3.82,7.71-6.45,11.06
		c-6.04,7.71-14.46,13.47-24.16,16.17c-3.99,1.12-8.2,1.71-12.54,1.71c-1.65,0-3.28-0.08-4.89-0.25c-1.05-0.11-2.09-0.26-3.12-0.44
		c-1.14-0.2-2.26-0.44-3.37-0.72c-0.21-0.05-0.43-0.1-0.64-0.16c-1.78-0.47-3.53-1.05-5.22-1.73c-2.98-1.18-5.82-2.67-8.46-4.42
		c-0.82-0.54-1.63-1.11-2.41-1.7c-1.56-1.18-3.04-2.45-4.44-3.82c-3.33-3.24-6.16-6.97-8.4-11.07c-3.62-6.63-5.68-14.23-5.68-22.31
		c0-25.75,20.88-46.62,46.63-46.62S382.146,174.34,382.146,200.09z"/>
</g>
<g>
	<path style="fill:#EDDDD6;" d="M506.326,200.09c0,8.37-2.21,16.23-6.08,23.03c-2.72,4.78-6.27,9.04-10.45,12.57
		c-4.43,3.75-9.57,6.69-15.19,8.59c-4.68,1.57-9.69,2.43-14.9,2.43c-13.81,0-26.23-6.01-34.76-15.55c-0.51-0.56-1-1.14-1.48-1.73
		c-1.38-1.7-2.64-3.5-3.77-5.38c-4.2-7.01-6.62-15.2-6.62-23.96c0-25.75,20.88-46.62,46.63-46.62
		C485.446,153.47,506.326,174.34,506.326,200.09z"/>
</g>
<g>
	<g>
		<path d="M77.121,178.8c0,0-15.895,6.079-16.706,24.069c-1.172,26.003,29.991,19.974,29.991,19.974s17.65,1.831,22.532-11.18
			s-10.811-20.866-10.811-20.866S83.1,174.043,77.121,178.8z"/>
	</g>
</g>
<g>
	<path style="fill:#EDDDD6;" d="M630.506,200.09c0,12.35-4.8,23.58-12.65,31.92c-8.5,9.05-20.58,14.7-33.97,14.7
		c-15.42,0-29.09-7.48-37.57-19.01c-5.7-7.73-9.06-17.28-9.06-27.61c0-25.75,20.88-46.62,46.63-46.62
		C609.626,153.47,630.506,174.34,630.506,200.09z"/>
</g>
<g>
	<path style="fill:#EDDDD6;" d="M134.516,320.46c0,8.01-2.02,15.55-5.59,22.13c-0.83,1.56-1.77,3.07-2.78,4.52
		c-2.91,4.19-6.51,7.88-10.62,10.89c-0.02,0.03-0.05,0.04-0.07,0.06c-0.27,0.2-0.54,0.4-0.82,0.58c-5.06,3.56-10.86,6.13-17.12,7.44
		c-3.1,0.66-6.32,1-9.62,1c-7.57,0-14.71-1.8-21.03-5.01c-3.65-1.84-7.02-4.15-10.04-6.85c-1.62-1.46-3.15-3.02-4.56-4.69
		c-0.64-0.75-1.25-1.52-1.83-2.31c-1.55-2.08-2.93-4.29-4.12-6.62c-3.23-6.35-5.05-13.53-5.05-21.14
		c0-25.75,20.88-46.63,46.63-46.63C113.636,273.83,134.516,294.71,134.516,320.46z"/>
</g>
<g>
	<path style="fill:#EDDDD6;" d="M258.696,320.46c0,11.2-3.95,21.47-10.53,29.51c-1.2,1.47-2.49,2.86-3.86,4.17
		c-2.73,2.62-5.77,4.9-9.08,6.79c-6.82,3.91-14.72,6.15-23.15,6.15c-2.8,0-5.54-0.25-8.2-0.72c-2.11-0.37-4.17-0.89-6.17-1.55
		c-6.16-1.98-11.76-5.22-16.5-9.42c-9.67-8.53-15.76-21.02-15.76-34.93c0-25.75,20.88-46.63,46.63-46.63
		C237.816,273.83,258.696,294.71,258.696,320.46z"/>
</g>
<g>
	<path style="fill:#EDDDD6;" d="M382.876,320.46c0,7.08-1.58,13.78-4.4,19.79c-7.44,15.85-23.55,26.83-42.22,26.83
		c-16.05,0-30.2-8.1-38.59-20.44c-5.07-7.46-8.04-16.47-8.04-26.18c0-25.75,20.88-46.63,46.63-46.63
		C361.996,273.83,382.876,294.71,382.876,320.46z"/>
</g>
<g>
	<path style="fill:#EDDDD6;" d="M507.056,320.46c0,7.8-1.91,15.15-5.31,21.61c-0.03,0.07-0.06,0.13-0.1,0.2
		c-0.19,0.36-0.38,0.71-0.59,1.06c-5.23,9.29-13.56,16.6-23.59,20.53c-0.62,0.24-1.25,0.47-1.88,0.69c-0.57,0.2-1.14,0.39-1.71,0.56
		c-0.59,0.18-1.18,0.34-1.77,0.49c-3.73,0.97-7.65,1.48-11.68,1.48c-1.74,0-3.46-0.1-5.15-0.29c-2.07-0.22-4.11-0.59-6.09-1.08
		c-1.46-0.36-2.88-0.79-4.28-1.29c-0.23-0.08-0.47-0.16-0.7-0.25c-0.54-0.2-1.07-0.41-1.6-0.63c-1.39-0.57-2.74-1.2-4.05-1.91
		c-0.56-0.3-1.11-0.61-1.66-0.93c-0.14-0.08-0.28-0.16-0.42-0.25c-1.09-0.65-2.14-1.34-3.16-2.07c-0.62-0.44-1.23-0.9-1.82-1.37
		c-2.89-2.28-5.5-4.9-7.77-7.8c-0.32-0.41-0.64-0.83-0.95-1.26c-0.56-0.77-1.1-1.55-1.62-2.36c-4.66-7.25-7.35-15.87-7.35-25.13
		c0-25.75,20.88-46.63,46.62-46.63C486.176,273.83,507.056,294.71,507.056,320.46z"/>
</g>
<g>
	<path style="fill:#EDDDD6;" d="M631.236,320.46c0,6.01-1.14,11.76-3.21,17.04c-1.61,4.12-3.8,7.94-6.48,11.39
		c-0.47,0.62-0.96,1.22-1.48,1.81c-2.88,3.4-6.25,6.38-10,8.82c-1,0.65-2.02,1.27-3.07,1.84c-6.65,3.65-14.27,5.72-22.39,5.72
		c-9.54,0-18.4-2.87-25.79-7.78c-0.19-0.13-0.38-0.26-0.57-0.4c-1.7-1.15-3.32-2.42-4.84-3.81c-0.17-0.15-0.34-0.3-0.5-0.46
		c-1.05-0.96-2.05-1.98-3-3.04c-0.04-0.05-0.09-0.1-0.13-0.15c-7.33-8.23-11.79-19.08-11.79-30.98c0-25.75,20.88-46.63,46.62-46.63
		C610.356,273.83,631.236,294.71,631.236,320.46z"/>
</g>
<g>
	<path style="fill:#E56445;" d="M67.27,66.337c0,3.843,3.116,6.959,6.959,6.959s6.959-3.116,6.959-6.959
		c0-3.843-3.116-6.959-6.959-6.959S67.27,62.493,67.27,66.337z"/>
</g>
<g>
	<path style="fill:#E56445;" d="M61.72,75.59c0,3.168,2.568,5.736,5.736,5.736c3.168,0,5.736-2.568,5.736-5.736
		s-2.568-5.736-5.736-5.736C64.288,69.853,61.72,72.422,61.72,75.59z"/>
</g>
<g>
	<path style="fill:#E56445;" d="M60.444,85.851c0,3.168,2.568,5.736,5.736,5.736c3.168,0,5.736-2.568,5.736-5.736
		c0-3.168-2.568-5.736-5.736-5.736C63.013,80.115,60.444,82.683,60.444,85.851z"/>
</g>
<g>
	<path style="fill:#5F8457;" d="M476.956,357.63l-0.98,0.42l-3.03,1.27l-17.67,7.47c-2.07-0.22-4.11-0.59-6.09-1.08
		c-1.46-0.36-2.88-0.79-4.28-1.29c-0.23-0.08-0.47-0.16-0.7-0.25c-0.54-0.2-1.07-0.41-1.6-0.63c-1.39-0.57-2.74-1.2-4.05-1.91
		c-0.56-0.3-1.11-0.61-1.66-0.93c-0.14-0.08-0.28-0.16-0.42-0.25c-1.09-0.65-2.14-1.34-3.16-2.07c-0.62-0.44-1.23-0.9-1.82-1.37
		c-2.89-2.28-5.5-4.9-7.77-7.8c-0.32-0.41-0.64-0.83-0.95-1.26c5.84-9.05,17.11-23.49,30.57-25.3c1.92-0.26,3.69-0.14,5.32,0.29
		c3.97,1.04,7.11,3.91,9.58,7.58c0.39,0.56,0.75,1.13,1.09,1.73C475.436,342.64,476.956,357.63,476.956,357.63z"/>
</g>
<g>
	<path style="fill:#E56445;" d="M62.594,95.018c0,2.582,2.093,4.676,4.676,4.676c2.582,0,4.676-2.093,4.676-4.676
		c0-2.582-2.093-4.676-4.676-4.676C64.687,90.342,62.594,92.435,62.594,95.018z"/>
</g>
<g>
	<path style="fill:#7772D3;" d="M443.056,122.61c-5.1-1.94-9.76-4.76-13.82-8.27c-0.19-0.16-0.38-0.33-0.56-0.5
		c-1.18-1.04-2.29-2.14-3.35-3.3c-0.38-0.42-0.76-0.84-1.12-1.27c3.68-3.96,8.09-8.61,13.28-13.9c0.16-0.17,0.33-0.33,0.5-0.49
		c1.61-1.57,2.92-2.44,3.98-2.76C449.516,89.86,444.586,115.4,443.056,122.61z"/>
</g>
<g>
	<path style="fill:#7C6053;" d="M120.796,232.38c-0.1,0.11-0.21,0.22-0.31,0.32c-2.67,2.72-5.67,5.13-8.95,7.13
		c-0.16,0.1-0.33,0.2-0.49,0.3c-0.21,0.13-0.43,0.26-0.65,0.38c-6.83,3.95-14.77,6.2-23.23,6.2c-1.78,0-3.55-0.1-5.28-0.29
		c-0.24-0.02-0.47-0.05-0.7-0.08c-0.02-0.01-0.03-0.01-0.05-0.01c-2.21-0.29-4.37-0.73-6.47-1.32c-2.47-0.68-4.86-1.57-7.14-2.63
		c-0.35-0.16-0.7-0.33-1.05-0.5c-2.25-1.11-4.39-2.4-6.4-3.85c-2.02-1.44-3.92-3.04-5.68-4.79c3.38-9.35,12.03-26.78,30.17-29.62
		c0.04,0,0.08-0.01,0.12-0.02c1.21-0.18,2.47-0.3,3.77-0.35C108.916,202.5,117.586,221.77,120.796,232.38z"/>
</g>
<g>
	<path style="fill:#7772D3;" d="M491.436,113.2c-1.61,1.5-3.33,2.88-5.15,4.15c-2.72,1.89-5.65,3.5-8.75,4.79
		c-4.85,2.01-10.12,3.22-15.65,3.48c-0.72,0.03-1.45,0.05-2.18,0.05c-0.36,0-0.73,0-1.1-0.01c-5.47-0.13-10.71-1.19-15.55-3.05
		c-5.1-1.94-9.76-4.76-13.82-8.27c-0.19-0.16-0.38-0.33-0.56-0.5c1.51-5.99,4.22-13.82,8.81-18.47c0.16-0.17,0.33-0.33,0.5-0.49
		c1.2-1.1,2.55-2.02,3.98-2.76c8.56-4.42,20.06-2.93,20.06-2.93s2.82,0.04,6.79,1.2c0,0,0.03,0.01,0.08,0.02
		c0.05,0.02,0.12,0.04,0.2,0.07c3.91,1.14,8.87,3.38,13.36,7.66c0.59,0.56,1.17,1.16,1.74,1.79
		C487.336,103.42,489.696,108.27,491.436,113.2z"/>
</g>
<g>
	<g>
		<g>
			<g>
				<path style="fill:#F27E64;" d="M464.25,81.807l-0.303,8.958c0,0-1.894,2.554-7.769,2.911c-4.377,0.266-5.88-0.635-5.88-0.635
					l0.762-4.53l0.75-4.417l10.653-1.957L464.25,81.807z"/>
			</g>
		</g>
	</g>
</g>
<g>
	<g>
		<g>
			<g>
				<path d="M462.464,82.161c-0.031,0.273-0.143,0.594-0.313,0.961c-2.355,4.958-8.512,5.902-11.04,6.072l0.711-4.938
					L462.464,82.161z"/>
			</g>
		</g>
	</g>
</g>
<g>
	<g>
		<g>
			<g>
				<path style="fill:#F27E64;" d="M450.094,61.353c0,0-5.541,12.453-3.622,19.484c1.919,7.03,8.32,5.969,12.154,4.638
					c3.834-1.331,5.625-3.665,5.625-3.665s3.565,1.235,5.977-2.071c2.412-3.306,0.966-7.132-1.068-8.02
					c-2.034-0.888-4.47,0.569-4.47,0.569l1.926-3.617C466.616,68.67,458.74,50.17,450.094,61.353z"/>
			</g>
		</g>
	</g>
</g>
<g>
	<path d="M450.476,76.147c-0.214,0-0.411-0.138-0.478-0.352c-0.865-2.795,1.231-4.644,1.321-4.721
		c0.207-0.18,0.522-0.158,0.703,0.052c0.181,0.208,0.158,0.523-0.049,0.705c-0.069,0.061-1.689,1.51-1.021,3.669
		c0.082,0.264-0.065,0.544-0.33,0.625C450.574,76.14,450.525,76.147,450.476,76.147z"/>
</g>
<g>
	<path d="M465.221,78.247c-0.123,0-0.246-0.045-0.343-0.136c-0.201-0.189-0.21-0.506-0.021-0.707l3.393-3.595
		c0.188-0.2,0.505-0.21,0.706-0.021c0.201,0.189,0.21,0.506,0.021,0.707l-3.392,3.595C465.486,78.194,465.354,78.247,465.221,78.247
		z"/>
</g>
<g>
	<path d="M468.814,77.284c-0.025,0-0.051-0.002-0.076-0.006l-2.347-0.355c-0.272-0.041-0.461-0.296-0.419-0.569
		c0.041-0.274,0.298-0.461,0.569-0.419l2.347,0.355c0.272,0.041,0.461,0.296,0.419,0.569
		C469.27,77.106,469.057,77.284,468.814,77.284z"/>
</g>
<g>
	<path d="M456.11,73.563c-0.021,0-0.043-0.002-0.064-0.004c-0.273-0.035-0.468-0.286-0.433-0.56l0.411-3.22
		c0.035-0.274,0.288-0.465,0.56-0.433c0.273,0.035,0.468,0.286,0.433,0.56l-0.411,3.22C456.573,73.378,456.359,73.563,456.11,73.563
		z"/>
</g>
<g>
	<path d="M449.192,72.955c-0.024,0-0.049-0.002-0.074-0.005c-0.273-0.04-0.462-0.294-0.422-0.567l0.466-3.161
		c0.041-0.273,0.292-0.462,0.568-0.422c0.272,0.04,0.462,0.295,0.422,0.567l-0.466,3.161
		C449.649,72.776,449.435,72.955,449.192,72.955z"/>
</g>
<g>
	<path d="M458.392,68.209c-0.181,0-0.355-0.099-0.444-0.271c-0.529-1.029-1.971-0.743-2.035-0.729
		c-0.267,0.053-0.534-0.115-0.592-0.385c-0.058-0.269,0.113-0.535,0.383-0.593c0.092-0.021,2.251-0.464,3.133,1.249
		c0.127,0.246,0.03,0.547-0.216,0.674C458.547,68.191,458.469,68.209,458.392,68.209z"/>
</g>
<g>
	<path d="M451.646,66.771c-0.159,0-0.315-0.076-0.413-0.218c-0.196-0.288-0.424-0.445-0.692-0.479
		c-0.56-0.067-1.229,0.389-1.439,0.572c-0.208,0.182-0.523,0.161-0.705-0.046c-0.182-0.207-0.163-0.521,0.044-0.704
		c0.111-0.098,1.118-0.951,2.221-0.815c0.556,0.069,1.039,0.382,1.398,0.907c0.155,0.228,0.097,0.539-0.131,0.695
		C451.842,66.743,451.743,66.771,451.646,66.771z"/>
</g>
<g>
	<path d="M464.69,72.287c0,0-0.581,2.922-2.226,1.865c-1.645-1.057,2.226-6.443,2.226-6.443s-4.543,1.578-7.37-2.142
		c-2.827-3.72-1.511-6.064-1.511-6.064l-6.324,3.322c0,0-1.324-7.485,0.904-8.919c2.229-1.434,5.982,0,5.982,0
		s-0.23-3.222,6.093-2.445c6.323,0.777,6.15,7.339,6.15,7.339s4.157-0.185,5.563,3.54c1.406,3.725-1.172,6.601-1.172,6.601
		s2.948,0.665,1.591,3.23c-1.357,2.565-3.109,3.78-3.109,3.78S470.669,70.542,464.69,72.287z"/>
</g>
<g>
	<path style="fill:#FFB255;" d="M453.673,94.466c-1.531,0-3.165-0.207-4.86-0.725c-0.264-0.081-0.412-0.36-0.332-0.624
		c0.081-0.264,0.355-0.416,0.625-0.332c7.811,2.384,14.48-2.376,14.547-2.425c0.223-0.161,0.536-0.114,0.698,0.11
		c0.162,0.223,0.113,0.536-0.11,0.699C464.012,91.336,459.627,94.466,453.673,94.466z"/>
</g>
<g>
	<path style="fill:#7772D3;" d="M493.186,111.49c-0.57,0.59-1.15,1.16-1.75,1.71c-1.61,1.5-3.33,2.88-5.15,4.15
		c-2.72,1.89-5.65,3.5-8.75,4.79c-4.85,2.01-10.12,3.22-15.65,3.48l6.93-35.23c0,0,0.03,0.01,0.08,0.02
		c0.75,0.25,6.97,2.37,13.56,7.73c2.2,1.78,4.44,3.92,6.53,6.47C490.506,106.46,491.946,108.83,493.186,111.49z"/>
</g>
<g>
	<path d="M452.335,79.975c-0.314-0.009-0.531-0.24-0.523-0.516c0.008-0.275,0.234-0.497,0.513-0.485
		c0.075-0.002,1.748,0.023,3.105-1.554c0.181-0.208,0.496-0.231,0.705-0.053c0.209,0.18,0.233,0.496,0.053,0.705
		C454.614,79.9,452.645,79.975,452.335,79.975z"/>
</g>
<g>
	<g>
		<path style="fill:#FCB35B;" d="M118.126,113.89c-2.07,1.86-4.32,3.53-6.71,4.98c-0.82,0.5-1.65,0.98-2.5,1.43l-10.88-28.51
			c0.19,0.11,0.35,0.2,0.51,0.31c0.21,0.13,0.49,0.31,0.82,0.52c0.23,0.16,0.5,0.33,0.78,0.53c3.32,2.26,9.66,7.02,13.13,12.62
			C114.546,107.81,116.376,110.91,118.126,113.89z"/>
	</g>
</g>
<g>
	<g>
		<path style="fill:#FCB35B;" d="M111.416,118.87c-0.82,0.5-1.65,0.98-2.5,1.43c-6.49,3.43-13.9,5.37-21.75,5.37
			c-2.58,0-5.11-0.21-7.58-0.62c-1.77-0.28-3.5-0.67-5.2-1.15l-0.83-31.08c0,0,12.41-7.89,24.48-1.03c0.19,0.11,0.35,0.2,0.51,0.31
			c0.21,0.13,0.49,0.31,0.82,0.52c0.23,0.16,0.5,0.33,0.78,0.53c0.57,0.41,1.12,0.84,1.67,1.31
			C107.036,98.95,109.876,108.73,111.416,118.87z"/>
	</g>
</g>
<g>
	<g>
		<g>
			<g>
				<g>
					<path style="fill:#FCA397;" d="M81.482,80.364l-0.343,10.509c0,0,1.797,3.083,7.928,3.783c4.567,0.522,6.094-1.783,6.094-1.783
						l-0.809-9.232l-11.021-2.804L81.482,80.364z"/>
				</g>
			</g>
		</g>
	</g>
</g>
<g>
	<g>
		<g>
			<g>
				<g>
					<path d="M83.331,80.836c0.017,0.288,0.115,0.63,0.272,1.024c2.18,5.326,8.572,6.668,11.209,6.991l-0.46-5.211L83.331,80.836z"
						/>
				</g>
			</g>
		</g>
	</g>
</g>
<g>
	<g>
		<g>
			<g>
				<g>
					<path style="fill:#FCA397;" d="M97.477,59.763c0,0,5.086,13.356,2.672,20.605c-2.413,7.25-9.052,5.771-12.99,4.157
						c-3.938-1.614-5.679-4.16-5.679-4.16s-3.803,1.089-6.138-2.512c-2.335-3.6-0.602-7.522,1.579-8.335
						c2.181-0.813,4.647,0.852,4.647,0.852l-1.808-3.897C79.76,66.474,89.068,47.559,97.477,59.763z"/>
				</g>
			</g>
		</g>
	</g>
</g>
<g>
	<g>
		<path style="fill:#FCB35B;" d="M79.586,125.05c-1.77-0.28-3.5-0.67-5.2-1.15c-6.98-1.99-13.29-5.55-18.52-10.3
			c0.26-1.06,0.56-2.12,0.9-3.16c4.1-12.57,16.79-17.62,16.79-17.62l1.5,6.15c1.17,3.5,1.98,7.1,2.43,10.77L79.586,125.05z"/>
	</g>
</g>
<g>
	<path d="M99.024,65.689c-0.2,0-0.39-0.121-0.466-0.319c-0.061-0.158-0.14-0.204-0.209-0.228c-0.36-0.125-1.046,0.179-1.322,0.345
		c-0.236,0.141-0.543,0.065-0.686-0.17c-0.143-0.236-0.067-0.543,0.169-0.686c0.127-0.077,1.262-0.742,2.161-0.435
		c0.38,0.129,0.664,0.411,0.819,0.813c0.1,0.258-0.028,0.547-0.286,0.647C99.145,65.679,99.084,65.689,99.024,65.689z"/>
</g>
<g>
	<path d="M92.338,69.322c-0.123,0-0.247-0.045-0.343-0.136c-0.206-0.194-0.845-0.674-1.398-0.632
		c-0.236,0.023-0.437,0.154-0.614,0.401c-0.162,0.224-0.474,0.275-0.698,0.115c-0.224-0.161-0.276-0.474-0.115-0.698
		c0.347-0.483,0.808-0.765,1.335-0.814c1.084-0.104,2.07,0.799,2.178,0.902c0.2,0.19,0.207,0.505,0.018,0.705
		C92.602,69.269,92.47,69.322,92.338,69.322z"/>
</g>
<g>
	<path d="M97.064,69.256c-0.084,0-0.169-0.021-0.247-0.065c-0.24-0.137-0.324-0.442-0.188-0.682
		c0.376-0.663,1.488-1.721,3.003-0.976c0.247,0.122,0.35,0.421,0.228,0.669c-0.122,0.247-0.421,0.349-0.669,0.228
		c-1.039-0.511-1.628,0.461-1.692,0.573C97.407,69.165,97.238,69.256,97.064,69.256z"/>
</g>
<g>
	<path d="M96.188,75.61c-0.025,0-0.049-0.002-0.074-0.005c-0.273-0.041-0.461-0.295-0.421-0.568c0.354-2.378-0.885-5.4-0.897-5.43
		c-0.106-0.255,0.015-0.547,0.27-0.653c0.254-0.106,0.547,0.015,0.653,0.269c0.056,0.134,1.359,3.306,0.964,5.962
		C96.645,75.432,96.432,75.61,96.188,75.61z"/>
</g>
<g>
	<path d="M92.769,79.216c-0.046,0-0.092-0.006-0.139-0.02c-0.114-0.033-2.799-0.831-3.524-3.007
		c-0.087-0.262,0.054-0.546,0.316-0.632c0.264-0.089,0.545,0.054,0.632,0.316c0.558,1.674,2.831,2.356,2.854,2.363
		c0.265,0.077,0.417,0.354,0.34,0.62C93.185,79.074,92.986,79.216,92.769,79.216z"/>
</g>
<g>
	<path d="M80.871,76.028c-0.121,0-0.242-0.043-0.337-0.131l-4.028-3.687c-0.204-0.186-0.218-0.503-0.031-0.706
		c0.186-0.204,0.503-0.217,0.706-0.031l4.028,3.687c0.204,0.186,0.218,0.502,0.031,0.706C81.141,75.974,81.007,76.028,80.871,76.028
		z"/>
</g>
<g>
	<path d="M76.644,75.784c-0.194,0-0.38-0.114-0.46-0.305c-0.107-0.254,0.011-0.547,0.266-0.655l2.708-1.146
		c0.252-0.106,0.547,0.01,0.655,0.266c0.107,0.254-0.011,0.547-0.266,0.655l-2.708,1.146C76.776,75.771,76.71,75.784,76.644,75.784z
		"/>
</g>
<g>
	<path style="fill:#E56445;" d="M81.568,70.372c0,0,4.617-0.234,7.702-3.87c3.085-3.636,4.634-7.432,4.634-7.432
		s1.926,0.419,3.093,2.027c0.858,1.182,1.851,2.887,1.851,2.887s0.366-5.291-2.172-8.021s-4.869-1.941-4.869-1.941
		s-5.686-3.614-11.893,1.366c-6.207,4.98-3.884,14.664-3.884,14.664S79.102,69,81.568,70.372z"/>
</g>
<g>
	<path style="fill:#7772D3;" d="M89.775,95.217c-0.397,0-0.806-0.016-1.227-0.05c-5.115-0.418-8.752-3.355-8.904-3.48
		c-0.213-0.175-0.245-0.49-0.07-0.703c0.175-0.214,0.488-0.245,0.704-0.07c0.035,0.028,3.558,2.866,8.352,3.256
		c4.77,0.389,8.067-1.828,8.099-1.85c0.229-0.156,0.539-0.098,0.695,0.129c0.156,0.228,0.099,0.538-0.128,0.694
		C97.162,93.236,94.229,95.217,89.775,95.217z"/>
</g>
<g>
	<path style="fill:#ADA9C4;" d="M204.715,183.217c0,0-13.258-4.609-14.926,9.064c-1.669,13.673,19.207,19.331,22.278,7.408
		C215.138,187.765,204.715,183.217,204.715,183.217z"/>
</g>
<g>
	<path style="fill:#7C6053;" d="M600.667,225.52l-32.99,18.28c-2.55-0.94-4.99-2.1-7.31-3.47c-5.09-2.97-9.56-6.88-13.17-11.49
		c3.46-7.34,11.67-20.09,28.19-24.12c3.34-0.81,6.29-0.73,8.87-0.02C596.596,208.07,600.667,225.52,600.667,225.52z"/>
</g>
<g>
	<path d="M448.697,301.707c0,0-3.563-10.339-0.485-14.888c2.746-4.059,16.244-1.906,21.041,1.209
		c4.797,3.115,4.956,7.204,4.956,7.204s2.35,0.622,2.896,2.643c0.546,2.021-1.203,5.346-1.203,5.346s-2.382-3.023-5.79-1.096
		C466.704,304.052,448.697,301.707,448.697,301.707z"/>
</g>
<g>
	<g>
		<path style="fill:#FFFFFF;" d="M477.466,363.86c-0.62,0.24-1.25,0.47-1.88,0.69c-0.57,0.2-1.14,0.39-1.71,0.56
			c-0.59,0.18-1.18,0.34-1.77,0.49c-3.73,0.97-7.65,1.48-11.68,1.48c-1.74,0-3.46-0.1-5.15-0.29c-2.07-0.22-4.11-0.59-6.09-1.08
			c-1.46-0.36-2.88-0.79-4.28-1.29c-0.23-0.08-0.47-0.16-0.7-0.25c-0.54-0.2-1.07-0.41-1.6-0.63c-1.39-0.57-2.74-1.2-4.05-1.91
			c0.59-5.46,1.12-9.14,1.12-9.14l13.67-29.84l5.32,0.29c0.01,0,8.39,0.45,8.39,0.45c0.01,0.03,0.02,0.06,0.02,0.09
			c0.01,0.03,2.26,8.77,2.26,8.77l6.64,25.8L477.466,363.86z"/>
	</g>
</g>
<g>
	<g>
		<g>
			<g>
				<g>
					<path style="fill:#FCA397;" d="M466.824,317.83l0.328,7.871c0,0-2.877,2.632-6.674,2.824c-5.127,0.26-7.068-3.618-7.068-3.618
						l-0.272-9.232L466.824,317.83z"/>
				</g>
			</g>
		</g>
	</g>
</g>
<g>
	<g>
		<g>
			<g>
				<g>
					<path d="M466.824,317.819c0,0-1.395,7.063-7.247,6.389c-4.718-0.544-6.391-7.691-6.391-7.691L466.824,317.819z"/>
				</g>
			</g>
		</g>
	</g>
</g>
<g>
	<g>
		<g>
			<g>
				<g>
					<path style="fill:#FCA397;" d="M450.168,295.931c0,0-2.244,14.178,2.563,20.767c4.806,6.589,10.692,4.41,13.291,2.268
						c3.506-2.888,4.114-6.752,4.114-6.752s4.98,0.819,6.494-3.271c1.59-4.296-1.605-7.612-4.087-7.73
						c-2.481-0.119-2.754,0.342-2.754,0.342l0.574-4.55C470.362,297.005,454.758,280.792,450.168,295.931z"/>
				</g>
			</g>
		</g>
	</g>
</g>
<g>
	<g>
		<g>
			<g>
				<g>
					<path style="fill:#FCA397;" d="M452.773,302.453c0,0-7.606-2.949-7.994,2.877c-0.45,6.75,7.591,6.541,7.591,6.541
						L452.773,302.453z"/>
				</g>
			</g>
		</g>
	</g>
</g>
<g>
	<g>
		<path d="M471.012,301.961c0,0-2.577,1.178-8.233-2.67c-5.655-3.849-4.214-8.671-4.214-8.671s-7.389,4.979-8.883,10.945
			c-1.494,5.965-2.9-13.808,5.68-13.711C463.942,287.952,476.949,293.102,471.012,301.961z"/>
	</g>
</g>
<g>
	<g>
		<path style="fill:#5F8457;" d="M453.346,322.65c0,0-4.91,14.12-8.42,41.59c-0.01,0.06-0.02,0.12-0.02,0.18
			c-0.23-0.08-0.47-0.16-0.7-0.25c-0.54-0.2-1.07-0.41-1.6-0.63c-1.39-0.57-2.74-1.2-4.05-1.91c-0.56-0.3-1.11-0.61-1.66-0.93
			c-0.14-0.08-0.28-0.16-0.42-0.25c-1.09-0.65-2.14-1.34-3.16-2.07c0.25-3.57,0.41-5.79,0.41-5.79L453.346,322.65z"/>
	</g>
</g>
<g>
	<g>
		<path style="fill:#5F8457;" d="M501.746,342.07c-0.03,0.07-0.06,0.13-0.1,0.2c-0.19,0.36-0.38,0.71-0.59,1.06
			c-5.23,9.29-13.56,16.6-23.59,20.53c-0.62,0.24-1.25,0.47-1.88,0.69c-0.57,0.2-1.14,0.39-1.71,0.56
			c-0.28-1.77-0.59-3.72-0.93-5.79c-1.39-8.59-3.13-19.33-4.7-28.8c-0.4-2.44-0.79-4.8-1.16-7.01c-0.01-0.06-0.02-0.09-0.03-0.12
			c-0.04-0.3-0.09-0.59-0.14-0.88c0,0,19.29-1.52,34.16,18.62C501.306,341.44,501.526,341.75,501.746,342.07z"/>
	</g>
</g>
<g>
	<path d="M470.837,308.805c-0.115,0-0.23-0.039-0.324-0.119c-0.21-0.18-0.235-0.495-0.057-0.705l3.235-3.795
		c0.181-0.21,0.496-0.234,0.705-0.057c0.21,0.18,0.235,0.495,0.057,0.705l-3.235,3.795
		C471.118,308.745,470.979,308.805,470.837,308.805z"/>
</g>
<g>
	<path d="M474.407,307.651c-0.018,0-0.034-0.001-0.051-0.003l-2.383-0.239c-0.275-0.027-0.476-0.273-0.447-0.547
		c0.027-0.276,0.293-0.478,0.547-0.447l2.383,0.239c0.275,0.027,0.476,0.272,0.447,0.547
		C474.878,307.459,474.66,307.651,474.407,307.651z"/>
</g>
<g>
	<path d="M463.209,304.157c-0.273,0-0.497-0.22-0.5-0.494l-0.028-2.366c-0.003-0.276,0.218-0.503,0.494-0.506
		c0.279,0,0.503,0.22,0.506,0.494l0.028,2.366c0.003,0.276-0.218,0.503-0.494,0.506
		C463.213,304.157,463.211,304.157,463.209,304.157z"/>
</g>
<g>
	<path d="M454.4,304.601c-0.281-0.003-0.503-0.229-0.5-0.506l0.026-2.366c0.003-0.274,0.227-0.494,0.5-0.494
		c0.281,0.003,0.503,0.229,0.5,0.506l-0.026,2.366C454.897,304.381,454.673,304.601,454.4,304.601z"/>
</g>
<g>
	<path d="M449.283,308.56c-0.155,0-0.308-0.072-0.405-0.208l-2.761-3.828c-0.162-0.224-0.111-0.536,0.113-0.697
		c0.222-0.164,0.535-0.111,0.697,0.113l2.761,3.828c0.162,0.224,0.111,0.536-0.113,0.697
		C449.487,308.529,449.385,308.56,449.283,308.56z"/>
</g>
<g>
	<path d="M446.119,307.512c-0.246,0-0.461-0.183-0.494-0.434c-0.037-0.273,0.154-0.525,0.429-0.561l2.194-0.296
		c0.267-0.049,0.525,0.154,0.561,0.429c0.037,0.273-0.154,0.525-0.429,0.561l-2.194,0.296
		C446.164,307.511,446.142,307.512,446.119,307.512z"/>
</g>
<g>
	<path d="M458.902,311.363c-0.156,0-0.31-0.073-0.408-0.211c-2-2.819-0.428-6.49-0.36-6.646c0.11-0.252,0.403-0.368,0.658-0.257
		c0.253,0.11,0.368,0.405,0.258,0.658c-0.014,0.032-1.409,3.313,0.261,5.666c0.159,0.225,0.106,0.537-0.119,0.697
		C459.104,311.333,459.003,311.363,458.902,311.363z"/>
</g>
<g>
	<path d="M462.224,314.266c-0.791,0-1.521-0.428-1.63-0.494c-0.142-0.087-0.231-0.238-0.238-0.404
		c-0.008-0.166,0.067-0.324,0.2-0.424l2.74-2.04c0.148-0.11,0.346-0.13,0.512-0.051c0.167,0.078,0.277,0.242,0.286,0.427
		c0.071,1.403-0.252,2.329-0.961,2.75C462.843,314.202,462.529,314.266,462.224,314.266z M461.863,313.218
		c0.27,0.064,0.554,0.076,0.76-0.049c0.214-0.128,0.359-0.416,0.431-0.838L461.863,313.218z"/>
</g>
<g>
	<path d="M452.993,299.913c-0.178,0-0.35-0.095-0.44-0.263c-0.131-0.243-0.04-0.546,0.203-0.678l2.019-1.09
		c0.24-0.129,0.545-0.041,0.678,0.203c0.131,0.243,0.04,0.546-0.203,0.678l-2.019,1.09
		C453.155,299.894,453.074,299.913,452.993,299.913z"/>
</g>
<g>
	<path d="M463.991,299.703c-0.061,0-0.122-0.011-0.182-0.034l-3.021-1.181c-0.258-0.101-0.385-0.391-0.284-0.648
		c0.101-0.259,0.39-0.386,0.647-0.284l3.022,1.181c0.258,0.101,0.385,0.391,0.284,0.647
		C464.38,299.583,464.192,299.703,463.991,299.703z"/>
</g>
<g>
	<path style="fill:#E56445;" d="M460.266,329.334c-0.345,0-0.688-0.024-1.03-0.069c-3.919-0.536-6.152-3.941-6.245-4.086
		c-0.149-0.231-0.083-0.541,0.148-0.69c0.23-0.147,0.54-0.083,0.691,0.148c0.021,0.032,2.09,3.17,5.55,3.638
		c2.373,0.327,4.881-0.67,7.44-2.947c0.204-0.182,0.521-0.165,0.706,0.042c0.183,0.206,0.165,0.522-0.042,0.706
		C465.05,328.241,462.626,329.334,460.266,329.334z"/>
</g>
<g>
	<path d="M447.366,190.149c0,0-10.841,8.176-11.647,18.106c-1.221,15.029,15.874,8.454,17.753-1.127
		S447.366,190.149,447.366,190.149z"/>
</g>
<g>
	<path style="fill:#FCB35B;" d="M489.796,235.69c-4.43,3.75-9.57,6.69-15.19,8.59c-4.68,1.57-9.69,2.43-14.9,2.43
		c-13.81,0-26.23-6.01-34.76-15.55c-0.51-0.56-1-1.14-1.48-1.73l29.51-21.38c0.02-0.01,1.14-0.83,1.14-0.83l11.59,0.94l4.81,0.39
		L489.796,235.69z"/>
</g>
<g>
	<path d="M446.393,189.126c0,0-3.912-4.323-2.785-11.022c0.764-4.542,2.785-6.011,2.785-6.011s-3.078-6.199,6.086-5.824
		c9.164,0.376,14.556,4.875,14.556,4.875s4.189-2.057,6.067,2.827s0,12.09,0,12.09L446.393,189.126z"/>
</g>
<g>
	<path style="fill:#FCB35B;" d="M454.116,207.97l-29.17,23.19c-0.51-0.56-1-1.14-1.48-1.73c-1.38-1.7-2.64-3.5-3.77-5.38
		c0.9-0.81,1.84-1.62,2.81-2.43c13.37-11.15,26.59-13.2,30.47-13.57C453.726,207.98,454.116,207.97,454.116,207.97z"/>
</g>
<g>
	<g>
		<g>
			<g>
				<path style="fill:#F27E64;" d="M466.511,196.677l-0.225,11.955c0,0-2.083,3.372-8.641,3.733c-4.885,0.268-6.38-2.456-6.38-2.456
					l1.378-10.424l11.875-2.402L466.511,196.677z"/>
			</g>
		</g>
	</g>
</g>
<g>
	<path style="fill:#FCB35B;" d="M500.246,223.12c-2.72,4.78-6.27,9.04-10.45,12.57c-4.43,3.75-9.57,6.69-15.19,8.59l7.54-9.19
		l-16.44-26.93l-0.12-0.19c0,0,1.89,0.07,4.93,0.58C477.436,209.7,490.296,213.11,500.246,223.12z"/>
</g>
<g>
	<g>
		<g>
			<g>
				<path d="M466.511,195.994c-0.036,0.305-0.161,0.662-0.352,1.071c-2.643,5.525-11.51,7.63-14.332,7.811l0.809-5.508
					L466.511,195.994z"/>
			</g>
		</g>
	</g>
</g>
<g>
	<g>
		<g>
			<g>
				<path style="fill:#F27E64;" d="M450.781,173.807c0,0-6.223,13.878-4.104,21.729c2.119,7.851,9.264,6.687,13.547,5.214
					c4.283-1.473,6.289-4.071,6.289-4.071s3.974,1.39,6.676-2.292c2.702-3.682,1.101-7.955-1.166-8.953
					c-2.267-0.997-4.99,0.62-4.99,0.62l2.161-4.03C469.193,182.025,460.464,161.356,450.781,173.807z"/>
			</g>
		</g>
	</g>
</g>
<g>
	<g>
		<g>
			<g>
				<path d="M467.033,186.055c0,0-5.993,1.21-10.157-5.46c-4.164-6.67-3.781-9.408-3.781-9.408l-4.148,6.885
					c0,0-0.927-4.774,0.982-7.818c1.909-3.043,3.892-2.413,3.892-2.413l13.215,3.302l3.48,10.592L467.033,186.055z"/>
			</g>
		</g>
	</g>
</g>
<g>
	<path d="M451.256,191.578c-0.214,0-0.412-0.138-0.479-0.354c-0.921-3.009,1.202-6.056,1.293-6.184
		c0.16-0.225,0.471-0.278,0.696-0.119c0.226,0.159,0.279,0.471,0.12,0.697c-0.02,0.027-1.929,2.779-1.152,5.313
		c0.08,0.264-0.068,0.543-0.332,0.624C451.354,191.571,451.304,191.578,451.256,191.578z"/>
</g>
<g>
	<path d="M467.608,192.649c-0.124,0-0.247-0.045-0.344-0.137c-0.201-0.19-0.209-0.507-0.018-0.707l3.798-4.001
		c0.189-0.2,0.507-0.207,0.706-0.019c0.201,0.191,0.209,0.507,0.019,0.707l-3.798,4.001
		C467.872,192.597,467.739,192.649,467.608,192.649z"/>
</g>
<g>
	<path d="M471.619,191.586c-0.025,0-0.052-0.002-0.077-0.006l-2.617-0.404c-0.273-0.042-0.46-0.297-0.418-0.57
		c0.042-0.273,0.302-0.457,0.57-0.418l2.617,0.404c0.273,0.042,0.46,0.297,0.418,0.57
		C472.074,191.409,471.861,191.586,471.619,191.586z"/>
</g>
<g>
	<path d="M456.275,195.565c-1.317,0-2.815-0.891-3.031-1.024c-0.152-0.094-0.243-0.264-0.237-0.443
		c0.007-0.18,0.109-0.342,0.269-0.426l4.22-2.203c0.13-0.069,0.286-0.076,0.426-0.018c0.137,0.058,0.241,0.174,0.284,0.317
		c0.029,0.096,0.689,2.355-0.714,3.43C457.143,195.464,456.719,195.565,456.275,195.565z M454.588,194.114
		c0.808,0.358,1.822,0.649,2.295,0.289c0.518-0.397,0.54-1.184,0.477-1.737L454.588,194.114z"/>
</g>
<g>
	<path d="M448.572,180.164c-0.238,0-0.449-0.171-0.491-0.414c-0.048-0.272,0.135-0.531,0.406-0.579l2.475-0.431
		c0.267-0.044,0.53,0.134,0.578,0.407c0.048,0.272-0.135,0.531-0.406,0.579l-2.475,0.431
		C448.629,180.161,448.601,180.164,448.572,180.164z"/>
</g>
<g>
	<path d="M458.86,181.789c-0.076,0-0.153-0.017-0.226-0.054l-4.06-2.056c-0.247-0.125-0.346-0.426-0.221-0.672
		c0.125-0.247,0.428-0.344,0.672-0.22l4.06,2.056c0.247,0.125,0.346,0.426,0.221,0.672
		C459.219,181.689,459.042,181.789,458.86,181.789z"/>
</g>
<g>
	<path d="M474.604,190.149c0,0,8.643,7.492,7.422,19.703c-1.221,12.211-13.33,10.643-15.873,6.187
		c-3.853-6.751,0.359-19.36,0.359-19.36S473.938,197.923,474.604,190.149z"/>
</g>
<g>
	<path d="M448.572,185.884c-0.049,0-0.098-0.007-0.146-0.022c-0.265-0.081-0.412-0.361-0.331-0.625l0.693-2.26l-0.603-0.738
		c-0.175-0.214-0.144-0.529,0.07-0.704c0.213-0.174,0.528-0.144,0.703,0.071l0.772,0.945c0.106,0.129,0.141,0.303,0.091,0.463
		l-0.772,2.516C448.984,185.746,448.786,185.884,448.572,185.884z"/>
</g>
<g>
	<path d="M456.147,186.561c-0.049,0-0.098-0.007-0.147-0.022c-0.265-0.081-0.412-0.361-0.331-0.625l0.691-2.253l-0.889-1.037
		c-0.18-0.209-0.155-0.525,0.055-0.705c0.209-0.178,0.526-0.155,0.705,0.055l1.067,1.246c0.111,0.13,0.148,0.308,0.098,0.472
		l-0.773,2.516C456.559,186.422,456.36,186.561,456.147,186.561z"/>
</g>
<g>
	<path style="fill:#FFFFFF;" d="M457.679,212.847c-4.256,0-6.777-2.321-6.814-2.355c-0.2-0.189-0.209-0.505-0.02-0.706
		c0.189-0.199,0.505-0.209,0.706-0.021c0.2,0.189,4.977,4.534,12.733,0.182c0.242-0.138,0.547-0.05,0.681,0.19
		c0.136,0.241,0.05,0.546-0.19,0.681C462.076,212.331,459.685,212.847,457.679,212.847z"/>
</g>
<g>
	<path style="fill:#E56445;" d="M356.423,88.84c0,0-0.852-46.094-17.156-47.756c-16.304-1.662-18.236,9.795-18.236,9.795
		s-4.064,1.448-4.887,7.645c-0.823,6.197-1.208,30.92-1.208,30.92l36.816,2.107L356.423,88.84z"/>
</g>
<g>
	<path style="fill:#7C6053;" d="M373.416,105.76c-0.58,0.97-1.19,1.92-1.84,2.85c-0.13,0.17-0.26,0.33-0.4,0.49
		c-0.86,1.02-1.77,2.01-2.71,2.95c-1.52,1.52-3.15,2.94-4.88,4.23c-0.84,0.64-1.71,1.25-2.6,1.83c-0.1,0.07-0.2,0.13-0.31,0.19
		c-1.26,0.82-2.57,1.58-3.92,2.26c-0.31,0.16-0.62,0.32-0.94,0.47c-1.45,0.7-2.94,1.33-4.46,1.88c-2.02,0.73-4.1,1.33-6.24,1.77
		c-3.1,0.65-6.3,0.99-9.59,0.99c-0.65,0-1.31-0.01-1.96-0.04c-0.75-0.03-1.49-0.08-2.23-0.15c-0.05,0-0.09-0.01-0.14-0.01
		c-1.39-0.13-2.77-0.32-4.12-0.58c-0.78-0.14-1.55-0.3-2.31-0.48c-2.22-0.52-4.37-1.2-6.45-2.04c-1.81-0.71-3.56-1.54-5.26-2.48
		c-0.04-0.02-0.07-0.04-0.11-0.06c-0.2-0.11-0.4-0.22-0.59-0.34c-0.61-0.34-1.22-0.7-1.81-1.08c-3.12-12.32-4.37-23.49-0.51-28.02
		c0.19-0.25,0.42-0.48,0.66-0.69c0.91-0.78,1.88-1.49,2.89-2.16c0.04-0.02,0.07-0.04,0.1-0.06c1.68-1.09,3.49-2.03,5.39-2.83
		c0.02-0.02,0.05-0.03,0.06-0.03c12.24-5.1,28.02-4.25,36.62-0.66C361.286,86.27,368.096,96.42,373.416,105.76z"/>
</g>
<g>
	<g>
		<g>
			<g>
				<path style="fill:#FCA397;" d="M327.982,72.327l0,11.321c0,0,2.042,3.255,8.665,3.793c4.934,0.401,6.496-2.132,6.496-2.132
					l-1.194-9.907l-11.959-2.631L327.982,72.327z"/>
			</g>
		</g>
	</g>
</g>
<g>
	<g>
		<g>
			<g>
				<path d="M327.999,71.637c0.029,0.309,0.146,0.674,0.329,1.092c2.533,5.655,11.448,8.009,14.297,8.264l-0.678-5.592
					L327.999,71.637z"/>
			</g>
		</g>
	</g>
</g>
<g>
	<g>
		<path style="fill:#FFFFFF;" d="M363.956,111.75l-0.52,4.64c-0.36,0.28-0.73,0.54-1.1,0.8l0.63-5.55
			c0.78-6.98-2.69-15.63-2.73-15.72c-0.1-0.26,0.02-0.55,0.28-0.65c0.26-0.11,0.54,0.02,0.65,0.27
			C361.306,95.91,364.766,104.52,363.956,111.75z"/>
	</g>
</g>
<g>
	<g>
		<g>
			<g>
				<path style="fill:#FCA397;" d="M344.473,49.597c0,0,5.941,14.195,3.598,22.081c-2.343,7.886-9.54,6.528-13.834,4.929
					c-4.294-1.598-6.257-4.278-6.257-4.278s-4.055,1.305-6.694-2.488c-2.639-3.793-0.911-8.074,1.407-9.025
					c2.318-0.951,5.031,0.754,5.031,0.754l-2.083-4.131C325.642,57.44,334.996,36.758,344.473,49.597z"/>
			</g>
		</g>
	</g>
</g>
<g>
	<path d="M343.554,67.552c-0.053,0-0.105-0.008-0.158-0.026c-0.262-0.087-0.403-0.371-0.316-0.632
		c0.851-2.546-1.013-5.38-1.031-5.409c-0.153-0.229-0.092-0.54,0.137-0.693c0.229-0.155,0.539-0.093,0.693,0.136
		c0.089,0.132,2.157,3.265,1.15,6.282C343.958,67.42,343.763,67.552,343.554,67.552z"/>
</g>
<g>
	<path d="M326.988,68.22c-0.137,0-0.272-0.056-0.371-0.165l-3.739-4.143c-0.185-0.205-0.169-0.521,0.036-0.706
		c0.205-0.186,0.522-0.169,0.706,0.036l3.739,4.143c0.186,0.205,0.169,0.521-0.036,0.706
		C327.228,68.178,327.108,68.22,326.988,68.22z"/>
</g>
<g>
	<path d="M322.958,67.043c-0.247,0-0.463-0.184-0.495-0.436c-0.035-0.274,0.158-0.524,0.433-0.56l2.657-0.342
		c0.266-0.033,0.524,0.158,0.56,0.432c0.035,0.274-0.158,0.524-0.433,0.56l-2.657,0.342
		C323.001,67.041,322.98,67.043,322.958,67.043z"/>
</g>
<g>
	<path d="M346.559,56.076c-0.033,0-0.065-0.003-0.099-0.01l-2.492-0.498c-0.271-0.054-0.446-0.317-0.393-0.588
		c0.055-0.272,0.321-0.446,0.588-0.392l2.492,0.498c0.271,0.054,0.446,0.317,0.393,0.588C347,55.912,346.792,56.076,346.559,56.076z
		"/>
</g>
<g>
	<path d="M336.111,57.458c-0.186,0-0.366-0.105-0.451-0.286c-0.119-0.249-0.013-0.547,0.236-0.666l3.339-1.586
		c0.248-0.117,0.548-0.013,0.666,0.237c0.119,0.249,0.013,0.547-0.236,0.666l-3.339,1.586
		C336.257,57.442,336.184,57.458,336.111,57.458z"/>
</g>
<g>
	<path d="M345.412,61.862c-0.219,0-0.42-0.145-0.482-0.365l-0.717-2.565c-0.045-0.161-0.007-0.334,0.103-0.46l0.805-0.937
		c0.181-0.208,0.495-0.233,0.705-0.054c0.209,0.18,0.233,0.496,0.053,0.705l-0.63,0.734l0.645,2.307
		c0.074,0.266-0.081,0.542-0.347,0.616C345.502,61.856,345.456,61.862,345.412,61.862z"/>
</g>
<g>
	<path d="M337.275,62.367c-0.219,0-0.42-0.145-0.482-0.365l-0.718-2.564c-0.046-0.165-0.005-0.342,0.11-0.47l1.111-1.233
		c0.185-0.205,0.501-0.221,0.706-0.037c0.205,0.185,0.222,0.501,0.036,0.707l-0.927,1.028l0.644,2.299
		c0.074,0.266-0.081,0.542-0.347,0.616C337.364,62.361,337.318,62.367,337.275,62.367z"/>
</g>
<g>
	<path style="fill:#E56445;" d="M348.542,54.639c0,0-3.911-0.781-6.655-0.678c-2.743,0.103-2.743,0.103-2.743,0.103l-1.113-4.412
		l0.014,4.813c0,0-1.937,0.332-3.854,1.335c-1.917,1.003-3.189,2.238-3.189,2.238l-1.819-3.712l0.766,4.673l-2.223,2.573
		l-3.355-3.142l2.148-6.513c0,0,5.063-7.069,5.454-7.153c0.391-0.084,7.691-0.487,7.691-0.487s6.281,2.455,6.433,2.662
		C346.248,47.145,348.542,54.639,348.542,54.639z"/>
</g>
<g>
	<path style="fill:#FFFFFF;" d="M337.526,87.59c-2.876,0-6.458-0.776-10.301-3.433c-0.228-0.157-0.284-0.468-0.127-0.695
		c0.156-0.229,0.468-0.283,0.695-0.127c8.658,5.984,15.625,2.028,15.916,1.856c0.239-0.142,0.544-0.061,0.685,0.177
		c0.14,0.238,0.061,0.543-0.176,0.684C344.174,86.079,341.537,87.59,337.526,87.59z"/>
</g>
<g>
	<path style="fill:#7C6053;" d="M331.196,125.47c-1.39-0.13-2.77-0.32-4.12-0.58c-0.78-0.14-1.55-0.3-2.31-0.48
		c-2.22-0.52-4.37-1.2-6.45-2.04c-1.81-0.71-3.56-1.54-5.26-2.48c-0.04-0.02-0.07-0.04-0.11-0.06c-0.2-0.11-0.4-0.22-0.59-0.34
		c-0.61-0.34-1.22-0.7-1.81-1.08c-0.55-0.34-1.08-0.7-1.61-1.07c-0.95-0.65-1.88-1.35-2.78-2.09c-0.11-0.08-0.21-0.16-0.32-0.25
		c-1.27-1.06-2.49-2.18-3.65-3.36c-0.33-0.33-0.65-0.67-0.96-1.01c-0.74-0.79-1.45-1.62-2.11-2.46c-0.15-0.18-0.29-0.35-0.43-0.53
		c-0.02-0.02-0.03-0.04-0.04-0.06c3.29-8.3,7.59-13.72,11.39-17.19c1.26-1.16,2.46-2.09,3.55-2.85c0.04-0.02,0.07-0.04,0.1-0.06
		c2.84-1.95,4.95-2.7,5.39-2.83c0.02-0.02,0.05-0.03,0.06-0.03C319.156,84.62,331.196,125.47,331.196,125.47z"/>
</g>
<g>
	<path style="fill:#E56445;" d="M204.974,295.492c0,0-8.977-6.084-19.596-0.188c-10.619,5.897-7.289,16.837-7.289,16.837
		s-8.326,10.439-4.435,20.809c3.891,10.37,21.189,13.32,28.871,1.624c7.682-11.696-4.515-22.123-4.515-22.123
		S207.905,312.397,204.974,295.492z"/>
</g>
<g>
	<path style="fill:#FCA397;" d="M248.166,349.97c-1.2,1.47-2.49,2.86-3.86,4.17c-2.73,2.62-5.77,4.9-9.08,6.79
		c0.09-13.64,5.44-22.81,5.44-22.81C241.036,338.8,243.816,343.82,248.166,349.97z"/>
</g>
<g>
	<path style="fill:#E56445;" d="M229.664,304.704c0,0,3.835-11.861,3.311-14.861c-0.524-3-13.106-6.872-23.104-2.211
		c-9.998,4.661-10.67,17.806-8.416,23.243c5.805,14.001,17.869,7.557,17.869,7.557S238.549,312.573,229.664,304.704z"/>
</g>
<g>
	<path style="fill:#507849;" d="M244.306,354.14c-2.73,2.62-5.77,4.9-9.08,6.79c-6.82,3.91-14.72,6.15-23.15,6.15
		c-2.8,0-5.54-0.25-8.2-0.72c-2.11-0.37-4.17-0.89-6.17-1.55c0.51-9.89,1.18-20.09,2.01-26.95c0.53-4.39,1.13-7.41,1.8-8.12
		c0.6-0.64,1.8-1.24,3.46-1.74c2.57-0.77,6.17-1.29,10.16-1.32c4.11-0.05,8.61,0.43,12.79,1.67c3.79,1.14,7.32,2.9,10.02,5.5
		c1.04,1,1.95,2.45,2.72,4.27C242.416,342.15,243.556,347.83,244.306,354.14z"/>
</g>
<g>
	<g>
		<g>
			<g>
				<path style="fill:#FCA397;" d="M227.917,320.216l0.01,0.294l-0.007,5.549l0.012,4.35c0,0,0.396,0.995-4.441,0.87
					c-6.483-0.194-8.686-3.017-8.686-3.017l-0.696-10.169l1.976,0.309L227.917,320.216z"/>
			</g>
		</g>
	</g>
</g>
<g>
	<g>
		<g>
			<g>
				<path d="M227.937,320.808l-0.015,5.123c-3.055-0.243-8.642-1.328-11.075-6.016c-0.188-0.382-0.316-0.726-0.365-1.016
					l11.434,1.832L227.937,320.808z"/>
			</g>
		</g>
	</g>
</g>
<g>
	<g>
		<g>
			<g>
				<path style="fill:#FCA397;" d="M228.901,296.254c0,0,6.371,13.071,4.587,20.638c-1.785,7.567-8.648,6.673-12.785,5.397
					c-4.137-1.276-6.134-3.698-6.134-3.698s-3.755,1.45-6.45-1.986s-1.296-7.568,0.84-8.591s4.787,0.44,4.787,0.44l-2.188-3.785
					C211.558,304.67,219.267,284.652,228.901,296.254z"/>
			</g>
		</g>
	</g>
</g>
<g>
	<path d="M228.977,313.272c-0.043,0-0.087-0.006-0.131-0.018c-0.267-0.072-0.424-0.347-0.352-0.613
		c0.661-2.435-1.242-4.998-1.261-5.023c-0.166-0.221-0.123-0.534,0.098-0.7c0.219-0.167,0.533-0.125,0.7,0.097
		c0.091,0.12,2.22,2.976,1.429,5.889C229.398,313.125,229.196,313.272,228.977,313.272z"/>
</g>
<g>
	<path d="M213.383,314.796c-0.127,0-0.254-0.048-0.352-0.145l-3.751-3.707c-0.196-0.194-0.198-0.511-0.004-0.707
		c0.194-0.195,0.51-0.199,0.707-0.004l3.751,3.707c0.196,0.194,0.198,0.511,0.004,0.707
		C213.641,314.746,213.512,314.796,213.383,314.796z"/>
</g>
<g>
	<path d="M209.518,313.902c-0.236,0-0.446-0.168-0.491-0.408c-0.051-0.271,0.128-0.532,0.399-0.583l2.489-0.467
		c0.274-0.049,0.533,0.129,0.583,0.4c0.051,0.271-0.127,0.532-0.399,0.583l-2.489,0.467
		C209.579,313.899,209.548,313.902,209.518,313.902z"/>
</g>
<g>
	<path d="M224.837,317.515c-0.338,0-0.693-0.067-1.056-0.232c-1.768-0.809-2.409-2.692-2.435-2.771
		c-0.059-0.177-0.014-0.371,0.115-0.505c0.129-0.134,0.321-0.185,0.5-0.132l5.267,1.548c0.165,0.049,0.294,0.179,0.34,0.345
		c0.046,0.166,0.004,0.345-0.112,0.472C227.398,316.302,226.272,317.515,224.837,317.515z M222.809,315.165
		c0.305,0.438,0.758,0.92,1.387,1.207c0.676,0.311,1.359,0.049,1.843-0.258L222.809,315.165z"/>
</g>
<g>
	<path d="M220.291,303.839c-0.071,0-0.144-0.016-0.212-0.048c-0.25-0.117-0.357-0.415-0.239-0.665
		c0.865-1.838,3.161-1.446,3.257-1.431c0.271,0.049,0.451,0.308,0.403,0.579c-0.048,0.27-0.31,0.451-0.579,0.405
		c-0.066-0.013-1.641-0.269-2.178,0.872C220.658,303.732,220.479,303.839,220.291,303.839z"/>
</g>
<g>
	<path d="M227.43,302.055c-0.092,0-0.184-0.025-0.268-0.078c-0.233-0.147-0.302-0.456-0.154-0.689
		c0.358-0.564,0.854-0.912,1.435-1.004c1.176-0.193,2.323,0.738,2.371,0.778c0.213,0.175,0.243,0.489,0.068,0.702
		c-0.175,0.213-0.49,0.245-0.703,0.07c-0.233-0.19-0.962-0.657-1.581-0.564c-0.296,0.048-0.539,0.228-0.744,0.552
		C227.757,301.973,227.595,302.055,227.43,302.055z"/>
</g>
<g>
	<path d="M230.114,307.666c-0.237,0-0.447-0.169-0.491-0.41l-0.451-2.462c-0.025-0.137,0.008-0.278,0.092-0.391l0.903-1.202
		c0.167-0.22,0.48-0.266,0.7-0.099c0.221,0.166,0.265,0.479,0.1,0.7l-0.772,1.026l0.411,2.247c0.05,0.271-0.13,0.532-0.402,0.582
		C230.174,307.663,230.144,307.666,230.114,307.666z"/>
</g>
<g>
	<path d="M221.742,308.515c-0.241,0-0.453-0.174-0.493-0.42l-0.403-2.471c-0.025-0.153,0.023-0.31,0.131-0.424l1.336-1.41
		c0.189-0.201,0.506-0.208,0.706-0.02c0.201,0.19,0.209,0.507,0.019,0.707l-1.165,1.23l0.363,2.227
		c0.044,0.272-0.141,0.529-0.413,0.573C221.796,308.513,221.769,308.515,221.742,308.515z"/>
</g>
<g>
	<path style="fill:#E56445;" d="M213.746,308.454c0,0,5.707-3.182,7.663-7.441c1.956-4.259,1.961-6.361,1.961-6.361
		s0.947,2.716,3.089,3.288c2.141,0.572,3.462,0.599,3.462,0.599l1.489,3.855l-1.205-9.274c0,0-5.85-2.868-6.619-2.841
		c-0.769,0.027-10.406,2.104-10.946,2.708c-0.54,0.604-3.334,8.243-3.334,8.243l-0.093,3.41L213.746,308.454z"/>
</g>
<g>
	<path style="fill:#FCA397;" d="M203.876,366.36c-2.11-0.37-4.17-0.89-6.17-1.55c-6.16-1.98-11.76-5.22-16.5-9.42
		c2.4-5.02,5.45-9.53,8.44-13.32c6.03-7.63,11.87-12.33,11.87-12.33l0.548,2.535c1.199,5.55,1.804,11.214,1.804,16.892
		C203.867,354.868,203.876,360.348,203.876,366.36z"/>
</g>
<g>
	<path style="fill:#FFFFFF;" d="M223.314,331.754c-5.799,0-9.506-3.537-9.555-3.584c-0.197-0.192-0.201-0.509-0.008-0.706
		c0.193-0.198,0.509-0.2,0.707-0.01c0.237,0.229,5.899,5.602,14.316,2.189c0.254-0.104,0.547,0.021,0.651,0.276
		c0.104,0.256-0.02,0.547-0.275,0.651C227.041,331.426,225.08,331.754,223.314,331.754z"/>
</g>
<g>
	<path d="M304.036,347.188c0,0-7.622-2.294-5.304-13.438c2-9.615,14.59-11.078,14.59-11.078s-3.962-5.945-0.924-13.138
		c2.917-6.906,6.979-8.217,6.979-8.217s-0.346-5.598,4.066-9.991c4.412-4.393,10.424,0.209,10.424,0.209s11.405-2.483,18.442,3.573
		c7.037,6.056,4.312,16.479,4.312,16.479s11.203,4.045,13.928,15.887c2.725,11.842-4.337,18.201-4.337,18.201L304.036,347.188z"/>
</g>
<g>
	<path style="fill:#7772D3;" d="M378.476,340.25c-7.44,15.85-23.55,26.83-42.22,26.83c-16.05,0-30.2-8.1-38.59-20.44
		c8.09-10.77,18.18-18.58,30.64-19.68c19.21-1.69,31.28,2.02,43.98,8.83C374.226,336.83,376.326,338.35,378.476,340.25z"/>
</g>
<g>
	<g>
		<g>
			<g>
				<path style="fill:#F27E64;" d="M342.42,320.751l0.492,7.784c0,0-2.791,2.666-6.545,2.938c-5.069,0.366-7.103-2.311-7.103-2.311
					l-0.436-10.251L342.42,320.751z"/>
			</g>
		</g>
	</g>
</g>
<g>
	<g>
		<g>
			<g>
				<path d="M342.419,320.739c0,0-2.104,7.552-8.42,5.97c-4.56-1.142-5.106-6.968-5.106-6.968L342.419,320.739z"/>
			</g>
		</g>
	</g>
</g>
<g>
	<g>
		<g>
			<g>
				<path style="fill:#F27E64;" d="M325.469,299.431c0,0-1.919,14.081,2.979,20.499c4.897,6.419,10.676,4.137,13.203,1.962
					c3.408-2.933,3.928-6.77,3.928-6.77s4.947,0.704,6.358-3.376c1.482-4.285-1.751-7.499-4.209-7.564s-2.719,0.397-2.719,0.397
					l0.471-4.516C345.478,300.064,329.689,284.349,325.469,299.431z"/>
			</g>
		</g>
	</g>
</g>
<g>
	<g>
		<g>
			<g>
				<path style="fill:#F27E64;" d="M328.186,305.831c0,0-7.591-2.757-7.851,3.018c-0.302,6.69,7.653,6.312,7.653,6.312
					L328.186,305.831z"/>
			</g>
		</g>
	</g>
</g>
<g>
	<path d="M346.227,304.955c0,0-2.526,1.221-8.205-2.468c-5.679-3.689-4.355-8.492-4.355-8.492s-7.207,5.086-8.559,11.022
		c-1.351,5.936-3.164-13.605,5.33-13.691C338.932,291.24,351.915,296.06,346.227,304.955z"/>
</g>
<g>
	<path d="M324.799,312.086c-0.162,0-0.321-0.079-0.417-0.225l-2.709-4.105c-0.152-0.23-0.089-0.541,0.142-0.692
		c0.229-0.153,0.54-0.089,0.692,0.142l2.709,4.105c0.152,0.23,0.089,0.541-0.142,0.692
		C324.989,312.06,324.894,312.086,324.799,312.086z"/>
</g>
<g>
	<path d="M346.142,311.055c-0.132,0-0.263-0.052-0.361-0.154c-0.19-0.199-0.184-0.516,0.016-0.707l3.598-3.447
		c0.2-0.191,0.515-0.184,0.707,0.016c0.19,0.199,0.184,0.516-0.016,0.707l-3.598,3.447
		C346.391,311.009,346.266,311.055,346.142,311.055z"/>
</g>
<g>
	<path d="M349.662,311.458c-0.096,0-0.192-0.027-0.278-0.084l-2.321-1.553c-0.229-0.154-0.291-0.465-0.138-0.694
		c0.154-0.23,0.463-0.29,0.694-0.138l2.321,1.553c0.23,0.154,0.291,0.465,0.138,0.694
		C349.982,311.38,349.823,311.458,349.662,311.458z"/>
</g>
<g>
	<path d="M321.849,310.973c-0.26,0-0.478-0.201-0.498-0.464c-0.02-0.275,0.188-0.515,0.463-0.535l2.114-0.152
		c0.273-0.026,0.515,0.188,0.535,0.463c0.02,0.275-0.188,0.515-0.463,0.535l-2.114,0.152
		C321.873,310.973,321.861,310.973,321.849,310.973z"/>
</g>
<g>
	<path d="M333.545,313.885c-0.23,0-0.437-0.158-0.488-0.391c-0.845-3.786,0.294-6.906,0.343-7.037
		c0.097-0.258,0.382-0.386,0.643-0.294c0.259,0.097,0.391,0.385,0.295,0.643c-0.011,0.03-1.082,2.985-0.304,6.47
		c0.06,0.27-0.11,0.537-0.379,0.598C333.617,313.881,333.58,313.885,333.545,313.885z"/>
</g>
<g>
	<path d="M335.428,317.741c-1.542-0.003-2.853-1.158-2.908-1.207c-0.145-0.129-0.202-0.331-0.145-0.517
		c0.056-0.187,0.214-0.323,0.406-0.352l4.772-0.698c0.18-0.022,0.363,0.049,0.474,0.197c0.109,0.147,0.13,0.343,0.052,0.51
		C338.038,315.759,337.092,317.741,335.428,317.741z M334.257,316.461c0.35,0.157,0.755,0.279,1.17,0.28
		c0.455,0,0.85-0.293,1.148-0.619L334.257,316.461z"/>
</g>
<g>
	<path d="M328.587,302.655c-0.136,0-0.271-0.055-0.369-0.163c-0.186-0.203-0.172-0.52,0.032-0.706
		c1.031-0.942,2.779-0.969,2.853-0.97c0.278,0,0.502,0.221,0.505,0.495c0.003,0.275-0.219,0.501-0.495,0.505
		c-0.014,0-1.441,0.025-2.188,0.708C328.828,302.612,328.707,302.655,328.587,302.655z"/>
</g>
<g>
	<path d="M339.498,303.128c-0.126,0-0.251-0.047-0.349-0.142c-0.725-0.705-2.151-0.774-2.165-0.774
		c-0.275-0.013-0.49-0.245-0.478-0.521c0.011-0.275,0.236-0.483,0.519-0.479c0.074,0.003,1.82,0.084,2.822,1.058
		c0.198,0.192,0.202,0.509,0.01,0.707C339.759,303.077,339.628,303.128,339.498,303.128z"/>
</g>
<g>
	<path style="fill:#46467F;" d="M335.728,332.325c-0.023,0-0.046,0-0.069,0c-6.344-0.03-7.647-3.718-7.7-3.875
		c-0.087-0.262,0.055-0.545,0.316-0.633c0.262-0.086,0.542,0.053,0.632,0.313c0.048,0.137,1.18,3.167,6.756,3.194
		c0.022,0,0.044,0,0.065,0c4.974,0,6.859-2.693,6.938-2.809c0.155-0.228,0.468-0.287,0.693-0.135
		c0.229,0.153,0.29,0.462,0.138,0.691C343.407,329.206,341.265,332.325,335.728,332.325z"/>
</g>
<g>
	<path d="M325.108,305.017c0,0-6.681-8.474-1.664-13.692c5.018-5.219,19.468-7.825,26.295,2.033
		c4.84,6.989-3.512,11.597-3.512,11.597l-9.282-9.523l-3.278-1.437l-5.481,1.437L325.108,305.017z"/>
</g>
<g>
	<path d="M339.086,307.94c-0.293-0.01-0.509-0.241-0.5-0.517l0.072-2.142l-1.332-0.991c-0.222-0.165-0.268-0.479-0.103-0.7
		c0.167-0.222,0.479-0.266,0.7-0.103l1.542,1.147c0.131,0.098,0.206,0.254,0.201,0.418l-0.081,2.404
		C339.576,307.728,339.355,307.94,339.086,307.94z"/>
</g>
<g>
	<path d="M330.289,307.94c-0.293-0.01-0.509-0.241-0.5-0.517l0.072-2.142l-1.332-0.991c-0.222-0.165-0.268-0.479-0.103-0.7
		c0.166-0.222,0.48-0.266,0.7-0.103l1.542,1.147c0.131,0.098,0.206,0.254,0.201,0.418l-0.081,2.404
		C330.779,307.728,330.558,307.94,330.289,307.94z"/>
</g>
<g>
	<path style="fill:#46467F;" d="M102.013,309.397c-0.729-3.26-3.19-5.484-5.496-4.968l-1.201,0.18
		c-0.145,0.011-0.291,0.033-0.435,0.065c-2.306,0.516-3.584,3.577-2.854,6.836c0.729,3.26,3.19,5.484,5.496,4.968l1.201-0.179
		c0.145-0.011,0.291-0.033,0.436-0.065C101.465,315.717,102.743,312.656,102.013,309.397z"/>
</g>
<g>
	<path style="fill:#7772D3;" d="M128.926,342.59c-0.83,1.56-1.77,3.07-2.78,4.52c-2.91,4.19-6.51,7.88-10.62,10.89
		c-0.02,0.03-0.05,0.04-0.07,0.06c-0.27,0.2-0.54,0.4-0.82,0.58c-5.06,3.56-10.86,6.13-17.12,7.44c-3.1,0.66-6.32,1-9.62,1
		c-7.57,0-14.71-1.8-21.03-5.01c-3.65-1.84-7.02-4.15-10.04-6.85c-1.62-1.46-3.15-3.02-4.56-4.69c-0.64-0.75-1.25-1.52-1.83-2.31
		c7.41-8.92,13.93-10.72,13.93-10.72c-0.21-0.23-2.5-2.93,0-7.79c3.29-6.42,13.51-10.39,13.51-10.39l18.04-1.07
		c0,0,7.59,0.55,13.21,7.01c4.65,5.32,3.82,8.7,3.38,9.73c-0.08,0.22-0.16,0.33-0.16,0.33S120.136,337.88,128.926,342.59z"/>
</g>
<g>
	<path style="fill:#9393E5;" d="M112.508,334.988c-3.743,2.367-9.738,5.331-18.197,7.188c-15.82,3.493-29.946-4.677-29.946-4.677
		c-0.212-0.231-2.502-2.925,0-7.795c3.291-6.418,13.51-10.383,13.51-10.383l18.043-1.068c0,0,7.583,0.548,13.212,7.005
		C113.778,330.581,112.951,333.958,112.508,334.988z"/>
</g>
<g>
	<path style="fill:#7772D3;" d="M80.495,331.174c0,0-7.148-3.731-6.721-5.913c0.428-2.182,7.365-3.645,11.808-2.806
		c4.444,0.839,14.951,0.969,14.951,4.793c0,3.38-4.822,6.632-4.822,6.632l-10.129-2.922L80.495,331.174z"/>
</g>
<g>
	<g>
		<g>
			<g>
				<path style="fill:#FCA397;" d="M80.247,319.987l0.248,11.187c0,0,2.089,3.171,8.645,3.558c4.884,0.288,6.572-0.852,6.572-0.852
					l-0.805-5.651l-0.793-5.51l-11.875-2.337L80.247,319.987z"/>
			</g>
		</g>
	</g>
</g>
<g>
	<g>
		<g>
			<g>
				<path d="M82.239,320.382c0.035,0.305,0.159,0.663,0.349,1.072c2.627,5.532,9.497,6.585,12.318,6.775l-0.793-5.51L82.239,320.382
					z"/>
			</g>
		</g>
	</g>
</g>
<g>
	<g>
		<g>
			<g>
				<path style="fill:#FCA397;" d="M96.042,297.165c0,0,6.182,13.895,4.041,21.739c-2.141,7.844-9.283,6.66-13.561,5.175
					c-4.278-1.485-6.277-4.089-6.277-4.089s-3.978,1.378-6.669-2.311c-2.691-3.689-1.078-7.958,1.192-8.949
					c2.27-0.991,4.988,0.635,4.988,0.635l-2.149-4.036C77.607,305.329,86.395,284.687,96.042,297.165z"/>
			</g>
		</g>
	</g>
</g>
<g>
	<path d="M95.517,314.933c-0.049,0-0.099-0.007-0.148-0.022c-0.264-0.081-0.411-0.361-0.33-0.625
		c0.783-2.532-1.119-5.289-1.139-5.317c-0.158-0.226-0.104-0.537,0.122-0.696c0.225-0.158,0.537-0.105,0.696,0.121
		c0.091,0.129,2.206,3.182,1.276,6.188C95.928,314.795,95.731,314.933,95.517,314.933z"/>
</g>
<g>
	<path d="M79.163,315.939c-0.128,0-0.255-0.051-0.35-0.151l-3.786-4.012c-0.182-0.193-0.173-0.498,0.02-0.68
		c0.193-0.183,0.498-0.174,0.68,0.02l3.786,4.012c0.182,0.193,0.173,0.498-0.02,0.68C79.401,315.895,79.282,315.939,79.163,315.939z
		"/>
</g>
<g>
	<path d="M75.155,314.863c-0.234,0-0.439-0.171-0.475-0.409c-0.04-0.263,0.141-0.508,0.403-0.548l2.619-0.397
		c0.267-0.038,0.508,0.141,0.548,0.403c0.04,0.263-0.141,0.508-0.403,0.548l-2.619,0.396
		C75.204,314.861,75.179,314.863,75.155,314.863z"/>
</g>
<g>
	<path d="M79.756,309.365c0,0,1.438,0.944,2.483-0.691c1.045-1.635-1.242-6.469-1.242-6.469s4.315,0.98,6.982-0.447
		c2.667-1.427,3.976-5.354,3.976-5.354s1.963,4.09,7.853,2.29c5.89-1.8,7.013-9.816,0.725-11.453
		c-6.288-1.636-9.724,1.145-9.724,1.145s-0.797-5.818-8.571-2.945c-7.083,2.618-8.281,11.491-8.281,11.491s-4.254,0.198-5.072,4.824
		c-0.818,4.626,4.595,7.974,4.595,7.974S76.554,307.929,79.756,309.365z"/>
</g>
<g>
	<path d="M89.202,309.734c-0.248,0-0.463-0.185-0.496-0.436l-0.331-2.597c-0.035-0.274,0.159-0.524,0.433-0.56
		c0.278-0.038,0.525,0.159,0.56,0.433l0.331,2.597c0.035,0.274-0.159,0.524-0.433,0.56
		C89.244,309.733,89.223,309.734,89.202,309.734z"/>
</g>
<g>
	<path d="M96.911,309.115c-0.244,0-0.457-0.179-0.494-0.427l-0.381-2.59c-0.04-0.273,0.148-0.527,0.422-0.568
		c0.271-0.033,0.527,0.149,0.567,0.422l0.381,2.59c0.04,0.273-0.148,0.527-0.422,0.568C96.96,309.113,96.935,309.115,96.911,309.115
		z"/>
</g>
<g>
	<path d="M86.782,304.757c-0.077,0-0.155-0.018-0.228-0.056c-0.246-0.126-0.342-0.428-0.216-0.673
		c0.965-1.875,3.333-1.387,3.432-1.364c0.27,0.058,0.44,0.322,0.383,0.592c-0.057,0.271-0.32,0.441-0.592,0.386
		c-0.072-0.018-1.722-0.346-2.333,0.844C87.139,304.658,86.964,304.757,86.782,304.757z"/>
</g>
<g>
	<path d="M94.31,303.152c-0.097,0-0.196-0.028-0.282-0.088c-0.228-0.155-0.286-0.467-0.13-0.694c0.396-0.579,0.908-0.912,1.52-0.987
		c1.234-0.159,2.384,0.853,2.432,0.895c0.207,0.183,0.226,0.497,0.044,0.704c-0.183,0.207-0.498,0.226-0.706,0.045
		c-0.239-0.209-1.003-0.73-1.65-0.651c-0.318,0.04-0.585,0.223-0.814,0.559C94.626,303.076,94.469,303.152,94.31,303.152z"/>
</g>
<g>
	<path style="fill:#46467F;" d="M88.224,343.919c-14.829-0.829-20.588-4.229-20.826-4.374c-0.236-0.143-0.311-0.45-0.168-0.686
		c0.143-0.236,0.448-0.313,0.687-0.169c0.057,0.034,5.829,3.418,20.335,4.23c0.276,0.016,0.487,0.251,0.471,0.527
		C88.708,343.713,88.488,343.919,88.224,343.919z"/>
</g>
<g>
	<path style="fill:#46467F;" d="M88.63,360.787c-0.294-0.01-0.51-0.241-0.5-0.517l0.408-12.009c0.009-0.276,0.242-0.476,0.517-0.483
		c0.276,0.01,0.492,0.241,0.482,0.517l-0.408,12.009C89.12,360.574,88.898,360.787,88.63,360.787z"/>
</g>
<g>
	<path style="fill:#46467F;" d="M108.203,357.155c-0.171,0-0.337-0.088-0.431-0.245l-5.987-10.125
		c-0.141-0.238-0.062-0.545,0.176-0.686c0.237-0.138,0.545-0.061,0.685,0.176l5.987,10.125c0.141,0.238,0.062,0.545-0.176,0.686
		C108.377,357.133,108.289,357.155,108.203,357.155z"/>
</g>
<g>
	<path style="fill:#46467F;" d="M108.203,337.996c-0.18,0-0.354-0.097-0.443-0.267c-0.129-0.245-0.035-0.547,0.21-0.676l4.142-2.181
		c0.245-0.128,0.547-0.035,0.675,0.209c0.129,0.245,0.035,0.547-0.21,0.676l-4.142,2.181
		C108.361,337.978,108.281,337.996,108.203,337.996z"/>
</g>
<g>
	<g>
		<path style="fill:#46467F;" d="M82.829,313.476c0.425,3.313-1.131,6.242-3.475,6.543c-2.343,0.3-4.588-2.142-5.012-5.455
			c-0.425-3.313,1.131-6.242,3.475-6.543C80.16,307.721,82.404,310.163,82.829,313.476z"/>
	</g>
	<g>
		<polygon style="fill:#46467F;" points="77.816,308.021 76.195,308.349 77.732,320.346 79.354,320.019 81.124,318.115 
			81.639,311.463 		"/>
	</g>
	<g>
		<path style="fill:#FFFFFF;" d="M81.207,313.804c0.425,3.313-1.131,6.242-3.475,6.543c-2.343,0.3-4.588-2.142-5.012-5.455
			c-0.425-3.313,1.131-6.242,3.475-6.543C78.538,308.048,80.782,310.491,81.207,313.804z"/>
	</g>
</g>
<g>
	<path style="fill:#FFFFFF;" d="M75.019,293.157c0,0-1.789,2.143-2.292,4.031c-0.503,1.888,2.429,13.81,2.429,13.81l3.701-0.839
		L75.019,293.157z"/>
</g>
<g>
	<path d="M92.202,318.86c-1.725,0-2.966-1.27-3.43-2.054c-0.141-0.237-0.062-0.543,0.175-0.684c0.236-0.142,0.542-0.063,0.685,0.173
		c0.049,0.083,1.229,2.001,3.252,1.475c0.263-0.073,0.54,0.091,0.61,0.357c0.069,0.268-0.091,0.54-0.358,0.609
		C92.812,318.822,92.5,318.86,92.202,318.86z"/>
</g>
<g>
	<path style="fill:#7C6053;" d="M625.116,221.9c-7.82,14.76-23.35,24.81-41.22,24.81c-5.71,0-11.17-1.03-16.22-2.91
		c-2.55-0.94-4.99-2.1-7.31-3.47c1.22-13.83,2.48-25.44,3.42-27.62c1.67-3.87,12.86-6.59,20.47-8.01c4.08-0.76,7.13-1.15,7.13-1.15
		s15.02,0.6,27.21,10.79C620.786,216.17,622.996,218.79,625.116,221.9z"/>
</g>
<g>
	<path style="fill:#ADA9C4;" d="M573.016,167.376c0,0-5.303,5.999-2.388,12.612c2.915,6.613,6.042-12.014,6.042-12.014
		L573.016,167.376z"/>
</g>
<g>
	<g>
		<path style="fill:#F27E64;" d="M590.85,194.329l0.202,11.899c0,0-2.088,3.457-9.039,4.141c-5.178,0.509-7.02-0.632-7.02-0.632
			l0.621-6.038l0.613-5.889l12.523-2.978L590.85,194.329z"/>
	</g>
</g>
<g>
	<g>
		<path d="M588.749,194.831c-0.025,0.325,1.915,1.348,1.73,1.791c-2.562,5.989-12.106,8.999-15.097,9.318l0.844-8.132
			L588.749,194.831z"/>
	</g>
</g>
<g>
	<g>
		<path style="fill:#F27E64;" d="M575.276,167.97c-1.634,1.33-2.777,3.16-3.453,5.155c-1.555,4.592-4.694,15.314-2.637,21.888
			c2.672,8.543,10.374,6.944,14.954,5.133c4.58-1.811,6.635-4.759,6.635-4.759s4.38,1.352,7.14-2.819
			c2.759-4.171,0.819-8.801-1.69-9.798c-2.509-0.996-5.388,0.905-5.388,0.905l2.155-4.53
			C592.992,179.145,584.32,160.607,575.276,167.97z"/>
	</g>
</g>
<g>
	<path d="M591.471,189.463c-0.152,0-0.303-0.069-0.401-0.201c-0.165-0.222-0.119-0.535,0.103-0.7l4.346-3.238
		c0.221-0.165,0.533-0.121,0.7,0.102c0.165,0.222,0.119,0.535-0.103,0.7l-4.346,3.238
		C591.68,189.431,591.575,189.463,591.471,189.463z"/>
</g>
<g>
	<path d="M596.356,189.314c-0.038,0-0.077-0.004-0.116-0.014l-3.546-0.849c-0.268-0.064-0.435-0.334-0.37-0.603
		c0.064-0.268,0.331-0.435,0.603-0.37l3.546,0.849c0.268,0.064,0.435,0.334,0.37,0.603
		C596.787,189.159,596.582,189.314,596.356,189.314z"/>
</g>
<g>
	<path d="M571.774,181.838c-0.04,0-0.082-0.005-0.123-0.016c-0.268-0.068-0.43-0.34-0.361-0.608l0.698-2.742
		c0.067-0.267,0.338-0.432,0.607-0.361c0.268,0.068,0.43,0.34,0.361,0.608l-0.698,2.742
		C572.2,181.688,571.997,181.838,571.774,181.838z"/>
</g>
<g>
	<path d="M579.312,182.238c-0.04,0-0.082-0.005-0.123-0.016c-0.268-0.068-0.43-0.34-0.361-0.608l0.698-2.742
		c0.068-0.267,0.337-0.434,0.607-0.361c0.268,0.068,0.43,0.34,0.361,0.608l-0.698,2.742
		C579.738,182.087,579.535,182.238,579.312,182.238z"/>
</g>
<g>
	<path style="fill:#6C6B7C;" d="M571.342,175.853c-0.252,0-0.469-0.19-0.496-0.446c-0.029-0.274,0.169-0.521,0.443-0.551
		l2.258-0.245c0.275-0.027,0.521,0.169,0.551,0.443c0.029,0.274-0.169,0.521-0.443,0.551l-2.258,0.245
		C571.378,175.852,571.36,175.853,571.342,175.853z"/>
</g>
<g>
	<path style="fill:#6C6B7C;" d="M581.582,177.666c-0.065,0-0.13-0.012-0.193-0.039l-3.069-1.285c-0.255-0.107-0.374-0.4-0.268-0.654
		c0.107-0.255,0.398-0.377,0.654-0.269l3.069,1.285c0.255,0.107,0.374,0.4,0.268,0.654
		C581.963,177.551,581.777,177.666,581.582,177.666z"/>
</g>
<g>
	<path style="fill:#ADA9C4;" d="M590.837,183.674c0,0-1.234,4.952-2.183,4.348c-0.949-0.604-1.838-7.744-1.13-10.94
		c0.708-3.196,1.224-4.803,1.224-4.803s-12.998-1.155-16.424-4.244c-3.426-3.089,3.812-5.082,11.214-3.68
		c7.403,1.402,10.321,4.184,10.321,4.184s4.638-0.691,6.372,2.138c1.733,2.829-2.212,13.58-2.212,13.58
		S596.85,181.559,590.837,183.674z"/>
</g>
<g>
	<path style="fill:#ADA9C4;" d="M566.047,188.789c0,0,3.632-4.022,5.481-3.419c1.849,0.603,2.521,3.306,2.521,3.306
		s2.193-3.037,4.613-2.183c2.42,0.854,7.608,1.171,7.663,2.011c0.055,0.839-1.447,1.139-1.447,1.139
		S572.665,191.055,566.047,188.789z"/>
</g>
<g>
	<path style="fill:#ADA9C4;" d="M590.837,183.674c0,0-0.218,8.031-0.062,11.712c0.156,3.681-10.078,9.424-17.147,6.252
		c-7.069-3.172-5.131-12.435-5.131-12.435l6.3,0.581c0,0,1.453-0.823,3.103-1.163c1.651-0.339,3.851,0.56,3.851,0.56
		L590.837,183.674z"/>
</g>
<g>
	<path style="fill:#FCB35B;" d="M248.736,227.95c-3.13,4.18-6.93,7.82-11.26,10.76c-5.72,3.88-12.34,6.51-19.49,7.53l-5.8-12.43
		l-5.06-10.85l-2.44-6.34l-2.7-7.02l3.81-0.44l2.24-0.26l5.81-0.68l6.68-0.78c0,0,16.87,1.52,26.55,17.44
		C247.626,225.79,248.176,226.82,248.736,227.95z"/>
</g>
<g>
	<path style="fill:#7772D3;" d="M237.476,238.71c-5.72,3.88-12.34,6.51-19.49,7.53c-1.87,0.27-3.77,0.42-5.71,0.45
		c-0.31,0.02-0.62,0.02-0.93,0.02c-3.76,0-7.43-0.45-10.93-1.29l4.27-28.8l1.11-7.46l0.41-2.79l0.55,0.13l7.09,1.72l6.95,1.68
		C220.796,209.9,235.046,218.09,237.476,238.71z"/>
</g>
<g>
	<path style="fill:#ADA9C4;" d="M226.033,191.01c0,0,3.865-3.989,3.008-10.404c-0.581-4.349-2.457-5.814-2.457-5.814
		s3.132-5.803-5.605-5.742c-8.737,0.061-14.017,4.17-14.017,4.17s-3.921-2.094-5.868,2.495c-1.947,4.59-0.391,11.511-0.391,11.511
		L226.033,191.01z"/>
</g>
<g>
	<g>
		<g>
			<g>
				<path style="fill:#FCA397;" d="M206.634,197.548l-0.095,10.66c0,0,1.895,3.081,8.127,3.644c4.642,0.419,6.134-1.954,6.134-1.954
					l-1.042-9.338l-11.238-2.577L206.634,197.548z"/>
			</g>
		</g>
	</g>
</g>
<g>
	<g>
		<g>
			<g>
				<path d="M206.656,196.898c0.024,0.291,0.132,0.636,0.301,1.031c2.338,5.346,10.712,7.637,13.393,7.901l-0.592-5.271
					L206.656,196.898z"/>
			</g>
		</g>
	</g>
</g>
<g>
	<g>
		<g>
			<g>
				<path style="fill:#FCA397;" d="M222.352,176.283c0,0,5.475,13.415,3.204,20.821c-2.271,7.406-9.037,6.067-13.067,4.526
					c-4.03-1.541-5.856-4.08-5.856-4.08s-3.829,1.195-6.282-2.398c-2.454-3.593-0.791-7.61,1.4-8.486
					c2.191-0.876,4.731,0.752,4.731,0.752l-1.927-3.907C204.555,183.511,213.536,164.115,222.352,176.283z"/>
			</g>
		</g>
	</g>
</g>
<g>
	<g>
		<g>
			<g>
				<path style="fill:#ADA9C4;" d="M206.482,187.418c0,0,5.667,1.346,9.847-4.87s3.905-8.835,3.905-8.835l3.727,6.69
					c0,0,1.038-4.515-0.682-7.475s-3.627-2.423-3.627-2.423l-12.688,2.716l-3.656,9.972L206.482,187.418z"/>
			</g>
		</g>
	</g>
</g>
<g>
	<path d="M221.34,193.211c-0.054,0-0.109-0.009-0.163-0.027c-0.261-0.089-0.4-0.374-0.31-0.635c0.817-2.376-0.906-5.049-0.924-5.076
		c-0.151-0.231-0.087-0.541,0.144-0.692c0.23-0.151,0.539-0.088,0.692,0.142c0.083,0.126,2.012,3.105,1.034,5.95
		C221.742,193.081,221.548,193.211,221.34,193.211z"/>
</g>
<g>
	<path d="M205.737,193.702c-0.138,0-0.275-0.057-0.374-0.169l-3.486-3.932c-0.183-0.207-0.164-0.523,0.043-0.706
		c0.206-0.184,0.521-0.166,0.706,0.043l3.486,3.932c0.183,0.207,0.164,0.522-0.042,0.706
		C205.973,193.66,205.855,193.702,205.737,193.702z"/>
</g>
<g>
	<path d="M201.952,192.56c-0.25,0-0.465-0.187-0.496-0.441c-0.033-0.274,0.163-0.523,0.437-0.556l2.505-0.3
		c0.282-0.034,0.523,0.164,0.556,0.437c0.033,0.274-0.163,0.523-0.437,0.556l-2.505,0.3
		C201.992,192.559,201.972,192.56,201.952,192.56z"/>
</g>
<g>
	<path style="fill:#6C6B7C;" d="M224.265,182.43c-0.034,0-0.068-0.003-0.103-0.011l-2.343-0.49c-0.27-0.056-0.443-0.321-0.387-0.592
		c0.057-0.27,0.317-0.446,0.592-0.387l2.343,0.49c0.27,0.056,0.443,0.321,0.387,0.592
		C224.705,182.268,224.497,182.43,224.265,182.43z"/>
</g>
<g>
	<path style="fill:#6C6B7C;" d="M214.418,183.645c-0.189,0-0.369-0.107-0.454-0.29c-0.116-0.25-0.007-0.548,0.243-0.664l3.142-1.459
		c0.25-0.116,0.548-0.007,0.664,0.243c0.116,0.251,0.007,0.548-0.243,0.664l-3.142,1.459
		C214.56,183.63,214.488,183.645,214.418,183.645z"/>
</g>
<g>
	<path d="M224.079,187.877c-0.22,0-0.422-0.146-0.482-0.37l-0.654-2.42c-0.044-0.161-0.004-0.334,0.107-0.46l0.766-0.875
		c0.181-0.208,0.497-0.229,0.706-0.046c0.208,0.182,0.229,0.497,0.046,0.706l-0.589,0.673l0.585,2.162
		c0.072,0.267-0.086,0.541-0.353,0.613C224.167,187.872,224.123,187.877,224.079,187.877z"/>
</g>
<g>
	<path d="M217.354,188.293c-0.22,0-0.422-0.146-0.482-0.37l-0.654-2.42c-0.044-0.165-0.001-0.342,0.115-0.468l1.057-1.151
		c0.186-0.204,0.503-0.218,0.706-0.03c0.204,0.187,0.217,0.503,0.03,0.706l-0.87,0.949l0.583,2.155
		c0.072,0.267-0.086,0.541-0.353,0.613C217.441,188.288,217.397,188.293,217.354,188.293z"/>
</g>
<g>
	<path style="fill:#FFFFFF;" d="M215.875,212.449c-3.848,0-7.771-2.173-8.016-2.311c-0.24-0.136-0.326-0.441-0.19-0.681
		c0.135-0.24,0.438-0.327,0.681-0.19c0.084,0.046,8.379,4.636,12.071,0.306c0.179-0.211,0.495-0.235,0.705-0.057
		c0.21,0.18,0.235,0.495,0.056,0.705C219.759,211.89,217.826,212.449,215.875,212.449z"/>
</g>
<g>
	<path style="fill:#46467F;" d="M226.066,192.825c-0.059,0-0.117-0.001-0.176-0.004c-2.217-0.106-3.923-2.231-3.804-4.737
		c0.121-2.505,2.028-4.453,4.24-4.351c1.087,0.052,2.083,0.583,2.802,1.494c0.704,0.891,1.059,2.042,1.001,3.243
		c-0.058,1.201-0.522,2.314-1.308,3.133C228.062,192.395,227.089,192.825,226.066,192.825z M226.152,184.729
		c-1.613,0-2.977,1.497-3.068,3.403c-0.094,1.955,1.186,3.61,2.853,3.69c0.792,0.033,1.562-0.285,2.163-0.912
		c0.619-0.645,0.984-1.528,1.03-2.488c0.046-0.96-0.233-1.875-0.787-2.575c-0.538-0.681-1.271-1.077-2.065-1.115
		C226.235,184.73,226.194,184.729,226.152,184.729z"/>
</g>
<g>
	<path style="fill:#46467F;" d="M216.033,193.02c-0.074,0-0.149-0.002-0.224-0.005c-2.506-0.121-4.446-2.257-4.326-4.762
		c0.058-1.213,0.585-2.332,1.485-3.149c0.9-0.817,2.069-1.23,3.277-1.177c1.214,0.058,2.333,0.585,3.149,1.485
		c0.817,0.899,1.235,2.064,1.177,3.277c-0.059,1.214-0.586,2.333-1.485,3.149C218.243,192.605,217.166,193.02,216.033,193.02z
		 M216.024,184.922c-0.884,0-1.724,0.324-2.382,0.922c-0.702,0.637-1.113,1.51-1.158,2.457c-0.094,1.955,1.42,3.622,3.374,3.715
		c0.946,0.043,1.855-0.281,2.557-0.918c0.702-0.637,1.113-1.51,1.159-2.457c0.045-0.947-0.28-1.854-0.918-2.557
		c-0.637-0.702-1.51-1.113-2.457-1.158C216.14,184.923,216.081,184.922,216.024,184.922z"/>
</g>
<g>
	<path style="fill:#46467F;" d="M222.319,188.304c-0.105,0-0.21-0.033-0.301-0.101c-0.404-0.306-1.367-0.181-1.879-0.031
		c-0.264,0.076-0.543-0.073-0.621-0.338c-0.079-0.264,0.072-0.542,0.337-0.621c0.184-0.055,1.829-0.516,2.766,0.191
		c0.22,0.166,0.264,0.48,0.098,0.7C222.621,188.236,222.471,188.304,222.319,188.304z"/>
</g>
<g>
	<path style="fill:#46467F;" d="M211.984,188.777c-0.155,0-0.308-0.072-0.406-0.207c-1.042-1.44-5.646-1.676-7.345-1.646
		c-0.262,0.009-0.504-0.215-0.509-0.491c-0.005-0.276,0.215-0.504,0.491-0.509c0.673-0.01,6.641-0.058,8.173,2.061
		c0.162,0.224,0.111,0.536-0.112,0.698C212.188,188.746,212.086,188.777,211.984,188.777z"/>
</g>
<g>
	<g>
		<path style="fill:#507849;" d="M549.728,111.039c0.1,0.12,0.2,0.23,0.31,0.34c0.14,0.15,0.29,0.3,0.43,0.44
			c8.46,8.64,20.26,14.01,33.32,14.01c2.02,0,4.03-0.13,5.98-0.37c0.02-0.01,0.03-0.01,0.05-0.01c4.8-0.63,9.38-1.98,13.61-3.95
			c-0.4-16.89-0.23-31.67-0.23-31.95c-0.16-0.35-7.98-2.36-18.39-2.7C568.428,86.329,554.588,95.57,549.728,111.039z"/>
	</g>
</g>
<g>
	<g>
		<path style="fill:#507849;" d="M589.768,125.459c0.02-0.01,0.03-0.01,0.05-0.01c4.8-0.63,9.38-1.98,13.61-3.95
			c0.35-0.16,0.7-0.33,1.05-0.5c6.89-3.41,12.81-8.49,17.24-14.7c-8.98-12.31-16.32-15.9-18.52-16.75
			c-0.45-0.18-0.68-0.24-0.68-0.24L589.768,125.459z"/>
	</g>
</g>
<g>
	<path style="fill:#E56445;" d="M583.607,59.446c0,0-10.764,0.514-11.373-9.808c-0.649-10.99,9.52-12.044,13.838-7.6
		S589.59,51,589.59,51s3.01-2.713,6.293,0.619c2.409,2.445,1.166,6.444,1.166,6.444s5.552-0.214,5.034,4.634
		s-3.984,7.309-3.984,7.309L583.607,59.446z"/>
</g>
<g>
	<g>
		<path style="fill:#FCA397;" d="M593.448,78.452l-1.119,11.438c0,0-2.384,3.086-9.128,2.975c-5.024-0.083-6.665-1.381-6.665-1.381
			l1.262-5.725l1.238-5.582l12.342-1.476L593.448,78.452z"/>
	</g>
</g>
<g>
	<g>
		<path d="M591.377,78.702c-0.06,0.309-0.214,0.667-0.44,1.071c-3.118,5.463-10.235,6.01-13.139,5.987l1.238-5.582L591.377,78.702z"
			/>
	</g>
</g>
<g>
	<g>
		<path style="fill:#FCA397;" d="M579.035,53.859c0,0-7.405,13.753-5.819,21.952c1.587,8.199,8.992,7.538,13.489,6.347
			c4.496-1.19,6.744-3.703,6.744-3.703s3.967,1.719,7.009-1.851c3.042-3.57,1.719-8.067-0.529-9.257
			c-2.248-1.19-5.157,0.265-5.157,0.265l2.513-3.967C597.285,63.644,589.879,41.825,579.035,53.859z"/>
	</g>
</g>
<g>
	<path d="M594.635,73.872c-0.172,0-0.34-0.089-0.433-0.249c-0.139-0.239-0.058-0.545,0.182-0.684l4.536-2.632
		c0.237-0.139,0.544-0.058,0.684,0.182c0.139,0.239,0.058,0.545-0.182,0.684l-4.536,2.632
		C594.807,73.851,594.721,73.872,594.635,73.872z"/>
</g>
<g>
	<path d="M598.338,74.268c-0.078,0-0.157-0.018-0.232-0.057l-2.308-1.206c-0.245-0.128-0.34-0.43-0.212-0.675
		c0.129-0.245,0.432-0.338,0.675-0.212l2.308,1.206c0.245,0.128,0.34,0.43,0.212,0.675C598.692,74.17,598.518,74.268,598.338,74.268
		z"/>
</g>
<g>
	<path d="M577.029,59.25c-0.16,0-0.318-0.077-0.415-0.221c-0.154-0.229-0.094-0.54,0.136-0.694c1.867-1.258,3.573-0.042,3.646,0.011
		c0.223,0.163,0.271,0.476,0.109,0.699c-0.163,0.222-0.474,0.271-0.697,0.11c-0.06-0.042-1.231-0.844-2.5,0.009
		C577.222,59.222,577.125,59.25,577.029,59.25z"/>
</g>
<g>
	<path d="M578.564,72.271c-0.234,0-0.443-0.165-0.49-0.405c-0.924-4.755,1.8-7.81,1.917-7.938c0.187-0.204,0.5-0.218,0.705-0.033
		c0.204,0.185,0.219,0.501,0.034,0.706c-0.024,0.028-2.499,2.828-1.674,7.074c0.053,0.271-0.125,0.533-0.396,0.586
		C578.628,72.269,578.596,72.271,578.564,72.271z"/>
</g>
<g>
	<path d="M577.022,66.001c-0.297-0.012-0.512-0.246-0.5-0.521l0.116-2.729c0.012-0.276,0.202-0.507,0.521-0.478
		c0.275,0.012,0.49,0.245,0.479,0.521l-0.116,2.729C577.51,65.791,577.288,66.001,577.022,66.001z"/>
</g>
<g>
	<path d="M584.529,66.718c-0.297-0.012-0.512-0.246-0.5-0.521l0.116-2.729c0.012-0.276,0.194-0.502,0.521-0.478
		c0.275,0.012,0.49,0.245,0.479,0.521l-0.116,2.729C585.018,66.508,584.796,66.718,584.529,66.718z"/>
</g>
<g>
	<path style="fill:#E56445;" d="M577.515,56.972c0,0,1.467-2.178,4.322-1.918c2.855,0.26,4.324,2.432,4.324,2.432
		s-1.722,4.682,1.908,7.614c3.63,2.932,6.702,2.512,6.702,2.512l2.912-0.728l2.466-3.91l-7.283-9.57l-9.993-6.592l-5.846,4.349
		L577.515,56.972z"/>
</g>
<g>
	<path d="M580.941,75.202c-0.43,0-0.72-0.054-0.757-0.061c-0.271-0.053-0.446-0.314-0.395-0.584
		c0.052-0.271,0.315-0.448,0.584-0.397c0.094,0.018,2.303,0.41,3.45-1.519c0.142-0.237,0.449-0.316,0.686-0.174
		c0.237,0.141,0.315,0.448,0.174,0.685C583.632,74.92,581.923,75.202,580.941,75.202z"/>
</g>
<g>
	<path style="fill:#FFFFFF;" d="M574.012,70.121c-2.688,0-4.874-2.252-4.874-5.021c0-2.769,2.187-5.021,4.874-5.021
		c2.686,0,4.873,2.252,4.873,5.021C578.885,67.869,576.698,70.121,574.012,70.121z M574.012,61.079
		c-2.136,0-3.874,1.804-3.874,4.021c0,2.217,1.738,4.021,3.874,4.021c2.136,0,3.873-1.804,3.873-4.021
		C577.885,62.883,576.148,61.079,574.012,61.079z"/>
</g>
<g>
	<path style="fill:#FFFFFF;" d="M585.587,71.24c-2.769,0-5.021-2.252-5.021-5.021c0-2.769,2.252-5.021,5.021-5.021
		c2.768,0,5.021,2.252,5.021,5.021C590.609,68.987,588.356,71.24,585.587,71.24z M585.587,62.197c-2.217,0-4.021,1.804-4.021,4.021
		c0,2.217,1.804,4.021,4.021,4.021c2.218,0,4.021-1.804,4.021-4.021C589.609,64.001,587.805,62.197,585.587,62.197z"/>
</g>
<g>
	<path style="fill:#FFFFFF;" d="M581.553,66.195c-0.042-0.001-3.577-0.291-3.577-0.291c-0.275-0.023-0.479-0.264-0.457-0.539
		c0.023-0.275,0.273-0.476,0.539-0.458l3.535,0.29c0.275,0.023,0.479,0.264,0.457,0.54C582.029,65.997,581.81,66.195,581.553,66.195
		z"/>
</g>
<g>
	<path style="fill:#FFFFFF;" d="M597.684,67.384c-0.133,0-0.266-0.053-0.364-0.157c-2.173-2.313-6.935,0.078-6.983,0.103
		c-0.25,0.125-0.547,0.027-0.673-0.218c-0.125-0.246-0.028-0.547,0.218-0.672c0.222-0.114,5.479-2.757,8.167,0.102
		c0.19,0.201,0.18,0.518-0.021,0.707C597.93,67.339,597.807,67.384,597.684,67.384z"/>
</g>
<g>
	<path style="fill:#FFFFFF;" d="M583.064,92.965c-5.06,0-8.834-2.01-8.896-2.043c-0.242-0.132-0.332-0.436-0.199-0.678
		c0.132-0.241,0.432-0.334,0.678-0.2c0.095,0.051,9.621,5.104,18.454-1.38c0.221-0.163,0.534-0.117,0.699,0.107
		c0.163,0.223,0.115,0.536-0.107,0.699C590.048,92.146,586.294,92.965,583.064,92.965z"/>
</g>
<g>
	<path style="fill:#7C6053;" d="M111.046,240.13c-6.98,4.18-15.15,6.58-23.88,6.58c-1.78,0-3.55-0.1-5.28-0.29
		c-0.24-0.02-0.47-0.05-0.7-0.08c-0.02-0.01-0.03-0.01-0.05-0.01c-2.21-0.29-4.37-0.73-6.47-1.32c-2.47-0.68-4.86-1.57-7.14-2.63
		c-0.35-0.16-0.7-0.33-1.05-0.5c-2.25-1.11-4.39-2.4-6.4-3.85c-0.09-6.87-0.14-12.29-0.14-12.29l17.76-13.18l8.72-6.47
		c0.11,0,0.22,0,0.33,0.01c4.8,0.1,8.85,1.08,12.04,2.26c0.51,0.2,1,0.39,1.47,0.59c4.43,1.88,6.83,3.99,6.83,3.99
		S109.166,226.72,111.046,240.13z"/>
</g>
<g>
	<g>
		<path style="fill:#FCA397;" d="M98.256,208.42c0,0-1.49,1.19-5.83,1.01c-5.83-0.24-7.7-3.4-7.7-3.4l-0.29-11.18v-0.11l1.77,0.35
			l11.11,2.07l0.43,5.12L98.256,208.42z"/>
	</g>
</g>
<g>
	<g>
		<path d="M97.746,202.28c-2.98-0.27-10.69-2.07-13.12-6.98c-0.07-0.16-0.14-0.31-0.19-0.45c-0.08-0.2-0.13-0.39-0.15-0.55
			l13.03,2.86L97.746,202.28z"/>
	</g>
</g>
<g>
	<g>
		<path style="fill:#FCA397;" d="M98.763,173.188c0,0,5.99,12.933,4.095,20.314c-1.895,7.381-8.604,6.372-12.634,5.041
			s-5.94-3.743-5.94-3.743s-3.708,1.348-6.282-2.071c-2.574-3.419-1.123-7.442,0.99-8.402c2.113-0.961,4.683,0.524,4.683,0.524
			l-2.071-3.751C81.604,181.099,89.547,161.632,98.763,173.188z"/>
	</g>
</g>
<g>
	<path d="M100.697,178.562c-0.024,0-0.049-0.002-0.074-0.005l-2.557-0.379c-0.273-0.04-0.462-0.295-0.421-0.568
		c0.04-0.273,0.294-0.455,0.568-0.421l2.557,0.379c0.273,0.04,0.462,0.295,0.421,0.568
		C101.154,178.384,100.941,178.562,100.697,178.562z"/>
</g>
<g>
	<path d="M91.16,179.619c-0.195,0-0.38-0.115-0.461-0.306c-0.107-0.255,0.013-0.548,0.267-0.655l2.968-1.247
		c0.255-0.108,0.548,0.013,0.655,0.267c0.107,0.255-0.013,0.548-0.267,0.655l-2.968,1.247
		C91.291,179.606,91.225,179.619,91.16,179.619z"/>
</g>
<g>
	<path d="M98.685,189.169c-0.017,0-0.034-0.001-0.051-0.003c-0.275-0.028-0.475-0.273-0.447-0.548
		c0.41-4.037-1.263-6.069-1.28-6.089c-0.178-0.21-0.153-0.525,0.057-0.704c0.209-0.179,0.523-0.155,0.703,0.053
		c0.081,0.094,1.971,2.346,1.516,6.84C99.155,188.977,98.938,189.169,98.685,189.169z"/>
</g>
<g>
	<path d="M94.607,193.54c-0.197,0-0.403-0.027-0.616-0.088c-1.651-0.472-1.837-2.365-1.844-2.446
		c-0.014-0.162,0.051-0.32,0.175-0.425c0.124-0.105,0.291-0.143,0.449-0.103l3.877,1.005c0.162,0.042,0.292,0.162,0.347,0.32
		c0.055,0.158,0.027,0.333-0.074,0.466C96.875,192.329,95.938,193.54,94.607,193.54z M93.357,191.664
		c0.161,0.338,0.437,0.692,0.909,0.827c0.469,0.133,0.912-0.043,1.247-0.269L93.357,191.664z"/>
</g>
<g>
	<path d="M83.693,190.246c-0.069,0-0.139-0.014-0.207-0.045l-5.266-2.394c-0.251-0.114-0.362-0.411-0.248-0.662
		c0.113-0.251,0.409-0.363,0.662-0.248l5.266,2.393c0.251,0.114,0.362,0.411,0.248,0.662
		C84.065,190.137,83.883,190.246,83.693,190.246z"/>
</g>
<g>
	<path d="M79.002,191.462c-0.129,0-0.258-0.049-0.355-0.148c-0.194-0.196-0.192-0.513,0.004-0.707l2.321-2.294
		c0.197-0.194,0.513-0.192,0.707,0.004c0.194,0.196,0.192,0.513-0.004,0.707l-2.321,2.294
		C79.256,191.415,79.129,191.462,79.002,191.462z"/>
</g>
<g>
	<path d="M91.16,173.95c0,0,2.998-0.455,6.127,1.436c3.129,1.891,3.771,3.734,3.771,3.734s1.935-4.882-2.306-9.191
		c-4.241-4.308-12.379-5.502-17.069-0.406c-4.691,5.097-4.404,9.596-4.404,9.596l6.396,5.731
		C83.675,184.85,93.553,182.949,91.16,173.95z"/>
</g>
<g>
	<path d="M80.541,171.71c0,0-6.035-11.461-12.152-6.618c-6.117,4.843,0.695,14.619,6.771,15.332
		C81.236,181.137,80.541,171.71,80.541,171.71z"/>
</g>
<g>
	<path style="fill:#7C6053;" d="M81.886,246.42c-0.24-0.02-0.47-0.05-0.7-0.08c-0.02-0.01-0.03-0.01-0.05-0.01
		c-2.21-0.29-4.37-0.73-6.47-1.32l3.03-32.45l0.1-1.03l6.77-7.91l0.08-0.09c0,0,0.01,0.02,0.04,0.07c0.17,0.27,0.87,1.35,2.06,2.5
		c2.28,2.21,6.38,4.7,12.02,2.27c0.93-0.4,1.39-0.16,1.49,0.58C100.776,213.03,89.996,232.48,81.886,246.42z"/>
</g>
<g>
	<g>
		<path style="fill:#FCB35B;" d="M111.536,239.83c-0.16,0.1-0.33,0.2-0.49,0.3c-0.21,0.13-0.43,0.26-0.65,0.38
			c2.17-11.33-2.27-17.82-2.32-17.89c-0.16-0.23-0.12-0.56,0.1-0.73c0.23-0.17,0.54-0.12,0.7,0.11
			C109.076,222.28,113.416,228.58,111.536,239.83z"/>
	</g>
</g>
<g>
	<path style="fill:#FCB35B;" d="M94.111,209.864c-6.521,0-9.862-6.018-9.902-6.093c-0.131-0.242-0.041-0.546,0.202-0.677
		c0.242-0.132,0.546-0.042,0.678,0.201c0.184,0.34,4.621,8.282,13.489,4.608c0.255-0.106,0.548,0.016,0.653,0.271
		c0.106,0.255-0.016,0.548-0.271,0.653C97.187,209.564,95.568,209.864,94.111,209.864z"/>
</g>
<g>
	<g>
		<path d="M191.361,72.696c0,0-4.995-26.499,14.396-31.35c19.391-4.851,20.558,22.67,20.558,22.67s21.102,4.015,21.24,24.535
			c0.172,25.646-24.615,21.335-24.615,21.335l-23.477-9.562C199.463,100.324,175.948,87.518,191.361,72.696z"/>
	</g>
</g>
<g>
	<g>
		<path style="fill:#F7734F;" d="M249.526,105.78c-6.08,8.71-15.08,15.21-25.56,18.16c-0.22,0.06-0.45,0.12-0.67,0.18
			c-3.81,1.01-7.82,1.55-11.95,1.55c-16.11,0-30.32-8.17-38.67-20.6c6.26-8.56,14.11-15.04,19.45-17.34c7.9-3.4,20.43-5.68,32-2.37
			c0.03,0.01,0.07,0.01,0.11,0.02c3.48,1,6.86,2.5,10.01,4.63C241.056,94.61,246.016,99.95,249.526,105.78z"/>
	</g>
</g>
<g>
	<g>
		<g>
			<g>
				<g>
					<path style="fill:#FCA397;" d="M202.189,77.313l0.002,0.283l0.238,5.34l0.17,4.187c0,0-0.358,0.974,4.517,0.658
						c6.532-0.448,8.638-3.255,8.638-3.255l0.278-9.815l-1.98,0.377L202.189,77.313z"/>
				</g>
			</g>
		</g>
	</g>
</g>
<g>
	<g>
		<g>
			<g>
				<g>
					<path d="M202.19,77.596l0.238,5.34c3.174-0.386,8.952-1.76,11.285-6.753c0.18-0.406,0.298-0.771,0.337-1.075l-11.841,2.406
						L202.19,77.596z"/>
				</g>
			</g>
		</g>
	</g>
</g>
<g>
	<g>
		<g>
			<g>
				<g>
					<path style="fill:#FCA397;" d="M200.12,52.038c0,0-6.075,13.904-3.886,21.716c2.189,7.811,9.306,6.582,13.564,5.072
						c4.258-1.51,6.235-4.121,6.235-4.121s3.978,1.349,6.638-2.35c2.661-3.699,1.023-7.947-1.249-8.92
						c-2.271-0.973-4.972,0.667-4.972,0.667l2.117-4.041C218.566,60.06,209.66,39.524,200.12,52.038z"/>
				</g>
			</g>
		</g>
	</g>
</g>
<g>
	<g>
		<path d="M202.005,49.979c0,0-0.44,7.398,7.002,10.76c7.442,3.362,12.414,2.695,12.414,2.695l-0.483-9.648l-9.316-10.119
			l-8.328,2.654L202.005,49.979z"/>
	</g>
</g>
<g>
	<g>
		<polygon points="215.946,61.967 215.974,66.179 219.721,62.484 		"/>
	</g>
</g>
<g>
	<g>
		<path style="fill:#F7734F;" d="M251.226,103.19c-0.37,0.62-0.76,1.24-1.17,1.84c-0.17,0.25-0.34,0.5-0.53,0.75
			c-6.08,8.71-15.08,15.21-25.56,18.16c-0.22,0.06-0.45,0.12-0.67,0.18l0.64-38.79c0,0,0.07,0.01,0.19,0.03
			c0.03,0.01,0.07,0.01,0.11,0.02c2.3,0.39,17.37,3.37,25.46,15.23C250.246,101.4,250.746,102.27,251.226,103.19z"/>
	</g>
</g>
<g>
	<path style="fill:#7772D3;" d="M205.71,88.357c-2.944,0-5.138-0.525-5.321-0.571c-0.268-0.066-0.431-0.337-0.365-0.605
		c0.066-0.268,0.339-0.431,0.605-0.366c0.089,0.022,8.902,2.125,14.953-2.286c0.223-0.161,0.535-0.113,0.699,0.11
		c0.163,0.223,0.113,0.536-0.11,0.699C212.851,87.758,208.853,88.357,205.71,88.357z"/>
</g>
<g>
	<path d="M198.392,57.116c-0.213,0-0.41-0.137-0.477-0.351c-0.083-0.264,0.064-0.544,0.328-0.626l2.771-0.866
		c0.265-0.083,0.544,0.063,0.626,0.328c0.083,0.264-0.064,0.544-0.328,0.626l-2.771,0.866
		C198.492,57.108,198.442,57.116,198.392,57.116z"/>
</g>
<g>
	<path d="M216.734,70.59c-0.135,0-0.27-0.054-0.368-0.162c-0.186-0.203-0.174-0.52,0.03-0.706l4.287-3.944
		c0.203-0.187,0.52-0.173,0.707,0.03c0.186,0.203,0.174,0.52-0.03,0.707l-4.287,3.944C216.976,70.546,216.855,70.59,216.734,70.59z"
		/>
</g>
<g>
	<path d="M221.076,70.071c-0.067,0-0.135-0.014-0.201-0.042l-2.558-1.123c-0.253-0.111-0.368-0.406-0.257-0.659
		c0.111-0.252,0.406-0.368,0.659-0.257l2.558,1.123c0.253,0.111,0.368,0.406,0.257,0.659
		C221.452,69.96,221.268,70.071,221.076,70.071z"/>
</g>
<g>
	<path d="M199.249,64.129c-0.034,0-0.068-0.003-0.102-0.01c-0.27-0.056-0.444-0.321-0.388-0.591l0.511-2.461l-1.005-1.158
		c-0.181-0.208-0.159-0.524,0.05-0.705c0.209-0.182,0.524-0.158,0.705,0.05l1.167,1.345c0.102,0.118,0.144,0.276,0.112,0.429
		l-0.561,2.704C199.689,63.967,199.481,64.129,199.249,64.129z"/>
</g>
<g>
	<path d="M207.632,64.556c-0.034,0-0.068-0.004-0.102-0.01c-0.271-0.056-0.444-0.321-0.388-0.591l0.511-2.461l-1.005-1.158
		c-0.181-0.208-0.159-0.524,0.05-0.705c0.208-0.182,0.524-0.159,0.705,0.05l1.167,1.345c0.103,0.118,0.144,0.276,0.112,0.429
		l-0.561,2.704C208.072,64.394,207.864,64.556,207.632,64.556z"/>
</g>
<g>
	<path d="M200.907,70.234c-0.231,0-0.439-0.162-0.489-0.397c-0.931-4.446,1.222-6.685,1.314-6.778
		c0.194-0.197,0.51-0.199,0.707-0.004c0.196,0.193,0.198,0.509,0.005,0.706c-0.083,0.086-1.861,1.988-1.048,5.871
		c0.057,0.271-0.117,0.535-0.387,0.592C200.976,70.231,200.941,70.234,200.907,70.234z"/>
</g>
<g>
	<path d="M205.425,74.512c-0.296,0-1.006-0.138-2.489-1.778c-0.171-0.19-0.233-0.447-0.166-0.688c0.07-0.251,0.269-0.448,0.53-0.527
		c3.568-1.067,4.053-0.703,4.26-0.546c0.177,0.133,0.446,0.457,0.248,1.121c-0.271,0.911-1.407,2.355-2.295,2.415
		C205.49,74.51,205.46,74.512,205.425,74.512z M203.961,72.367c0.802,0.833,1.374,1.133,1.487,1.143
		c0.087-0.01,0.421-0.204,0.832-0.716c0.355-0.444,0.533-0.832,0.583-1.031C206.57,71.788,205.696,71.868,203.961,72.367z"/>
</g>
<g>
	<g>
		<path style="fill:#7772D3;" d="M188.762,102.97c-0.051,0.059-4.827,5.18-3.921,14.386c-0.287-0.185-0.564-0.379-0.84-0.584
			c-0.079-0.051-0.148-0.113-0.227-0.174c-0.587-9.141,4.208-14.252,4.27-14.321c0.193-0.197,0.503-0.202,0.71-0.018
			C188.95,102.453,188.955,102.773,188.762,102.97z"/>
	</g>
</g>
<g>
	<path d="M588.07,60.873c-0.166,0-0.329-0.083-0.424-0.234c-1.253-1.999-3.123-1.264-3.202-1.231
		c-0.25,0.105-0.546-0.016-0.652-0.271c-0.104-0.254,0.014-0.545,0.267-0.652c0.937-0.394,3.065-0.562,4.435,1.622
		c0.147,0.234,0.076,0.542-0.158,0.689C588.253,60.848,588.161,60.873,588.07,60.873z"/>
</g>
<g>
	<path style="fill:#F7734F;" d="M558.246,358.9c-1.7-1.15-3.32-2.42-4.84-3.81c-0.17-0.15-0.34-0.3-0.5-0.46
		c-1.05-0.96-2.05-1.98-3-3.04c-0.04-0.05-0.09-0.1-0.13-0.15c2.93-8.01,7.66-20.06,11.26-22.35c0.05-0.03,0.1-0.07,0.15-0.11
		c0.06-0.03,0.11-0.06,0.17-0.1C562.886,328.68,560.996,342.53,558.246,358.9z"/>
</g>
<g>
	<path style="fill:#F7734F;" d="M620.066,350.7c-2.88,3.4-6.25,6.38-10,8.82c-1,0.65-2.02,1.27-3.07,1.84
		c-6.65,3.65-14.27,5.72-22.39,5.72c-9.54,0-18.4-2.87-25.79-7.78c-0.19-0.13-0.38-0.26-0.57-0.4c-1.7-1.15-3.32-2.42-4.84-3.81
		c-0.17-0.15-0.34-0.3-0.5-0.46c1.1-7.52,2.54-14.58,4.37-19.46c1.11-2.96,2.35-5.1,3.76-6.08c0.05-0.03,0.1-0.07,0.15-0.11
		c0.06-0.03,0.11-0.06,0.17-0.1c7.48-4.75,27.81-3.2,40.33-1.17c3.23,0.52,6.12,2.4,8.06,5.22
		C612.886,337.5,617.636,344.85,620.066,350.7z"/>
</g>
<g>
	<path style="fill:#7772D3;" d="M596.157,286.75c0,0-0.413-2.634,2.102-1.557c2.515,1.078,1.437,3.712,0,3.353
		C596.822,288.187,596.157,286.75,596.157,286.75z"/>
</g>
<g>
	<path d="M601.013,303.38c0,0-0.394,7.104-3.593,7.431c-3.198,0.326-7.903-3.715-7.903-3.715l2.205-7.996L601.013,303.38z"/>
</g>
<g>
	<path style="fill:#5C5CC6;" d="M576.604,301.359c0,0-10.438-3.353-11.995-7.784s18.167,2.275,18.167,2.275L576.604,301.359z"/>
</g>
<g>
	<g>
		<path style="fill:#F49282;" d="M591.722,316.571l-0.81,11.294c0,0-2.038,3.186-8.562,3.658c-4.86,0.352-6.556-0.762-6.556-0.762
			l0.727-5.638l0.716-5.498l11.795-2.485L591.722,316.571z"/>
	</g>
</g>
<g>
	<g>
		<path d="M589.032,317.141c-0.031,0.304-0.15,0.662-0.333,1.072c-2.543,5.544-9.371,6.684-12.178,6.91l0.716-5.498L589.032,317.141
			z"/>
	</g>
</g>
<g>
	<g>
		<path style="fill:#F49282;" d="M574.978,294.202c0,0-5.973,13.92-3.736,21.704c2.237,7.784,9.333,6.509,13.574,4.974
			c4.241-1.536,6.197-4.156,6.197-4.156s3.98,1.32,6.611-2.39c2.631-3.71,0.968-7.94-1.306-8.896s-4.959,0.698-4.959,0.698
			l2.086-4.048C593.446,302.089,584.42,281.647,574.978,294.202z"/>
	</g>
</g>
<g>
	<path d="M591.722,312.213c-0.156,0-0.312-0.073-0.408-0.212c-0.159-0.226-0.105-0.537,0.12-0.696l5.053-3.566
		c0.223-0.16,0.538-0.107,0.696,0.12c0.159,0.226,0.105,0.537-0.12,0.696l-5.053,3.566
		C591.923,312.184,591.821,312.213,591.722,312.213z"/>
</g>
<g>
	<path d="M596.298,312.191c-0.042,0-0.086-0.006-0.129-0.017l-3.298-0.881c-0.267-0.071-0.426-0.346-0.354-0.612
		c0.071-0.266,0.342-0.424,0.612-0.355l3.298,0.881c0.267,0.071,0.426,0.346,0.354,0.612
		C596.722,312.044,596.52,312.191,596.298,312.191z"/>
</g>
<g>
	<path d="M584.264,300.893c-0.15,0-0.3-0.068-0.398-0.198c-0.435-0.574-0.921-0.9-1.444-0.972c-0.781-0.101-1.431,0.388-1.438,0.392
		c-0.217,0.167-0.531,0.13-0.7-0.089c-0.169-0.217-0.132-0.528,0.085-0.698c0.039-0.031,0.979-0.758,2.171-0.597
		c0.804,0.103,1.518,0.56,2.123,1.36c0.167,0.22,0.124,0.533-0.097,0.7C584.476,300.859,584.369,300.893,584.264,300.893z"/>
</g>
<g>
	<path d="M573.46,299.9c-0.146,0-0.289-0.063-0.389-0.185c-0.174-0.215-0.141-0.529,0.073-0.704
		c0.674-0.545,1.301-0.765,1.854-0.658c0.602,0.118,0.87,0.576,0.898,0.628c0.133,0.242,0.044,0.547-0.197,0.68
		c-0.239,0.129-0.538,0.049-0.673-0.186c-0.012-0.018-0.085-0.118-0.234-0.142c-0.142-0.027-0.464,0.006-1.018,0.456
		C573.683,299.864,573.571,299.9,573.46,299.9z"/>
</g>
<g>
	<path d="M575.415,311.45c-0.221,0-0.423-0.147-0.482-0.37c-0.794-2.955,0.32-5.98,0.368-6.107c0.097-0.259,0.386-0.389,0.642-0.292
		c0.259,0.097,0.39,0.385,0.293,0.643c-0.01,0.028-1.047,2.858-0.339,5.497c0.072,0.267-0.086,0.541-0.352,0.612
		C575.501,311.444,575.458,311.45,575.415,311.45z"/>
</g>
<g>
	<path d="M573.462,305.24c-0.045,0-0.091-0.006-0.136-0.018c-0.266-0.075-0.421-0.352-0.346-0.617l0.721-2.55
		c0.075-0.267,0.354-0.422,0.617-0.346c0.266,0.075,0.421,0.351,0.346,0.617l-0.721,2.55
		C573.881,305.097,573.681,305.24,573.462,305.24z"/>
</g>
<g>
	<path d="M581.64,305.465c-0.045,0-0.091-0.006-0.136-0.019c-0.266-0.075-0.421-0.352-0.346-0.617l0.72-2.55
		c0.075-0.266,0.353-0.42,0.617-0.346c0.266,0.075,0.421,0.352,0.346,0.617l-0.72,2.55
		C582.059,305.321,581.859,305.465,581.64,305.465z"/>
</g>
<g>
	<path d="M574.182,296.224c0,0,0.825-1.112,3.605-1.107c2.78,0.006,4.386,1.978,4.386,1.978s0.233,5.04,3.991,7.56
		c3.758,2.52,5.195,1.482,5.195,1.482l2.751-0.953l2.047-3.989l-7.856-8.619l-9.441-4.03l-4.677,5.201V296.224z"/>
</g>
<g>
	<path d="M578.228,314.69c-0.179,0-0.293-0.011-0.314-0.014c-0.274-0.028-0.473-0.273-0.444-0.547
		c0.027-0.274,0.276-0.478,0.547-0.447c0.087,0.005,2.251,0.192,3.185-1.756c0.121-0.249,0.419-0.352,0.668-0.234
		c0.249,0.12,0.354,0.419,0.234,0.668C581.087,314.477,579.019,314.69,578.228,314.69z"/>
</g>
<g>
	<path style="fill:#7772D3;" d="M573.822,293.153c0,0,3.938-11.193,17.899-8.798c13.961,2.395,9.291,20.145,9.291,20.145
		l-6.364-2.066L573.822,293.153z"/>
</g>
<g>
	<path style="fill:#5C5CC6;" d="M569.761,292.363c0,0,4.888,0.178,17.481,6.009c4.341,2.01,8.127,4.358,8.127,4.358
		s-14.496-6.088-20.13-6.019c-2.163,0.026-3.564,0.836-3.564,0.836L569.761,292.363z"/>
</g>
<g>
	<path style="fill:#46467F;" d="M580.058,331.898c-2.482,0-4.224-0.402-4.381-0.44c-0.268-0.064-0.434-0.334-0.37-0.603
		c0.064-0.269,0.332-0.433,0.603-0.37c0.083,0.02,8.329,1.911,14.705-2.811c0.223-0.164,0.536-0.117,0.699,0.103
		c0.165,0.223,0.118,0.535-0.104,0.699C587.448,331.264,583.172,331.898,580.058,331.898z"/>
</g>
<g>
	<path d="M575.785,191.62c-0.252,0-0.469-0.191-0.496-0.447c-0.028-0.274,0.171-0.521,0.444-0.55c0.021-0.002,2.159-0.25,2.938-1.81
		c0.125-0.247,0.424-0.345,0.671-0.224c0.247,0.124,0.347,0.424,0.224,0.671c-1.027,2.055-3.619,2.346-3.729,2.357
		C575.82,191.619,575.803,191.62,575.785,191.62z"/>
</g>
<g>
	<path d="M573.824,187.788c-0.183,0-0.359-0.101-0.447-0.276c-1.759-3.511,0.771-7.205,0.879-7.361
		c0.158-0.227,0.469-0.282,0.695-0.124c0.227,0.158,0.282,0.469,0.125,0.696c-0.022,0.033-2.294,3.367-0.805,6.341
		c0.123,0.247,0.023,0.547-0.224,0.671C573.977,187.77,573.9,187.788,573.824,187.788z"/>
</g>
<g>
	<path style="fill:#FCB35B;" d="M578.76,210.913c-3.481,0-6.175-0.679-6.414-0.74c-0.267-0.07-0.428-0.343-0.357-0.61
		c0.068-0.266,0.34-0.427,0.609-0.358c0.124,0.032,12.372,3.105,18.491-4.146c0.179-0.212,0.495-0.236,0.704-0.06
		c0.211,0.178,0.238,0.493,0.06,0.704C588.287,209.929,582.952,210.913,578.76,210.913z"/>
</g>
<g>
	<path d="M342.082,71.865c-1.16,0-2.629-1.199-2.957-1.48c-0.16-0.137-0.217-0.36-0.143-0.558c0.075-0.197,0.273-0.325,0.477-0.322
		l4.615,0.084c0.199,0.004,0.378,0.125,0.453,0.309c0.076,0.185,0.036,0.396-0.103,0.539c-0.03,0.03-0.732,0.749-1.726,1.283
		C342.512,71.822,342.302,71.865,342.082,71.865z M341.093,70.536c0.496,0.267,0.934,0.408,1.134,0.304
		c0.162-0.087,0.316-0.181,0.459-0.275L341.093,70.536z"/>
</g>
<g>
	<path style="fill:#FCB35B;" d="M212.186,233.81c0.2,5,0.17,9.6,0.09,12.88c-0.31,0.02-0.62,0.02-0.93,0.02
		c-3.76,0-7.43-0.45-10.93-1.29c-9.58-2.3-18.01-7.56-24.26-14.76c-0.95-1.1-1.86-2.24-2.71-3.42
		c16.81-20.49,33.11-21.05,33.11-21.05c0.07,0.1,0.14,0.2,0.2,0.31c0.47,0.72,0.89,1.52,1.28,2.4
		C210.796,215.11,211.846,225.06,212.186,233.81z"/>
</g>
<g>
	<path d="M219.887,196.704c-1.434,0-2.614-1.118-2.675-1.177c-0.198-0.191-0.204-0.507-0.013-0.706
		c0.19-0.198,0.506-0.205,0.706-0.015c0.014,0.013,1.416,1.334,2.683,0.742c0.252-0.118,0.548-0.009,0.665,0.24
		c0.117,0.25,0.01,0.548-0.24,0.665C220.631,196.632,220.251,196.704,219.887,196.704z"/>
</g>
<g>
	<path d="M89.306,66.371c-0.092,0-0.186-0.025-0.27-0.079c-0.232-0.149-0.3-0.458-0.151-0.691c0.513-0.799,1.166-1.281,1.941-1.431
		c1.285-0.249,2.397,0.532,2.444,0.565c0.225,0.16,0.278,0.472,0.118,0.697c-0.16,0.224-0.472,0.277-0.696,0.119
		c-0.016-0.011-0.834-0.564-1.683-0.399c-0.494,0.098-0.925,0.43-1.283,0.988C89.632,66.29,89.47,66.371,89.306,66.371z"/>
</g>
<g>
	<path d="M324.041,179.883c0,0-4.461,3.742-4.882,7.497c-0.422,3.755-0.422,3.755-0.422,3.755s-5.347,1.708-6.962,8.169
		c-2.191,8.771,3.787,11.821,3.787,11.821l46.436,5.013c0,0,5.457-4.783,4.365-12.468c-1.092-7.686-5.591-10.131-5.591-10.131
		s0.741-4.941-1.746-9.905c-2.869-5.728-8.761-5.785-8.761-5.785L324.041,179.883z"/>
</g>
<g>
	<path style="fill:#507849;" d="M372.226,228.83c-6.04,7.71-14.46,13.47-24.16,16.17c-3.99,1.12-8.2,1.71-12.54,1.71
		c-1.65,0-3.28-0.08-4.89-0.25c-1.05-0.11-2.09-0.26-3.12-0.44c-1.14-0.2-2.26-0.44-3.37-0.72c-0.21-0.05-0.43-0.1-0.64-0.16
		c-1.78-0.47-3.53-1.05-5.22-1.73c-2.98-1.18-5.82-2.67-8.46-4.42c0.1-2.49,0.27-3.9,0.27-3.9l7.53-23.75l0.74-2.34
		c0.44-1.4,1.34-2.57,2.53-3.35c0.61-0.41,1.3-0.71,2.04-0.87c1.38-0.32,3.1-0.67,5.05-1c0.61-0.09,1.22-0.19,1.87-0.28
		c2.02-0.28,4.24-0.5,6.53-0.6c1.38-0.06,2.76-0.07,4.15-0.02c0.62,0.02,1.24,0.05,1.86,0.09c0.72,0.06,1.43,0.13,2.15,0.21
		c0.8,0.1,1.59,0.22,2.38,0.38c1.8,0.34,3.56,0.82,5.23,1.47c4.43,1.73,8.28,5.29,11.45,9.28
		C367.646,219.4,370.586,225.2,372.226,228.83z"/>
</g>
<g>
	<path style="fill:#FCB35B;" d="M342.538,200.744c0,0,3.265,1.07,4.255,2.589c1.11,1.703-0.966,6.189-6.872,9.677
		c-4.314,2.548-7.957,3.449-7.957,3.449s-3.757-5.196-4.478-8.355s1.924-7.302,1.924-7.302L342.538,200.744z"/>
</g>
<g>
	<path d="M325.249,185.72c0,0-3.927-5.998-3.896-8.94c0.031-2.942,9.84-13.308,20.099-10.426s12.952,15.308,11.652,20.843
		c-3.347,14.253-15.855,9.995-15.855,9.995S318.007,194.609,325.249,185.72z"/>
</g>
<g>
	<g>
		<g>
			<g>
				<path style="fill:#F27E64;" d="M329.377,200.543l0.033,0.26l0.815,4.881l0.623,3.829c0,0-0.22,0.935,4.224,0.101
					c5.953-1.141,7.576-3.955,7.576-3.955l-0.839-9.052l-1.778,0.568L329.377,200.543z"/>
			</g>
		</g>
	</g>
</g>
<g>
	<g>
		<g>
			<g>
				<path d="M329.41,200.803l0.815,4.881c2.874-0.708,8.031-2.616,9.619-7.465c0.12-0.393,0.188-0.742,0.19-1.025l-10.614,3.532
					L329.41,200.803z"/>
			</g>
		</g>
	</g>
</g>
<g>
	<g>
		<g>
			<g>
				<path style="fill:#F27E64;" d="M324.656,177.545c0,0-4.032,13.456-1.15,20.391c2.883,6.935,9.286,5.011,13.031,3.148
					c3.745-1.863,5.27-4.483,5.27-4.483s3.806,0.796,5.839-2.9c2.033-3.696,0.053-7.417-2.143-8.058s-4.495,1.167-4.495,1.167
					l1.495-3.95C342.504,182.86,332.029,164.981,324.656,177.545z"/>
			</g>
		</g>
	</g>
</g>
<g>
	<path d="M327.164,193.803c-0.189,0-0.371-0.109-0.455-0.293c-1.212-2.662,0.376-5.723,0.443-5.852
		c0.13-0.245,0.433-0.338,0.675-0.209c0.244,0.128,0.338,0.431,0.21,0.675c-0.015,0.027-1.424,2.761-0.418,4.971
		c0.114,0.251,0.004,0.548-0.248,0.662C327.304,193.789,327.234,193.803,327.164,193.803z"/>
</g>
<g>
	<path d="M342.268,192.821c-0.103,0-0.205-0.031-0.294-0.096c-0.224-0.163-0.272-0.475-0.11-0.698l2.997-4.12
		c0.162-0.224,0.476-0.272,0.698-0.11c0.224,0.163,0.272,0.475,0.11,0.698l-2.997,4.12
		C342.574,192.75,342.422,192.821,342.268,192.821z"/>
</g>
<g>
	<path d="M345.813,191.366c-0.012,0-2.457-0.056-2.457-0.056c-0.275-0.006-0.494-0.235-0.488-0.512
		c0.007-0.275,0.229-0.496,0.512-0.488l2.445,0.056c0.275,0.006,0.494,0.235,0.488,0.512
		C346.306,191.15,346.084,191.366,345.813,191.366z"/>
</g>
<g>
	<path d="M330.074,198.533c-0.148,0-0.295-0.023-0.441-0.069c-1.101-0.346-1.734-1.909-1.803-2.087
		c-0.095-0.243,0.014-0.518,0.249-0.631l4.779-2.299c0.182-0.087,0.397-0.057,0.546,0.075c0.151,0.132,0.208,0.341,0.147,0.531
		c-0.042,0.129-1.048,3.162-2.577,4.187C330.686,198.434,330.38,198.533,330.074,198.533z M328.957,196.434
		c0.242,0.456,0.61,0.962,0.977,1.077c0.107,0.033,0.257,0.051,0.483-0.1c0.685-0.46,1.309-1.58,1.726-2.509L328.957,196.434z"/>
</g>
<g>
	<path d="M333.972,183.455c-0.158,0-0.315-0.076-0.412-0.217c-0.688-1.001-2.176-0.49-2.191-0.485
		c-0.264,0.091-0.546-0.044-0.639-0.304c-0.092-0.26,0.045-0.546,0.305-0.638c0.092-0.033,2.23-0.766,3.35,0.861
		c0.156,0.227,0.099,0.538-0.129,0.695C334.169,183.427,334.069,183.455,333.972,183.455z"/>
</g>
<g>
	<path d="M323.044,183.404c-0.117,0-0.235-0.041-0.33-0.124c-0.207-0.182-0.228-0.497-0.046-0.704
		c0.1-0.114,1.008-1.114,2.151-1.118c0.578,0,1.105,0.255,1.536,0.739c0.184,0.206,0.166,0.523-0.041,0.706
		c-0.206,0.183-0.522,0.165-0.705-0.041c-0.243-0.273-0.495-0.413-0.783-0.404c-0.59,0.001-1.216,0.562-1.407,0.778
		C323.32,183.347,323.183,183.404,323.044,183.404z"/>
</g>
<g>
	<path d="M341.009,186.81c0,0-5.938-2.142-8.468-5.897c-2.53-3.755-2.863-5.758-2.863-5.758s-0.479,2.737-2.431,3.616
		s-3.206,1.112-3.206,1.112l-0.817,3.908l-0.299-9.029c0,0,5.129-3.647,5.866-3.742c0.737-0.094,10.249,0.381,10.858,0.872
		c0.609,0.491,4.466,7.337,4.466,7.337l0.621,3.236L341.009,186.81z"/>
</g>
<g>
	<path d="M333.901,186.58c-0.189,0-0.37-0.108-0.454-0.292c-0.198-0.431-0.438-0.669-0.735-0.727
		c-0.591-0.116-1.365,0.452-1.611,0.682c-0.202,0.188-0.519,0.177-0.707-0.024c-0.188-0.201-0.178-0.517,0.024-0.706
		c0.128-0.12,1.296-1.168,2.485-0.934c0.432,0.085,1.034,0.378,1.453,1.294c0.115,0.251,0.005,0.547-0.246,0.663
		C334.042,186.565,333.972,186.58,333.901,186.58z"/>
</g>
<g>
	<path d="M323.916,186.61c-0.06,0-0.119-0.01-0.178-0.033c-0.259-0.098-0.388-0.387-0.289-0.646
		c0.367-0.966,0.866-1.479,1.483-1.525c1.005-0.079,1.699,1.138,1.777,1.276c0.136,0.24,0.051,0.544-0.189,0.68
		c-0.239,0.137-0.545,0.05-0.681-0.188c-0.188-0.327-0.582-0.805-0.833-0.771c-0.137,0.011-0.382,0.249-0.624,0.884
		C324.308,186.488,324.117,186.61,323.916,186.61z"/>
</g>
<g>
	<path style="fill:#FCB35B;" d="M342.251,201.384c0,0-6.357,5.992-10.079,6.027c-3.723,0.035-3.201-3.061-3.201-3.061l0.614,7.143
		l3.288,1.078l8.22-3.313l4.614-5.164L342.251,201.384z"/>
</g>
<g>
	<path style="fill:#FCB35B;" d="M335.527,212.931c0,0,2.787,3.813,3.354,9.796c0.566,5.982-2.907,12.706-2.907,12.706
		s-5.569-6.315-6.306-11.082c-0.737-4.767,1.813-11.535,1.813-11.535s-2.524,5.742-3.148,9.256c-0.624,3.514-1.485,8.03-1.485,8.03
		s-3.379-4.48-3.177-9.798c0.202-5.318,5.914-8.811,5.914-8.811L335.527,212.931z"/>
</g>
<g>
	<path style="fill:#F7734F;" d="M334.815,214.689c-1.535,0-3.514-0.535-3.796-0.614c-0.036-0.011-0.055-0.018-0.072-0.026
		c-0.112-0.05-0.205-0.141-0.256-0.261c-0.337-0.795-1.962-4.833-0.913-6.284c0.204-0.281,0.591-0.61,1.307-0.546
		c0.567,0.046,1.015,0.313,1.294,0.773c0.835,1.372-0.096,4.281-0.556,5.518c1.08,0.259,2.92,0.604,3.77,0.358
		c0.899-0.26,1.409-3.356,1.05-5.104c-0.056-0.271,0.118-0.535,0.389-0.59c0.264-0.059,0.535,0.117,0.591,0.389
		c0.324,1.577,0.112,5.727-1.752,6.267C335.57,214.653,335.207,214.689,334.815,214.689z M330.92,207.95
		c-0.232,0-0.298,0.092-0.332,0.139c-0.419,0.579-0.006,2.445,0.553,4.073c0.467-1.454,0.815-3.203,0.383-3.913
		c-0.112-0.184-0.273-0.275-0.521-0.296C330.973,207.951,330.945,207.95,330.92,207.95z"/>
</g>
<g>
	<path style="fill:#F7734F;" d="M334.635,222.793c-0.429,0-0.803-0.182-1.079-0.526c-1.328-1.653-0.095-7.35,0.051-7.993
		c0.048-0.217,0.234-0.375,0.455-0.39c0.212-0.024,0.426,0.119,0.502,0.328c0.386,1.059,2.25,6.422,1.12,8.042
		c-0.245,0.351-0.605,0.537-1.042,0.539C334.64,222.793,334.638,222.793,334.635,222.793z M334.226,216.393
		c-0.326,2.108-0.475,4.521,0.109,5.248c0.088,0.108,0.175,0.152,0.301,0.152s0.179-0.041,0.228-0.111
		C335.336,221.004,334.869,218.581,334.226,216.393z"/>
</g>
<g>
	<path style="fill:#507849;" d="M324.146,245.3c-0.21-0.05-0.43-0.1-0.64-0.16c-1.78-0.47-3.53-1.05-5.22-1.73
		c-2.98-1.18-5.82-2.67-8.46-4.42c-0.82-0.54-1.63-1.11-2.41-1.7c-1.56-1.18-3.04-2.45-4.44-3.82c0.02-0.13,0.05-0.26,0.08-0.39
		c2.55-11.54,7.39-18.64,11.39-22.76c3.62-3.72,7.086-5.04,7.086-5.04c-0.04,0.12-0.596,0.24-0.636,0.37
		c-0.39,1.44-0.57,3.49-0.58,5.98C320.286,220.22,322.246,233.98,324.146,245.3z"/>
</g>
<g>
	<circle style="fill:#7772D3;" cx="83.119" cy="194.297" r="1.392"/>
</g>
<g>
	<path d="M92.644,185.001c-0.276,0-0.5-0.224-0.5-0.5v-2.296c0-0.131,0.052-0.257,0.144-0.351l1.016-1.031
		c0.193-0.197,0.509-0.199,0.707-0.005c0.197,0.194,0.199,0.51,0.005,0.707l-0.872,0.885v2.091
		C93.144,184.777,92.921,185.001,92.644,185.001z"/>
</g>
<g>
	<path d="M100.188,185.001c-0.276,0-0.5-0.224-0.5-0.5v-2.296c0-0.131,0.052-0.257,0.144-0.351l1.017-1.031
		c0.194-0.197,0.51-0.199,0.707-0.005c0.197,0.194,0.199,0.51,0.005,0.707l-0.873,0.885v2.091
		C100.688,184.777,100.465,185.001,100.188,185.001z"/>
</g>
</svg>
