<svg preserveAspectRatio="none" width="100%" height="100%" overflow="visible" style="display: block;" viewBox="0 0 1136 173" fill="none" xmlns="http://www.w3.org/2000/svg">
<g id="Frame 47">
<g clip-path="url(#clip0_0_4)">
<rect id="Rectangle 31" width="1136" height="173" rx="24" fill="var(--fill-0, #DEDFFF)"/>
<path id="Vector" fill-rule="evenodd" clip-rule="evenodd" d="M0 137.347V164C16.0682 155.713 32.3117 151.222 47 149.312L28.8056 140.716L40.8694 124C26.5694 126.572 12.6013 131.255 0 137.347Z" fill="var(--fill-0, #A49EFF)"/>
<g id="Group 6">
<g id="Group">
<path id="Vector_2" d="M1135 68.1904L1134.73 67.3447C1126.63 63.8191 1118.35 61.9975 1110.53 61.9762C1109.68 68.3298 1109.23 77.6523 1111.45 84.145L1118.89 83.8752L1114.85 91.3023C1117.48 97.765 1121.2 104.141 1125.95 110.113L1135 111.171V68.1904Z" fill="var(--fill-0, #674BB3)"/>
<path id="Vector_3" d="M1135 115.291L1133.35 118.24C1133.55 118.432 1133.75 118.619 1133.95 118.808C1134.3 118.635 1134.65 118.46 1135 118.285V115.291Z" fill="var(--fill-0, #674BB3)"/>
</g>
<path id="Vector_4" fill-rule="evenodd" clip-rule="evenodd" d="M1135 92.3162V154.956C1120.78 157.353 1085.9 163.73 1034 164.251L1054.03 115.578C1081.12 109.885 1105.61 105.638 1135 92.3162Z" fill="var(--fill-0, #8354F5)"/>
<path id="Vector_5" fill-rule="evenodd" clip-rule="evenodd" d="M1135 36.8127L1135 -0.00448646C1118.64 -7.03417 1098.85 -12.7185 1075.93 -16L1089.97 3.9248L1065.3 18.2804C1090.53 20.8459 1115.22 26.5398 1135 36.8127Z" fill="var(--fill-0, #8354F5)"/>
</g>
<g id="Group_2">
<path id="Vector_6" fill-rule="evenodd" clip-rule="evenodd" d="M843.387 24.6208C833.154 21.6709 819.344 29.5709 815.267 41.1381C816.246 49.9239 819.434 57.9997 824.489 65.3242C827.833 56.8433 841.45 47.1467 854.897 47.8887C851.845 40.0096 847.741 32.2793 843.387 24.6208Z" fill="var(--fill-0, #674BB3)"/>
<path id="Vector_7" fill-rule="evenodd" clip-rule="evenodd" d="M815.834 39.6995C815.629 40.1721 815.439 40.6519 815.267 41.1381C816.246 49.9239 819.434 57.9997 824.489 65.3241C824.79 64.5591 825.174 63.7846 825.629 63.0093C820.491 55.947 817.133 48.1594 815.834 39.6995Z" fill="var(--fill-0, #573998)"/>
<path id="Vector_8" fill-rule="evenodd" clip-rule="evenodd" d="M843.387 24.6209C842.93 24.4892 842.466 24.3801 841.996 24.2912C846.127 32.0552 849.597 39.942 852.408 47.9148C853.101 47.8994 854.269 47.9097 854.964 47.9482C851.912 40.0686 847.741 32.2793 843.387 24.6209Z" fill="var(--fill-0, #573998)"/>
<path id="Vector_9" fill-rule="evenodd" clip-rule="evenodd" d="M1037.53 106.629C927.731 127.497 821.74 100.216 815.255 41.046C797.507 101.511 887.59 158.07 987.09 163.64L1037.53 106.629Z" fill="var(--fill-0, #8354F5)"/>
<path id="Vector_10" fill-rule="evenodd" clip-rule="evenodd" d="M995.939 113.137C990.426 113.408 984.755 113.279 979.363 113.305L979.572 117.168L981.244 163.254C984.986 163.713 989.119 163.64 991.94 163.082C993.604 146.25 995.947 129.041 995.939 113.137Z" fill="var(--fill-0, #7744D5)"/>
<g id="Group_3">
<path id="Vector_11" fill-rule="evenodd" clip-rule="evenodd" d="M866.165 96.3338C865.438 96.0237 864.715 95.7111 864 95.393C864.058 105.485 863.119 115.566 861.192 125.566C862.043 126.114 862.906 126.657 863.775 127.196C865.748 117.229 866.62 106.947 866.165 96.3338Z" fill="var(--fill-0, #7744D5)"/>
<path id="Vector_12" fill-rule="evenodd" clip-rule="evenodd" d="M898.096 106.519C898.085 106.516 898.073 106.513 898.062 106.51C899.531 118.712 899.602 131.5 898.594 144.516C900.813 145.394 903.055 146.252 905.329 147.079C906.654 133.557 906.305 120.362 904.551 107.916C902.371 107.475 900.219 107.009 898.096 106.519Z" fill="var(--fill-0, #7744D5)"/>
</g>
<path id="Vector_13" fill-rule="evenodd" clip-rule="evenodd" d="M774 266.16H865.683C898.622 190.577 930.011 66.4135 843.383 24.6124C901.187 121.876 835.14 210.562 774 266.16Z" fill="var(--fill-0, #A49EFF)"/>
</g>
<g id="Group_4">
<g id="Group_5">
<path id="Vector_14" fill-rule="evenodd" clip-rule="evenodd" d="M1001.86 100.999C1004.37 100.999 1006.4 102.957 1006.4 105.373C1006.4 107.788 1004.37 109.746 1001.86 109.746C999.345 109.746 997.309 107.788 997.309 105.373C997.309 103.069 999.343 104.347 1001.69 104.178C1001.81 104.169 1001.74 100.999 1001.86 100.999Z" fill="var(--fill-0, #FEA27B)"/>
<path id="Vector_15" fill-rule="evenodd" clip-rule="evenodd" d="M1050.57 77.6187C1052.73 92.6572 1052.71 126.833 1052.15 156.879C1053.84 156.492 1055.52 156.434 1058.12 157.044L1062.07 154.836C1061.6 153.727 1061.1 152.631 1060.56 151.553L1063.37 150.27C1063.27 128.789 1067.57 95.214 1072.99 75.1402L1072.99 75.1342C1068.59 82.6421 1054.27 83.6428 1050.57 77.6187Z" fill="var(--fill-0, #8D95FF)"/>
<path id="Vector_16" fill-rule="evenodd" clip-rule="evenodd" d="M987.157 136.264L988.351 154.641L987.761 190.533C984.894 193.476 986.8 196.321 984.164 200.074C983.257 201.416 986.319 202.441 988.294 198.395C988.305 198.464 987.593 204.872 992.146 206.436C992.622 206.812 994.863 206.148 995.359 205.864C996.035 206.255 996.587 206.07 996.929 205.898C1000.06 206.901 994.795 201.533 995.062 194.083L996.076 191.266L996.059 191.255L998.219 172.413C996.594 172.298 994.999 172.16 993.449 171.999C994.408 160.325 996.505 148.021 995.615 137.374C995.567 136.81 995.522 136.252 995.481 135.697C992.251 135.714 989.44 136.013 987.157 136.264Z" fill="var(--fill-0, #FEC1A1)"/>
<path id="Vector_17" fill-rule="evenodd" clip-rule="evenodd" d="M987.157 136.264L987.237 137.498C989.472 137.255 992.29 136.916 995.571 136.851C995.54 136.464 995.51 136.079 995.481 135.697C992.251 135.714 989.44 136.013 987.157 136.264Z" fill="var(--fill-0, #FEA27B)"/>
<path id="Vector_18" fill-rule="evenodd" clip-rule="evenodd" d="M991.195 205.999C991.483 206.169 991.799 206.317 992.146 206.436C992.259 206.525 992.47 206.556 992.734 206.547L995.812 172.224C995.014 172.154 994.226 172.08 993.449 171.999C994.408 160.325 996.505 148.021 995.615 137.374C995.567 136.81 995.872 136.244 995.831 135.69C995.229 135.694 994.292 135.714 993.72 135.734C993.781 136.629 993.851 137.537 993.929 138.458C994.819 149.105 992.722 161.409 991.764 173.082C992.54 173.163 993.329 173.238 994.127 173.307L991.195 205.999Z" fill="var(--fill-0, #FEA27B)"/>
<path id="Vector_19" fill-rule="evenodd" clip-rule="evenodd" d="M996.947 105.344C991.81 106.953 988.311 110.678 987.191 117.17L985.029 136.489C987.589 136.247 991.16 135.72 995.481 135.697C994.51 122.776 995.209 112.597 996.947 105.344Z" fill="var(--fill-0, #7D88D0)"/>
<path id="Vector_20" fill-rule="evenodd" clip-rule="evenodd" d="M996.947 105.344C996.784 105.395 996.622 105.448 996.462 105.504C996.463 105.533 996.463 105.562 996.466 105.591C996.444 105.568 996.421 105.548 996.398 105.527C995.291 105.916 994.264 106.41 993.327 107.015C993.326 107.198 993.353 107.388 993.416 107.584C993.419 107.593 993.423 107.604 993.425 107.614C993.296 107.452 993.153 107.326 993.002 107.229C992.028 107.9 991.156 108.698 990.395 109.63C990.41 109.664 990.424 109.697 990.441 109.731C990.992 110.832 992.425 112.987 993.545 114.04C994.59 115.117 995.462 114.442 995.612 113.263C995.614 113.247 995.616 113.23 995.617 113.214C995.66 112.828 995.626 112.391 995.497 111.945C995.575 112.059 995.651 112.168 995.727 112.269C996.04 109.726 996.451 107.415 996.947 105.344Z" fill="var(--fill-0, #6460B2)"/>
<path id="Vector_21" fill-rule="evenodd" clip-rule="evenodd" d="M993.72 135.734C994.292 135.713 995.04 135.686 995.642 135.683C995.919 121.585 997.275 111.628 999.012 104.375C998.472 104.527 997.617 106.04 997.061 106.314C995.368 113.371 994.088 118.473 993.72 135.734Z" fill="var(--fill-0, #6460B2)"/>
<path id="Vector_22" fill-rule="evenodd" clip-rule="evenodd" d="M1072.25 56.6154L1073.13 74.8765C1068.74 82.9379 1053.1 83.7912 1050.16 76.8319L1050.6 69.7876C1051.42 70.1603 1052.34 70.4695 1053.4 70.7036C1061.01 72.6881 1065.46 71.3112 1067.97 68.3672C1070.98 65.5759 1071.19 60.9909 1070.86 56.4505C1071.26 56.5589 1071.68 56.6171 1072.12 56.6171C1072.16 56.6171 1072.2 56.6164 1072.25 56.6154Z" fill="var(--fill-0, #FEC1A1)"/>
<path id="Vector_23" fill-rule="evenodd" clip-rule="evenodd" d="M1085.25 205.223L1087.19 239.6L1060.53 239.755L1056.71 182.564L1050.88 240.432L1026.23 240.6L1029.65 206.388L1050.7 206.548C1050.96 200.177 1051.4 188.081 1051.77 173.617C1055.43 172.509 1059.21 170.577 1062.1 167.869L1064.12 166.912L1065.84 205.563L1085.25 205.223Z" fill="var(--fill-0, #7C85FF)"/>
<path id="Vector_24" fill-rule="evenodd" clip-rule="evenodd" d="M1026.56 237.339L1033.42 168.723L1036.37 158.626C1038.99 158.584 1041.61 158.533 1044.24 158.462C1045.43 158.43 1046.61 158.395 1047.79 158.358C1047.84 160.412 1047.56 161.933 1047.1 163.588L1040.58 190.384L1041.85 237.656L1026.56 237.339Z" fill="var(--fill-0, #6A77C7)"/>
<path id="Vector_25" fill-rule="evenodd" clip-rule="evenodd" d="M1085.23 205.223L1085.34 207.172L1064.39 207.369L1062.62 167.621L1064.06 166.94L1064.13 167.219L1065.84 205.563L1085.23 205.223Z" fill="var(--fill-0, #6A77C7)"/>
<g id="Group_6">
<path id="Vector_26" fill-rule="evenodd" clip-rule="evenodd" d="M1035.91 172.043L1036.58 169.249C1036.64 169.275 1036.69 169.3 1036.75 169.324C1036.85 170.138 1037.33 170.953 1038.08 171.153C1038.35 172.172 1039.06 172.52 1039.55 172.681C1041.6 176.628 1054.75 174.76 1062.1 167.869L1064.12 166.912L1064.23 169.348L1061.38 170.642C1053.79 176.209 1040.88 179.401 1038.83 175.454C1038.34 175.294 1037.63 174.945 1037.36 173.926C1036.61 173.726 1036.13 172.911 1036.04 172.097C1035.99 172.079 1035.95 172.061 1035.91 172.043ZM1065.75 166.111L1065.75 166.1L1065.75 166.089L1065.74 166.078L1065.74 166.067L1065.74 166.056L1065.74 166.045L1065.75 166.111ZM1044.59 164.402C1041.91 163.809 1041.81 162.457 1043.63 161.881C1044.12 161.774 1044.57 161.665 1045 161.555C1045.62 161.719 1046.4 161.838 1047.35 161.89C1046.66 162.847 1045.67 163.709 1044.59 164.402Z" fill="var(--fill-0, #D6D6D6)"/>
<path id="Vector_27" fill-rule="evenodd" clip-rule="evenodd" d="M1035.91 172.043L1036.58 169.249C1036.64 169.275 1036.69 169.3 1036.75 169.324C1036.85 170.138 1037.33 170.953 1038.08 171.153C1038.35 172.172 1039.06 172.52 1039.55 172.681C1041.6 176.628 1054.75 174.76 1062.1 167.869L1064.12 166.912L1064.23 169.348L1061.38 170.642C1053.79 176.209 1040.88 179.401 1038.83 175.454C1038.34 175.294 1037.63 174.945 1037.36 173.926C1036.61 173.726 1036.13 172.911 1036.04 172.097C1035.99 172.079 1035.95 172.061 1035.91 172.043ZM1065.76 166.132L1065.76 166.122ZM1065.75 166.111L1065.75 166.1L1065.75 166.089L1065.74 166.078L1065.74 166.067L1065.74 166.056L1065.74 166.045M1044.59 164.402C1041.91 163.809 1041.81 162.457 1043.63 161.881C1044.12 161.774 1044.57 161.665 1045 161.555C1045.62 161.719 1046.4 161.838 1047.35 161.89C1046.66 162.847 1045.67 163.709 1044.59 164.402Z" fill="var(--fill-0, #6A77C7)"/>
</g>
<path id="Vector_28" fill-rule="evenodd" clip-rule="evenodd" d="M1031.83 82.4753C1027.44 84.8175 1025.67 87.2319 1023.7 93.5948L1013.96 131.705H1030.29L1023.58 206.343L1050.7 206.548C1051.59 185.046 1054.45 98.3457 1050.21 75.4056C1045.75 77.251 1035.9 80.3901 1031.83 82.4753Z" fill="var(--fill-0, white)"/>
<path id="Vector_29" fill-rule="evenodd" clip-rule="evenodd" d="M1035.65 206.434L1041.01 206.475L1040.58 190.385L1047.1 163.588C1047.67 161.544 1047.96 159.704 1047.71 156.812L1045.87 133.23C1045.33 133.281 1044.79 133.336 1044.25 133.396L1046.14 157.655C1046.39 160.547 1046.11 162.386 1045.54 164.431L1038.02 195.315C1038.3 199.473 1037.24 203.533 1035.65 206.434Z" fill="var(--fill-0, #D6D6D6)"/>
<path id="Vector_30" fill-rule="evenodd" clip-rule="evenodd" d="M1026.65 172.197L1023.58 206.343L1027.29 206.371C1027.54 205.823 1027.74 205.237 1027.85 204.618C1028.04 203.476 1028.04 202.236 1027.73 201.203C1025.34 203.762 1024.11 203.127 1024.84 201.682C1026.99 197.629 1026.61 194.476 1030.25 192.72L1030.6 189.737L1032.49 171.51C1030.68 171.778 1028.72 172.008 1026.65 172.197Z" fill="var(--fill-0, white)" stroke="var(--stroke-0, black)" stroke-width="0.5669" stroke-miterlimit="22.9256"/>
<path id="Vector_31" fill-rule="evenodd" clip-rule="evenodd" d="M1023.7 93.7009L1023.05 96.1186L1023.24 102.522L1026.2 103.572L1026.2 103.584C1029.39 104.726 1032.67 105.892 1033.47 106.157C1039.26 108.225 1043.9 111.511 1044.76 117.656L1046.52 132.477C1047.07 132.42 1047.62 132.368 1048.17 132.321L1046.32 116.813C1045.47 110.668 1040.83 107.383 1035.04 105.314C1031.42 104.118 1027.83 102.755 1024.26 101.406L1023.7 93.7009Z" fill="var(--fill-0, #D6D6D6)"/>
<path id="Vector_32" fill-rule="evenodd" clip-rule="evenodd" d="M1051.64 175.543C1051.66 174.697 1051.68 174.503 1051.7 173.638C1046.08 175.327 1040.79 175.066 1039.55 172.68C1039.06 172.52 1038.35 172.172 1038.08 171.153C1037.33 170.952 1036.85 170.138 1036.75 169.324C1036.63 169.276 1036.52 169.224 1036.41 169.168C1035.64 169.276 1035.01 169.412 1034.64 169.676C1033.85 170.272 1034.6 171.528 1036.04 172.097C1036.13 172.911 1036.61 173.725 1037.36 173.926C1037.63 174.945 1038.73 174.782 1039.22 174.942C1040.51 177.421 1045.48 177.004 1051.64 175.543ZM1045 161.555C1044.57 161.665 1044.12 161.774 1043.63 161.881C1041.81 162.457 1041.91 163.809 1044.59 164.402C1045.67 163.709 1046.66 162.847 1047.35 161.89C1046.4 161.838 1045.62 161.719 1045 161.555Z" fill="var(--fill-0, #D6D6D6)"/>
<path id="Vector_33" fill-rule="evenodd" clip-rule="evenodd" d="M995.812 172.223L989.888 238.285L1010.43 238.079L1016.71 192.055L1020.08 238.079L1040.28 238.499L1038.23 162.028L1035.42 162.06L1035.15 171.065C1025.29 172.915 1009.22 173.385 995.812 172.223Z" fill="var(--fill-0, #7D88D0)"/>
<path id="Vector_34" fill-rule="evenodd" clip-rule="evenodd" d="M995.812 172.223L995.674 173.755C1007.84 174.842 1022.3 174.571 1032.32 173.134L1032.49 171.51C1022.56 172.984 1008.07 173.286 995.812 172.223Z" fill="var(--fill-0, #6460B2)"/>
<path id="Vector_35" fill-rule="evenodd" clip-rule="evenodd" d="M1015.42 201.441L1016.71 192.059L1015.57 179.644L1015.42 201.441Z" fill="var(--fill-0, #6460B2)"/>
<path id="Vector_36" fill-rule="evenodd" clip-rule="evenodd" d="M1064.12 166.912L1065.84 205.563L1096.16 205.032L1092.87 159.881L1066.82 170.86C1066.46 169.09 1066.05 167.271 1065.58 165.43C1065.64 165.664 1065.7 165.899 1065.76 166.132L1064.12 166.912Z" fill="var(--fill-0, white)"/>
<path id="Vector_37" fill-rule="evenodd" clip-rule="evenodd" d="M1064.12 166.912L1064.23 169.347L1065.06 168.97C1065.45 170.549 1065.79 172.11 1066.1 173.633L1093.03 162.322L1092.92 159.859L1066.82 170.86C1066.41 168.809 1065.92 166.69 1065.35 164.549C1065.49 165.078 1065.63 165.607 1065.76 166.133L1064.12 166.912Z" fill="var(--fill-0, #D6D6D6)"/>
<path id="Vector_38" fill-rule="evenodd" clip-rule="evenodd" d="M1073.19 74.0222C1067.62 93.9517 1063.27 128.397 1063.37 150.27L1060.56 151.553C1063.67 157.783 1065.56 164.63 1066.82 170.86L1104.1 155.082C1113.16 151.238 1113.12 144.215 1109.75 133.58L1098.31 92.6031C1096.08 84.7935 1093.66 83.3784 1089.34 81.2294C1083.85 78.6132 1078.73 76.5344 1073.19 74.0222Z" fill="var(--fill-0, white)"/>
<path id="Vector_39" fill-rule="evenodd" clip-rule="evenodd" d="M1073.19 74.0222C1067.62 93.9517 1063.27 128.397 1063.37 150.27L1060.56 151.553C1063.67 157.783 1065.56 164.63 1066.82 170.86L1104.1 155.082C1113.16 151.238 1113.12 144.215 1109.75 133.58L1098.31 92.6031C1096.08 84.7935 1093.66 83.3784 1089.34 81.2294C1083.85 78.6132 1078.73 76.5344 1073.19 74.0222Z" fill="var(--fill-0, white)"/>
<path id="Vector_40" fill-rule="evenodd" clip-rule="evenodd" d="M1048.08 52.2673C1048.19 51.5488 1048.59 47.8481 1049.09 44.8449C1046.27 47.1411 1047 51.3805 1048.08 52.2673Z" fill="var(--fill-0, #FEA27B)"/>
<path id="Vector_41" fill-rule="evenodd" clip-rule="evenodd" d="M1047.93 52.8053C1048.04 52.8134 1048.14 52.8193 1048.25 52.8245C1050.63 52.1789 1055.35 50.7564 1061.89 53.004C1065.66 54.5976 1067.23 51.3933 1066.55 48.3527C1064.18 48.911 1062.54 48.7641 1064.02 43.9642C1066.06 39.0445 1056.3 44.4252 1049.72 40.5012C1049.03 44.2858 1048.38 48.9119 1047.93 52.8053Z" fill="var(--fill-0, #FEC1A1)"/>
<path id="Vector_42" fill-rule="evenodd" clip-rule="evenodd" d="M1050.48 72.0249L1050.59 69.4725C1051.54 70.0161 1052.68 70.4215 1054.06 70.6522C1070.28 73.0087 1071.46 64.6547 1070.86 56.4501C1071.26 56.5589 1071.68 56.617 1072.12 56.617C1072.16 56.617 1072.2 56.6163 1072.25 56.6153L1072.3 57.7058C1072.01 57.7157 1071.87 57.7157 1071.58 57.6759C1073.04 71.6337 1063.73 76.1019 1050.48 72.0249Z" fill="var(--fill-0, #FEA27B)"/>
<path id="Vector_43" fill-rule="evenodd" clip-rule="evenodd" d="M1072.12 47.0961C1070.63 47.0961 1069.3 47.7721 1068.42 48.8319C1070.27 51.7381 1070.67 53.4737 1070.86 56.4499C1071.26 56.5586 1071.68 56.617 1072.12 56.617C1074.76 56.617 1076.9 54.4858 1076.9 51.8566C1076.9 49.2276 1074.76 47.0961 1072.12 47.0961Z" fill="var(--fill-0, #FEC1A1)"/>
<g id="Group_7">
<path id="Vector_44" d="M1056.4 43.4519C1056.07 45.2052 1055.7 47.1506 1055.35 48.9097C1055.23 49.5166 1055.13 50.1252 1054.97 50.7219L1054.73 50.4131C1055.6 50.4703 1056.47 50.5531 1057.32 50.7212L1057.32 50.7713C1057.1 50.8043 1056.88 50.819 1056.67 50.8432C1055.92 50.9054 1055.16 50.9208 1054.42 50.9187L1054.47 50.6094C1054.69 49.5588 1055.13 48.0754 1055.39 47.0201C1055.7 45.8238 1056.03 44.6334 1056.35 43.4407L1056.4 43.4519Z" fill="var(--fill-0, #744144)"/>
<path id="Vector_45" fill-rule="evenodd" clip-rule="evenodd" d="M1059.92 45.6388C1058.99 45.5866 1058.17 46.7136 1058.09 48.1558C1058.01 49.598 1058.71 50.8094 1059.64 50.8614C1060.58 50.9136 1061.4 49.7867 1061.48 48.3445C1061.55 46.9028 1060.86 45.6911 1059.92 45.6388Z" fill="var(--fill-0, #744144)"/>
<path id="Vector_46" fill-rule="evenodd" clip-rule="evenodd" d="M1052.47 45.5043C1051.61 45.4578 1050.85 46.5378 1050.77 47.9163C1050.69 49.2949 1051.33 50.4501 1052.19 50.4964C1053.05 50.5429 1053.82 49.4629 1053.89 48.0844C1053.97 46.7058 1053.33 45.5506 1052.47 45.5043Z" fill="var(--fill-0, #744144)"/>
<path id="Vector_47" d="M1061.73 44.1379C1060.62 43.1322 1060.03 43.0624 1058.7 43.7484C1059.48 42.3171 1061.34 42.5578 1061.73 44.1379Z" fill="var(--fill-0, #744144)"/>
<path id="Vector_48" d="M1054.07 43.548C1052.81 42.7315 1052.22 42.7735 1051.02 43.6621C1051.56 42.1269 1053.43 42.0481 1054.07 43.548Z" fill="var(--fill-0, #744144)"/>
<path id="Vector_49" d="M1075.24 50.6799C1073.73 51.1472 1072.35 51.7969 1071.14 52.8279C1071.81 51.3119 1073.63 50.433 1075.24 50.6799Z" fill="var(--fill-0, #744144)"/>
</g>
<path id="Vector_50" fill-rule="evenodd" clip-rule="evenodd" d="M1076.89 51.4634C1084.02 42.1388 1079.18 35.5656 1073.39 35.3959C1050.62 8.19258 1034.44 37.5936 1049.37 42.5173C1049.5 41.5829 1049.52 41.6114 1049.68 40.4754C1056.26 44.4499 1066.07 39.0336 1064.02 43.9643C1062.54 48.7639 1064.18 48.9108 1066.55 48.3526C1067.23 51.3931 1065.66 54.5974 1061.89 53.0038C1055.09 50.6675 1050.26 52.2967 1047.99 52.8968C1045.91 59.6866 1044.82 69.1002 1054.06 70.6521C1070.32 73.015 1071.46 64.6092 1070.85 56.3835C1070.86 53.4603 1070.08 50.9692 1068.42 48.8318C1069.3 47.7717 1070.63 47.096 1072.12 47.096C1074.63 47.0962 1076.68 49.0183 1076.89 51.4634Z" fill="var(--fill-0, #B6695B)"/>
<path id="Vector_51" fill-rule="evenodd" clip-rule="evenodd" d="M1051.87 54.3328C1051.84 56.8087 1053.58 58.8497 1055.78 58.9005C1057.97 58.951 1059.79 56.9924 1059.86 54.5174L1051.87 54.3328Z" fill="var(--fill-0, white)"/>
<path id="Vector_52" fill-rule="evenodd" clip-rule="evenodd" d="M1087.54 139.405L1096.59 135.499L1087.05 138.029L1087.54 139.405Z" fill="var(--fill-0, #D6D6D6)"/>
<path id="Vector_53" fill-rule="evenodd" clip-rule="evenodd" d="M1029.12 136.521L1033.66 160.12L1030.6 189.737L1030.25 192.719C1026.61 194.476 1026.99 197.629 1024.84 201.682C1024.11 203.127 1025.34 203.762 1027.73 201.203C1028.04 202.236 1028.04 203.476 1027.86 204.618C1027.35 207.3 1025.25 209.35 1025.19 210.477C1025.18 211.206 1026.25 211.345 1027.24 210.766C1027.76 211.079 1028.45 211.172 1028.91 210.828C1029.63 211.132 1030.15 210.879 1030.47 210.666C1034.06 211.06 1038.56 203.373 1038.02 195.315L1045.54 164.431C1046.11 162.386 1046.39 160.547 1046.14 157.655L1044.25 133.39C1039.77 133.875 1035.01 134.72 1029.12 136.521Z" fill="var(--fill-0, #FEC1A1)"/>
<g id="Group_8">
<path id="Vector_54" fill-rule="evenodd" clip-rule="evenodd" d="M1046.01 162.359C1045.21 163.199 1044.2 163.936 1043.16 164.509C1039.89 166.203 1035.95 165.677 1034.7 166.55C1033.92 167.146 1034.66 168.402 1036.1 168.971C1036.2 169.785 1036.68 170.599 1037.42 170.8C1037.7 171.818 1038.41 172.167 1038.9 172.327C1039.5 173.483 1041.05 174.139 1043.13 174.318L1045.54 164.431C1045.73 163.733 1045.89 163.059 1046.01 162.359Z" fill="var(--fill-0, #FEA27B)"/>
</g>
<path id="Vector_55" fill-rule="evenodd" clip-rule="evenodd" d="M1029.12 136.521L1029.46 138.244C1035.25 136.489 1039.95 135.664 1044.39 135.188L1044.25 133.39C1041.88 133.647 1039.43 134.005 1036.77 134.551L1036.72 134.561C1036.57 134.592 1036.42 134.624 1036.27 134.656L1036.03 134.707L1036.02 134.709L1035.79 134.759L1035.78 134.761L1035.61 134.801L1035.52 134.821C1034.24 135.105 1032.92 135.434 1031.54 135.816L1031.28 135.889C1031.11 135.935 1030.95 135.982 1030.78 136.029L1030.71 136.051C1030.55 136.098 1030.38 136.146 1030.21 136.194L1029.94 136.274C1029.67 136.354 1029.4 136.436 1029.12 136.521Z" fill="var(--fill-0, #FEA27B)"/>
<path id="Vector_56" fill-rule="evenodd" clip-rule="evenodd" d="M1045.95 162.42L1045.98 162.272C1046.28 161.21 1046.5 160.205 1046.61 159.078C1045.84 159.298 1045.08 159.006 1044.11 159.219C1041.74 160.388 1042.35 161.967 1045.95 162.42Z" fill="var(--fill-0, #FEA27B)"/>
<path id="Vector_57" fill-rule="evenodd" clip-rule="evenodd" d="M1042.51 176.639L1043.01 174.579C1041.32 174.317 1040.07 173.689 1039.55 172.681C1039.06 172.52 1038.35 172.172 1038.08 171.153C1037.33 170.953 1036.85 170.138 1036.75 169.324C1036.64 169.277 1035.4 168.384 1035.03 167.869C1034.98 169.074 1035.41 170.301 1036.82 171.477C1036.92 172.291 1037.67 173.135 1038.41 173.336C1038.43 174.053 1038.97 175.034 1039.47 175.194C1039.77 175.948 1041.25 176.609 1042.51 176.639Z" fill="var(--fill-0, #FEA27B)"/>
<path id="Vector_58" fill-rule="evenodd" clip-rule="evenodd" d="M1033.47 106.156C1039.26 108.225 1043.9 111.511 1044.76 117.656L1046.6 133.163C1040.58 133.678 1034.86 134.767 1029.09 136.532L1033.66 160.119L1032.49 171.51C1021.91 173.08 1006.16 173.321 993.449 171.999C994.408 160.325 996.505 148.021 995.615 137.374C995.844 120.906 997.004 112.37 998.818 104.805L1000.69 104.279C1001.96 110.605 1007.16 115.342 1013.38 115.342C1019.83 115.342 1025.18 110.254 1026.19 103.584C1029.39 104.726 1032.67 105.892 1033.47 106.156Z" fill="var(--fill-0, #7D88D0)"/>
<g id="Group_9">
<path id="Vector_59" fill-rule="evenodd" clip-rule="evenodd" d="M996.95 105.332C996.453 107.406 996.041 109.721 995.728 112.27C995.736 112.281 995.745 112.294 995.754 112.305C996.973 114.054 998.448 112.195 997.963 110.114C997.943 110.035 997.923 109.959 997.904 109.886C998.055 110.198 998.209 110.485 998.363 110.731C999.353 112.488 1000.89 111.02 1000.8 109.055C1000.83 109.125 1000.86 109.195 1000.88 109.26C1001.32 110.524 1002.26 110.41 1002.92 109.615C1001.85 108.052 1001.08 106.242 1000.69 104.279L999.96 104.483C999.961 104.491 999.961 104.499 999.961 104.507C999.958 104.499 999.954 104.493 999.951 104.486L996.95 105.332Z" fill="var(--fill-0, #6460B2)"/>
<path id="Vector_60" fill-rule="evenodd" clip-rule="evenodd" d="M995.61 113.282C995.614 113.253 995.617 113.223 995.62 113.192C995.616 113.223 995.613 113.252 995.61 113.282Z" fill="var(--fill-0, #6460B2)"/>
</g>
<path id="Vector_61" fill-rule="evenodd" clip-rule="evenodd" d="M1065.76 166.132L1062.1 167.869C1054.75 174.759 1041.6 176.627 1039.55 172.68C1039.06 172.52 1038.35 172.172 1038.08 171.153C1037.33 170.953 1036.85 170.138 1036.75 169.324C1035.32 168.755 1034.57 167.5 1035.36 166.903C1036.61 166.03 1040.54 166.556 1043.81 164.863C1045.18 164.109 1046.5 163.072 1047.35 161.89C1042.76 161.642 1042.14 159.805 1044.35 159.109C1051.13 157.604 1052.39 155.698 1058.12 157.044L1062.07 154.836C1063.64 158.546 1064.83 162.391 1065.76 166.132Z" fill="var(--fill-0, #FEC1A1)"/>
<path id="Vector_62" fill-rule="evenodd" clip-rule="evenodd" d="M1065.76 166.132L1064.24 166.853C1063.34 163.144 1062.19 159.321 1060.67 155.619L1062.07 154.836C1063.64 158.546 1064.83 162.391 1065.76 166.132Z" fill="var(--fill-0, #FEA27B)"/>
<g id="Group_10">
<path id="Vector_63" d="M1039.54 172.657C1040.62 172.948 1041.74 173.139 1042.85 173.105C1043.97 173.056 1045.06 172.816 1046.17 172.648L1046.17 172.672C1044.1 173.566 1041.58 173.471 1039.54 172.657Z" fill="var(--fill-0, #FEA27B)"/>
<path id="Vector_64" d="M1038.09 171.151C1039.17 171.468 1040.28 171.64 1041.39 171.601C1042.5 171.546 1043.59 171.334 1044.69 171.167L1044.7 171.191C1042.63 172.047 1040.11 171.992 1038.09 171.151Z" fill="var(--fill-0, #FEA27B)"/>
<path id="Vector_65" d="M1036.77 169.313C1038.91 169.895 1041.12 169.538 1043.26 169.144L1043.27 169.168C1042.26 169.628 1041.13 169.804 1040.03 169.801C1038.95 169.797 1037.73 169.722 1036.77 169.313Z" fill="var(--fill-0, #FEA27B)"/>
</g>
<path id="Vector_66" fill-rule="evenodd" clip-rule="evenodd" d="M1004.82 103.112L1000.69 104.278C1001.96 110.605 1007.16 115.342 1013.38 115.342C1019.83 115.342 1025.18 110.248 1026.2 103.572L1023.24 102.521L1022.89 90.7183L1022.88 90.7187L1022.88 90.719L1022.83 90.7225L1022.83 90.7232L1022.82 90.7237L1022.81 90.7239L1022.81 90.7247L1022.8 90.7249L1022.8 90.7254L1022.79 90.7256L1022.78 90.7261L1022.78 90.7263L1022.77 90.7268L1022.76 90.727L1022.76 90.7275L1022.75 90.728L1022.72 90.7297H1022.72L1022.71 90.7299L1022.71 90.7301L1022.7 90.7304L1022.7 90.7306L1022.69 90.7308L1022.68 90.7313L1022.68 90.7316L1022.67 90.7318L1022.66 90.732L1022.65 90.7323L1022.64 90.7325L1022.64 90.7327L1022.63 90.733L1022.63 90.7332L1022.62 90.7335L1022.61 90.7337H1022.61H1022.61L1022.6 90.7339L1022.59 90.7342H1022.59L1022.5 90.7353H1022.49H1022.49H1022.48H1022.47L1022.46 90.7351H1022.45L1022.44 90.7349H1022.42L1022.41 90.7346L1022.4 90.7344L1022.4 90.7342L1022.39 90.7339H1022.38L1022.37 90.7337L1022.36 90.7335L1022.35 90.7332L1022.34 90.733L1022.34 90.7327L1022.33 90.7325L1022.32 90.7323L1022.31 90.7318L1022.3 90.7316L1022.29 90.7311L1022.28 90.7306L1022.27 90.7301L1022.26 90.7297L1022.25 90.7292L1022.24 90.7287L1022.23 90.7282L1022.23 90.728L1022.22 90.7275L1022.21 90.7268L1022.2 90.7263L1022.19 90.7258L1022.18 90.7249L1022.17 90.7242L1022.16 90.7237L1022.15 90.723V90.7228L1022.14 90.7221L1022.13 90.7213L1022.12 90.7204L1022.11 90.7197L1022.11 90.7194L1022.1 90.7187L1022.09 90.718V90.7178L1022.08 90.7171L1022.07 90.7161V90.7159L1022.06 90.7149L1022.05 90.7142V90.714L1022.05 90.7133L1022.04 90.7123L1022.03 90.7114L1022.02 90.7102L1022.01 90.7092V90.709L1022 90.7083L1021.99 90.7071L1021.98 90.7062V90.7059L1021.97 90.705V90.7047L1021.96 90.7038V90.7035L1021.95 90.7028L1021.94 90.7016L1021.93 90.7002L1021.92 90.6993L1021.91 90.6978L1021.9 90.6967L1021.89 90.6957V90.6955L1021.88 90.6945L1021.87 90.6933V90.6931L1021.86 90.6919V90.6917L1021.85 90.6905C1021.81 90.7491 1021.77 90.8085 1021.73 90.8676C1020.04 93.4434 1017.06 95.886 1013.77 97.304C1013.07 97.6142 1012.35 97.881 1011.61 98.092C1011.13 98.2131 1010.68 98.3083 1010.24 98.3814C1009.55 98.4998 1008.87 98.5639 1008.2 98.5655C1008.13 98.566 1008.06 98.5653 1007.99 98.5644L1007.95 98.5636C1007.02 98.548 1006.19 98.4127 1005.44 98.1794L1004.82 103.112Z" fill="var(--fill-0, #FEC1A1)"/>
<path id="Vector_67" fill-rule="evenodd" clip-rule="evenodd" d="M1002.92 109.614C1003.3 109.156 1003.58 108.474 1003.62 107.697C1003.66 106.294 1003.75 105.703 1003.65 103.749C1003.64 103.644 1003.63 103.547 1003.61 103.454L1000.69 104.278C1001.08 106.241 1001.85 108.051 1002.92 109.614Z" fill="var(--fill-0, #FEA27B)"/>
<path id="Vector_68" fill-rule="evenodd" clip-rule="evenodd" d="M1005.44 98.1831L1005.26 99.646C1006.91 100.223 1009.02 100.309 1011.66 99.6362C1016.15 98.3533 1020.14 95.022 1021.9 92.2345C1022.11 92.2615 1022.32 92.2758 1022.54 92.2758C1022.67 92.2758 1022.8 92.2701 1022.94 92.2594L1022.89 90.7182C1022.76 90.7294 1022.62 90.7351 1022.48 90.7351C1022.27 90.7351 1022.06 90.7211 1021.85 90.694C1020.08 93.4818 1016.09 96.8126 1011.61 98.0956C1009.09 98.7374 1007.06 98.6887 1005.44 98.1831Z" fill="var(--fill-0, #FEA27B)"/>
<path id="Vector_69" fill-rule="evenodd" clip-rule="evenodd" d="M1000.02 89.0574C999.771 93.7832 1002.55 100.405 1011.61 98.0955C1016.09 96.8126 1020.08 93.4815 1021.85 90.694C1022.05 90.7213 1022.27 90.7351 1022.48 90.7351C1025.2 90.7351 1027.41 88.5181 1027.41 85.7831C1027.41 85.2376 1027.32 84.7135 1027.16 84.2234L1027.16 84.2258C1035.12 60.311 1003.14 57.9151 1001.12 76.2714C1000.64 79.5147 1000.17 86.6895 1000.02 89.0574Z" fill="var(--fill-0, #FEC1A1)"/>
<path id="Vector_70" fill-rule="evenodd" clip-rule="evenodd" d="M1021.39 91.3593C1021.58 91.1279 1021.75 90.8989 1021.89 90.6755C1020.72 90.5234 1020.09 90.018 1019.01 88.9058C1019.31 90.1868 1020.54 91.2426 1021.39 91.3593Z" fill="var(--fill-0, #FEA27B)"/>
<path id="Vector_71" fill-rule="evenodd" clip-rule="evenodd" d="M1027.16 84.2234L1027.16 84.2258C1035.41 61.4668 1006.18 57.9785 1001.75 73.2891C1011.87 79.1361 1019.8 68.5979 1017.63 78.3894C1016.78 83.6063 1018.02 84.3376 1020.31 83.4074C1021.88 81.3647 1025.96 80.9503 1027.16 84.2234Z" fill="var(--fill-0, #FEAA87)"/>
<g id="Group_11">
<path id="Vector_72" fill-rule="evenodd" clip-rule="evenodd" d="M1011.78 85.1405C1012.72 85.1583 1013.51 84.1236 1013.53 82.8374C1013.55 81.5511 1012.81 80.4875 1011.87 80.4697C1010.93 80.4519 1010.14 81.4866 1010.12 82.773C1010.09 84.0593 1010.84 85.1229 1011.78 85.1405Z" fill="var(--fill-0, #744144)"/>
<path id="Vector_73" d="M1007.88 81.9366C1007.58 83.3978 1006.8 84.7816 1005.58 85.6785L1005.64 85.5318C1005.86 86.5261 1006.9 87.0732 1007.86 87.1426C1008.19 87.177 1008.53 87.1516 1008.87 87.0728C1007.9 87.4708 1006.66 87.2954 1005.89 86.5508C1005.6 86.2726 1005.42 85.8978 1005.34 85.5064C1006.55 84.6308 1007.36 83.3235 1007.88 81.9366Z" fill="var(--fill-0, #744144)"/>
<path id="Vector_74" fill-rule="evenodd" clip-rule="evenodd" d="M1004.81 84.6082C1005.7 84.6251 1006.45 83.6125 1006.47 82.354C1006.5 81.0956 1005.79 80.0555 1004.9 80.0386C1004 80.0218 1003.26 81.0343 1003.23 82.2928C1003.21 83.5513 1003.92 84.5914 1004.81 84.6082Z" fill="var(--fill-0, #744144)"/>
<path id="Vector_75" d="M1005.37 88.936C1007.08 90.2994 1009.76 90.1323 1011.56 88.9482C1010.29 90.9194 1006.54 91.0753 1005.37 88.936Z" fill="var(--fill-0, #744144)"/>
<path id="Vector_76" d="M1013.82 78.957C1012.62 77.808 1011.91 77.7244 1010.44 78.4662C1011.36 76.9414 1013.37 77.2262 1013.82 78.957Z" fill="var(--fill-0, #744144)"/>
<path id="Vector_77" d="M1006.48 78.162C1004.98 77.4321 1004.29 77.566 1003.11 78.7212C1003.52 76.988 1005.53 76.6477 1006.48 78.162Z" fill="var(--fill-0, #744144)"/>
<path id="Vector_78" d="M1024.86 84.708C1023.37 85.2 1022.16 86.0889 1021.09 87.2239C1021.55 85.6692 1023.22 84.4837 1024.86 84.708Z" fill="var(--fill-0, #744144)"/>
</g>
<path id="Vector_79" fill-rule="evenodd" clip-rule="evenodd" d="M1036.89 107.55L1038.69 96.6819L1035.65 106.969C1036.07 107.149 1036.48 107.343 1036.89 107.55Z" fill="var(--fill-0, #D6D6D6)"/>
<path id="Vector_80" fill-rule="evenodd" clip-rule="evenodd" d="M1088.46 139.012L1082.95 118.445L1085.92 140.12L1088.46 139.012Z" fill="var(--fill-0, #D6D6D6)"/>
<g id="Group_12">
<path id="Vector_81" d="M1030.45 210.66C1031.1 210.152 1031.72 209.585 1032.2 208.92C1032.67 208.238 1033.02 207.502 1033.46 206.793L1033.48 206.803C1033.12 208.439 1031.85 209.878 1030.45 210.66Z" fill="var(--fill-0, #FEA27B)"/>
<path id="Vector_82" d="M1028.91 210.815C1030.46 209.764 1031.22 208.063 1031.84 206.368L1031.86 206.374C1031.71 208.193 1030.46 209.967 1028.91 210.815Z" fill="var(--fill-0, #FEA27B)"/>
<path id="Vector_83" d="M1027.24 210.749C1028.66 209.602 1029.44 207.882 1030.09 206.215L1030.12 206.22C1030.06 207.148 1029.65 208.019 1029.13 208.777C1028.62 209.508 1027.99 210.344 1027.24 210.749Z" fill="var(--fill-0, #FEA27B)"/>
</g>
<path id="Vector_84" fill-rule="evenodd" clip-rule="evenodd" d="M1026.16 202.566C1027.33 207.119 1024.23 208.448 1023.83 211.174C1023.77 212.161 1024.63 212.543 1025.62 211.963C1026.14 212.277 1026.83 212.37 1027.29 212.026C1028.01 212.329 1028.53 212.077 1028.85 211.864C1029.75 212.032 1030.78 211.493 1031.78 210.468C1031.33 210.669 1030.88 210.743 1030.47 210.666C1030.15 210.879 1029.63 211.132 1028.91 210.829C1028.42 211.157 1027.56 211.064 1027.24 210.766C1026.25 211.345 1025.18 211.207 1025.19 210.478C1025.25 209.351 1027.35 207.3 1027.85 204.619C1028.04 203.476 1028.04 202.236 1027.73 201.203C1027.13 201.847 1026.6 202.289 1026.16 202.566Z" fill="var(--fill-0, #6460B2)"/>
<path id="Vector_85" fill-rule="evenodd" clip-rule="evenodd" d="M1028.41 194.033C1025.54 195.659 1025.33 198.914 1023.23 202.88C1022.74 203.808 1023.69 204.774 1025.72 202.8C1024.73 203.235 1024.36 202.635 1024.84 201.682C1026.53 198.495 1026.66 195.865 1028.41 194.033Z" fill="var(--fill-0, #6460B2)"/>
<path id="Vector_86" fill-rule="evenodd" clip-rule="evenodd" d="M1028.65 193.793C1029.08 193.393 1029.6 193.034 1030.25 192.72L1030.6 189.737L1033.67 160.116L1029.11 136.526C1028.57 136.69 1027.95 136.885 1027.4 137.066L1025.57 122.342L1026.2 139.309C1026.77 139.129 1027.46 138.888 1028 138.707L1031.87 161.044L1028.65 193.793Z" fill="var(--fill-0, #6460B2)"/>
<path id="Vector_87" fill-rule="evenodd" clip-rule="evenodd" d="M1063.36 150.288L1086.54 139.841L1086.39 138.207C1086.39 138.207 1064.24 149.607 1063.36 150.288Z" fill="var(--fill-0, #D6D6D6)"/>
<path id="Vector_88" fill-rule="evenodd" clip-rule="evenodd" d="M1072.99 74.727C1066.55 95.8701 1061.44 128.479 1062.21 150.801L1063.37 150.269C1063.27 128.654 1067.53 94.7664 1073 74.7381C1072.98 74.7158 1073.02 74.7481 1072.99 74.727Z" fill="var(--fill-0, #7368E7)"/>
<path id="Vector_89" d="M1087.3 175.619H1069.85V178.796H1087.3V175.619Z" fill="var(--fill-0, #D6D6D6)"/>
<path id="Vector_90" fill-rule="evenodd" clip-rule="evenodd" d="M993.933 106.761C994.832 108.5 995.001 109.071 995.548 110.364C996.331 112.346 995.252 114.403 993.838 112.859C992.781 111.805 991.428 109.651 990.909 108.549C989.937 106.553 992.796 104.571 993.933 106.761Z" fill="var(--fill-0, #FEC1A1)"/>
<path id="Vector_91" fill-rule="evenodd" clip-rule="evenodd" d="M993.933 106.761C994.832 108.5 995.001 109.071 995.548 110.364C995.743 110.857 995.822 111.355 995.81 111.801C995.67 111.689 995.531 111.533 995.394 111.326C994.519 110.118 993.526 107.775 993.188 106.605C993.116 106.369 993.092 106.14 993.106 105.923C993.42 106.063 993.71 106.331 993.933 106.761Z" fill="var(--fill-0, #FEA27B)"/>
<path id="Vector_92" fill-rule="evenodd" clip-rule="evenodd" d="M996.986 105.119C997.597 106.977 997.673 107.569 998.007 108.932C998.464 111.013 997.072 112.872 995.922 111.123C995.046 109.915 994.054 107.572 993.716 106.402C993.074 104.277 996.213 102.775 996.986 105.119Z" fill="var(--fill-0, #FEC1A1)"/>
<path id="Vector_93" fill-rule="evenodd" clip-rule="evenodd" d="M996.986 105.119C997.597 106.977 997.673 107.569 998.006 108.932C998.078 109.259 998.104 109.58 998.093 109.882C997.997 109.771 997.904 109.634 997.816 109.468C997.056 108.183 996.285 105.759 996.057 104.563C996.019 104.373 996.009 104.191 996.022 104.018C996.431 104.167 996.787 104.515 996.986 105.119Z" fill="var(--fill-0, #FEA27B)"/>
<path id="Vector_94" fill-rule="evenodd" clip-rule="evenodd" d="M1000 103.669C1000.44 105.577 1000.46 106.173 1000.66 107.561C1000.93 109.676 999.368 111.398 998.384 109.549C997.625 108.265 996.854 105.84 996.626 104.644C996.184 102.468 999.449 101.264 1000 103.669Z" fill="var(--fill-0, #FEC1A1)"/>
<path id="Vector_95" fill-rule="evenodd" clip-rule="evenodd" d="M1000 103.669C1000.44 105.577 1000.46 106.173 1000.66 107.561C1000.72 108.056 1000.69 108.53 1000.58 108.941C1000.41 108.787 1000.26 108.545 1000.15 108.201C999.626 106.804 999.286 104.283 999.269 103.065C999.265 102.894 999.281 102.732 999.315 102.58C999.629 102.789 999.88 103.142 1000 103.669Z" fill="var(--fill-0, #FEA27B)"/>
<path id="Vector_96" fill-rule="evenodd" clip-rule="evenodd" d="M1003.37 102.568C1003.47 104.522 1003.39 105.112 1003.35 106.515C1003.24 108.643 1001.41 110.069 1000.76 108.078C1000.24 106.682 999.895 104.16 999.878 102.943C999.82 100.724 1003.24 100.103 1003.37 102.568Z" fill="var(--fill-0, #FEC1A1)"/>
<path id="Vector_97" fill-rule="evenodd" clip-rule="evenodd" d="M1074.05 91.9105C1074.05 94.967 1076.55 97.46 1079.6 97.46C1082.66 97.46 1085.15 94.967 1085.15 91.9105C1085.15 88.9863 1082.87 86.5795 1080 86.3765C1079.71 82.814 1079.06 79.9605 1077.85 77.8018C1077.25 76.7377 1076.52 75.8452 1075.64 75.1187C1074.83 74.7603 1074.01 74.3971 1073.19 74.0225C1073.1 74.3235 1073.02 74.628 1072.94 74.9357C1074.62 75.6636 1075.86 76.8196 1076.75 78.4144C1077.87 80.3994 1078.48 83.0694 1078.75 86.4278C1076.09 86.8413 1074.05 89.1448 1074.05 91.9105Z" fill="var(--fill-0, #D6D6D6)"/>
<path id="Vector_98" fill-rule="evenodd" clip-rule="evenodd" d="M1033.95 103.234C1033.96 103.442 1034.01 103.641 1034.09 103.821C1034.26 104.192 1034.56 104.483 1034.96 104.606C1035.35 104.728 1035.76 104.659 1036.11 104.448C1036.45 104.239 1036.73 103.892 1036.87 103.456L1036.88 103.431V103.43C1037 103.003 1036.97 102.569 1036.81 102.21C1036.64 101.839 1036.34 101.549 1035.94 101.426C1035.55 101.304 1035.14 101.373 1034.79 101.584C1034.64 101.676 1034.5 101.796 1034.38 101.938L1033.78 101.566L1034.25 93.3527C1035.01 92.0981 1036.2 91.1482 1037.54 90.5609C1038.78 90.0212 1040.14 89.7888 1041.44 89.9075C1042.71 90.0243 1043.91 90.4831 1044.83 91.3262C1045.58 92.0155 1046.16 92.9682 1046.44 94.2084C1046.41 94.3829 1046.37 94.5602 1046.33 94.7406L1044.56 101.708L1043.65 102.022C1043.59 101.932 1043.51 101.849 1043.43 101.776C1043.13 101.504 1042.74 101.36 1042.33 101.407C1041.92 101.454 1041.57 101.684 1041.33 102.018C1041.11 102.347 1040.99 102.777 1041.04 103.231C1041.09 103.684 1041.3 104.077 1041.6 104.345C1041.91 104.617 1042.3 104.761 1042.71 104.714C1043.12 104.666 1043.47 104.436 1043.7 104.103C1043.86 103.878 1043.96 103.605 1043.99 103.309L1045.34 102.845L1045.68 102.727L1045.77 102.381L1047.62 95.0677L1047.62 95.0515C1048.63 90.6374 1047.56 87.7186 1045.62 86.1231C1044.66 85.3317 1043.49 84.8769 1042.25 84.73C1042.63 82.4058 1043.46 80.4951 1044.65 79.003C1045.56 77.8545 1046.68 76.9513 1047.96 76.2836C1046.8 76.7173 1045.5 77.1882 1044.13 77.6791C1043.97 77.8559 1043.82 78.0358 1043.67 78.2243C1042.33 79.9131 1041.4 82.0692 1040.99 84.6878C1040.1 84.7291 1039.21 84.9154 1038.35 85.2455C1035.53 86.3315 1033.14 88.9312 1032.95 92.7418H1032.95L1032.42 101.883L1032.4 102.276L1032.74 102.486L1033.95 103.234ZM1038.82 86.485C1039.86 86.0839 1040.97 85.9275 1042.02 86.0376C1043.04 86.1449 1044 86.5088 1044.78 87.1494C1045.99 88.1434 1046.76 89.8258 1046.67 92.2837C1046.34 91.6537 1045.91 91.1185 1045.43 90.6737C1044.35 89.692 1042.97 89.1589 1041.52 89.0252C1040.08 88.8935 1038.56 89.151 1037.19 89.7501C1036.15 90.2044 1035.19 90.8562 1034.41 91.6839C1034.93 89.0791 1036.74 87.2885 1038.82 86.485Z" fill="var(--fill-0, #D6D6D6)"/>
<path id="Vector_99" fill-rule="evenodd" clip-rule="evenodd" d="M1082.13 114.333C1079.96 113.491 1078.19 112.307 1076.9 110.924C1076.95 110.836 1077 110.749 1077.05 110.661C1077.05 110.658 1077.06 110.654 1077.06 110.651L1077.06 110.65C1078.51 107.982 1078.62 105.139 1077.27 103.53C1077.27 103.531 1077.27 103.531 1077.27 103.532V103.531V103.53L1077.27 103.53C1076.88 102.935 1075.68 102.884 1074.99 103.245L1074.99 103.244C1074.95 103.265 1074.91 103.288 1074.88 103.312C1074.87 103.319 1074.87 103.326 1074.86 103.333C1074.87 103.325 1074.87 103.318 1074.87 103.311C1073.02 104.953 1072.59 107.866 1073.71 110.698C1073.62 110.774 1073.53 110.85 1073.44 110.924C1072.01 112.071 1070.13 112.965 1067.77 113.514L1069.36 114.812L1068.58 116.756C1071.23 116.189 1073.35 114.956 1074.92 113.439C1074.92 113.439 1074.92 113.44 1074.92 113.441C1074.95 113.413 1074.97 113.383 1075 113.355C1075.05 113.304 1075.11 113.253 1075.16 113.202C1076.42 114.824 1078.29 116.265 1080.79 117.218L1080.35 115.283L1082.13 114.333ZM1076.88 105.102C1076.91 105.126 1076.94 105.152 1076.97 105.178C1076.98 105.189 1077 105.199 1077.01 105.211C1076.72 106.441 1076.24 107.598 1075.54 108.646C1075.5 108.712 1075.45 108.776 1075.41 108.842C1074.78 107.652 1074.48 106.384 1074.54 105.103C1074.59 105.079 1074.63 105.055 1074.67 105.033C1075.38 104.7 1076.32 104.678 1076.88 105.102Z" fill="var(--fill-0, #A49EFF)"/>
</g>
<path id="Vector_100" fill-rule="evenodd" clip-rule="evenodd" d="M1035.36 102.745L1034.15 101.996L1033.81 101.787L1033.84 101.394L1034.36 92.2528H1034.36C1034.55 88.4422 1036.94 85.8424 1039.76 84.7565C1041 84.2811 1042.31 84.0962 1043.56 84.2277C1044.84 84.3618 1046.05 84.822 1047.04 85.6343C1048.97 87.23 1050.04 90.1486 1049.04 94.563L1049.03 94.5791L1047.18 101.893L1047.09 102.239L1046.75 102.356L1045.41 102.821C1045.37 103.116 1045.27 103.389 1045.11 103.614C1044.88 103.948 1044.53 104.178 1044.12 104.225C1043.71 104.273 1043.32 104.128 1043.02 103.856C1042.72 103.588 1042.51 103.195 1042.45 102.742C1042.4 102.288 1042.52 101.858 1042.75 101.529C1042.98 101.196 1043.33 100.966 1043.74 100.918C1044.15 100.871 1044.54 101.016 1044.84 101.287C1044.93 101.361 1045 101.443 1045.07 101.534L1045.98 101.219L1047.74 94.252H1047.74C1047.78 94.0716 1047.82 93.8943 1047.85 93.7199C1047.57 92.4794 1046.99 91.5269 1046.24 90.8376C1045.32 89.9945 1044.12 89.5357 1042.85 89.419C1041.56 89.3003 1040.19 89.5329 1038.95 90.0724C1037.61 90.6596 1036.42 91.6095 1035.66 92.8642L1035.19 101.077L1035.79 101.449C1035.91 101.307 1036.05 101.188 1036.2 101.096C1036.55 100.885 1036.96 100.815 1037.36 100.937C1037.75 101.06 1038.05 101.351 1038.22 101.722C1038.38 102.08 1038.42 102.514 1038.29 102.942V102.942L1038.28 102.968C1038.15 103.404 1037.87 103.751 1037.52 103.959C1037.18 104.17 1036.76 104.24 1036.37 104.117C1035.97 103.995 1035.67 103.704 1035.51 103.333C1035.43 103.152 1035.38 102.953 1035.36 102.745ZM1048.08 91.7944C1048.18 89.3366 1047.4 87.654 1046.19 86.6601C1045.41 86.0198 1044.45 85.6556 1043.43 85.5484C1042.38 85.4385 1041.28 85.5949 1040.24 85.9958C1038.15 86.7995 1036.34 88.5901 1035.83 91.1944C1036.6 90.3667 1037.56 89.7147 1038.6 89.2606C1039.97 88.6618 1041.49 88.404 1042.93 88.5357C1044.39 88.6696 1045.77 89.2027 1046.84 90.1842C1047.33 90.6292 1047.75 91.1645 1048.08 91.7944Z" fill="var(--fill-0, #7D88D0)"/>
<path id="Vector_101" fill-rule="evenodd" clip-rule="evenodd" d="M1072.99 72.6897C1075.77 73.4091 1077.7 74.9266 1079.01 77.2584C1080.46 79.8301 1081.11 83.3841 1081.29 87.9535L1080.04 87.9976C1079.87 83.6271 1079.26 80.2562 1077.92 77.8707C1076.85 75.9688 1075.3 74.6887 1073.09 74.0175L1072.99 72.6897Z" fill="var(--fill-0, #7D88D0)"/>
<path id="Vector_102" fill-rule="evenodd" clip-rule="evenodd" d="M1080.77 96.9166C1083.83 96.9166 1086.32 94.4236 1086.32 91.3672C1086.32 88.3105 1083.83 85.8177 1080.77 85.8177C1077.71 85.8177 1075.22 88.3107 1075.22 91.3672C1075.22 94.4236 1077.71 96.9166 1080.77 96.9166Z" fill="var(--fill-0, #7D88D0)"/>
<path id="Vector_103" fill-rule="evenodd" clip-rule="evenodd" d="M1080.77 94.2829C1082.38 94.2829 1083.69 92.9729 1083.69 91.3672C1083.69 89.7612 1082.38 88.4512 1080.77 88.4512C1079.17 88.4512 1077.86 89.7612 1077.86 91.3672C1077.86 92.9731 1079.17 94.2829 1080.77 94.2829Z" fill="var(--fill-0, #6460B2)"/>
<path id="Vector_104" fill-rule="evenodd" clip-rule="evenodd" d="M1050.21 75.393C1048.58 76.0794 1047.17 77.1186 1046.06 78.5142C1044.8 80.0972 1043.94 82.1453 1043.59 84.6656L1042.35 84.499C1042.73 81.7421 1043.69 79.4891 1045.08 77.7352C1046.45 76.0149 1048.22 74.7801 1050.28 74.0242L1050.21 75.393Z" fill="var(--fill-0, #7D88D0)"/>
</g>
</g>
</g>
<defs>
<clipPath id="clip0_0_4">
<rect width="1136" height="173" rx="24" fill="white"/>
</clipPath>
</defs>
</svg>
