<svg width="1201" height="1180" viewBox="0 0 1201 1180" fill="none" xmlns="http://www.w3.org/2000/svg">
<path d="M20.1549 1065.04C19.4689 1065.04 18.795 1064.83 18.232 1064.42C17.523 1063.91 17.047 1063.14 16.906 1062.28L7.40798 1003.91C3.52398 980.027 -2.34707 943.939 15.6859 915.331C30.3629 892.044 56.8939 879.219 90.3889 879.219C108.079 879.219 126.536 882.77 143.766 889.489C168.274 899.045 190.569 912.657 212.129 925.82C227.134 934.979 242.637 944.442 258.331 952.126C295.891 970.516 338.506 980.236 381.565 980.236C403.643 980.236 425.409 977.669 446.258 972.607C465.383 967.962 479.212 962.18 489.778 954.41C498.534 947.968 506.427 939.14 513.802 927.514C494.525 926.444 474.59 923.97 454.455 920.147C400.185 909.84 361.211 892.873 331.799 866.751C297.097 835.932 275.681 790.526 273.04 742.178C270.554 696.597 284.572 649.988 312.514 610.938C330.985 585.124 352.494 566.935 376.448 556.875C391.352 550.617 408.754 547.309 426.777 547.309C459.636 547.309 493.108 558.058 518.609 576.799C564.326 610.396 593.308 669.565 596.135 735.074C598.24 783.839 586.942 837.033 561.614 897.542C595.508 894.966 626.434 887.139 653.61 874.256C715.019 845.143 757.492 785.959 759.3 726.987C759.354 725.205 760.817 723.797 762.588 723.797C762.622 723.797 785.722 724.504 785.722 724.504C786.595 724.53 787.421 724.903 788.019 725.539C788.617 726.175 788.938 727.023 788.911 727.895C787.808 763.798 774.882 799.491 751.529 831.116C729.597 860.814 700.125 884.988 666.298 901.025C631.522 917.512 591.613 926.565 547.658 927.946C535.794 950.763 522.946 966.787 507.324 978.275C489.156 991.636 467.761 997.867 453.247 1001.39C430.164 1007 406.071 1009.84 381.637 1009.84C334.019 1009.84 286.874 999.085 245.301 978.731C228.347 970.428 212.254 960.603 196.693 951.102C175.288 938.035 155.07 925.694 133.003 917.089C119.419 911.79 104.379 908.873 90.652 908.873C67.513 908.873 49.791 916.775 40.746 931.126C29.613 948.787 32.455 973.381 36.648 999.149L46.145 1057.52C46.437 1059.31 45.2189 1061 43.4249 1061.3L20.683 1065C20.508 1065.03 20.3309 1065.04 20.1549 1065.04ZM427.073 576.79C412.981 576.79 399.442 579.348 387.919 584.187C369.102 592.09 351.837 606.889 336.605 628.175C312.568 661.771 300.498 701.683 302.623 740.56C304.833 781.07 322.637 818.991 351.47 844.601C376.714 867.02 411.195 881.777 459.983 891.041C483.472 895.501 506.671 897.984 528.969 898.426C529.721 896.742 530.462 895.056 531.193 893.37C556.972 833.907 568.535 782.546 566.54 736.352C564.097 679.726 539.621 629.003 501.065 600.669C481.427 586.234 455.692 577.548 430.458 576.838C429.328 576.806 428.198 576.79 427.073 576.79Z" fill="#ED2E40"/>
<path d="M790.417 723.284C789.221 722.012 787.568 721.268 785.823 721.214L762.793 720.508C762.724 720.506 762.656 720.505 762.588 720.505C759.045 720.505 756.121 723.321 756.012 726.886C754.241 784.656 712.522 842.684 652.201 871.282C626.827 883.311 598.114 890.871 566.722 893.806C590.786 834.903 601.493 782.837 599.426 734.932C596.556 668.436 567.072 608.328 520.559 574.145C494.506 554.998 460.324 544.016 426.778 544.016C408.322 544.016 390.478 547.413 375.175 553.839C350.651 564.138 328.668 582.704 309.838 609.021C281.461 648.679 267.226 696.031 269.754 742.355C272.442 791.573 294.26 837.81 329.614 869.21C359.49 895.745 398.964 912.957 453.842 923.378C472.139 926.852 490.275 929.22 507.91 930.442C501.663 939.431 495.04 946.453 487.828 951.757C477.627 959.259 464.171 964.867 445.482 969.406C424.887 974.407 403.382 976.943 381.563 976.943C339.002 976.943 296.89 967.339 259.778 949.168C244.205 941.542 228.771 932.12 213.845 923.008C192.145 909.762 169.73 896.079 144.963 886.421C127.356 879.555 108.486 875.926 90.3908 875.926C55.7228 875.926 28.2038 889.297 12.9018 913.574C-5.79624 943.237 0.194692 980.065 4.15969 1004.43L13.6568 1062.8C13.9378 1064.53 14.8908 1066.07 16.3078 1067.09C17.4348 1067.9 18.7827 1068.33 20.1547 1068.33C20.5067 1068.33 20.8597 1068.3 21.2117 1068.25L43.9538 1064.54C47.5418 1063.96 49.9777 1060.58 49.3937 1056.99L39.8968 998.62C35.8088 973.499 33.0117 949.569 43.5307 932.88C54.8907 914.855 77.9307 912.163 90.6527 912.163C103.981 912.163 118.596 915.001 131.807 920.153C153.609 928.655 173.704 940.922 194.978 953.91C210.608 963.452 226.77 973.319 243.854 981.686C285.872 1002.26 333.517 1013.13 381.638 1013.13C406.331 1013.13 430.686 1010.26 454.025 1004.59C468.813 1001 490.629 994.637 509.275 980.924C524.922 969.417 537.824 953.548 549.683 931.168C593.34 929.573 633.028 920.437 667.708 903.997C702.023 887.73 731.924 863.203 754.176 833.07C777.929 800.903 791.078 764.568 792.2 727.994C792.255 726.251 791.614 724.556 790.417 723.284ZM748.882 829.161C727.273 858.423 698.23 882.245 664.889 898.05C629.933 914.622 589.592 923.56 545.623 924.711C535.719 944.125 523.347 962.407 505.376 975.623C487.681 988.636 466.707 994.736 452.472 998.193C429.423 1003.79 405.556 1006.55 381.638 1006.55C335.05 1006.55 288.244 996.09 246.75 975.775C229.956 967.551 213.918 957.762 198.408 948.293C176.876 935.148 156.537 922.733 134.199 914.022C120.448 908.659 105.169 905.582 90.6527 905.582C68.7207 905.582 48.5297 912.604 37.9617 929.371C26.2147 948.007 29.1007 973.262 33.3987 999.678L42.8958 1058.05L20.1537 1061.75L10.6568 1003.38C6.85176 979.989 1.10075 944.641 18.4697 917.086C34.1047 892.279 61.6897 882.51 90.3887 882.51C108.218 882.51 126.476 886.279 142.569 892.555C166.803 902.006 188.972 915.54 210.413 928.628C225.474 937.822 241.048 947.328 256.881 955.081C295.233 973.859 338.503 983.526 381.561 983.526C403.673 983.526 425.727 980.977 447.033 975.803C466.594 971.052 480.796 965.098 491.726 957.061C503.138 948.668 512.04 937.211 519.496 924.494C498.659 923.625 477.134 921.101 455.068 916.911C401.409 906.721 362.933 890 333.984 864.288C299.935 834.047 278.919 789.473 276.326 741.997C273.879 697.164 287.68 651.3 315.191 612.852C333.301 587.541 354.341 569.728 377.723 559.909C392.662 553.635 409.5 550.6 426.777 550.6C458.179 550.6 491.042 560.624 516.659 579.451C561.581 612.464 590.063 670.695 592.848 735.217C594.986 784.78 583.093 839.098 556.496 901.188C588.954 899.261 622.965 892.426 655.02 877.231C717.515 847.603 760.746 787.265 762.591 727.089L785.621 727.795C784.541 763.023 771.837 798.075 748.882 829.161Z" fill="#E0E0E0"/>
<path d="M569.828 736.21C567.342 678.596 542.364 626.934 503.014 598.016C482.217 582.731 455.896 574.261 430.549 573.548C429.388 573.515 428.227 573.499 427.071 573.499C412.797 573.499 398.93 575.993 386.644 581.153C367.255 589.295 349.519 604.471 333.928 626.259C309.456 660.462 297.171 701.119 299.334 740.74C301.593 782.122 319.799 820.874 349.283 847.061C374.99 869.892 409.971 884.894 459.368 894.274C480.12 898.215 504.732 901.385 531.08 901.751C532.146 899.397 533.189 897.036 534.212 894.676C560.194 834.75 571.844 782.915 569.828 736.21ZM528.173 892.059C527.722 893.099 527.283 894.105 526.85 895.084C505.401 894.532 483.135 892.088 460.596 887.808C412.416 878.659 378.435 864.148 353.654 842.14C325.475 817.111 308.071 780.022 305.907 740.382C303.824 702.25 315.677 663.081 339.281 630.091C354.152 609.309 370.945 594.886 389.192 587.224C400.315 582.553 413.413 580.084 427.07 580.084C428.165 580.084 429.264 580.1 430.363 580.13C454.943 580.821 480.001 589.275 499.114 603.322C536.873 631.071 560.849 680.855 563.25 736.495C565.223 782.18 553.749 833.066 528.173 892.059Z" fill="#E0E0E0"/>
<path d="M1196.42 240.73C1201.04 226.743 1201.5 212.406 1198.47 199.024C1192.63 173.186 1173.79 150.95 1146.8 142.023L1120.12 133.116C1112.49 130.569 1107.79 122.833 1109.2 114.915C1114.58 84.8181 1105.87 52.2751 1077.11 42.7501L954.998 2.32411C926.241 -7.18589 899.639 13.8161 885.942 41.1861C882.332 48.4001 873.903 51.7891 866.25 49.2341L839.63 40.3471C798.659 26.7841 754.476 49.0081 740.91 89.9561L609.724 486.295C596.171 527.253 618.384 571.449 659.342 585.002L674.357 589.975C682.912 592.808 687.553 602.037 684.726 610.594L684.721 610.61C681.168 621.309 686.982 632.868 697.678 636.399C708.377 639.952 719.936 634.138 723.479 623.452L723.483 623.44C726.315 614.877 735.554 610.232 744.116 613.068L753.871 616.299L759.627 618.205C768.185 621.039 772.827 630.273 769.995 638.832L752.999 690.198C748.783 702.936 752.616 716.366 761.678 725.079L759.382 740.332C756.59 752.013 771.33 758.719 771.33 758.719C771.33 758.719 787.07 762.52 792.07 751.599L799.652 738.185C812.592 737.004 824.239 728.354 828.59 715.234L845.594 663.856C848.427 655.297 857.661 650.654 866.221 653.486L881.746 658.622C890.306 661.454 894.949 670.687 892.119 679.247L892.112 679.267C888.568 689.953 894.383 701.512 905.069 705.056C915.777 708.597 927.327 702.795 930.88 692.096C933.709 683.533 942.945 678.886 951.507 681.717L966.514 686.679C1007.47 700.231 1051.66 678.031 1065.22 637.083L1196.42 240.73ZM1064.25 114.601L922.194 67.7741C910.764 64.0061 907.201 49.5831 915.553 40.9181C922.78 33.4211 932.366 30.1761 944.342 34.1441L1066.45 74.5691C1078.4 78.5171 1084.18 86.7271 1085.56 96.9491C1087.16 108.881 1075.68 118.37 1064.25 114.601Z" fill="#E0E0E0"/>
<path d="M954.326 660.163L681.694 566.189C643.788 553.123 623.651 511.801 636.717 473.895L751.595 140.619C770.04 87.1073 828.374 58.6803 881.886 77.1253L1098 151.62C1151.52 170.065 1179.94 228.398 1161.5 281.91L1046.62 615.186C1033.55 653.092 992.232 673.229 954.326 660.163Z" fill="#F7F7F7"/>
<g clip-path="url(#clip0_104_4059)">
<path d="M955.291 214.894C959.905 216.444 964.901 213.96 966.451 209.346C968.001 204.732 965.517 199.736 960.903 198.187C956.289 196.637 951.293 199.121 949.743 203.735C948.194 208.349 950.678 213.345 955.291 214.894Z" stroke="#ED2E40" stroke-width="12" stroke-linecap="round" stroke-linejoin="round"/>
<path d="M947.884 163.601C940.617 172.781 940.589 185.321 947.674 194.673C939.192 186.712 926.655 185.29 916.749 191.259" stroke="#ED2E40" stroke-width="12" stroke-linecap="round" stroke-linejoin="round"/>
<path d="M947.674 194.673L952.399 199.978" stroke="#ED2E40" stroke-width="12" stroke-linecap="round" stroke-linejoin="round"/>
<path d="M992.16 178.471C992.412 190.176 984.865 200.191 973.572 203.37C985.28 201.725 996.134 208.159 1000.29 219.315" stroke="#ED2E40" stroke-width="12" stroke-linecap="round" stroke-linejoin="round"/>
<path d="M973.572 203.37L966.602 204.748" stroke="#ED2E40" stroke-width="12" stroke-linecap="round" stroke-linejoin="round"/>
<path d="M965.244 250.308C954.945 244.99 949.678 232.995 953.048 221.577C948.565 232.156 937.542 238.68 926.121 236.704" stroke="#ED2E40" stroke-width="12" stroke-linecap="round" stroke-linejoin="round"/>
<path d="M955.293 214.894L953.048 221.577" stroke="#ED2E40" stroke-width="12" stroke-linecap="round" stroke-linejoin="round"/>
<path d="M973.483 181.494C969.586 179.256 965.409 177.853 960.952 177.286" stroke="#ED2E40" stroke-width="12" stroke-linecap="round" stroke-linejoin="round"/>
<path d="M972.671 232.351C976.576 230.409 979.928 227.351 982.443 224.012" stroke="#ED2E40" stroke-width="12" stroke-linecap="round" stroke-linejoin="round"/>
<path d="M928.143 205.775C928.133 209.956 928.959 214.416 930.901 218.322" stroke="#ED2E40" stroke-width="12" stroke-linecap="round" stroke-linejoin="round"/>
</g>
<path d="M1047.76 611.869L1126.91 382.258C1123.03 380.846 1116.27 378.621 1112.33 377.467C1075.1 366.627 1041.38 352.574 1002.63 351.448C963.864 350.315 940.712 361.839 904.348 348.382C863.214 333.153 874.255 284.22 804.035 270.941C783.772 267.109 725.26 289.572 710.302 260.415L636.13 475.68C623.395 514.155 646.906 556.48 685.381 569.216L772.746 598.76C784.401 602.701 790.69 615.312 786.824 626.993L766.996 686.892C762.675 699.947 769.756 714.033 782.811 718.354L785.93 719.386C798.985 723.707 813.07 716.627 817.391 703.572L837.021 644.271C840.922 632.484 853.674 626.126 865.436 630.104L954.326 660.163C992.801 672.898 1035.41 653.462 1047.76 611.869Z" fill="#ED2E40"/>
<path d="M972.335 492.563C971.634 483.569 978.356 475.71 987.35 475.009C996.343 474.308 1004.2 481.03 1004.9 490.024C1005.61 499.018 998.883 506.877 989.889 507.578C980.895 508.279 973.036 501.556 972.335 492.563Z" fill="#F7F7F7"/>
<path d="M864.487 417.455C880.287 407.631 885.131 386.859 875.308 371.06C865.484 355.26 844.712 350.415 828.913 360.239C813.113 370.063 808.268 390.835 818.092 406.634C827.916 422.434 848.687 427.278 864.487 417.455Z" fill="#F7F7F7"/>
<path d="M942.763 425.295C942.412 420.798 945.774 416.869 950.271 416.518C954.768 416.168 958.697 419.529 959.047 424.025C959.398 428.522 956.036 432.451 951.539 432.802C947.043 433.153 943.113 429.792 942.763 425.295Z" fill="#F7F7F7"/>
<path d="M705.204 507.243C704.678 500.498 709.72 494.603 716.465 494.078C723.21 493.552 729.104 498.594 729.63 505.339C730.156 512.084 725.114 517.979 718.369 518.504C711.625 519.03 705.73 513.988 705.204 507.243Z" fill="#F7F7F7"/>
<path d="M748.106 348.257C747.668 342.636 751.869 337.724 757.49 337.286C763.111 336.848 768.023 341.049 768.461 346.671C768.899 352.292 764.697 357.204 759.076 357.642C753.456 358.079 748.544 353.878 748.106 348.257Z" fill="#F7F7F7"/>
<path d="M804.02 513.875C803.845 511.626 805.525 509.662 807.774 509.486C810.022 509.311 811.987 510.992 812.162 513.24C812.337 515.488 810.657 517.453 808.409 517.628C806.16 517.803 804.195 516.123 804.02 513.875Z" fill="#F7F7F7"/>
<path d="M914.125 533.963C913.687 528.342 917.888 523.43 923.51 522.992C929.131 522.554 934.043 526.755 934.481 532.376C934.919 537.997 930.718 542.909 925.096 543.347C919.475 543.785 914.563 539.584 914.125 533.963Z" fill="#F7F7F7"/>
<path d="M1044.98 380.515C1044.54 374.894 1048.75 369.982 1054.37 369.544C1059.99 369.106 1064.9 373.307 1065.34 378.928C1065.78 384.549 1061.57 389.461 1055.95 389.899C1050.33 390.337 1045.42 386.136 1044.98 380.515Z" fill="#F7F7F7"/>
<path d="M763.857 777.264C751.489 773.001 744.317 761.266 747.837 751.054L750.325 743.835C753.845 733.623 766.724 728.8 779.092 733.063C791.46 737.326 798.632 749.061 795.112 759.273L792.624 766.492C790.32 773.176 784.007 777.551 776.451 778.581C772.465 779.126 768.13 778.737 763.857 777.264Z" fill="#7A7A7A"/>
<path d="M777.831 764.37L760.797 758.499C748.429 754.236 741.104 742.947 744.435 733.284L752.45 710.029C755.781 700.366 768.508 695.989 780.876 700.252L797.908 706.123C803.151 707.93 807.49 711 810.492 714.674C814.573 719.666 816.191 725.772 814.272 731.338L806.255 754.593C802.924 764.256 790.198 768.633 777.831 764.37Z" fill="#8F8F90"/>
<path d="M56.6388 1179.76L45.4868 1164.53L36.0879 1105.6L44.5939 1104.24L56.6388 1179.76Z" fill="#E0E0E0"/>
<path d="M42.2292 1122.2C30.6292 1123.63 20.2693 1117.02 19.0903 1107.45L18.2563 1100.68C17.0773 1091.1 25.5242 1082.17 37.1252 1080.75C48.7252 1079.32 59.0853 1085.93 60.2643 1095.5L61.0982 1102.27C61.8702 1108.54 58.5183 1114.53 52.8573 1118.32C49.8683 1120.32 46.2372 1121.71 42.2292 1122.2Z" fill="#7A7A7A"/>
<path d="M48.3889 1106.37L32.4129 1108.34C20.8129 1109.77 10.5049 1103.58 9.38887 1094.52L6.70393 1072.7C5.58793 1063.64 14.0868 1055.14 25.6868 1053.71L41.6629 1051.74C46.5809 1051.14 51.2659 1051.9 55.1179 1053.67C60.3519 1056.08 64.0449 1060.34 64.6879 1065.56L67.3729 1087.38C68.4889 1096.44 59.9889 1104.94 48.3889 1106.37Z" fill="#8F8F90"/>
<defs>
<clipPath id="clip0_104_4059">
<rect width="105.75" height="105.75" fill="white" transform="translate(924.668 140) rotate(18.5647)"/>
</clipPath>
</defs>
</svg>
