<svg width="396" height="297" viewBox="0 0 396 297" fill="none" xmlns="http://www.w3.org/2000/svg">
<g clip-path="url(#clip0_107_5531)">
<path d="M293.078 69.7539C296.058 73.5935 305.476 72.8842 309.616 76.8316C315.384 82.3328 316.474 88.6649 319.724 95.5898C320.109 96.4069 321.067 97.0813 321.587 97.7646C321.732 101.047 321.905 105.075 324.466 107.481C328.091 110.887 333.695 108.226 337.918 107.743C340.741 107.823 342.012 106.977 344.54 106.3C352.686 104.12 360.372 113.217 361.653 120.667C366.039 146.201 366.28 172.8 367.19 198.678C367.269 200.962 367.351 203.388 367.763 205.661C368.682 209.049 368.121 211.547 368.179 214.545C368.27 219.246 361.516 223.641 358.565 220.446C354.467 220.734 350.491 219.622 346.538 218.653C345.7 221.695 344.781 225.297 344.405 228.368C343.192 238.307 340.532 247.745 336.707 256.994C336.115 258.424 335.258 260 334.743 261.394C334.817 262.802 334.528 265.09 334.338 266.522C332.733 278.65 327.213 287.17 320.665 297H206.356C212.511 276.751 225.717 259.203 244.941 249.721C244.98 249.694 245.018 249.67 245.057 249.643C244.419 246.895 246.888 243.381 246.937 239.814C247.059 230.845 244.939 226.144 246.636 217.052C248.735 204.95 255.347 194.125 257.218 181.936C257.461 180.345 258.441 176.403 257.208 175.174C256.411 174.939 255.774 174.939 255.099 175.634C252.736 178.068 250.261 180.615 247.859 182.988C241.099 189.689 234.096 196.14 226.863 202.326C223.505 205.216 219.343 209.216 215.39 210.97C214.781 210.103 214.415 208.793 214.141 207.769C213.166 204.128 211.31 200.887 209.873 197.431C209.562 196.69 209.731 196.488 209.887 195.725C207.285 196.231 204.687 196.766 202.097 197.331L201.267 197.386C200.752 196.824 200.841 195.917 200.718 194.963C200.289 190.123 197.261 185.893 194.445 182.216C194.12 174.828 194.647 166.498 194.44 159.037C194.363 156.26 194.647 151.684 194.189 149.133C195.749 146.663 198.376 150.905 199.122 144.766C200.041 144.528 201.158 144.405 202.114 144.273C205.749 144.077 205.951 141.877 205.109 138.894L207.328 136.907C214.047 136.111 222.015 135.687 228.858 135.125C228.983 131.416 228.779 124.684 229.126 121.541L229.508 121.258C229.337 121.142 229.046 120.926 229.056 120.697C229.133 118.773 228.278 112.958 229.316 111.659C232.638 112.939 230.269 114.825 233.856 114.644C239.51 114.359 243.222 121.129 244.33 125.897C246.544 116.227 245.706 101.195 252.981 93.0855C259.322 86.0181 268.436 86.1057 277.056 85.6538L290.652 84.9303C290.358 80.7287 290.51 73.181 293.078 69.7539Z" fill="#94B1DA"/>
<path d="M245.056 249.644C253.869 249.632 263.164 250.241 272.046 250.551C290.336 251.196 309.972 250.816 327.145 257.926C329.502 258.9 332.448 260.645 334.742 261.394C334.817 262.802 334.528 265.091 334.338 266.523C332.732 278.651 327.213 287.171 320.665 297H206.355C212.511 276.752 225.717 259.204 244.941 249.721C244.979 249.694 245.018 249.67 245.056 249.644Z" fill="#3E5EA3"/>
<path d="M229.316 111.66C232.638 112.94 230.269 114.825 233.856 114.644C239.51 114.359 243.222 121.129 244.33 125.897C244.837 127.191 245.02 127.804 245.82 128.991C246.891 130.583 250.324 131.659 250.367 133.114C248.564 135.063 245.134 131.001 244.014 129.577C243.133 134.778 242.245 139.97 241.638 145.211C241.542 146.046 241.446 146.882 241.277 147.706C240.545 149.681 230.784 161.744 228.695 164.568C223.806 171.175 219.405 177.257 215.344 184.683C213.9 187.325 211.548 192.978 209.969 195.695C209.942 195.705 209.913 195.715 209.887 195.726C207.285 196.231 204.687 196.766 202.097 197.331L201.267 197.386C200.752 196.824 200.841 195.917 200.718 194.963C200.289 190.124 197.261 185.894 194.445 182.216C194.12 174.829 194.647 166.499 194.44 159.037C194.363 156.261 194.647 151.684 194.189 149.133C195.749 146.663 198.376 150.906 199.122 144.767C200.041 144.528 201.158 144.405 202.114 144.274C205.749 144.077 205.951 141.878 205.109 138.894L207.328 136.907C214.047 136.111 222.015 135.687 228.858 135.125C228.983 131.416 228.779 124.685 229.126 121.542L229.508 121.258C229.337 121.143 229.046 120.927 229.056 120.697C229.133 118.773 228.278 112.958 229.316 111.66Z" fill="url(#paint0_linear_107_5531)"/>
<path d="M199.122 144.766C200.041 144.528 201.158 144.405 202.114 144.273C202.201 155.922 202.23 167.572 202.196 179.221C202.198 183.464 202.482 193.592 202.097 197.331L201.267 197.386C200.752 196.824 200.841 195.917 200.718 194.963C200.289 190.123 197.261 185.893 194.445 182.216C194.12 174.828 194.647 166.498 194.44 159.037C194.363 156.26 194.647 151.684 194.189 149.133C195.749 146.663 198.376 150.905 199.122 144.766Z" fill="#FEFEFE"/>
<path d="M229.315 111.66C232.637 112.94 230.268 114.825 233.855 114.644C239.51 114.359 243.222 121.129 244.329 125.897C244.837 127.191 245.02 127.804 245.819 128.991C246.89 130.583 250.323 131.659 250.366 133.114C248.563 135.063 245.133 131.001 244.013 129.577C243.951 129.414 243.939 129.364 243.852 129.215C241.96 125.975 241.471 121.635 238.787 118.915C236.715 116.814 234.702 116.59 231.98 116.523C232.413 119.625 232.813 120.585 229.508 121.258C229.337 121.143 229.045 120.927 229.055 120.697C229.132 118.773 228.277 112.958 229.315 111.66Z" fill="#1A1A1A"/>
<path d="M290.652 84.9307C292.014 96.1649 296.015 102.699 308.357 102.556C309.25 111.565 300.854 115.163 293.293 116.009C290.512 116.32 287.564 115.534 284.711 115.625C276.011 115.127 274.095 114.18 265.821 118.488C260.501 121.259 243.107 147.357 241.277 147.706C241.446 146.882 241.542 146.046 241.638 145.211C242.245 139.97 243.133 134.778 244.014 129.577C245.134 131.002 248.564 135.063 250.367 133.114C250.324 131.659 246.891 130.583 245.82 128.991C245.021 127.804 244.838 127.191 244.33 125.897C246.544 116.227 245.707 101.195 252.981 93.0859C259.322 86.0185 268.436 86.1061 277.056 85.6541L290.652 84.9307Z" fill="#1A1A1A"/>
<path d="M293.078 69.7539C296.059 73.5935 305.476 72.8842 309.616 76.8316C315.384 82.3328 316.474 88.6649 319.724 95.5898C320.109 96.4069 321.067 97.0813 321.587 97.7646C321.732 101.047 321.905 105.075 324.466 107.481C328.092 110.887 333.696 108.226 337.918 107.743C335.349 113.146 330.029 118.282 325.143 121.667C312.392 130.496 293.839 128.863 284.711 115.625C287.564 115.533 290.512 116.319 293.293 116.008C300.854 115.163 309.25 111.564 308.357 102.556C296.015 102.699 292.014 96.1645 290.652 84.9303C290.358 80.7287 290.51 73.181 293.078 69.7539Z" fill="#E99594"/>
<path d="M298.333 80.978C299.491 81.1181 300.078 81.4798 299.847 82.7456C299.349 85.5067 298.119 88.164 297.334 90.8933C298.408 90.9901 299.698 90.973 300.398 91.773C300.538 92.6315 300.557 92.2765 300.206 93.1714L300.006 93.1745C298.456 93.1846 296.46 93.0686 295.317 91.9389C295.189 91.5454 297.972 82.1241 298.333 80.978Z" fill="#1A1A1A"/>
<path d="M304.941 95.124C305.658 95.6266 305.516 95.3787 305.786 96.0983L305.437 96.5789C303.525 97.551 301.034 97.7689 298.937 97.3243C298.172 97.1226 298.068 97.0957 297.5 96.5537L297.681 96.0839C298.557 95.5868 302.654 95.6814 304.941 95.124Z" fill="#1A1A1A"/>
<path d="M303.482 78.1602C305.129 78.4865 307.456 78.6321 308.208 80.2577L307.902 81.0729C306.66 81.109 304.421 80.7039 303.434 79.842C303.14 78.9392 303.229 79.1898 303.482 78.1602Z" fill="#1A1A1A"/>
<path d="M294.613 77.4953C295.398 77.3512 295.843 77.3735 296.406 77.9237L296.26 78.4525C295.475 79.414 294.904 79.5356 293.727 79.9813C292.894 80.0566 292.167 80.2554 291.85 79.3488C292.459 77.9488 293.21 77.9331 294.613 77.4953Z" fill="#1A1A1A"/>
<path d="M294.265 199.891C293.454 198.764 292.496 197.526 292.782 196.037C292.907 195.376 293.369 194.841 293.928 194.488C295.401 193.555 350.512 198.602 356.008 199.822C359.597 204.767 360.086 211.449 359.154 217.325C358.998 218.373 358.8 219.413 358.564 220.446C354.467 220.734 350.49 219.622 346.538 218.653C336.153 214.511 318.426 204.865 306.065 208.329C303.191 209.134 281.189 216.61 285.139 206.714C285.746 205.197 292.467 200.893 294.265 199.891Z" fill="#E99594"/>
<path d="M342.78 141.105C343.724 141.289 343.596 141.112 344.138 141.683C344.86 145.379 345.356 152.288 345.611 156.199C346.063 163.329 346.425 170.465 346.694 177.604C346.858 181.744 347.359 191.862 346.949 195.378C346.28 195.315 346.09 195.364 345.625 194.937C345.818 195.473 342.674 141.711 342.78 141.105Z" fill="#3E5EA3"/>
<path d="M266.722 142.593C267.789 142.865 267.671 142.666 268.316 143.373C268.439 145.326 265.396 160.523 264.339 162.494C263.689 162.491 263.636 162.518 263.128 162.163C262.748 160.998 265.035 152.156 265.331 150.384C265.637 148.551 266.145 144.202 266.722 142.593Z" fill="#3E5EA3"/>
<path d="M215.388 210.97C219.341 209.216 223.503 205.216 226.861 202.327C234.095 196.14 241.098 189.69 247.857 182.989C250.259 180.615 252.734 178.068 255.098 175.634C255.772 174.94 256.41 174.939 257.207 175.174C258.439 176.403 257.46 180.345 257.216 181.936C255.346 194.125 248.733 204.95 246.634 217.052C244.937 226.144 247.058 230.845 246.935 239.814C246.887 243.381 244.417 246.895 245.055 249.644C245.017 249.67 244.978 249.694 244.94 249.721C225.715 259.204 212.509 276.752 206.354 297H180.066H132.93H31.2503C29.5137 294.747 28.3777 289.708 26.6614 288.925C27.4844 288.138 24.5052 283.563 25.1306 281.931C24.5023 281.676 22.7229 280.988 22.5019 280.372C18.6797 269.709 20.2892 255.822 22.0888 244.991C26.6652 246.823 32.4199 245.473 37.1157 244.671C49.5216 242.544 61.7255 239.373 73.598 235.194L75.5001 234.665C81.4807 232.823 91.6676 228.556 97.2608 225.877C101.945 224.016 106.213 221.456 110.65 219.232C110.598 218.03 107.947 215.276 107.228 213.587C106.819 212.625 106.228 211.066 105.824 210.167C106.115 209.589 107.815 208.35 108.418 207.868C106.202 205.771 105.574 201.307 104.968 198.341C110.545 196.865 114.341 194.897 119.042 191.539C124.693 198.616 133.004 197.343 141.225 197.296L159.049 197.186C160.904 197.174 166.472 197.029 168.056 197.214C168.573 200.198 168.523 203.928 168.929 205.979C172.379 206.511 177.043 202.681 180.77 202.226C182.235 202.047 182.841 202.095 184.293 202.175C187.728 203.42 190.597 204.357 192.143 200.033C192.724 199.713 193.759 199.29 194.405 199.006L198.699 197.901C198.035 202.778 196.119 205.282 192.36 208.395C191.036 209.492 187.524 211.363 186.946 211.893C187.425 212.255 188.134 212.83 188.635 213.109C196.073 209.491 200.82 203.418 200.716 194.963C200.839 195.917 200.75 196.824 201.265 197.386L202.096 197.331C204.686 196.766 207.283 196.231 209.885 195.726C209.729 196.488 209.56 196.69 209.871 197.432C211.308 200.887 213.164 204.128 214.139 207.769C214.413 208.794 214.779 210.104 215.388 210.97Z" fill="url(#paint1_linear_107_5531)"/>
<path d="M215.39 210.97C219.342 209.216 223.504 205.216 226.863 202.327C234.096 196.14 241.099 189.69 247.858 182.989C250.261 180.615 252.735 178.068 255.099 175.634C255.773 174.94 256.411 174.939 257.208 175.174C258.441 176.403 257.461 180.345 257.218 181.936C255.347 194.125 248.735 204.95 246.635 217.052C244.938 226.144 247.059 230.845 246.936 239.814C246.888 243.381 244.418 246.895 245.056 249.644C245.018 249.67 244.979 249.694 244.941 249.721C225.717 259.204 212.511 276.752 206.355 297H180.067C183.139 289.313 188.933 286.167 194.707 281.58C197.02 280.073 200.205 278.169 202.318 276.564C201.928 271.726 202.184 263.772 202.181 258.624L202.227 226.765C199.608 227.872 197.071 228.473 194.324 229.193L156.67 238.995C151.457 240.301 146.258 241.579 141 242.688C133.473 244.277 127.753 244.094 122.471 237.845C119.266 234.449 119.979 231.83 122.283 228.159C123.775 224.755 128.562 222.383 131.838 221.067C127.403 213.825 139.608 216.711 142.366 217.065L142.548 217.087C148.514 215.459 154.681 213.16 160.622 211.321C164.191 210.217 167.678 209.226 171.243 208.069C174.282 206.777 177.226 205.197 180.326 204.018C181.687 203.5 183.087 202.99 184.294 202.175C187.729 203.42 190.598 204.357 192.144 200.033C192.726 199.713 193.761 199.29 194.406 199.006L198.7 197.901C198.036 202.778 196.12 205.282 192.361 208.395C191.037 209.492 187.525 211.363 186.948 211.893C187.426 212.255 188.136 212.83 188.636 213.109C196.074 209.491 200.821 203.418 200.718 194.963C200.84 195.917 200.751 196.824 201.266 197.386L202.097 197.331C204.687 196.766 207.285 196.231 209.887 195.726C209.73 196.488 209.562 196.69 209.872 197.432C211.309 200.887 213.165 204.128 214.14 207.769C214.415 208.794 214.781 210.104 215.39 210.97Z" fill="#1A1A1A"/>
<path d="M200.718 194.963C200.84 195.917 200.751 196.824 201.266 197.386L202.097 197.331C204.687 196.766 207.285 196.231 209.887 195.725C209.73 196.488 209.562 196.69 209.872 197.432C211.309 200.887 213.165 204.128 214.14 207.769C214.415 208.794 214.781 210.104 215.39 210.97C194.346 230.424 160.647 225.286 135.399 235.018C132.086 236.295 128.792 238.172 125.195 238.187C124.202 238.17 123.294 237.895 122.471 237.844C119.266 234.449 119.979 231.829 122.283 228.159C123.775 224.754 128.562 222.383 131.838 221.067C127.403 213.825 139.608 216.711 142.366 217.065L142.548 217.087C148.514 215.459 154.681 213.159 160.622 211.321C164.191 210.217 167.678 209.226 171.243 208.068C174.282 206.777 177.226 205.197 180.326 204.018C181.687 203.5 183.087 202.99 184.294 202.175C187.729 203.42 190.598 204.356 192.144 200.033C192.726 199.712 193.761 199.289 194.406 199.006L198.7 197.9C198.036 202.778 196.12 205.281 192.361 208.394C191.037 209.492 187.525 211.363 186.948 211.893C187.426 212.255 188.136 212.83 188.636 213.109C196.074 209.491 200.821 203.418 200.718 194.963Z" fill="#E99594"/>
<path d="M178.722 222.031C177.533 220.754 174.794 218.491 174.186 217.183C174.519 215.538 182.232 210.867 184.149 209.489C185.44 210.391 185.926 210.718 186.947 211.893C187.425 212.255 188.135 212.829 188.635 213.108C189.274 213.884 189.22 213.583 189.225 214.405C188.049 216.557 181.132 220.364 178.722 222.031Z" fill="#FEFEFE"/>
<path d="M142.547 217.087C148.513 215.459 154.68 213.159 160.621 211.321C164.19 210.217 167.677 209.226 171.242 208.068C170.531 208.827 169.257 209.38 168.309 209.824C163.579 212.038 159.582 215.583 154.932 217.941C151.451 219.706 145.761 219.199 142.547 217.087Z" fill="#1A1A1A"/>
<path d="M131.838 221.067L133.84 222.027C129.967 223.019 127.903 224.031 124.59 226.331C123.943 226.78 122.718 227.916 122.283 228.159C123.775 224.754 128.562 222.383 131.838 221.067Z" fill="#1A1A1A"/>
<path d="M202.227 226.765C212.807 223.902 221.502 220.398 231.581 216.733C231.335 219.981 230.428 224.092 229.985 227.497C228.492 238.951 226.778 250.159 225.329 261.642C222.727 263.028 220.168 264.915 217.667 266.525C212.578 269.803 207.477 273.421 202.319 276.564C201.929 271.726 202.184 263.772 202.181 258.624L202.227 226.765Z" fill="url(#paint2_linear_107_5531)"/>
<path d="M97.2608 225.876C98.8156 240.046 103.477 261.223 115.034 270.797C115.973 271.574 117.257 272.051 117.744 272.977C117.632 273.574 117.372 274.046 116.711 274.207C120.951 279.168 123.875 283.112 127.466 288.578C128.964 290.86 131.42 294.988 132.93 297H31.2503C29.5137 294.747 28.3777 289.707 26.6614 288.925C27.4844 288.138 24.5052 283.563 25.1306 281.931C24.5023 281.676 22.7229 280.987 22.5019 280.371C18.6797 269.709 20.2892 255.822 22.0888 244.991C26.6652 246.823 32.4199 245.472 37.1157 244.671C49.5216 242.543 61.7255 239.373 73.598 235.193L75.5001 234.664C81.4807 232.823 91.6676 228.555 97.2608 225.876Z" fill="#FEFEFE"/>
<path d="M25.1319 281.931C26.8774 282.733 29.5728 283.264 31.4776 283.057C55.1358 280.497 78.8162 277.883 102.479 275.283C105.146 274.99 115.022 273.671 116.713 274.208C120.953 279.168 123.876 283.113 127.467 288.579C128.965 290.86 131.421 294.988 132.931 297H31.2516C29.515 294.747 28.379 289.707 26.6627 288.925C27.4857 288.138 24.5065 283.563 25.1319 281.931Z" fill="#3E5EA3"/>
<path d="M73.5977 235.193L75.4999 234.665C75.5716 244.517 74.0505 253.533 75.1843 263.423C75.523 266.378 78.4863 272.783 78.073 274.094C75.8087 274.296 75.3222 270.941 74.7363 269.257C70.9656 258.414 73.5243 246.421 73.5977 235.193Z" fill="#CCCBE5"/>
<path d="M67.3774 241.646L67.6321 241.66C70.819 241.812 72.5207 244.115 69.5841 246.602C66.2368 247.16 64.9865 244.151 67.3774 241.646Z" fill="#7578AE"/>
<path d="M68.7155 263.718C70.0369 263.427 71.3462 264.255 71.6519 265.572C71.9573 266.891 71.1456 268.207 69.8313 268.53C68.9678 268.739 68.0579 268.47 67.4489 267.822C66.8396 267.175 66.6251 266.25 66.8872 265.401C67.1494 264.554 67.8477 263.911 68.7155 263.718Z" fill="#7578AE"/>
<path d="M119.042 191.539C124.693 198.616 133.005 197.342 141.225 197.295L159.049 197.185C160.904 197.174 166.472 197.029 168.056 197.214C168.573 200.198 168.524 203.928 168.93 205.979C155.676 206.987 142.33 209.809 129.057 210.994C127.112 211.168 122.876 212.292 121.211 211.98C120.309 212.568 118.079 213.137 116.958 213.473C118.529 213.31 120.976 212.785 121.899 214.417C121.669 217.271 112.894 219.538 110.65 219.232C110.599 218.03 107.947 215.275 107.228 213.587C106.819 212.625 106.228 211.066 105.824 210.167C106.116 209.589 107.815 208.35 108.419 207.868C106.203 205.771 105.574 201.307 104.969 198.34C110.545 196.865 114.342 194.896 119.042 191.539Z" fill="#CC6565"/>
<path d="M108.418 207.868C110.823 206.404 112.707 205.383 115.463 204.593C123.316 202.34 133.051 204.751 121.21 211.98C120.309 212.568 118.079 213.137 116.958 213.473C118.529 213.31 120.976 212.785 121.899 214.417C121.669 217.271 112.894 219.538 110.65 219.232C110.599 218.03 107.947 215.275 107.228 213.587C106.819 212.625 106.228 211.066 105.824 210.167C106.115 209.589 107.815 208.35 108.418 207.868Z" fill="#FEFEFE"/>
<path d="M194.324 229.193C197.071 228.473 199.608 227.872 202.227 226.765L202.181 258.624C202.184 263.772 201.929 271.726 202.319 276.564C200.205 278.169 197.02 280.073 194.707 281.58C194.038 280.225 194.565 234.932 194.324 229.193Z" fill="#FEFEFE"/>
<path d="M62.7685 135.457C64.8151 133.102 66.2093 131.781 69.4071 132.223C69.1262 133.468 69.3541 133.264 68.1467 133.63C62.6654 135.292 61.1686 140.895 62.8325 145.939C64.4246 150.766 66.9777 157.829 70.5183 161.468C75.702 156.534 79.621 151.786 83.1317 145.537C83.824 144.305 85.0548 142.584 85.0252 141.178C85.0079 140.437 84.6879 139.735 84.1396 139.236C83.5582 138.712 82.3794 138.352 82.156 137.71C82.4942 137.078 83.014 136.93 83.727 136.756C85.2845 137.744 86.2002 138.491 87.3556 139.952C95.2684 142.446 103.55 143.575 108.108 152.106C111.136 157.775 113.674 166.435 116.12 172.705C117.547 176.363 121.019 185.278 121.879 188.808C120.835 190.168 120.468 190.594 119.043 191.539C114.343 194.897 110.547 196.865 104.97 198.341C105.576 201.307 106.204 205.771 108.42 207.868C107.816 208.35 106.117 209.589 105.826 210.167C106.229 211.066 106.82 212.625 107.23 213.587C107.948 215.276 110.6 218.03 110.651 219.232C106.214 221.456 101.946 224.016 97.2623 225.877C91.6691 228.556 81.4822 232.823 75.5017 234.665L73.5995 235.194C61.7271 239.373 49.5232 242.544 37.1173 244.671C32.4215 245.473 26.6668 246.823 22.0904 244.991C9.5945 241.02 8.14415 224.03 11.1647 213.354C9.86676 213.209 7.70219 213.094 6.68345 212.406C6.17432 211.301 8.7527 202.119 9.18263 200.367C12.7133 185.977 15.6752 171.49 18.9218 157.045C19.6813 153.666 20.2879 148.297 21.2693 145.201C32.3611 141.243 51.0474 137.341 62.7685 135.457Z" fill="#FEFEFE"/>
<path d="M105.824 210.167C106.228 211.066 106.819 212.625 107.229 213.587C107.947 215.275 110.599 218.03 110.65 219.232C106.213 221.455 101.945 224.016 97.2613 225.876C91.6681 228.555 81.4812 232.823 75.5006 234.664L73.5985 235.193C61.726 239.373 49.5221 242.543 37.1162 244.671C32.4204 245.472 26.6657 246.823 22.0893 244.991C9.59343 241.02 8.14308 224.03 11.1637 213.354C16.7126 214.113 22.5792 215.421 27.9497 215.969C28.2615 221.78 30.389 228.848 37.8211 227.881C48.8736 226.442 59.7198 222.476 70.3124 219.172C71.08 218.926 72.1086 218.624 72.9016 218.452L74.844 217.715C76.5252 216.982 78.6825 216.52 80.4533 215.941C86.0424 214.111 91.1606 213.062 96.9168 211.918C99.2785 211.259 104.363 210.968 105.824 210.167Z" fill="#CC6565"/>
<path d="M96.916 211.918C96.9817 210.817 97.1038 209.638 97.132 208.548C97.293 202.323 98.9128 196.471 99.7248 190.329C100.738 192.658 101.615 196.156 103.116 198.117C104.043 198.59 103.801 198.445 104.968 198.341C105.574 201.307 106.202 205.771 108.418 207.868C107.814 208.35 106.115 209.589 105.824 210.167C104.362 210.968 99.2777 211.259 96.916 211.918Z" fill="url(#paint3_linear_107_5531)"/>
<path d="M72.9018 218.453C72.2477 201.604 68.1205 183.821 70.9719 166.901C71.1156 166.048 71.0822 165.358 71.7242 164.834L72.1469 165.004C72.9947 166.478 72.2908 171.812 72.1799 173.806C72.0234 176.62 72.0058 179.244 72.0475 182.067C72.1582 188.483 72.534 194.891 73.1736 201.275C73.7443 207.002 74.4679 211.834 74.8442 217.715L72.9018 218.453Z" fill="#CCCBE5"/>
<path d="M89.1499 175.621L89.9231 175.734C91.1655 176.585 91.2295 180.071 91.3188 181.547C91.6616 187.205 91.0889 192.854 89.5252 198.306C86.1072 199.207 82.0288 199.385 78.5114 199.388C77.6149 199.352 77.0052 199.413 76.2305 198.979C75.1401 197.173 77.595 186.402 76.653 183.215C75.8998 180.666 78.8807 179.979 80.8866 179.639C84.1843 179.08 86.7013 178.237 89.1499 175.621Z" fill="#CCCBE5"/>
<path d="M93.0539 168.393C95.192 169.234 103.419 189.746 102.618 191.687C102.178 191.643 101.764 191.556 101.331 191.474C100.682 190.892 99.5849 187.055 99.1442 185.871C98.0012 182.797 96.7957 179.746 95.5278 176.722C94.5757 174.509 93.5098 172.178 92.6658 169.906C92.4109 169.219 92.7094 168.981 93.0539 168.393Z" fill="#CCCBE5"/>
<path d="M65.7405 197.588C69.5588 197.279 70.3824 200.66 66.987 202.651C64.884 203.149 62.4708 200.353 65.7405 197.588Z" fill="#7578AE"/>
<path d="M63.4139 176.622C67.156 176.414 67.8714 179.111 65.7658 181.793C61.8993 182.564 61.6056 179.042 63.4139 176.622Z" fill="#7578AE"/>
<path d="M336.886 83.1549C340.904 82.9368 344.931 82.8754 348.973 82.6485C357.487 82.1705 368.912 81.2929 375.758 87.3834C383.495 94.2656 380.977 108.436 380.65 117.813C380.286 128.129 379.338 138.713 378.255 148.976C377.532 155.368 377.169 162.046 376.471 168.522C375.224 180.258 373.681 191.961 371.847 203.619C371.242 207.696 370.797 212.026 370.101 216.06L364.302 249.039C363.51 253.437 362.191 258.13 361.71 262.527C361.541 264.058 362.148 267.738 362.095 269.721C362.035 271.837 361.038 275.365 361.089 276.985C361.288 283.62 361.69 290.362 361.765 297H359.086H347.435H320.664C327.212 287.171 332.732 278.65 334.337 266.523C334.527 265.09 334.816 262.802 334.742 261.394C335.257 260 336.114 258.424 336.706 256.994C340.531 247.745 343.191 238.307 344.404 228.368C344.78 225.298 345.699 221.695 346.537 218.653C350.49 219.622 354.466 220.734 358.563 220.446C361.515 223.641 368.269 219.246 368.178 214.545C368.12 211.547 368.681 209.049 367.761 205.661C367.35 203.388 367.268 200.962 367.189 198.678C366.279 172.8 366.038 146.201 361.652 120.667C360.371 113.217 352.685 104.12 344.539 106.3C342.011 106.977 340.74 107.823 337.917 107.743C333.694 108.226 328.09 110.888 324.465 107.481C321.904 105.075 321.73 101.047 321.586 97.7647C322.987 98.1257 325.965 99.474 326.995 99.4374C328.492 98.9149 329.426 98.6458 331.061 98.8973C336.386 99.7166 335.656 89.8321 335.317 86.5586C335.856 85.5809 336.422 84.2016 336.886 83.1549Z" fill="#1A1A1A"/>
<path d="M347.436 297C350.861 293.987 356.415 286.282 358.632 282.429C358.812 287.286 358.964 292.143 359.087 297H347.436Z" fill="url(#paint4_linear_107_5531)"/>
<path d="M202.21 92.6386C211.288 92.5267 220.815 93.6521 227.84 100.208C228.083 102.261 228.502 110.394 228.954 111.6L229.315 111.66C228.278 112.958 229.132 118.773 229.055 120.697C229.046 120.927 229.337 121.143 229.508 121.258L229.125 121.542C228.779 124.685 228.983 131.416 228.858 135.125C222.014 135.687 214.046 136.111 207.328 136.907C206.317 136.92 204.67 136.796 203.929 137.433C203.303 137.064 202.145 137.214 201.449 137.317C199.076 137.55 196.707 137.841 194.348 138.19C190.271 138.486 186.196 138.807 182.123 139.152C181.215 139.186 180.886 139.037 180.248 139.49C180.174 140.026 180.143 140.102 180.272 140.65C180.112 140.082 180.105 140.084 179.795 139.577C177.263 138.45 172.666 142.662 172.122 136.166C171.807 132.403 171.685 128.474 171.737 124.69C171.743 122.94 171.593 120.725 171.524 118.942C169.31 98.4282 172.753 97.3966 192.531 93.6894C193.45 93.5173 194.372 93.3864 195.304 93.2747C197.593 92.9428 199.899 92.7305 202.21 92.6386Z" fill="#2EB775"/>
<path d="M171.523 118.942C172.641 118.134 173.558 117.332 174.966 117.178C180.023 116.628 184.521 119.954 189.49 119.55C190.469 119.47 191.937 119.254 192.564 120.04C192.457 122.219 188.761 124.172 186.886 124.506C181.987 125.381 176.73 124.575 171.736 124.69C171.742 122.94 171.593 120.725 171.523 118.942Z" fill="#A12A25"/>
<path d="M210.885 101.7C219.112 101.239 218.778 101.994 218.874 110.065C213.626 117.167 197.101 119.421 188.785 117.69C185.418 116.75 183.243 115.166 181.075 112.451C180.964 111.915 180.873 111.375 180.803 110.832C180.547 108.99 179.955 105.753 181.097 104.242C183.877 102.712 206.691 101.804 210.885 101.7Z" fill="#FEFEFE"/>
<path d="M197.551 106.477C198.321 106.451 198.102 106.348 198.653 106.714C198.894 107.551 198.933 107.241 198.646 107.962C197.286 108.995 191.288 109.03 189.171 109.154C188.484 109.214 188.344 108.957 187.98 108.497L188.134 108.005C189.442 107.099 195.647 106.677 197.551 106.477Z" fill="#1A1A1A"/>
<path d="M212.639 105.516C213.64 105.49 213.373 105.348 214.026 105.845C214.37 106.7 214.38 106.366 214.069 107.108C212.747 107.998 207.866 108.064 206.022 108.173C205.429 108.266 205.463 108.262 204.907 108.027C204.397 107.274 204.5 107.61 204.447 106.753C205.295 105.874 210.956 105.698 212.639 105.516Z" fill="#1A1A1A"/>
<path d="M200.384 111.545C201.109 111.477 201.761 111.989 201.867 112.71C201.973 113.431 201.494 114.108 200.779 114.25C200.283 114.349 199.773 114.166 199.453 113.775C199.132 113.383 199.053 112.847 199.248 112.38C199.443 111.913 199.881 111.592 200.384 111.545Z" fill="#F58644"/>
<path d="M207.546 111.34C207.948 111.071 208.463 111.038 208.894 111.254C209.327 111.47 209.609 111.901 209.635 112.384C209.659 112.866 209.426 113.325 209.017 113.585C208.398 113.982 207.575 113.806 207.17 113.19C206.768 112.575 206.934 111.75 207.546 111.34Z" fill="#F58644"/>
<path d="M192.581 112.28C193.026 112.072 193.548 112.124 193.94 112.416C194.335 112.708 194.535 113.192 194.465 113.677C194.395 114.162 194.066 114.569 193.606 114.738C192.937 114.983 192.192 114.657 191.917 113.999C191.643 113.341 191.935 112.583 192.581 112.28Z" fill="#F58644"/>
<path d="M208.47 124.053C213.287 123.331 210.906 130.332 207.401 131.823C202.791 133.785 198.092 134.248 193.292 132.903C191.798 132.12 190.94 130.9 189.942 129.589C189.789 128.348 189.702 126.89 189.594 125.627C194.096 124.713 203.468 124.397 208.47 124.053Z" fill="#145435"/>
<path d="M220.83 115.121C226.268 114.591 226.723 116.221 227.063 120.849C222.137 121.593 218.522 122.987 213.52 123.245C211.748 123.171 207.966 122.695 207.162 120.953L207.364 120.485C208.943 119.853 210.489 119.318 212.073 118.673C214.916 117.513 217.848 115.688 220.83 115.121Z" fill="#A12A25"/>
<path d="M159.034 108.808C159.851 108.144 160.524 107.026 161.105 106.14C169.007 94.1117 180.543 89.7836 194.369 88.9438C194.355 89.9578 194.203 92.3319 194.665 93.092L195.303 93.2747C194.371 93.3863 193.449 93.5173 192.531 93.6894C172.753 97.3966 169.309 98.4281 171.523 118.942C171.593 120.725 171.742 122.94 171.736 124.69C171.684 128.474 171.806 132.403 172.122 136.166C172.666 142.662 177.262 138.45 179.794 139.577C180.104 140.084 180.111 140.082 180.272 140.65C180.142 140.102 180.173 140.026 180.247 139.49C180.886 139.037 181.214 139.186 182.122 139.152C186.195 138.807 190.27 138.486 194.347 138.19C196.706 137.841 199.075 137.55 201.449 137.317C202.144 137.214 203.302 137.064 203.928 137.433C204.669 136.796 206.316 136.92 207.327 136.907L205.108 138.894C205.95 141.877 205.748 144.077 202.113 144.274C201.157 144.405 200.04 144.528 199.121 144.766C198.375 150.905 195.748 146.663 194.188 149.133C194.646 151.684 194.362 156.261 194.439 159.037C194.646 166.499 194.119 174.829 194.444 182.216C191.777 180.062 190.874 178.715 187.486 176.531C183.351 173.862 179.078 171.404 174.845 168.887C157.79 158.749 148.177 136.126 154.685 116.95C160.85 116.201 159.215 114.073 159.034 108.808Z" fill="url(#paint5_linear_107_5531)"/>
<path d="M203.929 137.433C204.67 136.796 206.317 136.919 207.328 136.907L205.108 138.894C205.951 141.877 205.749 144.077 202.114 144.273C201.158 144.405 200.041 144.528 199.122 144.766C198.375 150.905 195.749 146.663 194.189 149.133C191.272 153.258 192 154.39 186.636 151.446L186.474 151.511C180.963 153.688 179.894 151.389 182.355 146.607C180.784 146.622 177.072 146.825 176.449 145.037C176.741 142.965 179.152 141.916 180.273 140.649C180.143 140.101 180.174 140.026 180.248 139.49C180.886 139.037 181.215 139.185 182.123 139.152C186.196 138.807 190.271 138.486 194.348 138.189C196.707 137.841 199.076 137.55 201.449 137.317C202.145 137.214 203.303 137.064 203.929 137.433Z" fill="#1A1A1A"/>
<path d="M182.123 139.152C186.196 138.807 190.271 138.486 194.348 138.189C194.365 139.595 194.297 144.85 194.519 145.963C195.229 146.183 195.472 146.199 196.216 146.261C192.047 146.433 193.053 148.441 190.883 150.945C188.984 151.729 188.723 149.876 187.083 149.505C185.436 149.132 184.869 151.142 182.962 150.497C182.592 148.078 187.248 144.442 178.414 144.943C180.345 142.467 182.191 142.656 182.123 139.152Z" fill="url(#paint6_linear_107_5531)"/>
<path d="M194.348 138.19C196.707 137.841 199.075 137.55 201.449 137.317L202.07 137.529C202.356 138.41 202.178 141.18 202.159 142.322C195.595 142.514 198.671 144.803 196.7 146.365L196.216 146.261C195.472 146.199 195.229 146.183 194.519 145.963C194.297 144.85 194.365 139.595 194.348 138.19Z" fill="#FEFEFE"/>
<path d="M201.449 137.317C202.145 137.214 203.303 137.064 203.929 137.433C203.146 139.585 204.114 140.456 203.611 141.818C203.038 142.258 202.908 142.224 202.159 142.322C202.179 141.18 202.357 138.41 202.07 137.529L201.449 137.317Z" fill="url(#paint7_linear_107_5531)"/>
<path d="M69.3573 96.0692C75.4101 88.6138 84.1678 83.8573 93.7173 82.8385C99.1954 82.2088 104.333 82.8021 109.068 86.5553C113.975 90.4447 117.394 99.0743 114.36 105.17C114.262 105.367 112.715 106.879 112.364 107.297C108.012 109.138 104.735 104.031 101.383 104.402C94.8183 105.128 90.9839 114.389 84.883 105.29C82.2678 97.2131 73.4609 104.621 77.7535 111.945C74.5969 113.242 73.8612 114.429 70.2709 113.914L69.7372 113.911C69.3152 114.558 68.7218 118.026 68.5073 119.127C68.0517 121.464 61.5389 131.771 58.9961 129.734C58.994 129.327 58.9966 128.778 59.3442 128.478C63.5557 124.85 65.72 122.042 67.0305 116.541C63.93 120.185 60.5117 121.363 56.6932 123.945C55.4635 124.776 54.4987 126.463 53.1615 126.959C52.4198 126.786 52.6979 126.986 52.2968 126.344C52.5522 123.364 59.8043 119.974 62.1263 118.401C63.6563 117.365 64.4228 116.741 65.7503 115.408C54.4036 122.753 43.7517 112.781 51.4959 101.834C54.4198 97.7012 60.3266 96.4629 65.207 96.041C61.3909 95.4797 57.6731 95.6564 53.8259 95.5247C52.2658 95.4711 48.7919 95.4058 47.66 94.2361C47.3786 93.9454 47.48 93.7887 47.4942 93.3341L47.9268 92.9413C48.8314 92.8407 51.1021 93.3747 52.4064 93.4349C60.024 93.7863 62.1349 92.7078 69.3573 96.0692Z" fill="#1A1A1A"/>
<path d="M77.7535 111.945C73.461 104.621 82.2678 97.2129 84.883 105.29C90.9839 114.389 94.8184 105.128 101.383 104.402C104.735 104.031 108.012 109.137 112.364 107.296C113.283 111.877 112.343 116.636 109.752 120.524C104.667 128.126 94.9878 131.177 86.1937 130.278C84.6741 132.511 83.7817 133.949 83.7266 136.756C83.0136 136.93 82.4938 137.078 82.1556 137.71C82.379 138.352 83.5578 138.712 84.1392 139.236C84.6875 139.735 85.0075 140.437 85.0248 141.178C85.0544 142.584 83.8236 144.305 83.1313 145.537C79.6206 151.786 75.7016 156.534 70.5179 161.468C66.9773 157.829 64.4242 150.766 62.8321 145.939C61.1682 140.895 62.665 135.292 68.1463 133.63C69.3537 133.264 69.1258 133.468 69.4067 132.223C69.489 131.504 71.6474 128.991 72.2299 127.778C72.9191 126.344 73.1901 125.624 73.7185 124.114C71.6276 120.833 71.0807 117.628 70.2709 113.914C73.8613 114.429 74.5969 113.242 77.7535 111.945Z" fill="#CC6565"/>
<path d="M77.7522 111.945C73.4597 104.621 82.2665 97.2129 84.8817 105.29C84.1268 105.841 84.3769 105.823 83.5702 105.883C82.6098 105.363 82.2025 104.156 81.515 103.221C80.5362 103.799 79.7281 104.193 79.1718 105.242C78.4296 106.641 77.4751 109.181 79.0796 110.371C80.2028 110.355 80.0415 110.176 80.7336 110.75L80.9512 111.331C80.378 112.438 78.7907 112.23 77.7522 111.945Z" fill="#3E5EA3"/>
<path d="M104.024 111.586C104.849 111.873 105.018 111.787 105.54 112.393C105.016 114.845 105.477 117.764 105.698 120.314C104.809 121.323 101.486 121.125 100.159 121.075C99.1139 120.479 99.3905 120.809 98.918 119.872C99.7749 119.244 102.161 119.275 103.41 119.185C103.826 118.111 102.496 114.564 104.024 111.586Z" fill="#1A1A1A"/>
<path d="M93.6597 121.404C94.9163 121.709 96.7472 122.931 98.3649 122.957C98.7568 122.964 98.8875 123.395 99.0226 123.706L98.7922 124.271C96.6023 124.72 92.549 124.759 93.6597 121.404Z" fill="#1A1A1A"/>
<path d="M100.054 106.468C100.88 106.448 101.419 106.528 102.015 107.056C101.971 108.684 99.9828 108.563 98.7852 108.594C97.764 108.786 97.3601 108.973 96.5352 108.343L96.5532 107.87C97.694 106.513 98.2763 106.632 100.054 106.468Z" fill="#1A1A1A"/>
<path d="M108.829 108.11C109.893 108.228 110.477 108.306 111.213 108.952C111.286 109.856 111.296 109.521 110.839 110.496L110.62 110.46C109.644 110.293 108.775 110.131 108.186 109.293C108.259 108.486 108.134 108.8 108.829 108.11Z" fill="#1A1A1A"/>
<path d="M294.673 60.6624C298.264 51.5279 305.792 50.3004 314.795 53.1645C317.077 53.8899 320.632 56.4428 322.418 58.1259C324.811 57.6537 326.465 57.6684 328.615 59.0711C332.23 61.4326 336.373 71.2069 337.086 75.1428C337.577 77.7984 337.507 80.527 336.886 83.155C336.421 84.2017 335.856 85.5811 335.316 86.5587C335.656 89.8322 336.385 99.7167 331.06 98.8975C329.426 98.6459 328.492 98.915 326.995 99.4375C325.964 99.4741 322.986 98.1258 321.585 97.7648C321.066 97.0815 320.107 96.4071 319.722 95.59C316.473 88.6652 315.382 82.3331 309.614 76.8318C305.474 72.8844 296.057 73.5937 293.077 69.7542C290.97 67.2487 290.048 64.114 293.009 61.798C293.539 61.3842 294.095 61.0049 294.673 60.6624Z" fill="#F58644"/>
<path d="M303.399 57.3328C311.225 56.3359 318.86 61.4605 322.589 68.1623C325.882 74.0832 328.294 79.8569 329.912 86.4412C330.752 89.8599 330.954 93.3442 328.6 96.2757C328.47 96.4367 328.323 96.3604 328.107 96.351C326.994 95.067 328.574 92.78 328.516 89.78C327.919 83.3995 323.737 73.613 320.329 68.1416C315.996 61.1818 308.764 57.7957 300.645 59.8884C299.006 60.311 297.686 61.4937 296.495 61.2379C295.946 60.5546 296.013 60.847 296.09 60.13C297.222 58.6116 301.507 57.7894 303.399 57.3328Z" fill="#3E5EA3"/>
<path d="M302.778 67.2224C312.258 66.9473 316.073 72.1258 319.279 80.1496C320.305 82.7164 326.528 93.8364 323.733 95.6691C322.883 95.6552 323.189 95.7832 322.592 95.1996C322.471 93.5596 322.016 90.6298 321.232 89.1465C317.534 82.1511 315.635 71.2689 306.745 69.1789C304.201 68.5803 302.239 69.8104 299.759 68.7365L299.617 68.3338C300.33 67.5013 301.769 67.3092 302.778 67.2224Z" fill="#3E5EA3"/>
<path d="M322.108 59.3608C329.135 59.8843 336.359 81.4943 334.525 85.0822C334.009 84.8196 333.514 84.6393 333.34 84.0039C331.402 76.8434 329.948 69.1948 325.177 63.2656C324.152 61.9927 323.073 62.0399 321.978 61.0141C321.709 60.1739 321.819 60.3481 322.108 59.3608Z" fill="#3E5EA3"/>
<path d="M235.846 28.0483C237.991 27.3339 238.612 23.8571 241.811 27.6658C241.888 28.1753 241.934 28.7518 242.155 29.2043C241.881 30.1537 242.095 31.7215 242.244 32.73C243.662 32.697 247.473 32.4874 248.638 32.8291C251.247 35.7351 251.852 63.3737 251.592 68.1103L251.577 68.3291C249.608 69.0853 245.754 69.842 243.578 70.2369C243.949 73.6914 243.737 74.807 240.179 75.8951L238.658 75.4183C237.933 75.0592 237.225 74.4195 236.587 73.8991C236.431 72.9769 236.385 71.9499 236.318 71.0069C234.024 71.1539 231.686 71.1421 229.383 71.1566C229.176 67.3639 229.168 63.5508 228.928 59.7637C228.733 56.6671 226.424 35.9724 227.584 34.7353C228.846 33.3899 234.185 33.4877 236.065 33.3425C236.053 32.1808 236.087 31.0493 235.832 29.9147C236.051 29.2336 236.161 28.6726 235.846 28.0483Z" fill="#B6E1E8"/>
<path d="M241.066 34.7621C242.836 34.5893 245.669 34.6194 247.52 34.5845C248.476 38.949 249.087 46.2236 249.831 50.9871C246.569 51.7912 241.579 52.0971 238.11 52.4165L230.034 52.8216C229.594 47.2106 229.391 41.3399 229.035 35.6784C233.038 35.2868 237.051 34.9814 241.066 34.7621Z" fill="#FEFEFE"/>
<path d="M249.011 53.0543C249.416 52.9924 249.332 53.0269 249.758 53.1159C250.35 54.4907 250.333 64.827 250.367 67.0886C244.642 68.5794 237.216 69.0651 231.289 69.1431C230.733 68.4107 230.141 56.3839 230.014 54.4661C236.229 54.295 242.837 53.6972 249.011 53.0543Z" fill="#468FCD"/>
<path d="M239.738 30.189C240.01 30.2077 240.174 30.2937 240.444 30.3878C241.176 31.853 240.374 33.2001 238.79 33.3739C237.805 32.7229 237.632 31.3411 238.198 30.3692L239.738 30.189Z" fill="url(#paint8_linear_107_5531)"/>
<path d="M238.969 70.7582C240.013 70.6773 240.309 70.5331 241.012 71.0744C241.325 71.9187 240.921 73.3012 240.731 74.2581C239.91 74.1426 239.631 74.1578 239.036 73.5744C238.62 72.7994 238.867 71.6727 238.969 70.7582Z" fill="#468FCD"/>
<path d="M238.197 30.3692C237.874 29.8303 237.891 29.8602 237.848 29.2298C238.594 28.1884 239.6 28.3884 240.498 29.1256L240.5 29.6541C240.163 29.9504 240.147 30.0214 239.737 30.1889L238.197 30.3692Z" fill="#FEFEFE"/>
<path d="M194.398 13.9631L202.188 13.9561L202.169 28.6674C212.616 28.7312 223.242 27.432 233.692 27.3622C234.303 27.3581 235.285 27.7976 235.846 28.0484C236.161 28.6727 236.051 29.2337 235.832 29.9149C235.292 29.654 234.062 29.0465 233.487 29.0477C223.028 29.0698 212.624 30.4364 202.15 30.6875C202.364 49.2473 202.198 68.1058 202.198 86.6886C199.61 86.6924 197.022 86.7523 194.437 86.8683C194.107 82.6261 194.408 73.1469 194.41 68.5898L194.418 31.0104L161.912 31.759C161.104 32.4926 159.781 34.0344 158.787 33.126C158.766 31.5017 159.982 31.3094 161.169 30.0412L161.328 29.8691C172.356 29.6783 183.382 29.4159 194.408 29.0821L194.398 13.9631Z" fill="#FEFEFE"/>
<path d="M152.078 117.06L154.686 116.95C148.179 136.126 157.791 158.749 174.846 168.887C179.08 171.404 183.352 173.862 187.487 176.531C190.875 178.715 191.778 180.062 194.445 182.216C197.261 185.894 200.29 190.124 200.718 194.963C200.822 203.418 196.074 209.491 188.637 213.109C188.136 212.83 187.426 212.255 186.948 211.893C187.526 211.363 191.037 209.492 192.362 208.394C196.12 205.281 198.036 202.778 198.701 197.901C199.035 192.757 197.23 189.313 194.413 185.272C188.264 177.85 181.13 175.22 173.225 170.144C167.495 166.495 162.593 161.686 158.835 156.028C150.909 143.912 149.517 131.455 152.445 117.448L152.078 117.06Z" fill="#F58644"/>
<path d="M168.057 197.214C169.373 197.03 170.968 196.182 172.191 195.62C177.443 193.209 183.421 190.276 188.786 194.186C191.139 195.881 191.947 197.112 192.144 200.033C190.598 204.357 187.729 203.42 184.293 202.175C182.841 202.096 182.236 202.047 180.771 202.226C177.044 202.681 172.38 206.512 168.93 205.979C168.524 203.928 168.574 200.198 168.057 197.214Z" fill="#FEFEFE"/>
<path d="M202.198 86.6886C213.657 86.8481 231.362 90.2182 237.356 77.6667C237.633 77.0876 238.242 75.7646 238.658 75.4185L240.179 75.8952C238.793 79.0409 237.553 81.7816 234.806 84.0611C226.677 90.8073 214.973 88.8147 205.219 88.6884C202.672 88.6554 200.017 88.3536 197.521 88.7837C196.498 88.8321 195.381 88.8619 194.37 88.9437C180.544 89.7835 169.008 94.1116 161.106 106.14C160.524 107.026 159.852 108.144 159.035 108.808L158.688 105.959C159.889 104.617 161.008 102.954 162.184 101.558C171.183 90.8694 181.271 88.1796 194.437 86.8684C197.023 86.7524 199.61 86.6924 202.198 86.6886Z" fill="#468FCD"/>
<path d="M26.6624 288.925C28.3788 289.708 29.5147 294.747 31.2513 297H4.69141C12.409 292.155 17.7439 290.321 26.6624 288.925Z" fill="#1A1A1A"/>
<path d="M155.805 104.953C157.216 104.963 157.646 104.911 158.687 105.959L159.034 108.808C159.215 114.073 160.849 116.201 154.685 116.95L152.077 117.06L151.495 116.85C149.853 114.642 149.602 108.644 149.576 105.886C151.265 105.364 151.971 105.231 153.722 105.094C154.229 105.127 155.259 105.002 155.805 104.953Z" fill="#1A1A1A"/>
<path d="M153.723 105.094C155.195 102.18 155.859 89.4762 155.874 85.9779C155.881 84.6056 155.749 79.9809 155.979 78.8783C156.713 78.6016 157.277 78.5472 157.857 79.0731C158.048 85.3654 157.921 91.9639 156.877 98.18C156.497 100.442 156.094 102.675 155.806 104.952C155.26 105.002 154.229 105.127 153.723 105.094Z" fill="#F58644"/>
<path d="M194.413 185.271C197.23 189.313 199.035 192.757 198.701 197.9L194.406 199.006L194.413 185.271Z" fill="#FEFEFE"/>
<path d="M197.52 88.7837C199.073 88.8227 200.626 88.8314 202.181 88.8095L202.21 92.6384C199.899 92.7304 197.592 92.9427 195.303 93.2746L194.665 93.0919C194.203 92.3318 194.355 89.9577 194.369 88.9437C195.38 88.8619 196.497 88.8321 197.52 88.7837Z" fill="#FEFEFE"/>
<path d="M241.811 27.6661C242.362 26.9166 242.6 26.4461 243.491 26.1279L244.155 26.1773C245.26 27.6449 243.272 28.6361 242.155 29.2046C241.933 28.7521 241.888 28.1756 241.811 27.6661Z" fill="#FEFEFE"/>
<path d="M158.747 37.6833C160.346 37.5295 162.558 37.5428 164.216 37.5122C164.974 42.8775 165.456 48.8613 166.375 54.0956C162.277 54.3861 157.756 55.2598 153.064 55.5787C150.881 55.7404 148.693 55.8372 146.504 55.8692C146.238 50.0993 145.935 44.3312 145.594 38.5654C149.974 38.2133 154.359 37.9192 158.747 37.6833Z" fill="#FEFEFE"/>
<path d="M163.979 56.2324C164.845 56.1075 165.367 55.9797 166.239 56.1648C166.924 57.1532 166.935 68.1266 166.979 70.1355C160.16 71.4781 155.99 71.8973 149.093 72.1727C148.456 72.2061 148.379 72.2025 147.752 72.0824C147.049 71.0342 146.765 59.5718 146.674 57.4972C152.455 57.2733 158.227 56.8517 163.979 56.2324Z" fill="#F58644"/>
<path d="M155.516 73.6835C156.242 73.6442 156.718 73.5299 157.328 73.8888C157.862 74.6308 157.739 75.968 157.751 76.95C156.656 77.0876 156.861 77.2176 155.953 76.8248C155.46 76.0908 155.54 74.6238 155.516 73.6835Z" fill="#F58644"/>
<path d="M149.426 30.4937C152.111 30.2128 152.686 31.7118 152.565 34.0062C151.108 32.9795 149.541 32.3433 149.426 30.4937Z" fill="#FEFEFE"/>
<path d="M154.417 32.3061C155.251 32.2825 155.728 32.2204 156.544 32.4348C157.023 33.1857 156.862 33.3987 156.889 34.4048C156.038 34.4296 155.578 34.4989 154.758 34.2476C154.274 33.4767 154.437 33.3297 154.417 32.3061Z" fill="#FEFEFE"/>
</g>
<defs>
<linearGradient id="paint0_linear_107_5531" x1="222.278" y1="111.66" x2="222.278" y2="197.386" gradientUnits="userSpaceOnUse">
<stop stop-color="#674BB3"/>
<stop offset="1" stop-color="#947DD5"/>
</linearGradient>
<linearGradient id="paint1_linear_107_5531" x1="138.99" y1="175.033" x2="138.99" y2="297" gradientUnits="userSpaceOnUse">
<stop stop-color="#674BB3"/>
<stop offset="1" stop-color="#947DD5"/>
</linearGradient>
<linearGradient id="paint2_linear_107_5531" x1="216.841" y1="216.733" x2="216.841" y2="276.564" gradientUnits="userSpaceOnUse">
<stop stop-color="#674BB3"/>
<stop offset="1" stop-color="#947DD5"/>
</linearGradient>
<linearGradient id="paint3_linear_107_5531" x1="102.667" y1="190.329" x2="102.667" y2="211.918" gradientUnits="userSpaceOnUse">
<stop stop-color="#674BB3"/>
<stop offset="1" stop-color="#947DD5"/>
</linearGradient>
<linearGradient id="paint4_linear_107_5531" x1="353.261" y1="282.429" x2="353.261" y2="297" gradientUnits="userSpaceOnUse">
<stop stop-color="#674BB3"/>
<stop offset="1" stop-color="#947DD5"/>
</linearGradient>
<linearGradient id="paint5_linear_107_5531" x1="179.982" y1="88.9438" x2="179.982" y2="182.216" gradientUnits="userSpaceOnUse">
<stop stop-color="#674BB3"/>
<stop offset="1" stop-color="#947DD5"/>
</linearGradient>
<linearGradient id="paint6_linear_107_5531" x1="187.315" y1="138.189" x2="187.315" y2="151.137" gradientUnits="userSpaceOnUse">
<stop stop-color="#674BB3"/>
<stop offset="1" stop-color="#947DD5"/>
</linearGradient>
<linearGradient id="paint7_linear_107_5531" x1="202.689" y1="137.198" x2="202.689" y2="142.322" gradientUnits="userSpaceOnUse">
<stop stop-color="#674BB3"/>
<stop offset="1" stop-color="#947DD5"/>
</linearGradient>
<linearGradient id="paint8_linear_107_5531" x1="239.297" y1="30.189" x2="239.297" y2="33.3739" gradientUnits="userSpaceOnUse">
<stop stop-color="#674BB3"/>
<stop offset="1" stop-color="#947DD5"/>
</linearGradient>
<clipPath id="clip0_107_5531">
<rect width="493" height="297" fill="white" transform="translate(-48)"/>
</clipPath>
</defs>
</svg>
