<svg width="203" height="124" viewBox="0 0 203 124" fill="none" xmlns="http://www.w3.org/2000/svg">
<path d="M101.947 45.7667C98.2285 43.3521 95.5671 39.3614 94.7656 34.9961C97.0861 35.1193 99.1156 36.8003 100.203 38.8569C101.291 40.9142 101.887 43.4404 101.947 45.7667Z" fill="#339179"/>
<path d="M102.094 45.7403C100.479 43.668 99.6508 40.8596 99.8105 38.236C99.9701 35.6117 101.117 33.0597 102.972 31.1997C104.762 33.3745 105.455 36.4101 104.787 39.1486C104.224 41.4591 102.783 43.4648 102.094 45.7403Z" fill="#53BEA4"/>
<path d="M138.275 84.4447C138.381 84.3048 158.716 122.764 158.716 122.764L157.869 122.665L137.181 84.4447H138.275Z" fill="#8E6042"/>
<path d="M163.305 85.5073L130.896 123.619H130.261L162.105 85.5073H163.305Z" fill="#8E6042"/>
<path d="M152.188 12.0845C153.784 12.286 156.122 14.5731 157.54 16.3549C158.484 17.5414 158.686 19.2724 158.041 20.6453C159.495 20.8435 160.797 21.9117 161.276 23.3013C161.756 24.691 161.391 26.3362 160.369 27.3919C159.274 28.5234 157.631 28.9056 156.072 29.1104C150.234 29.8789 144.208 28.8706 138.831 26.4686C137.846 26.0281 136.796 25.4511 136.426 24.4362C136.114 23.5811 136.384 22.5961 136.923 21.8634C137.461 21.1308 138.236 20.6104 139.024 20.1557C139.315 19.9876 139.632 19.8011 139.745 19.4847C139.903 19.0442 139.601 18.588 139.483 18.135C139.296 17.4115 139.607 16.6288 140.114 16.0802C140.622 15.5315 141.3 15.1768 141.977 14.8596C145.186 13.3567 148.667 12.4791 152.188 12.0845Z" fill="#46365C"/>
<path d="M165.009 86.0262L177.305 41.3827L157.228 38.0415L153.016 84.4434L165.009 86.0262Z" fill="#7C5038"/>
<path d="M118.04 119.639L117.072 114.229H103.948L104.671 117.583C104.671 117.583 100.593 119.639 102.854 119.639C105.115 119.639 118.04 119.639 118.04 119.639Z" fill="#E4CEC3"/>
<path d="M102.421 119.161C102.421 119.128 105.847 119.101 110.073 119.101C114.3 119.101 117.726 119.128 117.726 119.161C117.726 119.195 114.301 119.222 110.073 119.222C105.848 119.222 102.421 119.195 102.421 119.161Z" fill="#495668"/>
<path d="M104.056 117.839C104.064 117.808 104.374 117.863 104.734 118.004C105.094 118.144 105.36 118.314 105.345 118.343C105.329 118.374 105.044 118.255 104.69 118.117C104.337 117.979 104.047 117.873 104.056 117.839Z" fill="#495668"/>
<path d="M104.59 117.622C104.594 117.59 104.913 117.61 105.286 117.732C105.659 117.852 105.929 118.023 105.914 118.051C105.899 118.082 105.611 117.964 105.248 117.847C104.887 117.728 104.584 117.656 104.59 117.622Z" fill="#495668"/>
<path d="M113.384 119.062C113.378 119.059 113.393 118.989 113.442 118.87C113.489 118.75 113.581 118.586 113.727 118.406C114.015 118.044 114.564 117.66 115.252 117.491C115.94 117.326 116.581 117.357 117.033 117.392C117.487 117.43 117.764 117.473 117.763 117.488C117.762 117.506 117.48 117.493 117.028 117.477C116.577 117.466 115.946 117.449 115.281 117.61C114.617 117.772 114.085 118.128 113.792 118.461C113.491 118.795 113.407 119.073 113.384 119.062Z" fill="#495668"/>
<path d="M104.719 119.192C104.684 119.2 104.637 118.841 104.331 118.555C104.031 118.261 103.671 118.231 103.677 118.195C103.665 118.162 104.077 118.139 104.415 118.467C104.757 118.79 104.752 119.203 104.719 119.192Z" fill="#495668"/>
<path d="M108.676 118.517C108.676 118.483 109.359 118.464 110.201 118.474C111.043 118.484 111.725 118.519 111.725 118.553C111.724 118.587 111.041 118.606 110.199 118.596C109.358 118.586 108.676 118.551 108.676 118.517Z" fill="#495668"/>
<path d="M123.972 123.241L123.003 117.831H109.879L110.603 121.186C110.603 121.186 106.525 123.241 108.785 123.241C111.047 123.241 123.972 123.241 123.972 123.241Z" fill="#E4CEC3"/>
<path d="M108.352 122.763C108.352 122.73 111.778 122.703 116.004 122.703C120.231 122.703 123.657 122.73 123.657 122.763C123.657 122.797 120.232 122.824 116.004 122.824C111.779 122.824 108.352 122.797 108.352 122.763Z" fill="#495668"/>
<path d="M109.987 121.441C109.995 121.41 110.305 121.465 110.665 121.606C111.025 121.747 111.291 121.916 111.275 121.945C111.259 121.976 110.974 121.857 110.621 121.719C110.268 121.581 109.977 121.475 109.987 121.441Z" fill="#495668"/>
<path d="M110.521 121.224C110.525 121.192 110.844 121.213 111.217 121.334C111.591 121.454 111.861 121.625 111.846 121.654C111.83 121.685 111.542 121.566 111.18 121.45C110.817 121.331 110.515 121.258 110.521 121.224Z" fill="#495668"/>
<path d="M119.315 122.664C119.308 122.662 119.323 122.592 119.372 122.473C119.419 122.353 119.51 122.188 119.657 122.008C119.944 121.646 120.494 121.262 121.182 121.094C121.869 120.928 122.511 120.96 122.962 120.994C123.416 121.032 123.694 121.076 123.692 121.091C123.691 121.109 123.41 121.096 122.957 121.08C122.507 121.068 121.877 121.052 121.211 121.212C120.548 121.375 120.015 121.73 119.722 122.064C119.421 122.397 119.337 122.675 119.315 122.664Z" fill="#495668"/>
<path d="M110.65 122.794C110.615 122.802 110.569 122.443 110.262 122.157C109.963 121.863 109.603 121.833 109.609 121.798C109.597 121.765 110.008 121.741 110.346 122.069C110.689 122.392 110.684 122.805 110.65 122.794Z" fill="#495668"/>
<path d="M114.606 122.119C114.606 122.086 115.29 122.066 116.131 122.076C116.973 122.086 117.655 122.12 117.655 122.155C117.655 122.188 116.972 122.207 116.13 122.197C115.288 122.188 114.606 122.153 114.606 122.119Z" fill="#495668"/>
<path d="M117.799 57.9676C117.799 57.9676 113.578 53.3316 113.109 53.5531C112.64 53.7746 112.587 55.5006 114.039 56.9235C114.039 56.9235 107.219 56.2599 107.329 57.3232C107.44 58.3864 112.572 58.8568 112.572 58.8568C112.572 58.8568 107.588 58.8019 107.527 59.7768C107.467 60.7526 111.967 61.0782 111.967 61.0782C111.967 61.0782 107.43 60.9941 107.855 61.6552C108.28 62.3163 111.398 62.984 111.398 62.984C111.398 62.984 108.247 62.7218 108.671 63.3828C109.095 64.0439 115.374 66.6425 115.374 66.6425C117.045 67.0821 117.799 57.9676 117.799 57.9676Z" fill="#CE806B"/>
<path d="M136.243 39.5064C136.243 39.5064 137.636 60.4331 133.748 60.1758C125.205 59.6096 117.507 58.0094 117.507 58.0094L115.096 66.7742C115.096 66.7742 127.692 69.4369 130.853 70.0563C134.013 70.6758 146.017 72.7115 146.646 59.598C147.278 46.4411 144.91 38.0635 144.91 38.0635L136.243 39.5064Z" fill="#F1ECE0"/>
<path d="M159.981 62.7769C159.981 62.7769 163.141 75.4317 150.761 77.917C138.381 80.4015 118.893 74.9663 118.791 77.917C118.688 80.8669 117.914 116.116 117.914 116.116H103.493C103.493 116.116 101.842 60.1667 110.853 60.3157C117.934 60.4315 159.981 62.7769 159.981 62.7769Z" fill="#48517C"/>
<path d="M166.759 51.9361L166.398 66.7124C166.398 66.7124 155.142 74.7728 137.575 65.9297L141.284 51.7005L142.101 35.0867C142.101 35.0867 142.374 29.7813 144.091 29.3992C145.808 29.017 160.204 28.7081 163.239 30.9786C163.239 30.9786 167.285 32.3258 167.545 39.2181C167.806 46.1112 166.759 51.9361 166.759 51.9361Z" fill="#7177B3"/>
<path d="M166.397 66.713C166.397 66.713 169.557 79.3686 157.177 81.8531C144.797 84.3375 125.309 78.9031 125.207 81.8531C125.104 84.8038 124.33 120.052 124.33 120.052H109.909C109.909 120.052 108.258 64.1027 117.269 64.2518C124.349 64.3683 166.397 66.713 166.397 66.713Z" fill="#575E8E"/>
<path d="M141.003 12.874C141.003 12.874 140.208 27.4238 144.792 27.6536L147.584 27.6578V29.7168C147.584 30.412 147.94 31.0573 148.531 31.4237C149.788 32.2038 152.047 33.1863 153.709 31.5652C154.437 30.8558 154.755 29.8217 154.675 28.8076L154.066 21.0619C154.066 21.0619 156.65 20.5407 156.16 17.8663C155.534 14.4501 152.271 16.7681 152.271 16.7681V13.4727C152.271 13.4727 152.072 11.4752 147.784 11.5752C143.496 11.6751 143.496 11.6751 143.496 11.6751C143.496 11.6751 141.012 11.6759 141.003 12.874Z" fill="#FFB18F"/>
<path d="M143.783 18.4026C143.867 18.4043 143.918 19.4617 143.898 20.7647C143.912 21.4108 143.788 22.0361 143.959 22.35C144.045 22.5082 144.185 22.5923 144.283 22.6189C144.383 22.6464 144.45 22.6314 144.458 22.653C144.466 22.668 144.411 22.7288 144.27 22.7363C144.134 22.7421 143.927 22.6705 143.777 22.4657C143.628 22.2584 143.592 21.9636 143.591 21.6797C143.592 21.3717 143.592 21.0728 143.593 20.7605C143.614 19.4575 143.699 18.4018 143.783 18.4026Z" fill="#46365C"/>
<path d="M146.869 18.5199C146.953 18.524 147.008 18.7647 146.993 19.0569C146.977 19.3491 146.897 19.5823 146.813 19.5773C146.729 19.5731 146.674 19.3325 146.69 19.0402C146.704 18.748 146.785 18.5149 146.869 18.5199Z" fill="#46365C"/>
<path d="M142.184 18.4459C142.268 18.45 142.323 18.6907 142.308 18.9829C142.292 19.2751 142.211 19.5083 142.128 19.5041C142.045 19.5 141.989 19.2593 142.005 18.9671C142.02 18.674 142.1 18.4409 142.184 18.4459Z" fill="#46365C"/>
<g opacity="0.5">
<path d="M147.592 27.6043C148.531 27.3604 149.385 26.7958 149.979 26.0273C150.013 26.8316 150.018 27.6509 149.799 28.4253C149.58 29.2004 149.085 29.8932 148.394 30.3045C148.154 30.4477 147.749 30.6233 147.749 30.6233C147.732 30.5667 147.617 30.073 147.607 30.0147C147.474 29.1771 147.5 28.5618 147.539 27.6576" fill="#46365C"/>
</g>
<path d="M153.822 20.2043C153.787 20.1643 154.068 19.9828 154.297 19.569C154.407 19.3625 154.475 19.0878 154.369 18.818C154.273 18.5432 154.007 18.3276 153.693 18.415C153.485 18.465 153.286 18.6007 153.102 18.7297L152.64 19.0528L152.882 18.5491C153.162 17.9712 153.622 17.6266 153.965 17.4709C154.314 17.311 154.546 17.3093 154.551 17.3384C154.561 17.3767 154.352 17.4425 154.054 17.634C153.76 17.8214 153.376 18.1611 153.148 18.6723L152.929 18.4925C153.117 18.3559 153.331 18.1927 153.622 18.1194C153.84 18.0628 154.098 18.1003 154.279 18.2335C154.463 18.3617 154.574 18.5457 154.633 18.7264C154.758 19.0994 154.633 19.4633 154.481 19.6789C154.161 20.126 153.834 20.2293 153.822 20.2043Z" fill="#46365C"/>
<path d="M140.288 12.2327C140.184 13.0587 140.221 13.9437 140.653 14.6548C141.084 15.3658 142.002 15.8279 142.776 15.5249C143.485 15.2476 143.844 14.4741 144.135 13.7706C144.044 14.838 144.929 15.892 145.995 15.9853C147.061 16.0785 148.115 15.1935 148.21 14.1269C148.163 15.0919 148.764 16.4099 149.707 17.0993C149.707 17.0993 151.702 18.2033 152.533 17.9519C152.506 18.4406 153.215 12.4309 152.736 12.2211C151.384 11.6299 148.015 10.7365 143.896 11.0488C139.776 11.3627 140.288 12.2327 140.288 12.2327Z" fill="#46365C"/>
<path d="M146.28 24.2926C146.318 24.3642 145.984 24.6048 145.495 24.6681C145.006 24.7339 144.621 24.589 144.639 24.5099C144.655 24.425 145.021 24.4266 145.455 24.3667C145.889 24.3117 146.242 24.2152 146.28 24.2926Z" fill="#46365C"/>
<path d="M146.281 29.3997C146.281 29.3997 137.657 28.3306 136.317 36.5934L136.244 39.8838L144.291 40.3526L146.281 29.3997Z" fill="#F1ECE0"/>
<path d="M165.009 86.0267L134.807 84.4448L134.216 81.4624L165.777 82.8629L165.009 86.0267Z" fill="#7C5038"/>
<path d="M156.222 29.153L148.586 97.2926L167.587 96.3709L167.927 43.4921C167.927 43.4921 170.271 28.5011 156.222 29.153Z" fill="#F1ECE0"/>
<path d="M136.389 54.0302C136.389 54.0302 132.863 48.8448 132.367 48.998C131.872 49.1512 131.577 50.8522 132.814 52.4657C132.814 52.4657 126.155 50.8463 126.115 51.9146C126.075 52.9828 131.089 54.1734 131.089 54.1734C131.089 54.1734 126.162 53.4149 125.965 54.3724C125.768 55.3299 130.177 56.2874 130.177 56.2874C130.177 56.2874 125.698 55.563 126.024 56.2782C126.351 56.9926 129.345 58.0942 129.345 58.0942C129.345 58.0942 126.263 57.3898 126.59 58.1041C126.917 58.8185 132.767 62.278 132.767 62.278C134.359 62.9474 136.389 54.0302 136.389 54.0302Z" fill="#FFB18F"/>
<path d="M156.078 37.623C156.078 37.623 155.975 59.2725 152.162 58.4682C143.785 56.7022 136.388 54.0304 136.388 54.0304L132.768 62.3672C132.768 62.3672 144.864 66.7809 147.905 67.8408C150.947 68.9007 162.544 72.61 165.013 59.7162C167.491 46.78 166.326 38.1518 166.326 38.1518L156.078 37.623Z" fill="#F1ECE0"/>
<path d="M146.87 29.183L141.682 61.7811L136.389 61.2841L142.625 29.665C142.625 29.665 144.493 29.0281 146.87 29.183Z" fill="#F1ECE0"/>
<path d="M153.746 51.2532C153.746 51.2532 157.571 42.8031 157.305 42.271C157.04 41.739 156.025 40.3527 156.025 40.3527C156.025 40.3527 158.914 35.8591 158.331 34.8533C157.749 33.8484 156.224 29.1533 156.224 29.1533L153.746 51.2532Z" fill="#E5D6BF"/>
<path d="M143.549 51.1721C143.549 51.1721 141.856 41.9976 142.257 41.558C142.657 41.1184 144.011 40.0618 144.011 40.0618C144.011 40.0618 142.455 34.9496 143.29 34.1411C144.125 33.3335 146.871 29.2329 146.871 29.2329L143.549 51.1721Z" fill="#E5D6BF"/>
<path d="M167.105 43.269C167.115 43.2682 167.13 43.3923 167.15 43.6304C167.174 43.8677 167.188 44.219 167.191 44.672C167.199 45.577 167.169 46.8859 167.063 48.4995C166.96 50.1131 166.797 52.0306 166.552 54.1545C166.292 56.276 166.015 58.6115 165.404 61.0227C165.26 61.6305 165 62.2133 164.726 62.7437C164.452 63.2832 164.157 63.8028 163.836 64.2932C163.195 65.2748 162.466 66.1515 161.672 66.8834C160.881 67.6178 160.026 68.2023 159.169 68.636C158.305 69.059 157.446 69.3313 156.644 69.4803C155.032 69.7725 153.688 69.5819 152.824 69.3179C152.388 69.1914 152.063 69.0507 151.849 68.9449C151.635 68.8375 151.526 68.7767 151.531 68.7676C151.545 68.7368 151.989 68.9782 152.855 69.2039C153.716 69.4295 155.034 69.581 156.603 69.2688C157.384 69.1098 158.219 68.8317 159.055 68.4104C159.885 67.9783 160.714 67.4004 161.481 66.6777C162.252 65.9575 162.96 65.0958 163.586 64.1308C163.9 63.6487 164.187 63.1375 164.456 62.6072C164.728 62.071 164.97 61.5348 165.111 60.9411C165.71 58.5732 165.999 56.2319 166.272 54.1212C166.532 52.0047 166.717 50.0923 166.848 48.4845C166.98 46.8767 167.044 45.5729 167.071 44.672C167.107 43.7686 167.074 43.2715 167.105 43.269Z" fill="#E5D6BF"/>
<path d="M156.745 49.0171C156.784 49.0213 156.771 49.6424 156.668 50.6424C156.559 51.639 156.356 53.0328 155.8 54.4823C155.243 55.9336 154.378 57.0909 153.608 57.7536C153.225 58.0892 152.882 58.3182 152.632 58.453C152.384 58.5887 152.236 58.642 152.228 58.6262C152.199 58.5788 152.756 58.2899 153.461 57.5971C154.17 56.9144 154.975 55.782 155.517 54.3724C156.058 52.962 156.293 51.5974 156.455 50.614C156.612 49.6282 156.701 49.0129 156.745 49.0171Z" fill="#E5D6BF"/>
<path d="M165.119 32.3995C165.097 32.4594 164.596 32.1289 163.705 32.153C162.831 32.1655 161.597 32.6201 160.695 33.6317C159.796 34.6558 159.355 35.854 159.051 36.6999C158.753 37.5567 158.583 38.097 158.539 38.0845C158.502 38.0745 158.598 37.5175 158.846 36.6341C159.102 35.764 159.518 34.5143 160.468 33.4294C161.434 32.3454 162.77 31.8941 163.705 31.9374C164.176 31.9549 164.548 32.0631 164.781 32.1797C165.016 32.2929 165.128 32.3845 165.119 32.3995Z" fill="#E5D6BF"/>
<path d="M153.342 62.5014C153.258 62.513 153.072 61.6696 152.925 60.6172C152.779 59.5648 152.727 58.7022 152.81 58.6905C152.894 58.6789 153.08 59.5223 153.227 60.5747C153.373 61.6271 153.425 62.4897 153.342 62.5014Z" fill="#E5D6BF"/>
<path d="M154.898 62.1059C154.837 62.1576 154.16 61.434 153.56 60.3766C152.956 59.3209 152.679 58.3692 152.754 58.3426C152.837 58.3118 153.233 59.1952 153.824 60.2259C154.409 61.2584 154.966 62.051 154.898 62.1059Z" fill="#E5D6BF"/>
<path d="M157.283 72.4134C157.283 72.4001 157.458 72.3851 157.789 72.3693C158.158 72.356 158.636 72.3385 159.225 72.3169C160.507 72.2877 162.269 72.2469 164.378 72.1986L164.526 72.1953L164.504 72.3435C164.316 73.6024 164.467 75.0137 164.548 76.5315C164.582 77.2917 164.59 78.086 164.471 78.8944C164.357 79.6996 164.099 80.5264 163.622 81.2466C163.007 82.2099 161.972 82.9251 160.859 82.9809C159.757 83.0433 158.725 82.6054 157.974 81.9618C157.211 81.3107 156.748 80.4489 156.483 79.6205C156.219 78.7846 156.141 77.9669 156.151 77.2292C156.188 75.7497 156.511 74.5949 156.718 73.8072C156.826 73.4134 156.919 73.1095 156.984 72.9047C157.049 72.6999 157.088 72.5941 157.099 72.5966C157.109 72.5991 157.089 72.7107 157.043 72.9205C156.987 73.1628 156.917 73.465 156.832 73.8355C156.662 74.6282 156.374 75.7847 156.367 77.2301C156.369 77.9486 156.459 78.7421 156.723 79.5414C156.987 80.3332 157.439 81.1475 158.155 81.7469C158.863 82.3456 159.834 82.7444 160.839 82.6828C161.848 82.627 162.789 81.9826 163.37 81.0784C164.273 79.7063 164.317 78.026 164.258 76.5432C164.189 75.0411 164.045 73.6024 164.255 72.3052L164.382 72.4501C162.271 72.4543 160.51 72.4584 159.227 72.4609C158.637 72.4543 158.159 72.4484 157.79 72.4443C157.459 72.4368 157.283 72.4259 157.283 72.4134Z" fill="#E5D6BF"/>
<path d="M138.366 54.8023C138.282 54.794 138.49 51.9315 138.83 48.4087C139.17 44.8843 139.514 42.0351 139.597 42.0435C139.68 42.0518 139.473 44.9143 139.133 48.4379C138.793 51.9606 138.449 54.8098 138.366 54.8023Z" fill="#E5D6BF"/>
<path d="M143.567 56.3952C143.542 56.476 141.953 56.0738 140.016 55.4968C138.078 54.9198 136.527 54.387 136.551 54.3062C136.575 54.2255 138.165 54.6276 140.102 55.2046C142.039 55.7816 143.591 56.3145 143.567 56.3952Z" fill="#E5D6BF"/>
<path d="M162.939 72.4576C162.894 72.4584 162.869 71.9023 162.805 71.0139C162.769 70.5709 162.716 70.0447 162.593 69.4761C162.534 69.1955 162.45 68.9057 162.291 68.6618C162.138 68.417 161.886 68.2496 161.6 68.2779C160.994 68.3329 160.654 68.974 160.493 69.496C160.326 70.0397 160.31 70.5684 160.32 71.008C160.354 71.8914 160.438 72.4451 160.388 72.4518C160.355 72.4568 160.196 71.9239 160.106 71.0197C160.068 70.5692 160.058 70.0131 160.225 69.4161C160.311 69.1205 160.431 68.8149 160.64 68.5327C160.844 68.2538 161.175 68.0057 161.576 67.974C161.986 67.9274 162.367 68.1972 162.541 68.4986C162.731 68.8 162.812 69.1222 162.868 69.4194C162.98 70.0122 163.011 70.5526 163.019 71.0022C163.029 71.9047 162.978 72.4568 162.939 72.4576Z" fill="#AAAAAA"/>
<path d="M165.781 82.9208C165.761 82.9208 165.741 82.6644 165.723 82.2006C165.711 81.6744 165.695 81.0175 165.677 80.2374C165.651 78.5796 165.636 76.2891 165.638 73.7589C165.64 73.1269 165.642 72.51 165.642 71.913C165.643 71.3252 165.603 70.7565 165.378 70.2944C165.158 69.8356 164.755 69.4834 164.317 69.4368C163.878 69.3827 163.468 69.605 163.191 69.8739C162.625 70.4359 162.545 71.1561 162.475 71.5933C162.417 72.0495 162.399 72.3076 162.375 72.3068C162.357 72.306 162.335 72.0495 162.357 71.5824C162.37 71.3493 162.397 71.0612 162.486 70.734C162.573 70.411 162.732 70.0363 163.04 69.7216C163.337 69.4143 163.798 69.1337 164.345 69.1854C164.893 69.2345 165.372 69.6516 165.629 70.1687C165.894 70.6982 165.936 71.3127 165.941 71.9105C165.942 72.5083 165.943 73.1261 165.943 73.758C165.94 76.2875 165.921 78.578 165.892 80.2357C165.872 81.0158 165.855 81.6728 165.842 82.199C165.822 82.6644 165.802 82.9208 165.781 82.9208Z" fill="#AAAAAA"/>
<path d="M167.372 81.7724C167.372 82.6816 166.636 83.4193 165.728 83.4193C164.82 83.4193 164.083 82.6824 164.083 81.7724C164.083 80.8632 164.819 80.1255 165.728 80.1255C166.635 80.1255 167.372 80.8632 167.372 81.7724Z" fill="#AAAAAA"/>
<path d="M152.308 9.86071C152.39 9.85322 152.487 10.2162 152.441 10.6675C152.397 11.1188 152.229 11.4551 152.15 11.4318C152.068 11.4085 152.097 11.0588 152.138 10.6375C152.181 10.2162 152.222 9.86737 152.308 9.86071Z" fill="#46365C"/>
<path d="M153.473 10.8422C153.505 10.9205 153.222 11.1078 152.843 11.261C152.464 11.4142 152.131 11.4758 152.099 11.3976C152.067 11.3201 152.35 11.1319 152.729 10.9787C153.109 10.8255 153.442 10.7648 153.473 10.8422Z" fill="#46365C"/>
<path d="M159.358 49.5727L199.761 50.9456L203 19.2883L161.064 18.5015L159.358 49.5727Z" fill="#5B4451"/>
<path d="M12.295 84.642L0 39.9985L20.077 36.6572L24.2882 83.0592L12.295 84.642Z" fill="#FFA35F"/>
<path d="M59.2646 118.255L60.2332 112.844H73.3572L72.6338 116.199C72.6338 116.199 76.7119 118.255 74.4513 118.255C72.1907 118.255 59.2646 118.255 59.2646 118.255Z" fill="#E4CEC3"/>
<path d="M74.8827 117.777C74.8827 117.81 71.4564 117.837 67.2303 117.837C63.0034 117.837 59.5771 117.81 59.5771 117.777C59.5771 117.743 63.0026 117.716 67.2303 117.716C71.4564 117.716 74.8827 117.742 74.8827 117.777Z" fill="#495668"/>
<path d="M73.2493 116.454C73.2584 116.488 72.9682 116.594 72.6149 116.733C72.2615 116.87 71.9764 116.989 71.9606 116.958C71.9456 116.929 72.2108 116.759 72.5708 116.619C72.9308 116.478 73.2409 116.423 73.2493 116.454Z" fill="#495668"/>
<path d="M72.7148 116.237C72.7206 116.271 72.4179 116.344 72.0563 116.463C71.6938 116.579 71.4061 116.697 71.3903 116.667C71.3745 116.638 71.6456 116.467 72.0189 116.347C72.3913 116.224 72.7106 116.205 72.7148 116.237Z" fill="#495668"/>
<path d="M63.9202 117.677C63.8978 117.688 63.8138 117.41 63.5128 117.077C63.2194 116.743 62.6872 116.387 62.0238 116.225C61.3586 116.064 60.7276 116.081 60.277 116.093C59.8247 116.109 59.5437 116.122 59.542 116.104C59.5412 116.089 59.818 116.044 60.272 116.007C60.7234 115.974 61.3645 115.941 62.052 116.107C62.7396 116.275 63.2892 116.659 63.5777 117.021C63.724 117.201 63.8155 117.367 63.8629 117.486C63.9119 117.605 63.9269 117.675 63.9202 117.677Z" fill="#495668"/>
<path d="M72.585 117.807C72.5517 117.818 72.5467 117.405 72.8893 117.082C73.2268 116.754 73.6384 116.778 73.6267 116.811C73.6325 116.846 73.2725 116.877 72.9732 117.17C72.6664 117.456 72.6191 117.815 72.585 117.807Z" fill="#495668"/>
<path d="M68.6289 117.132C68.6297 117.165 67.9471 117.201 67.1049 117.211C66.2627 117.221 65.5801 117.202 65.5801 117.168C65.5792 117.135 66.2618 117.099 67.1041 117.089C67.9455 117.08 68.628 117.099 68.6289 117.132Z" fill="#495668"/>
<path d="M53.333 121.857L54.3016 116.447H67.4255L66.7022 119.801C66.7022 119.801 70.7803 121.857 68.5197 121.857C66.2582 121.857 53.333 121.857 53.333 121.857Z" fill="#E4CEC3"/>
<path d="M68.9511 121.379C68.9511 121.412 65.5248 121.44 61.2987 121.44C57.0709 121.44 53.6455 121.412 53.6455 121.379C53.6455 121.346 57.0709 121.318 61.2987 121.318C65.524 121.318 68.9511 121.345 68.9511 121.379Z" fill="#495668"/>
<path d="M67.3166 120.057C67.3258 120.09 67.0356 120.197 66.6823 120.335C66.3289 120.472 66.0437 120.592 66.0279 120.561C66.013 120.532 66.2782 120.362 66.6382 120.222C66.9982 120.08 67.3083 120.025 67.3166 120.057Z" fill="#495668"/>
<path d="M66.7829 119.84C66.7887 119.874 66.4861 119.947 66.1236 120.066C65.7611 120.182 65.4734 120.3 65.4576 120.27C65.4427 120.241 65.7129 120.07 66.0862 119.95C66.4595 119.828 66.7787 119.808 66.7829 119.84Z" fill="#495668"/>
<path d="M57.9888 121.28C57.9663 121.291 57.8815 121.014 57.5814 120.68C57.2879 120.346 56.7549 119.99 56.0923 119.828C55.4272 119.667 54.7961 119.684 54.3463 119.696C53.894 119.712 53.613 119.725 53.6113 119.707C53.6105 119.691 53.8882 119.647 54.3413 119.61C54.7928 119.577 55.4346 119.544 56.1214 119.71C56.809 119.878 57.3585 120.262 57.6462 120.623C57.7925 120.803 57.884 120.969 57.9314 121.088C57.9804 121.208 57.9954 121.278 57.9888 121.28Z" fill="#495668"/>
<path d="M66.6524 121.41C66.6191 121.421 66.6141 121.008 66.9567 120.685C67.2942 120.357 67.7058 120.381 67.6941 120.413C67.6999 120.448 67.3399 120.479 67.0415 120.773C66.7338 121.059 66.6864 121.417 66.6524 121.41Z" fill="#495668"/>
<path d="M62.6972 120.735C62.6972 120.768 62.0155 120.804 61.1733 120.814C60.331 120.824 59.6484 120.805 59.6484 120.771C59.6476 120.738 60.3302 120.702 61.1724 120.692C62.0138 120.682 62.6964 120.701 62.6972 120.735Z" fill="#495668"/>
<path d="M60.7061 51.6167C60.7061 51.6167 64.2321 46.4312 64.7276 46.5844C65.2231 46.7376 65.5175 48.4386 64.2811 50.0522C64.2811 50.0522 70.94 48.4328 70.9799 49.501C71.0206 50.5693 66.0055 51.7599 66.0055 51.7599C66.0055 51.7599 70.9325 51.0014 71.1295 51.9589C71.3266 52.9164 66.9176 53.8738 66.9176 53.8738C66.9176 53.8738 71.3972 53.1495 71.0705 53.8647C70.7429 54.5791 67.7498 55.6806 67.7498 55.6806C67.7498 55.6806 70.8319 54.9762 70.5051 55.6906C70.1784 56.405 64.3277 59.8644 64.3277 59.8644C62.7347 60.5339 60.7061 51.6167 60.7061 51.6167Z" fill="#CE806B"/>
<path d="M40.7613 35.2217C40.7613 35.2217 41.1188 56.8578 44.9317 56.0535C53.3091 54.2875 60.7053 51.6157 60.7053 51.6157L64.3262 59.9526C64.3262 59.9526 52.2299 64.3662 49.1886 65.4261C46.1472 66.486 34.5498 70.1953 32.0805 57.3016C29.6029 44.3654 30.7677 35.7371 30.7677 35.7371L40.7613 35.2217Z" fill="#CE806B"/>
<path d="M17.3229 61.3916C17.3229 61.3916 14.1627 74.0473 26.5425 76.5318C38.9223 79.0163 58.4107 73.5818 58.513 76.5318C58.6152 79.4825 59.3901 114.731 59.3901 114.731H73.811C73.811 114.731 75.4614 58.7814 66.4505 58.9305C59.3702 59.047 17.3229 61.3916 17.3229 61.3916Z" fill="#8C4D2D"/>
<path d="M10.5461 50.5519L10.9069 65.3281C10.9069 65.3281 22.1626 73.3886 39.7296 64.5455L36.0207 50.3162L35.2034 33.7024C35.2034 33.7024 34.9299 28.3971 33.2138 28.0149C31.4978 27.6327 17.101 27.3238 14.0663 29.5943C14.0663 29.5943 10.0198 30.9407 9.75956 37.8338C9.49849 44.727 10.5461 50.5519 10.5461 50.5519Z" fill="#3D1A06"/>
<path d="M10.9069 65.3282C10.9069 65.3282 7.74669 77.983 20.1265 80.4683C32.5063 82.9528 51.9947 77.5184 52.097 80.4683C52.1992 83.4182 52.9741 118.667 52.9741 118.667H67.395C67.395 118.667 69.0454 62.718 60.0345 62.867C52.955 62.9836 10.9069 65.3282 10.9069 65.3282Z" fill="#A6613B"/>
<path d="M36.3013 11.4894C36.3013 11.4894 37.0962 26.0392 32.5117 26.269L29.7198 26.2731V28.333C29.7198 29.0282 29.364 29.6735 28.7737 30.0398C27.5158 30.82 25.2576 31.8025 23.5948 30.1814C22.8673 29.472 22.5497 28.4379 22.6295 27.4238L23.2381 19.6781C23.2381 19.6781 20.6541 19.1569 21.1438 16.4825C21.7698 13.0655 25.0332 15.3843 25.0332 15.3843V12.0889C25.0332 12.0889 25.2327 10.0915 29.5203 10.1914C33.8079 10.2913 33.8079 10.2913 33.8079 10.2913C33.8079 10.2913 36.2914 10.2913 36.3013 11.4894Z" fill="#FFB18F"/>
<path d="M33.5215 17.0178C33.6054 17.017 33.6903 18.0719 33.7102 19.3749C33.711 19.6872 33.7119 19.9861 33.7127 20.2941C33.7119 20.5789 33.6753 20.8736 33.5265 21.0809C33.3768 21.2849 33.1698 21.3565 33.0334 21.3515C32.8929 21.344 32.8372 21.2832 32.8455 21.2683C32.8538 21.2466 32.9204 21.2616 33.021 21.2341C33.1191 21.2075 33.2588 21.1234 33.3444 20.9652C33.5157 20.6513 33.3918 20.026 33.4059 19.3799C33.386 18.0769 33.4375 17.0195 33.5215 17.0178Z" fill="#46365C"/>
<path d="M30.4345 17.1351C30.5186 17.1309 30.5994 17.364 30.6144 17.6554C30.6302 17.9477 30.5744 18.1883 30.4911 18.1925C30.407 18.1966 30.3263 17.9635 30.3113 17.6713C30.2955 17.3799 30.3504 17.1392 30.4345 17.1351Z" fill="#46365C"/>
<path d="M35.1203 17.0611C35.2044 17.0569 35.2852 17.2901 35.3001 17.5815C35.316 17.8737 35.2602 18.1143 35.1769 18.1185C35.0928 18.1227 35.0121 17.8895 34.9971 17.5981C34.9804 17.3059 35.0362 17.0653 35.1203 17.0611Z" fill="#46365C"/>
<g opacity="0.5">
<path d="M29.7115 26.2186C28.772 25.9746 27.9181 25.4109 27.3237 24.6416C27.2904 25.4459 27.2854 26.2652 27.5041 27.0395C27.7228 27.8138 28.2183 28.5074 28.9092 28.9187C29.1495 29.0619 29.5544 29.2376 29.5544 29.2376C29.571 29.181 29.6866 28.6872 29.6957 28.629C29.8287 27.7913 29.803 27.1761 29.7639 26.2718" fill="#46365C"/>
</g>
<path d="M23.483 18.8195C23.4713 18.8445 23.1429 18.7413 22.8228 18.2941C22.6715 18.0785 22.5459 17.7147 22.6715 17.3417C22.7305 17.1602 22.8411 16.9761 23.0248 16.8487C23.2069 16.7164 23.4638 16.6781 23.6817 16.7347C23.9735 16.808 24.188 16.9711 24.3751 17.1077L24.1556 17.2875C23.9278 16.7763 23.5436 16.4366 23.2502 16.2493C22.9533 16.0586 22.743 15.9928 22.753 15.9537C22.758 15.9245 22.9899 15.9262 23.3391 16.0861C23.6825 16.2418 24.1431 16.5865 24.4216 17.1643L24.6644 17.668L24.2021 17.345C24.0176 17.2159 23.8188 17.0802 23.611 17.0302C23.2959 16.942 23.0307 17.1585 22.9351 17.4324C22.8295 17.7022 22.8968 17.9769 23.0066 18.1834C23.2369 18.598 23.5179 18.7796 23.483 18.8195Z" fill="#46365C"/>
<path d="M37.016 10.8483C37.1199 11.6742 37.0834 12.5593 36.651 13.2703C36.2195 13.9813 35.3016 14.4435 34.5276 14.1404C33.8192 13.8631 33.46 13.0896 33.1691 12.3861C33.2605 13.4535 32.375 14.5084 31.31 14.6016C30.2441 14.6949 29.1899 13.8098 29.0951 12.7433C29.1425 13.7083 28.5123 14.6683 27.6094 15.0088C27.6094 15.0088 25.6672 15.694 24.8358 15.4426C24.8358 15.4426 24.5847 11.2379 25.0012 10.8491C25.9357 9.97653 29.2888 9.35372 33.4085 9.66595C37.5282 9.97817 37.016 10.8483 37.016 10.8483Z" fill="#A6613B"/>
<path d="M31.1639 21.5928C31.9703 21.3272 32.8217 21.1989 33.6706 21.2164C34.0206 21.2239 34.3823 21.2589 34.689 21.4279C34.9958 21.5969 35.2353 21.93 35.1995 22.2788C33.4361 22.5253 31.656 22.6552 29.876 22.666C30.3374 21.9141 31.2403 21.4579 32.1183 21.5328" fill="#A6613B"/>
<path d="M31.0245 22.9073C31.0619 22.8291 31.4144 22.9257 31.8492 22.9806C32.2832 23.0406 32.649 23.0389 32.6648 23.1238C32.6831 23.2029 32.2982 23.3478 31.8093 23.282C31.3204 23.2196 30.9862 22.979 31.0245 22.9073Z" fill="#46365C"/>
<path d="M31.0254 28.015C31.0254 28.015 39.6497 26.9451 40.9891 35.2087L41.0623 38.4991L33.015 38.9679L31.0254 28.015Z" fill="#3D1A06"/>
<path d="M34.8672 38.4863L35.5049 44.9765L42.4971 45.4902L40.9108 34.7979L34.8672 38.4863Z" fill="#3D1A06"/>
<path d="M32.2219 17.6888C32.2077 17.6897 32.2152 17.534 32.1445 17.2709C32.0747 17.0127 31.9001 16.6347 31.5118 16.3442C31.1369 16.0527 30.5183 15.8896 29.9197 16.1127C29.326 16.3175 28.813 16.9495 28.8197 17.6888C28.813 18.4274 29.326 19.0601 29.9197 19.265C30.5183 19.4881 31.1369 19.3249 31.5118 19.0326C31.9001 18.7421 32.0747 18.3641 32.1445 18.106C32.2152 17.8429 32.2086 17.688 32.2219 17.6888C32.2219 17.6888 32.2485 17.8437 32.1911 18.1176C32.1337 18.3857 31.9658 18.7862 31.5642 19.1009C31.1768 19.4165 30.5233 19.6021 29.8814 19.3698C29.2454 19.1584 28.6908 18.4815 28.6983 17.688C28.6908 16.8954 29.2462 16.2184 29.8814 16.007C30.5233 15.7747 31.1768 15.9603 31.5642 16.2759C31.9649 16.5906 32.1337 16.9911 32.1911 17.2592C32.2485 17.5339 32.2219 17.6888 32.2219 17.6888Z" fill="#1E242D"/>
<path d="M37.3527 17.5897C37.3386 17.5905 37.3461 17.4348 37.2754 17.1726C37.2056 16.9145 37.031 16.5365 36.6427 16.2459C36.2677 15.9545 35.6491 15.7913 35.0505 16.0144C34.4569 16.2192 33.9439 16.8512 33.9506 17.5897C33.9439 18.329 34.4569 18.961 35.0505 19.1658C35.6491 19.3889 36.2677 19.2258 36.6427 18.9335C37.031 18.6429 37.2056 18.2649 37.2754 18.0068C37.3452 17.7437 37.3386 17.5889 37.3527 17.5897C37.3527 17.5897 37.3793 17.7446 37.322 18.0185C37.2646 18.2874 37.0966 18.6871 36.6951 19.0018C36.3076 19.3165 35.6541 19.503 35.0123 19.2707C34.3763 19.0592 33.8217 18.3823 33.8292 17.5889C33.8217 16.7962 34.3771 16.1193 35.0123 15.9078C35.6541 15.6755 36.3076 15.8612 36.6951 16.1768C37.0958 16.4915 37.2646 16.892 37.322 17.1601C37.3793 17.4348 37.3527 17.5897 37.3527 17.5897Z" fill="#1E242D"/>
<path d="M33.8936 17.6721C33.8936 17.7054 33.5119 17.7329 33.0405 17.7329C32.57 17.7329 32.1875 17.7054 32.1875 17.6721C32.1875 17.6388 32.5691 17.6113 33.0405 17.6113C33.5111 17.6113 33.8936 17.6388 33.8936 17.6721Z" fill="#1E242D"/>
<path d="M28.9069 16.9886C28.9011 17.0044 28.67 16.9253 28.3008 16.7855C27.9317 16.6456 27.4237 16.4441 26.8666 16.2151C26.3088 15.9861 25.8066 15.7722 25.4449 15.6115C25.0841 15.4508 24.8646 15.3442 24.8712 15.3292C24.8779 15.3142 25.1107 15.3925 25.4798 15.5332C25.849 15.6731 26.3553 15.8738 26.9124 16.1027C27.4686 16.3317 27.9708 16.5448 28.3316 16.7055C28.6916 16.8662 28.9128 16.9736 28.9069 16.9886Z" fill="#1E242D"/>
<path d="M39.7666 53.0644C39.7666 53.0644 43.2926 47.8789 43.7882 48.0321C44.2837 48.1853 44.578 49.8863 43.3417 51.4999C43.3417 51.4999 50.0005 49.8805 50.0404 50.9487C50.0812 52.017 45.066 53.2076 45.066 53.2076C45.066 53.2076 49.993 52.4491 50.1901 53.4066C50.3871 54.3641 45.9781 55.3216 45.9781 55.3216C45.9781 55.3216 50.4578 54.5981 50.131 55.3124C49.8043 56.0268 46.8104 57.1283 46.8104 57.1283C46.8104 57.1283 49.8924 56.424 49.5657 57.1383C49.2381 57.8527 43.3883 61.3122 43.3883 61.3122C41.7961 61.9816 39.7666 53.0644 39.7666 53.0644Z" fill="#FFB18F"/>
<path d="M20.0773 36.6567C20.0773 36.6567 20.1804 58.3062 23.9932 57.5019C32.3706 55.7359 39.7669 53.0641 39.7669 53.0641L43.3877 61.401C43.3877 61.401 31.2914 65.8146 28.2501 66.8745C25.2088 67.9344 13.6113 71.6437 11.142 58.7499C8.6644 45.8137 9.82922 37.1855 9.82922 37.1855L20.0773 36.6567Z" fill="#FFB18F"/>
<path d="M9.84487 36.6569C9.84487 36.6569 9.02758 43.4085 9.55553 47.6073L21.932 46.5799L21.0823 34.5371L9.84487 36.6569Z" fill="#3D1A06"/>
<path d="M54.9777 118.328C54.9727 118.328 54.9652 118.251 54.9552 118.101C54.9461 117.936 54.9345 117.716 54.9195 117.434C54.8937 116.831 54.858 115.971 54.8114 114.87C54.7299 112.625 54.6144 109.407 54.4705 105.437C54.3375 101.449 54.1795 96.7082 54.0041 91.4461C53.9201 88.8126 53.8312 86.0492 53.7389 83.1842C53.7156 82.4681 53.6923 81.7463 53.6682 81.0186C53.6349 80.3009 53.5643 79.5682 53.2591 78.9304C52.9665 78.2868 52.372 77.8289 51.6828 77.6282C50.9919 77.4201 50.2386 77.4101 49.4903 77.4434C43.4335 77.8755 37.626 77.9113 32.3665 77.6549C29.7359 77.52 27.2408 77.3476 24.9095 77.0879C22.5824 76.8198 20.4132 76.3718 18.5674 75.5783C17.6454 75.1845 16.8048 74.7208 16.0749 74.1837C15.3465 73.645 14.7371 73.0381 14.2358 72.4186C13.2264 71.1789 12.6686 69.8833 12.4274 68.7884C12.1747 67.6911 12.2387 66.7993 12.3485 66.224C12.454 65.6445 12.5738 65.3564 12.5738 65.3564C12.5946 65.3614 12.4931 65.6562 12.4083 66.2332C12.3185 66.806 12.2753 67.6852 12.5422 68.761C12.7966 69.8334 13.362 71.1006 14.3663 72.3095C14.8652 72.914 15.4696 73.5043 16.1879 74.0264C16.9071 74.5467 17.7394 74.9988 18.6498 75.3793C20.4739 76.1487 22.6206 76.5808 24.9378 76.8364C27.2591 77.0837 29.755 77.2477 32.3798 77.3743C37.6327 77.6149 43.416 77.5716 49.4762 77.1395C50.2386 77.1062 51.0201 77.112 51.7709 77.3368C52.5184 77.5499 53.2084 78.0803 53.531 78.798C53.8669 79.5066 53.9326 80.2751 53.9675 81.0044C53.99 81.7338 54.0132 82.4573 54.0357 83.1742C54.1213 86.0392 54.2045 88.8034 54.2826 91.437C54.4339 96.6999 54.5695 101.442 54.6834 105.431C54.7865 109.402 54.8696 112.622 54.9278 114.866C54.9494 115.967 54.9669 116.829 54.9785 117.433C54.981 117.714 54.9827 117.935 54.9843 118.1C54.986 118.25 54.9827 118.328 54.9777 118.328Z" fill="#84482A"/>
<path d="M12.2947 84.642L42.4976 83.06L43.0888 80.0776L11.5273 81.4781L12.2947 84.642Z" fill="#FFA35F"/>
<path d="M39.0291 83.06C38.9227 82.9201 18.5879 121.379 18.5879 121.379L19.4351 121.28L40.1233 83.06H39.0291Z" fill="#FFA35F"/>
<path d="M14 84.1226L46.4086 122.234H47.0438L15.1997 84.1226H14Z" fill="#FFA35F"/>
<path d="M20.6148 118.75C20.6739 118.809 20.5956 118.984 20.4383 119.141C20.2817 119.297 20.1061 119.377 20.0469 119.317C19.9878 119.258 20.0669 119.083 20.2235 118.926C20.38 118.77 20.5548 118.69 20.6148 118.75Z" fill="#FFA35F"/>
<path d="M94.1221 123.297V54.688L201.285 56.8644V122.805L175.005 122.235L175.674 60.5154L98.4696 58.9301L99.7117 124L94.1221 123.297Z" fill="#FFA35F"/>
<path d="M183.276 56.4995L186.188 122.235L201.286 122.806V56.865L183.276 56.4995Z" fill="#EA9357"/>
<path d="M185.283 48.1831H177.508V56.1511H185.283V48.1831Z" fill="#4C3C46"/>
<path d="M97.8257 54.6879L96.2402 43.9189L106.386 44.9772L105.54 54.8019L97.8257 54.6879Z" fill="#EF6B58"/>
<path d="M65.2032 11.6885C66.24 7.30964 63.5357 2.91818 59.163 1.87993C54.7904 0.841689 50.4052 3.54983 49.3684 7.92873C48.3317 12.3076 51.0359 16.6991 55.4086 17.7373C59.7812 18.7756 64.1664 16.0674 65.2032 11.6885Z" fill="#E5D5D1"/>
<path d="M51.5499 15.7488L50.2861 19.4972L54.5696 17.4157L51.5499 15.7488Z" fill="#E5D5D1"/>
<path d="M55.9795 5.93058L56.2697 12.3641H58.3191L57.8277 5.81901C57.7912 5.33526 57.3887 4.96143 56.9049 4.96143C56.3761 4.96226 55.9554 5.40354 55.9795 5.93058Z" fill="white"/>
<path d="M58.9439 12.4982C58.9439 13.4099 58.2056 14.1493 57.2952 14.1493C56.3848 14.1493 55.6465 13.4099 55.6465 12.4982C55.6465 11.5865 56.3848 10.8472 57.2952 10.8472C58.2056 10.8472 58.9439 11.5865 58.9439 12.4982Z" fill="white"/>
<path d="M56.739 6.8632L56.9153 11.2927C56.9153 11.2927 55.9317 11.8622 56.2701 12.9312C56.6085 13.9995 57.7633 13.6897 58.1266 13.2951C58.49 12.9004 58.46 11.5358 57.9446 11.3834L57.5505 11.1403L57.2836 6.65088L56.739 6.8632Z" fill="#EF6B58"/>
</svg>
