<?xml version="1.0" encoding="utf-8"?>
<!-- Generator: Adobe Illustrator 27.5.0, SVG Export Plug-In . SVG Version: 6.00 Build 0)  -->
<svg version="1.1" xmlns="http://www.w3.org/2000/svg" xmlns:xlink="http://www.w3.org/1999/xlink" x="0px" y="0px"
	 viewBox="0 0 1920 1080" style="enable-background:new 0 0 1920 1080;" xml:space="preserve">
<g id="BACKGROUND">
	<g>
		<rect style="fill:#DEDFFF;" width="1920" height="1080"/>
		<path style="fill-rule:evenodd;clip-rule:evenodd;fill:#EEEFFF;" d="M461.578,875.8C235.609,809.039,63.447,826.217,0,613.326
			V1080h751.529C720.455,1008.964,638.519,928.075,461.578,875.8z"/>
		<path style="fill-rule:evenodd;clip-rule:evenodd;fill:none;stroke:#A49EFF;stroke-width:2;stroke-miterlimit:10;" d="M0,780.575
			c265.107,7.72,644.328-74.836,672.998,299.425"/>
		<path style="fill-rule:evenodd;clip-rule:evenodd;fill:none;stroke:#A49EFF;stroke-width:2;stroke-miterlimit:10;" d="
			M1339.031,789.598C1231.719,977.684,1016.839,831.3,974.467,1080"/>
		<path style="fill-rule:evenodd;clip-rule:evenodd;fill:none;stroke:#A49EFF;stroke-width:2;stroke-miterlimit:10;" d="
			M1924.186,484.658c-92.972-68.167-477.029-105.92-610.738,45.21"/>
		<path style="fill-rule:evenodd;clip-rule:evenodd;fill:#EEEFFF;" d="M1920,132.803V0h-389.958
			C1600.199,52.361,1875.167,15.938,1920,132.803z"/>
	</g>
</g>
<g id="OBJECTS">
	<path style="display:none;fill:#FFFFFF;" d="M1756.642,115.924h-207.638c-11.156,0-20.199-9.043-20.199-20.199
		c0-11.155,9.043-20.199,20.199-20.199h207.638c11.155,0,20.199,9.044,20.199,20.199
		C1776.841,106.881,1767.797,115.924,1756.642,115.924"/>
	<path style="fill:#A49EFF;" d="M1562.136,109.474l-5.522-10.126c3.571-2.992,4.661-8.179,2.345-12.426
		c-2.64-4.84-8.704-6.624-13.544-3.984c-4.841,2.64-6.624,8.704-3.983,13.544c2.316,4.248,7.269,6.139,11.718,4.756l5.522,10.126
		c0.522,0.957,1.721,1.309,2.678,0.787C1562.306,111.629,1562.658,110.431,1562.136,109.474 M1544.528,94.793
		c-1.707-3.129-0.555-7.05,2.575-8.757c3.13-1.707,7.05-0.554,8.757,2.575c1.707,3.13,0.555,7.051-2.575,8.758
		C1550.155,99.076,1546.235,97.921,1544.528,94.793"/>
	<g>
		<g>
			<path style="fill:#674BB3;" d="M1919.992,527.179l-0.955-2.983c-28.573-12.437-57.769-18.863-85.358-18.938
				c-3.015,22.413-4.568,55.299,3.23,78.203l26.272-0.952l-14.269,26.2c9.298,22.798,22.412,45.29,39.18,66.357l31.9,3.733V527.179z
				"/>
			<path style="fill:#674BB3;" d="M1919.992,693.334l-5.812,10.403c0.7,0.675,1.407,1.336,2.111,2.002
				c1.23-0.611,2.467-1.229,3.701-1.845V693.334z"/>
		</g>
		<path style="fill-rule:evenodd;clip-rule:evenodd;fill:#8354F5;" d="M1920,612.286v220.969
			c-50.163,8.456-173.195,30.95-356.289,32.789l70.669-171.698C1729.93,674.262,1816.308,659.282,1920,612.286z"/>
		<g>
			<path style="fill-rule:evenodd;clip-rule:evenodd;fill:#674BB3;" d="M879.555,515.2c-23.929-6.898-56.221,11.575-65.753,38.623
				c2.289,20.544,9.743,39.428,21.563,56.555c7.819-19.831,39.66-42.505,71.105-40.77
				C899.333,551.184,889.736,533.108,879.555,515.2z"/>
			<path style="fill-rule:evenodd;clip-rule:evenodd;fill:#573998;" d="M815.126,550.459c-0.479,1.105-0.923,2.227-1.324,3.364
				c2.289,20.544,9.743,39.428,21.563,56.555c0.705-1.789,1.602-3.6,2.666-5.413C826.017,588.451,818.164,570.241,815.126,550.459z"
				/>
			<path style="fill-rule:evenodd;clip-rule:evenodd;fill:#573998;" d="M879.555,515.2c-1.068-0.308-2.153-0.563-3.252-0.771
				c9.659,18.155,17.772,36.597,24.346,55.24c1.62-0.036,4.351-0.012,5.977,0.078C899.49,551.322,889.736,533.108,879.555,515.2z"/>
			<path style="fill-rule:evenodd;clip-rule:evenodd;fill:#8354F5;" d="M1333.533,706.962
				c-256.753,48.797-504.595-14.995-519.761-153.354c-41.5,141.387,169.144,273.641,401.808,286.666L1333.533,706.962z"/>
			<path style="fill-rule:evenodd;clip-rule:evenodd;fill:#7744D5;" d="M1236.274,722.181c-12.893,0.633-26.152,0.331-38.762,0.392
				l0.49,9.034l3.91,107.763c8.75,1.073,18.414,0.904,25.009-0.402C1230.814,799.609,1236.292,759.37,1236.274,722.181z"/>
			<g>
				<path style="fill-rule:evenodd;clip-rule:evenodd;fill:#7744D5;" d="M932.818,682.889c-1.701-0.725-3.39-1.456-5.062-2.2
					c0.134,23.599-2.062,47.172-6.567,70.555c1.99,1.282,4.009,2.55,6.041,3.81C931.842,731.749,933.882,707.707,932.818,682.889z"
					/>
				<path style="fill-rule:evenodd;clip-rule:evenodd;fill:#7744D5;" d="M1007.482,706.704
					C1007.482,706.704,1007.482,706.703,1007.482,706.704c-0.026-0.007-0.052-0.013-0.078-0.019
					c3.434,28.532,3.601,58.435,1.243,88.869c5.188,2.054,10.431,4.06,15.748,5.993c3.099-31.617,2.283-62.472-1.818-91.576
					C1017.478,708.941,1012.448,707.85,1007.482,706.704z"/>
			</g>
			<path style="fill-rule:evenodd;clip-rule:evenodd;fill:#A49EFF;" d="M717.305,1080H931.69
				c77.022-176.739,150.42-467.075-52.145-564.82C1014.711,742.614,860.27,949.992,717.305,1080z"/>
		</g>
		<path style="fill-rule:evenodd;clip-rule:evenodd;fill:#A49EFF;" d="M0,90.717v100.728
			c60.178-31.319,121.013-48.292,176.023-55.507l-68.141-32.487l45.181-63.173C99.507,49.999,47.194,67.696,0,90.717z"/>
		<path style="fill-rule:evenodd;clip-rule:evenodd;fill:#8354F5;" d="M1920,416.491l-0.002-129.877
			c-57.707-24.798-127.525-44.85-208.362-56.426l49.498,70.287l-86.995,50.641C1763.116,360.166,1850.22,380.252,1920,416.491z"/>
	</g>
	<g>
		<defs>
			<polygon id="SVGID_1_" points="1919.992,1080 911.572,1080 911.572,220.224 1919.981,220.223 			"/>
		</defs>
		<clipPath id="SVGID_00000121255624665408877550000017222807713123984045_">
			<use xlink:href="#SVGID_1_"  style="overflow:visible;"/>
		</clipPath>
		<g style="clip-path:url(#SVGID_00000121255624665408877550000017222807713123984045_);">
			<path style="fill:#FF7FB7;" d="M1283.294,1027.871c-9.56-17.753-28.306-45.513-39.849-60.639l-25.404,22.647l4.894-44.317
				c-29.263-29.616-61.878-51.255-94.424-63.097c-8.652,22.469-18.429,56.49-16.213,83.44l26.939,8.632l-21.033,22.325
				c3.767,27.389,11.488,55.855,23.279,84.162l39.015,19.357l-19.647,20.365c38.987,69.445,95.357,119.062,151.525,139.498
				c18.239-47.368,17.518-109.731-3.481-173.153l-18.58,8.529l6.712-39.512C1292.904,1046.654,1288.331,1037.226,1283.294,1027.871z
				"/>
			<path style="fill:#EB5E98;" d="M1239.62,1029.749c-2.156,15.233-4.401,32.917-6.565,49.444c-0.678-1.144-1.351-2.3-2.032-3.434
				c-13.324-22.172-27.777-46.595-42.349-71.201c1.574-17.51,3.393-36.599,4.699-52.92c0,0-0.325-0.036-0.325-0.036
				c-2.15,15.186-4.387,32.808-6.545,49.29c-16.899-28.533-33.893-57.176-49.412-82.714c0,0-0.784,0.444-0.784,0.444
				c19.132,36.277,41.797,77.835,63.034,117.082c-15.285-7.402-31.718-15.449-45.923-22.149c0,0-0.148,0.291-0.148,0.291
				c14.822,8.125,32.385,17.401,48.266,25.915c7.519,13.904,14.837,27.485,21.727,40.396c3.42,6.307,6.936,12.588,10.501,18.849
				c-22.5-10.9-46.568-22.679-67.422-32.515c0,0-0.222,0.436-0.222,0.436c21.843,11.974,47.661,25.617,71.136,38.196
				c13.616,23.533,28.234,46.637,43.761,68.792l0.784-0.444c-4.906-11.274-10.24-22.306-15.724-33.252
				c-9.581-19.069-19.981-38.753-30.847-57.347c1.578-17.556,3.403-36.714,4.714-53.087
				C1239.945,1029.785,1239.62,1029.749,1239.62,1029.749z"/>
		</g>
		<path style="clip-path:url(#SVGID_00000121255624665408877550000017222807713123984045_);fill:#8354F5;" d="M1037.285,983.197
			c-20.688,5.591-50.266,16.444-68.463,32.197l7.954,23.889l-27.091-3.379c-17.697,17.099-34.09,37.603-48.231,60.948l6.595,38.2
			l-24.955-3.414c-29.403,64.5-35.428,131.068-20.595,182.157c43.613-11.787,88.036-45.075,122.565-93.487l-15.891-8.866
			l31.913-15.94c4.627-7.929,8.998-16.168,13.071-24.703c7.73-16.196,17.823-44.25,22.624-60.492l-29.619-6.35l34.409-19.771
			C1047.472,1047.603,1045.88,1012.801,1037.285,983.197z"/>
		<g style="clip-path:url(#SVGID_00000121255624665408877550000017222807713123984045_);">
			<path style="fill:#FF7FB7;" d="M1285.134,1661.948c-10.824-19.53-31.953-50.018-44.938-66.613l-27.827,25.418l4.826-49.138
				c-32.8-32.402-69.205-55.927-105.402-68.604c-9.279,24.996-19.65,62.799-16.835,92.611l29.946,9.198l-22.992,25.003
				c4.538,30.278,13.469,61.695,26.904,92.882l43.461,20.912l-21.483,22.814c44.102,76.375,107.185,130.562,169.654,152.438
				c19.562-52.695,17.928-121.741-6.174-191.688l-20.46,9.693l6.903-43.842C1296.027,1682.618,1290.838,1672.239,1285.134,1661.948z
				"/>
			<path style="fill:#FF7FB7;" d="M1236.799,1664.612c-2.184,16.897-4.433,36.509-6.608,54.838
				c-0.766-1.257-1.526-2.529-2.296-3.776c-15.051-24.373-31.382-51.223-47.847-78.275c1.509-19.411,3.266-40.572,4.494-58.662
				c0,0-0.36-0.035-0.36-0.035c-2.177,16.845-4.419,36.387-6.587,54.667c-19.095-31.369-38.296-62.857-55.823-90.928
				c0,0-0.862,0.503-0.862,0.503c21.672,39.914,47.325,85.628,71.366,128.803c-17.025-7.991-35.329-16.682-51.148-23.91
				c0,0-0.16,0.325-0.161,0.325c16.521,8.799,36.093,18.835,53.793,28.049c8.512,15.296,16.797,30.236,24.6,44.44
				c3.872,6.938,7.849,13.846,11.881,20.732c-25.061-11.769-51.869-24.489-75.093-35.101c0,0-0.24,0.485-0.24,0.485
				c24.347,12.967,53.119,27.728,79.282,41.342c15.392,25.876,31.888,51.264,49.379,75.588l0.862-0.503
				c-5.584-12.418-11.637-24.563-17.857-36.61c-10.865-20.987-22.644-42.645-34.925-63.088c1.512-19.461,3.277-40.699,4.509-58.847
				C1237.159,1664.648,1236.799,1664.612,1236.799,1664.612z"/>
		</g>
		<g style="clip-path:url(#SVGID_00000121255624665408877550000017222807713123984045_);">
			<path style="fill:#8354F5;" d="M1212.972,1707.964c-11.38-13.789-32.478-34.694-45.13-45.855l-18.182,24.084l-3.397-39.388
				c-30.565-20.703-62.668-33.89-93.018-38.568c-3.644,21.035-6.271,52.312,0.311,75.368l24.92,2.855l-14.437,23.049
				c8.007,23.17,19.638,46.593,34.781,69.176l37.275,10.097l-13.57,21.105c45.901,53.663,103.495,87.079,155.874,95.152
				c7.682-44.346-3.716-98.459-32.933-149.99l-14.686,10.627l-0.987-35.523C1224.574,1722.641,1218.969,1715.23,1212.972,1707.964z"
				/>
			<path style="fill:#8354F5;" d="M1175.313,1717.14c0.756,13.621,1.857,29.389,2.83,44.135c-0.787-0.878-1.572-1.767-2.36-2.636
				c-15.418-16.982-32.205-35.726-49.128-54.61c-1.655-15.501-3.37-32.416-5.053-46.836c0,0-0.289,0.025-0.289,0.025
				c0.753,13.579,1.85,29.291,2.82,43.998c-19.625-21.896-39.351-43.872-57.26-63.403c0,0-0.605,0.522-0.605,0.522
				c22.905,28.246,49.794,60.475,75.042,90.941c-14.572-3.797-30.254-7.958-43.765-11.332c0,0-0.079,0.279-0.079,0.279
				c14.294,4.507,31.17,9.541,46.453,14.202c8.941,10.794,17.65,21.342,25.873,31.38c4.064,4.894,8.206,9.75,12.389,14.58
				c-21.451-5.594-44.417-11.681-64.253-16.634c0,0-0.118,0.417-0.118,0.417c21.065,6.642,45.876,14.048,68.464,20.933
				c15.906,18.115,32.61,35.684,49.94,52.271l0.605-0.522c-6.214-8.958-12.758-17.631-19.418-26.204
				c-11.626-14.93-24.07-30.253-36.732-44.547c-1.66-15.541-3.381-32.518-5.069-46.984
				C1175.602,1717.115,1175.313,1717.14,1175.313,1717.14z"/>
		</g>
		<g style="clip-path:url(#SVGID_00000121255624665408877550000017222807713123984045_);">
			<g>
				<path style="fill-rule:evenodd;clip-rule:evenodd;fill:#FEA27B;" d="M1272.568,580.64c10.578,0,19.153,8.25,19.153,18.426
					c0,10.176-8.575,18.426-19.153,18.426s-19.153-8.25-19.153-18.426c0-9.705,8.569-4.32,18.466-5.035
					C1272.362,593.996,1272.079,580.64,1272.568,580.64z"/>
				<path style="fill-rule:evenodd;clip-rule:evenodd;fill:#8D95FF;" d="M1477.784,482.137
					c9.123,63.358,9.043,207.342,6.666,333.926c7.124-1.629,14.197-1.875,25.151,0.698l16.643-9.305h0
					c-1.973-4.67-4.088-9.289-6.36-13.831l11.845-5.405c-0.424-90.499,17.701-231.953,40.552-316.525l-0.034-0.025
					C1553.712,503.301,1493.414,507.517,1477.784,482.137z"/>
				<path style="fill-rule:evenodd;clip-rule:evenodd;fill:#FEC1A1;" d="M1210.644,729.213l5.027,77.421l-2.485,151.216
					c-12.079,12.4-4.047,24.385-15.154,40.197c-3.819,5.655,9.081,9.971,17.401-7.075c0.047,0.294-2.954,27.291,16.229,33.88
					c2.005,1.584,11.447-1.216,13.535-2.411c2.85,1.645,5.174,0.867,6.615,0.141c13.2,4.229-8.99-18.387-7.864-49.776l4.27-11.868
					l-0.071-0.044l9.102-79.384c-6.847-0.485-13.569-1.065-20.098-1.745c4.039-49.181,12.875-101.019,9.124-145.875
					c-0.201-2.377-0.389-4.73-0.564-7.065C1232.103,726.895,1220.262,728.155,1210.644,729.213z"/>
				<path style="fill-rule:evenodd;clip-rule:evenodd;fill:#FEA27B;" d="M1210.643,729.213l0.338,5.198
					c9.414-1.025,21.289-2.453,35.112-2.726c-0.133-1.631-0.26-3.25-0.381-4.86C1232.103,726.896,1220.262,728.155,1210.643,729.213
					z"/>
				<path style="fill-rule:evenodd;clip-rule:evenodd;fill:#FEA27B;" d="M1227.655,1023.009c1.215,0.718,2.545,1.34,4.008,1.842
					c0.474,0.375,1.365,0.504,2.476,0.467l12.967-144.606c-3.361-0.291-6.682-0.607-9.955-0.947
					c4.039-49.182,12.875-101.02,9.124-145.875c-0.202-2.376,1.086-4.76,0.911-7.094c-2.535,0.013-6.485,0.098-8.895,0.185
					c0.26,3.768,0.553,7.593,0.883,11.474c3.75,44.856-5.085,96.694-9.124,145.875c3.272,0.34,6.594,0.654,9.956,0.945
					L1227.655,1023.009z"/>
				<path style="fill-rule:evenodd;clip-rule:evenodd;fill:#7D88D0;" d="M1251.889,598.944
					c-21.642,6.779-36.386,22.473-41.105,49.824l-9.108,81.393c10.787-1.021,25.83-3.242,44.035-3.337
					C1241.621,672.387,1244.568,629.504,1251.889,598.944z"/>
				<path style="fill-rule:evenodd;clip-rule:evenodd;fill:#6460B2;" d="M1251.889,598.944c-0.689,0.216-1.37,0.441-2.045,0.675
					c0.005,0.123,0.004,0.244,0.016,0.368c-0.091-0.097-0.188-0.182-0.283-0.271c-4.667,1.639-8.991,3.719-12.941,6.267
					c-0.001,0.771,0.112,1.573,0.376,2.399c0.012,0.039,0.028,0.085,0.04,0.125c-0.546-0.681-1.148-1.212-1.784-1.619
					c-4.105,2.824-7.776,6.188-10.984,10.114c0.064,0.142,0.121,0.283,0.194,0.425c2.32,4.639,8.36,13.717,13.078,18.156
					c4.404,4.536,8.075,1.693,8.709-3.275c0.008-0.069,0.015-0.139,0.022-0.208c0.178-1.626,0.037-3.465-0.506-5.343
					c0.325,0.48,0.648,0.939,0.969,1.364C1248.067,617.405,1249.799,607.67,1251.889,598.944z"/>
				<path style="fill-rule:evenodd;clip-rule:evenodd;fill:#6460B2;" d="M1238.292,726.979c2.41-0.087,5.563-0.2,8.099-0.213
					c1.168-59.396,6.879-101.345,14.196-131.903c-2.272,0.639-5.875,7.013-8.22,8.169
					C1245.236,632.765,1239.842,654.259,1238.292,726.979z"/>
				<path style="fill-rule:evenodd;clip-rule:evenodd;fill:#FEC1A1;" d="M1569.123,393.649l3.748,76.935
					c-18.505,33.963-84.421,37.558-96.808,8.238l1.869-29.678c3.436,1.57,7.349,2.873,11.8,3.859
					c32.057,8.361,50.815,2.56,61.378-9.843c12.663-11.76,13.565-31.077,12.17-50.206c1.69,0.457,3.467,0.702,5.304,0.702
					C1568.765,393.656,1568.945,393.653,1569.123,393.649z"/>
				<path style="fill-rule:evenodd;clip-rule:evenodd;fill:#7C85FF;" d="M1623.923,1019.74l8.148,144.834l-112.286,0.652
					l-16.122-240.95l-24.55,243.8l-103.841,0.711l14.416-144.137l88.653,0.672c1.112-26.842,2.953-77.801,4.529-138.739
					c15.399-4.67,31.347-12.809,43.522-24.218l8.489-4.032l7.246,162.84L1623.923,1019.74z"/>
				<path style="fill-rule:evenodd;clip-rule:evenodd;fill:#6A77C7;" d="M1376.647,1155.045l28.912-289.082l12.436-42.536
					c11.006-0.177,22.042-0.393,33.139-0.692c5-0.134,9.991-0.281,14.972-0.439c0.195,8.653-0.963,15.061-2.901,22.035
					l-27.499,112.894l5.346,199.159L1376.647,1155.045z"/>
				<polygon style="fill-rule:evenodd;clip-rule:evenodd;fill:#6A77C7;" points="1623.813,1019.742 1624.306,1027.952 
					1536.041,1028.781 1528.589,861.323 1534.633,858.451 1534.938,859.627 1542.127,1021.173 				"/>
				<g>
					<path style="fill-rule:evenodd;clip-rule:evenodd;fill:#D6D6D6;" d="M1416.022,879.951l2.833-11.77
						c0.243,0.11,0.491,0.216,0.745,0.316c0.413,3.429,2.429,6.861,5.571,7.705c1.165,4.293,4.137,5.76,6.21,6.436
						c8.63,16.629,64.031,8.759,95.011-20.271l8.488-4.032l0.457,10.261l-11.974,5.453c-31.995,23.453-86.379,36.901-95.012,20.272
						c-2.072-0.675-5.044-2.143-6.21-6.435c-3.141-0.845-5.157-4.276-5.57-7.706
						C1416.385,880.105,1416.202,880.029,1416.022,879.951L1416.022,879.951z M1541.792,855.05l-0.011-0.046L1541.792,855.05
						L1541.792,855.05z M1541.778,854.995l-0.009-0.037L1541.778,854.995L1541.778,854.995z M1541.769,854.958l-0.012-0.046
						l-0.011-0.046l-0.012-0.046l-0.011-0.046l-0.012-0.046l-0.011-0.047L1541.769,854.958L1541.769,854.958z M1535.666,833.223
						l-0.11-0.348h0L1535.666,833.223L1535.666,833.223z M1452.6,847.76c-11.265-2.501-11.714-8.197-4.017-10.621
						c2.032-0.451,3.946-0.911,5.757-1.373c2.612,0.688,5.895,1.192,9.896,1.409C1461.343,841.207,1457.156,844.838,1452.6,847.76z"
						/>
					<path style="fill-rule:evenodd;clip-rule:evenodd;fill:#6A77C7;" d="M1416.022,879.951l2.833-11.77
						c0.243,0.11,0.491,0.216,0.745,0.316c0.413,3.429,2.429,6.861,5.571,7.705c1.165,4.293,4.137,5.76,6.21,6.436
						c8.63,16.629,64.031,8.759,95.011-20.271l8.488-4.032l0.457,10.261l-11.974,5.453c-31.995,23.453-86.379,36.901-95.012,20.272
						c-2.072-0.675-5.044-2.143-6.21-6.435c-3.141-0.845-5.157-4.276-5.57-7.706
						C1416.385,880.105,1416.202,880.029,1416.022,879.951L1416.022,879.951z M1541.792,855.05l-0.011-0.046 M1541.778,854.995
						l-0.009-0.037L1541.778,854.995L1541.778,854.995z M1541.769,854.958l-0.012-0.046l-0.011-0.046l-0.012-0.046l-0.011-0.046
						l-0.012-0.046l-0.011-0.047 M1535.666,833.223l-0.11-0.348h0L1535.666,833.223L1535.666,833.223z M1452.6,847.76
						c-11.265-2.501-11.714-8.197-4.017-10.621c2.032-0.451,3.946-0.911,5.757-1.373c2.612,0.688,5.895,1.192,9.896,1.409
						C1461.343,841.207,1457.156,844.838,1452.6,847.76z"/>
				</g>
				<path style="fill-rule:evenodd;clip-rule:evenodd;fill:#FFFFFF;" d="M1398.87,502.598c-18.502,9.868-25.968,20.04-34.285,46.847
					l-41.006,160.561h68.789l-28.254,314.452l114.228,0.865c3.75-90.591,15.817-455.862-2.068-552.51
					C1457.493,480.588,1416.018,493.813,1398.87,502.598z"/>
				<path style="fill-rule:evenodd;clip-rule:evenodd;fill:#D6D6D6;" d="M1414.936,1024.843l22.589,0.171l-1.82-67.788
					l27.499-112.895c2.394-8.614,3.599-16.364,2.531-28.549l-7.742-99.353c-2.281,0.214-4.553,0.447-6.816,0.701l7.965,102.203
					c1.068,12.185-0.137,19.934-2.531,28.548l-31.694,130.116C1426.1,995.516,1421.626,1012.62,1414.936,1024.843z"/>
				
					<path style="fill-rule:evenodd;clip-rule:evenodd;fill:#FFFFFF;stroke:#000000;stroke-width:0.5669;stroke-miterlimit:22.9256;" d="
					M1377.04,880.6l-12.926,143.858l15.629,0.118c1.02-2.31,1.87-4.775,2.362-7.383c0.781-4.814,0.764-10.038-0.511-14.389
					c-10.096,10.783-15.256,8.105-12.172,2.017c9.046-17.075,7.457-30.36,22.791-37.758l1.476-12.566l7.93-76.793
					C1394.005,878.835,1385.755,879.802,1377.04,880.6z"/>
				<path style="fill-rule:evenodd;clip-rule:evenodd;fill:#D6D6D6;" d="M1364.585,549.892l-2.715,10.186l0.811,26.976l12.439,4.426
					l-0.008,0.048c13.471,4.812,27.279,9.724,30.657,10.841c24.393,8.715,43.937,22.557,47.543,48.446l7.444,62.442
					c2.304-0.239,4.615-0.459,6.938-0.657l-7.789-65.334c-3.605-25.889-23.15-39.732-47.543-48.447
					c-15.242-5.04-30.36-10.78-45.385-16.463L1364.585,549.892z"/>
				<path style="fill-rule:evenodd;clip-rule:evenodd;fill:#D6D6D6;" d="M1482.315,894.699c0.086-3.568,0.171-4.385,0.255-8.026
					c-23.669,7.112-45.972,6.014-51.188-4.037c-2.073-0.675-5.045-2.143-6.21-6.436c-3.142-0.844-5.158-4.276-5.571-7.705
					c-0.505-0.2-0.989-0.42-1.452-0.656c-3.261,0.456-5.88,1.029-7.471,2.14c-3.305,2.512-0.169,7.803,5.894,10.199
					c0.413,3.429,2.429,6.861,5.57,7.706c1.166,4.292,5.786,3.605,7.858,4.28C1435.421,902.607,1456.369,900.851,1482.315,894.699
					L1482.315,894.699z M1454.34,835.766c-1.811,0.463-3.725,0.922-5.757,1.374c-7.697,2.424-7.248,8.12,4.017,10.621
					c4.555-2.922,8.743-6.553,11.635-10.585C1460.235,836.958,1456.952,836.454,1454.34,835.766z"/>
				<path style="fill-rule:evenodd;clip-rule:evenodd;fill:#7D88D0;" d="M1247.106,880.71l-24.958,278.321l86.535-0.865
					l26.468-193.901l14.204,193.901l85.103,1.769l-8.648-322.177l-11.847,0.136l-1.125,37.937
					C1371.319,883.626,1303.576,885.606,1247.106,880.71z"/>
				<path style="fill-rule:evenodd;clip-rule:evenodd;fill:#6460B2;" d="M1247.106,880.71l-0.579,6.453
					c51.266,4.581,112.186,3.44,154.383-2.614l0.707-6.845C1359.798,883.914,1298.741,885.186,1247.106,880.71z"/>
				<polygon style="fill-rule:evenodd;clip-rule:evenodd;fill:#6460B2;" points="1329.726,1003.806 1335.15,964.28 
					1330.361,911.975 				"/>
				<path style="fill-rule:evenodd;clip-rule:evenodd;fill:#FFFFFF;" d="M1534.881,858.333l7.246,162.84l127.763-2.238
					l-13.863-190.224l-109.748,46.258c-1.514-7.457-3.241-15.122-5.237-22.879c0.254,0.988,0.505,1.976,0.75,2.96L1534.881,858.333z
					"/>
				<path style="fill-rule:evenodd;clip-rule:evenodd;fill:#D6D6D6;" d="M1534.881,858.334l0.457,10.26l3.493-1.59
					c1.653,6.654,3.115,13.228,4.42,19.648l113.439-47.654l-0.442-10.379l-109.968,46.35c-1.755-8.643-3.796-17.569-6.21-26.591
					c0.596,2.231,1.17,4.456,1.723,6.673L1534.881,858.334z"/>
				<path style="fill-rule:evenodd;clip-rule:evenodd;fill:#FFFFFF;" d="M1573.091,466.985
					c-23.44,83.964-41.794,229.082-41.362,321.234l-11.845,5.405c13.126,26.25,21.057,55.095,26.394,81.345l157.063-66.474
					c38.167-16.197,38.001-45.783,23.797-90.588l-48.218-172.64c-9.365-32.902-19.585-38.864-37.758-47.918
					C1618.005,486.327,1596.452,477.569,1573.091,466.985z"/>
				<path style="fill-rule:evenodd;clip-rule:evenodd;fill:#FFFFFF;" d="M1573.091,466.985
					c-23.44,83.964-41.794,229.082-41.362,321.234l-11.845,5.405c13.126,26.25,21.057,55.095,26.394,81.345l157.063-66.474
					c38.167-16.197,38.001-45.783,23.797-90.588l-48.218-172.64c-9.365-32.902-19.585-38.864-37.758-47.918
					C1618.005,486.327,1596.452,477.569,1573.091,466.985z"/>
				<path style="fill-rule:evenodd;clip-rule:evenodd;fill:#FEA27B;" d="M1467.302,375.33c0.481-3.027,2.174-18.618,4.26-31.271
					C1459.694,353.733,1462.748,371.594,1467.302,375.33z"/>
				<path style="fill-rule:evenodd;clip-rule:evenodd;fill:#FEC1A1;" d="M1466.697,377.597c0.429,0.034,0.882,0.059,1.354,0.081
					c10.01-2.72,29.899-8.713,57.443,0.756c15.869,6.714,22.49-6.786,19.637-19.596c-9.972,2.352-16.878,1.733-10.655-18.489
					c8.603-20.727-32.519,1.942-60.245-14.59C1471.324,341.704,1468.568,361.194,1466.697,377.597z"/>
				<path style="fill-rule:evenodd;clip-rule:evenodd;fill:#FEA27B;" d="M1477.425,458.57l0.48-10.753
					c3.99,2.29,8.805,3.998,14.588,4.97c68.349,9.928,73.31-25.268,70.788-59.834c1.69,0.458,3.467,0.703,5.304,0.703
					c0.18,0,0.36-0.003,0.539-0.007l0.224,4.594c-1.208,0.042-1.805,0.042-3.006-0.126
					C1572.48,456.922,1533.239,475.747,1477.425,458.57z"/>
				<path style="fill-rule:evenodd;clip-rule:evenodd;fill:#FEC1A1;" d="M1568.585,353.544c-6.268,0-11.867,2.848-15.564,7.313
					c7.792,12.244,9.462,19.556,10.253,32.095c1.692,0.458,3.473,0.704,5.312,0.704c11.132,0,20.155-8.979,20.155-20.056
					C1588.74,362.524,1579.716,353.544,1568.585,353.544z"/>
				<g>
					<path style="fill:#744144;" d="M1502.352,338.19c-1.357,7.387-2.954,15.583-4.419,22.994c-0.482,2.557-0.933,5.121-1.602,7.635
						l-1.004-1.301c3.654,0.241,7.314,0.59,10.914,1.298c0,0-0.007,0.211-0.007,0.211c-0.917,0.139-1.832,0.201-2.748,0.303
						c-3.149,0.262-6.324,0.327-9.48,0.318c0,0,0.25-1.303,0.25-1.303c0.889-4.426,2.757-10.676,3.854-15.122
						c1.289-5.04,2.682-10.055,4.037-15.08L1502.352,338.19L1502.352,338.19z"/>
					<path style="fill-rule:evenodd;clip-rule:evenodd;fill:#744144;" d="M1517.206,347.404c-3.942-0.22-7.402,4.528-7.728,10.604
						c-0.326,6.076,2.606,11.18,6.548,11.399c3.943,0.22,7.402-4.528,7.728-10.604
						C1524.08,352.729,1521.148,347.624,1517.206,347.404z"/>
					<path style="fill-rule:evenodd;clip-rule:evenodd;fill:#744144;" d="M1485.808,346.837c-3.631-0.196-6.835,4.354-7.157,10.162
						c-0.322,5.808,2.36,10.675,5.991,10.87c3.63,0.196,6.835-4.354,7.157-10.162
						C1492.12,351.899,1489.439,347.032,1485.808,346.837z"/>
					<path style="fill:#744144;" d="M1524.835,341.08c-4.686-4.237-7.172-4.531-12.772-1.641
						C1515.347,333.409,1523.184,334.423,1524.835,341.08L1524.835,341.08z"/>
					<path style="fill:#744144;" d="M1492.558,338.595c-5.316-3.44-7.811-3.263-12.864,0.481
						C1481.955,332.608,1489.85,332.276,1492.558,338.595L1492.558,338.595z"/>
					<path style="fill:#744144;" d="M1581.735,368.642c-6.367,1.969-12.166,4.706-17.266,9.05
						C1567.285,371.305,1574.94,367.602,1581.735,368.642L1581.735,368.642z"/>
				</g>
				<path style="fill-rule:evenodd;clip-rule:evenodd;fill:#B6695B;" d="M1588.671,371.943
					c30.053-39.285,9.668-66.978-14.741-67.693c-95.917-114.609-164.078,9.259-101.19,30.003c0.551-3.937,0.625-3.817,1.304-8.603
					c27.728,16.745,69.054-6.074,60.432,14.699c-6.222,20.221,0.683,20.84,10.655,18.488c2.853,12.81-3.768,26.31-19.638,19.596
					c-28.626-9.843-48.986-2.979-58.579-0.451c-8.732,28.606-13.33,68.266,25.578,74.804c68.534,9.955,73.338-25.459,70.768-60.114
					c0.009-12.316-3.243-22.811-10.24-31.816c3.698-4.466,9.297-7.313,15.564-7.313
					C1579.155,353.544,1587.825,361.642,1588.671,371.943z"/>
				<path style="fill-rule:evenodd;clip-rule:evenodd;fill:#FFFFFF;" d="M1483.3,384.032c-0.13,10.431,7.201,19.03,16.443,19.244
					c9.242,0.213,16.913-8.039,17.204-18.466L1483.3,384.032z"/>
				<polygon style="fill-rule:evenodd;clip-rule:evenodd;fill:#D6D6D6;" points="1633.554,742.446 1671.705,725.988 
					1631.48,736.648 				"/>
				<path style="fill-rule:evenodd;clip-rule:evenodd;fill:#FEC1A1;" d="M1387.453,730.295l19.12,99.422l-12.885,124.78
					l-1.476,12.565c-15.333,7.399-13.745,20.684-22.79,37.758c-3.084,6.088,2.076,8.766,12.173-2.016
					c1.274,4.351,1.292,9.575,0.511,14.388c-2.133,11.297-10.973,19.937-11.229,24.685c-0.042,3.071,4.469,3.654,8.629,1.214
					c2.186,1.322,5.106,1.711,7.029,0.265c3.033,1.277,5.242,0.214,6.58-0.686c15.147,1.66,34.095-30.726,31.803-64.673
					l31.694-130.115c2.394-8.615,3.599-16.364,2.531-28.549l-7.967-102.227C1432.289,719.149,1412.238,722.706,1387.453,730.295z"/>
				<g>
					<path style="fill-rule:evenodd;clip-rule:evenodd;fill:#FEA27B;" d="M1458.599,839.151c-3.36,3.538-7.613,6.645-12.005,9.061
						c-13.805,7.136-30.365,4.917-35.634,8.597c-3.305,2.512-0.17,7.803,5.893,10.199c0.413,3.429,2.43,6.861,5.571,7.705
						c1.166,4.292,4.137,5.76,6.21,6.435c2.528,4.87,9.07,7.635,17.831,8.387l10.146-41.655
						C1457.428,844.942,1458.102,842.1,1458.599,839.151z"/>
				</g>
				<path style="fill-rule:evenodd;clip-rule:evenodd;fill:#FEA27B;" d="M1387.453,730.295l1.395,7.26
					c24.406-7.395,44.223-10.872,62.917-12.878l-0.59-7.571c-9.997,1.081-20.32,2.587-31.499,4.89l-0.202,0.041
					c-0.635,0.131-1.271,0.265-1.912,0.401l-1.002,0.215l-0.048,0.01l-0.958,0.209l-0.04,0.009l-0.753,0.167l-0.382,0.085
					c-5.357,1.198-10.92,2.582-16.741,4.192l-1.106,0.308c-0.692,0.193-1.389,0.391-2.088,0.591l-0.311,0.089
					c-0.692,0.199-1.388,0.401-2.088,0.606l-1.137,0.335C1389.766,729.592,1388.615,729.939,1387.453,730.295z"/>
				<path style="fill-rule:evenodd;clip-rule:evenodd;fill:#FEA27B;" d="M1458.329,839.411l0.157-0.627
					c1.242-4.471,2.164-8.709,2.615-13.455c-3.24,0.925-6.442-0.305-10.501,0.596
					C1440.587,830.846,1443.161,837.499,1458.329,839.411z"/>
				<path style="fill-rule:evenodd;clip-rule:evenodd;fill:#FEA27B;" d="M1443.859,899.313l2.109-8.677
					c-7.122-1.106-12.383-3.752-14.587-7.999c-2.073-0.675-5.045-2.143-6.21-6.436c-3.142-0.844-5.158-4.276-5.571-7.705
					c-0.497-0.196-5.728-3.962-7.261-6.128c-0.211,5.075,1.614,10.245,7.537,15.197c0.413,3.429,3.57,6.987,6.711,7.832
					c0.088,3.024,2.362,7.155,4.435,7.83C1432.311,896.402,1438.53,899.189,1443.859,899.313z"/>
				<path style="fill-rule:evenodd;clip-rule:evenodd;fill:#7D88D0;" d="M1405.769,602.368
					c24.393,8.714,43.937,22.558,47.543,48.447l7.788,65.335c-25.367,2.168-49.499,6.756-73.794,14.193l19.266,99.374l-4.955,47.989
					c-44.54,6.614-110.907,7.628-164.466,2.059c4.039-49.182,12.875-101.02,9.124-145.875
					c0.968-69.382,5.853-105.342,13.498-137.215l7.867-2.218c5.357,26.653,27.263,46.612,53.477,46.612
					c27.166,0,49.706-21.436,53.994-49.541C1388.583,596.34,1402.391,601.252,1405.769,602.368z"/>
				<g>
					<path style="fill-rule:evenodd;clip-rule:evenodd;fill:#6460B2;" d="M1251.901,598.893c-2.096,8.739-3.831,18.492-5.149,29.23
						c0.036,0.048,0.073,0.101,0.109,0.148c5.137,7.37,11.352-0.463,9.308-9.23c-0.086-0.332-0.168-0.651-0.247-0.962
						c0.635,1.315,1.285,2.527,1.933,3.561c4.172,7.401,10.656,1.217,10.286-7.06c0.106,0.295,0.212,0.59,0.322,0.865
						c1.838,5.325,5.805,4.844,8.582,1.492c-4.484-6.585-7.742-14.209-9.404-22.48l-3.058,0.862
						c0.002,0.034,0.003,0.065,0.005,0.098c-0.013-0.031-0.029-0.057-0.042-0.088L1251.901,598.893z"/>
					<path style="fill-rule:evenodd;clip-rule:evenodd;fill:#6460B2;" d="M1246.254,632.39c0.017-0.125,0.031-0.252,0.043-0.38
						C1246.283,632.138,1246.268,632.262,1246.254,632.39z"/>
				</g>
				<path style="fill-rule:evenodd;clip-rule:evenodd;fill:#FEC1A1;" d="M1541.792,855.05l-15.399,7.315
					c-30.98,29.031-86.38,36.901-95.012,20.272c-2.073-0.675-5.044-2.143-6.21-6.435c-3.141-0.844-5.158-4.276-5.571-7.705
					c-6.063-2.396-9.198-7.687-5.893-10.199c5.27-3.681,21.83-1.462,35.634-8.597c5.776-3.177,11.324-7.545,14.895-12.525
					c-19.321-1.045-21.946-8.782-12.624-11.717c28.554-6.34,33.84-14.368,57.989-8.697l16.643-9.305
					C1532.85,823.086,1537.864,839.288,1541.792,855.05z"/>
				<path style="fill-rule:evenodd;clip-rule:evenodd;fill:#FEA27B;" d="M1541.792,855.05l-6.388,3.035
					c-3.806-15.626-8.663-31.733-15.067-47.327l5.907-3.302C1532.85,823.086,1537.864,839.288,1541.792,855.05z"/>
				<g>
					<path style="fill:#FEA27B;" d="M1431.325,882.539c4.57,1.224,9.269,2.03,13.958,1.885c4.722-0.206,9.295-1.215,13.974-1.924
						c0,0,0.028,0.102,0.028,0.102C1450.528,886.366,1439.924,885.965,1431.325,882.539L1431.325,882.539z"/>
					<path style="fill:#FEA27B;" d="M1425.244,876.192c4.518,1.336,9.211,2.061,13.88,1.897c4.7-0.233,9.267-1.126,13.928-1.83
						c0,0,0.028,0.102,0.028,0.102C1444.37,879.967,1433.734,879.736,1425.244,876.192L1425.244,876.192z"/>
					<path style="fill:#FEA27B;" d="M1419.664,868.448c9.001,2.453,18.346,0.948,27.351-0.711c0,0,0.032,0.101,0.032,0.101
						c-4.264,1.937-8.994,2.68-13.652,2.668C1428.844,870.487,1423.699,870.174,1419.664,868.448L1419.664,868.448z"/>
				</g>
				<path style="fill-rule:evenodd;clip-rule:evenodd;fill:#FEC1A1;" d="M1285.077,589.54l-17.436,4.915
					c5.357,26.653,27.263,46.613,53.477,46.613c27.182,0,49.732-21.461,54.002-49.589l-12.439-4.426l-1.495-49.727l-0.026,0.002
					l-0.003,0.001l-0.208,0.015l-0.027,0.003l-0.026,0.002l-0.026,0.001l-0.026,0.003l-0.027,0.001l-0.026,0.002l-0.026,0.001
					l-0.027,0.002l-0.026,0.001l-0.028,0.002l-0.025,0.001l-0.028,0.002l-0.027,0.002l-0.131,0.007h-0.002l-0.027,0.001
					l-0.026,0.001l-0.026,0.001l-0.026,0.001l-0.027,0.001l-0.027,0.002l-0.026,0.001l-0.026,0.001l-0.054,0.001l-0.026,0.001
					l-0.027,0.001l-0.028,0.001l-0.025,0.001l-0.026,0.001l-0.027,0.001l-0.028,0.001h-0.001h-0.025l-0.026,0.001l-0.026,0.001
					h-0.027l-0.377,0.005h-0.027h-0.027h-0.042h-0.043l-0.042-0.001h-0.042h-0.001l-0.042-0.001l-0.043,0l-0.042-0.001l-0.042-0.001
					h0l-0.042-0.001h0l-0.042-0.001h-0.001l-0.042-0.001h-0.001l-0.042-0.001h-0.001l-0.042-0.001h0l-0.042-0.001l-0.001-0.001
					l-0.042-0.001h0l-0.042-0.001l-0.042-0.002l-0.042-0.001h-0.001l-0.042-0.002l-0.042-0.002l-0.042-0.002h0l-0.042-0.002
					l-0.042-0.002h-0.001l-0.042-0.002l-0.042-0.002l-0.001-0.001l-0.041-0.002h-0.001l-0.042-0.003l-0.042-0.002v-0.001
					l-0.042-0.001l0-0.001l-0.042-0.003l0,0l-0.042-0.003v0l-0.042-0.002l-0.042-0.003v-0.001l-0.042-0.003l0,0l-0.042-0.003v-0.001
					l-0.041-0.003h-0.001l-0.041-0.003l-0.001-0.001l-0.042-0.003l-0.042-0.003v-0.001l-0.042-0.003v-0.001l-0.041-0.003l0-0.001
					l-0.042-0.004l-0.041-0.003l0-0.001l-0.041-0.003l-0.042-0.004h0l-0.041-0.004v-0.001l-0.041-0.004l-0.042-0.004v-0.001
					l-0.041-0.003v-0.001l-0.041-0.004v-0.001l-0.042-0.003v-0.001l-0.041-0.004v-0.001l-0.042-0.004l0-0.001l-0.041-0.003l0-0.001
					l-0.041-0.004v-0.001l-0.042-0.005l-0.041-0.004v-0.001l-0.041-0.005l0,0l-0.041-0.005v0l-0.042-0.004v-0.001l-0.041-0.004v0
					l-0.041-0.005v-0.001l-0.041-0.005v-0.001l-0.041-0.005c-0.157,0.247-0.319,0.497-0.484,0.746
					c-7.125,10.852-19.694,21.143-33.533,27.117c-2.965,1.307-6.018,2.431-9.129,3.32c-1.998,0.51-3.92,0.911-5.776,1.219
					c-2.876,0.499-5.744,0.769-8.569,0.776c-0.298,0.002-0.592-0.001-0.885-0.005l-0.166-0.003
					c-3.917-0.066-7.434-0.636-10.578-1.619h0L1285.077,589.54z"/>
				<path style="fill-rule:evenodd;clip-rule:evenodd;fill:#FEA27B;" d="M1277.045,616.935c1.597-1.928,2.802-4.803,2.977-8.077
					c0.169-5.911,0.537-8.4,0.097-16.632c-0.024-0.441-0.084-0.85-0.159-1.244l-12.32,3.473
					C1269.303,602.726,1272.562,610.35,1277.045,616.935z"/>
				<path style="fill-rule:evenodd;clip-rule:evenodd;fill:#FEA27B;" d="M1287.671,568.776l-0.77,6.163
					c6.966,2.43,15.838,2.794,26.96-0.041c18.915-5.405,35.723-19.44,43.145-31.184c0.879,0.114,1.774,0.174,2.686,0.174
					c0.569,0,1.132-0.024,1.689-0.069l-0.196-6.493c-0.564,0.047-1.133,0.071-1.709,0.071c-0.91,0-1.806-0.059-2.686-0.173
					c-7.422,11.745-24.231,25.778-43.146,31.183C1303.041,571.111,1294.483,570.906,1287.671,568.776z"/>
				<path style="fill-rule:evenodd;clip-rule:evenodd;fill:#FEC1A1;" d="M1264.849,530.329
					c-1.064,19.91,10.641,47.806,48.795,38.078c18.915-5.405,35.723-19.439,43.145-31.183c0.88,0.115,1.776,0.173,2.686,0.173
					c11.459,0,20.749-9.34,20.749-20.863c0-2.298-0.369-4.506-1.051-6.571l0.003,0.01
					c33.523-100.754-101.185-110.848-109.694-33.512C1267.433,490.125,1265.476,520.353,1264.849,530.329z"/>
				<path style="fill-rule:evenodd;clip-rule:evenodd;fill:#FEA27B;" d="M1354.88,540.027c0.789-0.975,1.487-1.94,2.082-2.881
					c-4.935-0.641-7.575-2.77-12.13-7.456C1346.111,535.087,1351.287,539.535,1354.88,540.027z"/>
				<path style="fill-rule:evenodd;clip-rule:evenodd;fill:#FEAA87;" d="M1379.173,509.963l0.003,0.01
					c34.778-95.885-88.385-110.581-107.041-46.077c42.636,24.634,76.05-19.764,66.895,21.488
					c-3.581,21.979,1.619,25.06,11.303,21.141C1356.931,497.919,1374.122,496.173,1379.173,509.963z"/>
				<g>
					<path style="fill-rule:evenodd;clip-rule:evenodd;fill:#744144;" d="M1314.377,513.827c3.959,0.075,7.271-4.284,7.373-9.703
						c0.102-5.419-3.043-9.9-7.002-9.975c-3.96-0.075-7.272,4.284-7.374,9.704C1307.272,509.272,1310.417,513.753,1314.377,513.827z
						"/>
					<path style="fill:#744144;" d="M1297.954,500.329c-1.277,6.156-4.574,11.986-9.678,15.765c0,0,0.223-0.618,0.223-0.618
						c0.928,4.189,5.321,6.494,9.35,6.786c1.414,0.145,2.855,0.038,4.269-0.294c-4.094,1.677-9.308,0.938-12.55-2.199
						c-1.205-1.172-2-2.751-2.34-4.4C1292.344,511.68,1295.754,506.172,1297.954,500.329L1297.954,500.329z"/>
					<path style="fill-rule:evenodd;clip-rule:evenodd;fill:#744144;" d="M1285.013,511.585c3.759,0.071,6.906-4.195,7.006-9.497
						c0.1-5.302-2.884-9.684-6.643-9.755c-3.759-0.071-6.907,4.195-7.007,9.497C1278.27,507.132,1281.254,511.514,1285.013,511.585z
						"/>
					<path style="fill:#744144;" d="M1287.355,529.818c7.223,5.744,18.507,5.04,26.092,0.051
						C1308.091,538.174,1292.306,538.831,1287.355,529.818L1287.355,529.818z"/>
					<path style="fill:#744144;" d="M1322.958,487.776c-5.057-4.841-8.017-5.193-14.237-2.068
						C1312.61,479.284,1321.088,480.484,1322.958,487.776L1322.958,487.776z"/>
					<path style="fill:#744144;" d="M1292.036,484.426c-6.289-3.075-9.216-2.511-14.191,2.356
						C1279.596,479.48,1288.038,478.046,1292.036,484.426L1292.036,484.426z"/>
					<path style="fill:#744144;" d="M1369.469,512.005c-6.276,2.073-11.375,5.818-15.871,10.6
						C1355.554,516.055,1362.596,511.06,1369.469,512.005L1369.469,512.005z"/>
				</g>
				<path style="fill-rule:evenodd;clip-rule:evenodd;fill:#D6D6D6;" d="M1420.156,608.237l7.614-45.786l-12.811,43.34
					C1416.715,606.551,1418.451,607.365,1420.156,608.237z"/>
				<polygon style="fill-rule:evenodd;clip-rule:evenodd;fill:#D6D6D6;" points="1637.446,740.789 1614.203,654.142 
					1626.736,745.457 				"/>
				<g>
					<path style="fill:#FEA27B;" d="M1393.024,1042.646c2.773-2.138,5.356-4.529,7.38-7.331c1.989-2.873,3.468-5.975,5.322-8.959
						c0,0,0.097,0.04,0.097,0.04C1404.279,1033.289,1398.935,1039.352,1393.024,1042.646L1393.024,1042.646z"/>
					<path style="fill:#FEA27B;" d="M1386.554,1043.298c6.516-4.426,9.713-11.592,12.328-18.734c0,0,0.103,0.024,0.103,0.024
						C1398.352,1032.251,1393.065,1039.726,1386.554,1043.298L1386.554,1043.298z"/>
					<path style="fill:#FEA27B;" d="M1379.498,1043.02c6.017-4.832,9.277-12.077,12.042-19.102c0,0,0.103,0.022,0.103,0.022
						c-0.255,3.912-1.976,7.582-4.165,10.773C1385.34,1037.795,1382.686,1041.314,1379.498,1043.02L1379.498,1043.02z"/>
				</g>
				<path style="fill-rule:evenodd;clip-rule:evenodd;fill:#6460B2;" d="M1374.962,1008.546c4.942,19.184-8.127,24.78-9.817,36.264
					c-0.241,4.162,3.378,5.769,7.538,3.328c2.186,1.322,5.106,1.712,7.029,0.265c3.033,1.277,5.242,0.214,6.581-0.686
					c3.794,0.71,8.133-1.563,12.359-5.881c-1.918,0.85-3.787,1.161-5.538,0.834c-1.338,0.9-3.547,1.963-6.58,0.687
					c-2.05,1.383-5.666,0.993-7.029-0.265c-4.16,2.441-8.672,1.858-8.629-1.213c0.256-4.749,9.096-13.389,11.229-24.685
					c0.781-4.814,0.764-10.038-0.511-14.389C1379.053,1005.517,1376.825,1007.378,1374.962,1008.546z"/>
				<path style="fill-rule:evenodd;clip-rule:evenodd;fill:#6460B2;" d="M1384.431,972.595
					c-12.089,6.852-12.98,20.565-21.832,37.274c-2.056,3.91,1.938,7.978,10.527-0.336c-4.187,1.832-5.739-0.698-3.706-4.712
					C1376.533,991.397,1377.073,980.315,1384.431,972.595z"/>
				<path style="fill-rule:evenodd;clip-rule:evenodd;fill:#6460B2;" d="M1385.451,971.587c1.818-1.688,4.017-3.2,6.76-4.524
					l1.476-12.566l12.932-124.796l-19.228-99.384c-2.255,0.692-4.865,1.513-7.202,2.275l-7.727-62.035l2.686,71.485
					c2.384-0.76,5.306-1.776,7.577-2.539L1399,833.611L1385.451,971.587z"/>
				<path style="fill-rule:evenodd;clip-rule:evenodd;fill:#D6D6D6;" d="M1531.67,788.297l97.698-44.016l-0.638-6.884
					C1628.73,737.398,1535.416,785.427,1531.67,788.297z"/>
				<path style="fill-rule:evenodd;clip-rule:evenodd;fill:#7368E7;" d="M1572.27,469.954
					c-27.129,89.077-48.664,226.459-45.443,320.502l4.904-2.238c-0.427-91.065,17.511-233.837,40.566-318.217
					C1572.203,469.907,1572.396,470.043,1572.27,469.954z"/>
				<rect x="1559.019" y="895.019" style="fill-rule:evenodd;clip-rule:evenodd;fill:#D6D6D6;" width="73.532" height="13.384"/>
				<path style="fill-rule:evenodd;clip-rule:evenodd;fill:#FEC1A1;" d="M1239.191,604.917c3.786,7.323,4.5,9.732,6.802,15.178
					c3.299,8.349-1.244,17.015-7.203,10.511c-4.452-4.439-10.152-13.517-12.342-18.156
					C1222.353,604.04,1234.401,595.687,1239.191,604.917z"/>
				<path style="fill-rule:evenodd;clip-rule:evenodd;fill:#FEA27B;" d="M1239.191,604.917c3.786,7.323,4.5,9.732,6.802,15.178
					c0.821,2.078,1.157,4.175,1.105,6.054c-0.588-0.471-1.177-1.128-1.752-2.001c-3.689-5.091-7.871-14.96-9.294-19.888
					c-0.302-0.997-0.403-1.962-0.345-2.875C1237.03,601.973,1238.251,603.105,1239.191,604.917z"/>
				<path style="fill-rule:evenodd;clip-rule:evenodd;fill:#FEC1A1;" d="M1252.054,597.996c2.573,7.831,2.894,10.323,4.299,16.067
					c1.928,8.767-3.936,16.6-8.784,9.23c-3.689-5.091-7.871-14.961-9.294-19.889C1235.571,594.449,1248.795,588.12,1252.054,597.996
					z"/>
				<path style="fill-rule:evenodd;clip-rule:evenodd;fill:#FEA27B;" d="M1252.054,597.996c2.572,7.831,2.893,10.323,4.298,16.067
					c0.302,1.375,0.413,2.727,0.366,4.001c-0.404-0.467-0.797-1.044-1.17-1.745c-3.201-5.411-6.449-15.626-7.408-20.665
					c-0.162-0.798-0.204-1.565-0.147-2.294C1249.714,593.986,1251.215,595.452,1252.054,597.996z"/>
				<path style="fill-rule:evenodd;clip-rule:evenodd;fill:#FEC1A1;" d="M1264.757,591.89c1.834,8.037,1.923,10.548,2.79,16.397
					c1.106,8.908-5.46,16.163-9.603,8.375c-3.201-5.411-6.449-15.626-7.408-20.665
					C1248.674,586.829,1262.429,581.755,1264.757,591.89z"/>
				<path style="fill-rule:evenodd;clip-rule:evenodd;fill:#FEA27B;" d="M1264.757,591.89c1.834,8.037,1.922,10.547,2.789,16.397
					c0.259,2.085,0.098,4.08-0.355,5.812c-0.707-0.649-1.329-1.668-1.802-3.119c-2.215-5.884-3.645-16.507-3.717-21.636
					c-0.019-0.722,0.05-1.403,0.193-2.042C1263.188,588.179,1264.247,589.669,1264.757,591.89z"/>
				<path style="fill-rule:evenodd;clip-rule:evenodd;fill:#FEC1A1;" d="M1278.955,587.248c0.415,8.232,0.068,10.721-0.092,16.632
					c-0.453,8.966-8.177,14.973-10.908,6.585c-2.214-5.884-3.645-16.507-3.717-21.636
					C1263.992,579.479,1278.417,576.863,1278.955,587.248z"/>
				<path style="fill-rule:evenodd;clip-rule:evenodd;fill:#D6D6D6;" d="M1576.742,542.349c0,12.877,10.503,23.38,23.38,23.38
					c12.877,0,23.379-10.503,23.379-23.38c0-12.32-9.615-22.46-21.723-23.315c-1.195-15.009-3.945-27.031-9.056-36.126
					c-2.519-4.483-5.595-8.243-9.3-11.304c-3.414-1.51-6.849-3.04-10.332-4.618c-0.354,1.268-0.707,2.551-1.058,3.847
					c7.078,3.067,12.312,7.937,16.088,14.656c4.7,8.363,7.256,19.612,8.394,33.761
					C1585.34,520.992,1576.742,530.697,1576.742,542.349z"/>
				<path style="fill-rule:evenodd;clip-rule:evenodd;fill:#D6D6D6;" d="M1407.787,590.055c0.055,0.877,0.263,1.716,0.604,2.475
					c0.703,1.562,1.971,2.788,3.635,3.305c1.661,0.515,3.398,0.222,4.862-0.666c1.445-0.878,2.625-2.341,3.195-4.177l0.033-0.108
					l0-0.002c0.531-1.801,0.38-3.63-0.299-5.14c-0.703-1.562-1.971-2.787-3.634-3.305c-1.661-0.514-3.399-0.222-4.863,0.667
					c-0.639,0.388-1.227,0.891-1.733,1.491l-2.534-1.569l1.985-34.601c3.213-5.286,8.211-9.288,13.876-11.762
					c5.205-2.274,10.961-3.253,16.408-2.753c5.363,0.492,10.41,2.425,14.293,5.977c3.174,2.904,5.594,6.918,6.798,12.143
					c-0.141,0.735-0.297,1.482-0.469,2.242l-0.001,0l-7.441,29.354l-3.831,1.324c-0.282-0.381-0.598-0.729-0.941-1.038
					c-1.273-1.144-2.927-1.753-4.655-1.554l0-0.002l0,0l-0.001,0l0,0.002c-1.728,0.2-3.199,1.169-4.179,2.574
					c-0.966,1.385-1.454,3.199-1.233,5.109l-0.002,0v0l0,0l0.002,0c0.22,1.91,1.108,3.565,2.365,4.695
					c1.272,1.144,2.927,1.753,4.655,1.553l0,0.002l0,0l0,0l0-0.002c1.728-0.199,3.199-1.169,4.179-2.573
					c0.662-0.948,1.099-2.099,1.238-3.343l5.666-1.957l1.435-0.496l0.37-1.458l7.81-30.812l0.014-0.068
					c4.232-18.597-0.262-30.894-8.43-37.616c-4.052-3.334-8.991-5.25-14.213-5.869c1.61-9.792,5.115-17.842,10.103-24.128
					c3.841-4.839,8.568-8.644,13.947-11.457c-4.867,1.827-10.357,3.811-16.115,5.879c-0.671,0.745-1.33,1.503-1.96,2.297
					c-5.646,7.115-9.573,16.199-11.283,27.231c-3.736,0.174-7.515,0.959-11.123,2.35c-11.873,4.575-21.966,15.528-22.75,31.582
					l-0.005,0l-2.21,38.512l-0.096,1.656l1.428,0.883L1407.787,590.055z M1428.318,519.491c4.384-1.69,9.047-2.349,13.454-1.885
					c4.301,0.452,8.353,1.985,11.632,4.684c5.088,4.188,8.369,11.276,7.973,21.631c-1.414-2.654-3.191-4.909-5.239-6.783
					c-4.522-4.136-10.338-6.382-16.48-6.945c-6.058-0.555-12.453,0.53-18.229,3.054c-4.382,1.914-8.417,4.66-11.689,8.147
					C1411.904,530.42,1419.531,522.876,1428.318,519.491z"/>
				<path style="fill-rule:evenodd;clip-rule:evenodd;fill:#A49EFF;" d="M1610.761,636.815c-9.116-3.546-16.594-8.536-22.028-14.362
					c0.215-0.369,0.437-0.736,0.639-1.106c0.008-0.015,0.018-0.029,0.026-0.044c-0.001-0.001-0.001-0.002-0.002-0.002
					c6.135-11.243,6.564-23.219,0.91-29.999c0,0.003-0.001,0.005-0.001,0.008c0,0,0-0.001,0-0.002c0-0.001,0-0.003,0-0.004
					c-0.001-0.001-0.001-0.001-0.002-0.002c-1.666-2.506-6.716-2.72-9.614-1.199c0-0.001,0.001-0.003,0.001-0.004
					c-0.17,0.089-0.333,0.183-0.486,0.284c-0.017,0.029-0.029,0.059-0.046,0.088c0.01-0.03,0.017-0.061,0.026-0.091
					c-7.782,6.917-9.627,19.189-4.895,31.123c-0.372,0.318-0.734,0.641-1.12,0.95c-6.055,4.835-13.938,8.6-23.892,10.913l6.686,5.47
					l-3.29,8.19c11.161-2.389,20.087-7.583,26.707-13.977c0.002,0.002,0.004,0.005,0.005,0.008c0.123-0.118,0.232-0.243,0.353-0.363
					c0.217-0.214,0.437-0.426,0.649-0.642c5.345,6.834,13.203,12.906,23.746,16.919l-1.877-8.154L1610.761,636.815z
					 M1588.661,597.927c0.132,0.099,0.256,0.208,0.378,0.319c0.051,0.046,0.104,0.089,0.152,0.137
					c-1.196,5.184-3.221,10.06-6.168,14.474c-0.187,0.279-0.393,0.549-0.587,0.824c-2.623-5.012-3.892-10.355-3.629-15.753
					c0.182-0.1,0.361-0.202,0.551-0.292C1582.329,596.234,1586.271,596.14,1588.661,597.927z"/>
			</g>
			<path style="fill-rule:evenodd;clip-rule:evenodd;fill:#7D88D0;" d="M1413.737,587.996l-5.099-3.155l-1.428-0.883l0.096-1.656
				l2.21-38.511l0.005,0c0.784-16.054,10.877-27.007,22.75-31.582c5.198-2.003,10.75-2.782,16.02-2.228
				c5.375,0.565,10.466,2.504,14.624,5.926c8.167,6.723,12.662,19.019,8.43,37.617l-0.014,0.068l-7.81,30.812l-0.37,1.458
				l-1.435,0.496l-5.666,1.957c-0.139,1.245-0.577,2.395-1.238,3.343c-0.98,1.405-2.451,2.374-4.179,2.573l0,0.002l0,0l0,0l0-0.002
				c-1.729,0.2-3.383-0.409-4.655-1.553c-1.257-1.13-2.145-2.785-2.365-4.695l-0.003,0v0v0l0.002,0
				c-0.221-1.911,0.267-3.724,1.233-5.11c0.98-1.405,2.451-2.374,4.179-2.573l0-0.002l0.001,0h0l0,0.002
				c1.729-0.2,3.383,0.41,4.655,1.554c0.343,0.309,0.659,0.657,0.941,1.038l3.831-1.324l7.441-29.354l0.001,0
				c0.172-0.76,0.328-1.507,0.469-2.242c-1.204-5.226-3.624-9.239-6.798-12.143c-3.883-3.552-8.931-5.485-14.293-5.977
				c-5.447-0.5-11.204,0.48-16.408,2.753c-5.665,2.474-10.663,6.476-13.876,11.762l-1.986,34.601l2.535,1.569
				c0.505-0.6,1.093-1.103,1.733-1.491c1.464-0.889,3.202-1.182,4.863-0.667c1.663,0.517,2.931,1.743,3.634,3.305
				c0.679,1.51,0.83,3.338,0.299,5.14l0,0.002l-0.033,0.108c-0.57,1.836-1.75,3.299-3.195,4.177
				c-1.464,0.888-3.201,1.182-4.862,0.666c-1.664-0.517-2.931-1.742-3.635-3.305C1414,589.712,1413.792,588.872,1413.737,587.996
				L1413.737,587.996z M1467.327,541.86c0.396-10.355-2.885-17.444-7.973-21.631c-3.279-2.698-7.33-4.232-11.632-4.684
				c-4.407-0.463-9.07,0.196-13.454,1.885c-8.787,3.386-16.414,10.93-18.579,21.902c3.273-3.487,7.307-6.234,11.689-8.147
				c5.776-2.523,12.171-3.609,18.229-3.054c6.142,0.564,11.959,2.81,16.48,6.945C1464.136,536.951,1465.913,539.206,1467.327,541.86
				z"/>
			<path style="fill-rule:evenodd;clip-rule:evenodd;fill:#7D88D0;" d="M1572.248,461.371c11.721,3.031,19.875,9.424,25.396,19.248
				c6.089,10.835,8.835,25.808,9.582,45.059l-5.263,0.186c-0.714-18.413-3.273-32.615-8.921-42.665
				c-4.503-8.013-11.069-13.406-20.379-16.234L1572.248,461.371z"/>
			<path style="fill-rule:evenodd;clip-rule:evenodd;fill:#7D88D0;" d="M1605.043,563.44c12.877,0,23.379-10.503,23.379-23.38
				c0-12.878-10.502-23.38-23.379-23.38c-12.877,0-23.38,10.503-23.38,23.38C1581.663,552.937,1592.166,563.44,1605.043,563.44z"/>
			<path style="fill-rule:evenodd;clip-rule:evenodd;fill:#6460B2;" d="M1605.043,552.344c6.766,0,12.284-5.519,12.284-12.284
				c0-6.766-5.518-12.285-12.284-12.285c-6.766,0-12.285,5.519-12.285,12.285C1592.758,546.826,1598.277,552.344,1605.043,552.344z"
				/>
			<path style="fill-rule:evenodd;clip-rule:evenodd;fill:#7D88D0;" d="M1476.303,472.76c-6.87,2.892-12.83,7.27-17.498,13.15
				c-5.292,6.669-8.943,15.298-10.401,25.916l-5.221-0.702c1.595-11.615,5.631-21.107,11.495-28.496
				c5.751-7.248,13.246-12.45,21.911-15.635L1476.303,472.76z"/>
		</g>
	</g>
	<g>
		<defs>
			<polygon id="SVGID_00000016046264452807046190000007070024276895216277_" points="1920,1080 0,1080 0,0.002 1919.98,0 			"/>
		</defs>
		<clipPath id="SVGID_00000134226693231323430410000010685038281803611785_">
			<use xlink:href="#SVGID_00000016046264452807046190000007070024276895216277_"  style="overflow:visible;"/>
		</clipPath>
		<g style="clip-path:url(#SVGID_00000134226693231323430410000010685038281803611785_);">
			<path style="fill-rule:evenodd;clip-rule:evenodd;fill:#8354F5;" d="M390.206,1084.025
				c-9.181-14.271-28.528-26.397-50.745-30.257c-23.299-4.048-43.063,2.159-51.098,14.443c9.181,14.27,28.528,26.396,50.744,30.256
				C362.406,1102.515,382.17,1096.308,390.206,1084.025z"/>
			<path style="fill-rule:evenodd;clip-rule:evenodd;fill:#8354F5;" d="M311.793,976.781c-11.243,3.557-20.385,16.02-22.721,33.119
				c-2.45,17.933,3.289,35.813,13.536,45.785c11.243-3.557,20.385-16.02,22.722-33.119
				C327.779,1004.634,322.04,986.754,311.793,976.781z"/>
			<path style="fill-rule:evenodd;clip-rule:evenodd;fill:#8354F5;" d="M232.715,1021.607c-11.042,2.38-20.79,13.174-24.4,28.812
				c-3.786,16.399,0.265,33.415,9.266,43.477c11.041-2.38,20.79-13.174,24.4-28.812
				C245.767,1048.685,241.716,1031.67,232.715,1021.607z"/>
			<path style="fill-rule:evenodd;clip-rule:evenodd;fill:#8354F5;" d="M171.557,1035.439
				c-11.501,0.988-22.686,10.295-28.209,25.036c-5.793,15.459-3.695,32.453,4.256,43.293c11.501-0.988,22.686-10.295,28.209-25.036
				C181.605,1063.273,179.508,1046.278,171.557,1035.439z"/>
			<path style="fill-rule:evenodd;clip-rule:evenodd;fill:#8354F5;" d="M314.021,1130.324c-3.934-12.881-16.904-26.864-34.424-35.54
				c-18.373-9.098-36.474-9.746-46.38-2.852c3.934,12.881,16.903,26.863,34.424,35.539
				C286.015,1136.57,304.115,1137.218,314.021,1130.324z"/>
			<path style="fill-rule:evenodd;clip-rule:evenodd;fill:#8354F5;" d="M255.488,1156.033c-2.678-14.007-15.132-30.33-33.254-41.674
				c-19.005-11.896-38.785-14.898-50.533-8.942c2.678,14.007,15.131,30.33,33.254,41.674
				C223.96,1158.987,243.741,1161.989,255.488,1156.033z"/>
			<path style="fill-rule:evenodd;clip-rule:evenodd;fill:#8354F5;" d="M367.965,944.465c-9.879,3.125-17.911,14.076-19.964,29.1
				c-2.153,15.756,2.89,31.466,11.893,40.229c9.879-3.125,17.911-14.076,19.964-29.1
				C382.011,968.938,376.968,953.227,367.965,944.465z"/>
			<path style="fill-rule:evenodd;clip-rule:evenodd;fill:#8354F5;" d="M420.52,1016.915c-8.819-8.374-23.713-13.096-38.747-11.268
				c-15.766,1.916-27.157,10.485-29.782,20.998c8.819,8.374,23.713,13.096,38.746,11.269
				C406.504,1035.997,417.895,1027.428,420.52,1016.915z"/>
			<path style="fill-rule:evenodd;clip-rule:evenodd;fill:#8354F5;" d="M452.735,965.547c-8.841-6.388-22.382-8.516-35.08-4.602
				c-13.316,4.104-21.879,13.674-22.594,23.729c8.841,6.388,22.382,8.516,35.08,4.602
				C443.457,985.172,452.02,975.603,452.735,965.547z"/>
			<path style="fill-rule:evenodd;clip-rule:evenodd;fill:#8354F5;" d="M425.455,916.206c-6.918,0.159-13.947,5.191-17.785,13.606
				c-4.024,8.824-3.383,18.834,0.984,25.46c6.918-0.159,13.947-5.191,17.784-13.606
				C430.463,932.841,429.822,922.831,425.455,916.206z"/>
			<path style="fill-rule:evenodd;clip-rule:evenodd;fill:#8354F5;" d="M189.25,1192.747c2.991-15.65-4.749-38.059-21.514-57.866
				c-17.582-20.772-40.04-32.715-56.809-31.824c-2.991,15.65,4.749,38.059,21.513,57.866
				C150.022,1181.695,172.48,1193.638,189.25,1192.747z"/>
			<path style="fill:#8354F5;" d="M99.487,1099.331c48.48,4.967,93.288-3.344,136.098-16.504
				c42.941-13.061,81.614-34.878,114.749-62.908c22.229-18.628,41.757-40.422,57.784-65.03l1.072,0.766
				c-29.05,51.981-74.006,92.503-126.648,120.236c-39.598,21.121-84.817,35.339-133.966,32.871
				c-16.278-0.726-32.874-3.207-49.109-8.24L99.487,1099.331L99.487,1099.331z"/>
		</g>
		<g style="clip-path:url(#SVGID_00000134226693231323430410000010685038281803611785_);">
			<path style="fill:#674BB3;" d="M176.41,1107.894c15.202-9.032,38.833-26.482,51.66-37.155l-20.781-21.422l39.011,2.652
				c24.869-26.733,42.625-56.11,51.799-85.064c-20.006-6.751-50.177-14.061-73.708-11.124l-6.569,23.923l-20.338-17.605
				c-23.859,4.312-48.516,12.128-72.883,23.505l-15.52,34.9l-18.57-16.463c-59.408,36.725-100.8,87.948-116.632,137.917
				c42.177,14.232,96.793,11.297,151.587-9.445l-8.159-15.965l34.868,4.422C160.307,1117.008,168.4,1112.653,176.41,1107.894z"/>
			<path style="fill:#A49EFF;" d="M210.374,1017.652c14.962,1.6,31.284,3.433,45.231,4.786c0,0,0.035-0.278,0.035-0.278
				c-12.967-2.059-28.023-4.229-42.099-6.313c24.669-14.055,49.432-28.188,71.517-41.105c0,0-0.369-0.677-0.369-0.677
				c-31.333,15.856-67.226,34.653-101.131,52.268c6.556-12.977,13.681-26.927,19.621-38.99c0,0-0.247-0.131-0.247-0.131
				c-7.169,12.57-15.362,27.47-22.879,40.942c-12.01,6.235-23.742,12.305-34.893,18.016c-5.448,2.837-10.875,5.756-16.287,8.717
				c9.655-19.103,20.085-39.535,28.805-57.245c0,0-0.37-0.196-0.37-0.196c-10.565,18.525-22.615,40.429-33.721,60.343
				c-20.341,11.316-40.328,23.496-59.517,36.468l0.369,0.677c9.721-4.037,19.242-8.443,28.691-12.98
				c16.462-7.927,33.462-16.545,49.536-25.579c15,1.603,31.382,3.444,45.373,4.801c0,0,0.035-0.278,0.035-0.278
				c-13.007-2.065-28.116-4.242-42.23-6.333c0.989-0.564,1.989-1.123,2.97-1.69C167.986,1041.791,189.101,1029.771,210.374,1017.652
				z"/>
		</g>
		<g style="clip-path:url(#SVGID_00000134226693231323430410000010685038281803611785_);">
			<path style="fill:#FF7FB7;" d="M1961.108,935.117c-9.127-23.567-28.121-61.01-40.125-81.619l-35.119,24.213l12.983-54.356
				c-31.786-41.387-68.982-73.376-107.617-93.169c-14.257,26.598-31.711,67.389-33.149,101.252l32.162,14.928l-29.634,24.493
				c0.423,34.65,5.596,71.255,15.855,108.297l45.511,30.146l-27.605,22.271c37.682,92.437,100.069,162.918,166.745,197.075
				c30.055-56.074,38.863-133.748,22.616-215.894l-24.436,7.717l14.497-48.097C1970.137,959.974,1965.918,947.536,1961.108,935.117z
				"/>
			<path style="fill:#EB5E98;" d="M1906.499,930.656c-5.052,18.61-10.596,40.255-15.859,60.472
				c-0.665-1.528-1.322-3.071-1.992-4.588c-13.121-29.65-27.296-62.273-41.59-95.144c4.683-21.533,9.915-44.991,14.079-65.086
				c0,0-0.399-0.095-0.399-0.095c-5.037,18.553-10.562,40.121-15.811,60.284c-16.578-38.117-33.255-76.384-48.583-110.562
				c0,0-1.044,0.431-1.044,0.431c18.15,48.096,39.871,103.309,60.176,155.426c-17.859-11.584-37.044-24.15-53.668-34.693
				c0,0-0.23,0.339-0.23,0.339c17.17,12.412,37.569,26.681,55.996,39.741c7.188,18.463,14.175,36.493,20.736,53.622
				c3.273,8.376,6.667,16.735,10.127,25.078c-26.288-17.058-54.388-35.453-78.793-50.931c0,0-0.344,0.507-0.344,0.507
				c25.303,18.292,55.291,39.277,82.529,58.574c13.272,31.387,27.857,62.397,43.721,92.367l1.044-0.431
				c-4.348-14.785-9.264-29.336-14.382-43.803c-8.949-25.208-18.819-51.307-29.44-76.123c4.694-21.589,9.946-45.132,14.124-65.291
				C1906.898,930.752,1906.499,930.656,1906.499,930.656z"/>
		</g>
		<g style="clip-path:url(#SVGID_00000134226693231323430410000010685038281803611785_);">
			<path style="fill:#674BB3;" d="M1872.679,997.178c-13.251-13.57-37.677-33.54-52.283-43.982l-19.776,29.692l-5.024-43.345
				c-35.096-18.254-71.699-27.892-106.068-28.327c-3.472,24.008-5.488,59.265,2.632,83.915l28.19-0.742l-15.583,27.95
				c9.731,24.552,23.557,48.817,41.318,71.591l42.342,5.382l-14.665,25.648c53.389,52.559,119.352,80.722,178.666,81.471
				c7.32-50.613-7.172-109.103-41.681-161.914l-16.241,14.15l-2.188-39.419C1886.208,1011.702,1879.662,1004.328,1872.679,997.178z"
				/>
			<path style="fill:#A49EFF;" d="M1829.107,1022.4c1.801,13.474,4.123,29.09,6.234,43.689c-0.89-0.928-1.778-1.869-2.669-2.788
				c-17.416-17.98-36.397-37.807-55.531-57.783c-2.883-15.398-5.933-32.194-8.765-46.531c0,0-0.301,0.001-0.301,0.001
				c1.795,13.432,4.109,28.993,6.215,43.554c-22.189-23.163-44.49-46.412-64.704-67.104c0,0-0.595,0.464-0.595,0.464
				c26.097,29.682,56.663,63.612,85.38,95.671c-15.553-4.929-32.295-10.305-46.705-14.73c0,0-0.062,0.268-0.062,0.268
				c15.314,5.604,33.373,11.938,49.734,17.776c10.169,11.358,20.078,22.455,29.439,33.011c4.621,5.151,9.322,10.27,14.063,15.367
				c-22.895-7.259-47.414-15.128-68.569-21.624c0,0-0.093,0.401-0.093,0.401c22.568,8.259,49.118,17.577,73.301,26.2
				c18.011,19.136,36.818,37.799,56.209,55.546l0.595-0.465c-7.176-9.328-14.676-18.402-22.291-27.387
				c-13.29-15.65-27.467-31.754-41.794-46.862c-2.891-15.438-5.952-32.295-8.792-46.677
				C1829.408,1022.399,1829.107,1022.4,1829.107,1022.4z"/>
		</g>
		<g style="clip-path:url(#SVGID_00000134226693231323430410000010685038281803611785_);">
			<path style="fill:#FF7FB7;" d="M126.902,1003.44c7.511-23.689,16.001-64.092,19.485-87.283l-41.834-3.057l43.42-33.683
				c1.11-51.302-7.715-98.73-25.152-137.692c-27.307,11.616-65.803,32.146-87.754,57.224l15.468,31.247l-37.801,0.535
				c-21.009,26.828-39.579,58.079-54.518,92.795l16.335,51.134l-34.877,0.081c-28.018,94.074-23.577,186.523,6.516,253.763
				c57.567-24.489,112.142-78.621,150.259-151.609l-23.487-9.128l40.727-27.952C118.521,1028.057,122.943,1015.923,126.902,1003.44z
				"/>
			<path style="fill:#EB5E98;" d="M81.709,972.578c-14.897,9.806-31.994,21.413-48.021,32.203c0.475-1.466,0.964-2.938,1.428-4.4
				c9.06-28.585,19.212-59.876,29.432-91.412c16.431-12.058,34.421-25.113,49.612-36.492c0,0-0.218-0.31-0.218-0.31
				c-14.851,9.775-31.888,21.341-47.872,32.103c11.849-36.57,23.722-73.307,34.025-106.381c0,0-0.987-0.341-0.987-0.341
				c-16.87,44.45-35.623,96.019-53.461,144.576c-5.285-18.965-10.889-39.422-15.955-56.908c0,0-0.367,0.094-0.367,0.094
				c4.3,19.117,9.703,41.498,14.478,61.833c-6.324,17.198-12.52,33.974-18.461,49.864c-2.861,7.809-5.626,15.682-8.336,23.583
				c-7.775-27.92-15.989-57.876-23.427-83.548c0,0-0.549,0.141-0.549,0.141c6.337,28.172,14.273,61.08,21.336,91.133
				c-10.02,29.882-18.898,60.306-26.254,90.793l0.988,0.341c6.04-12.91,11.542-26.006,16.853-39.167
				c9.233-22.952,18.372-47.086,26.206-70.789c16.473-12.089,34.529-25.191,49.768-36.606
				C81.927,972.889,81.709,972.578,81.709,972.578z"/>
		</g>
	</g>
	<path style="fill-rule:evenodd;clip-rule:evenodd;fill:#FF7FB7;" d="M983.313,84.364h-62.626c-7.828,0-14.173,6.346-14.173,14.173
		v0c0,7.828,6.346,14.173,14.173,14.173h62.626c7.828,0,14.173-6.346,14.173-14.173v0C997.486,90.71,991.14,84.364,983.313,84.364z"
		/>
</g>
<g id="TEXTS">
	<rect style="fill:none;" width="1920" height="1080"/>
	<rect style="fill:none;" width="1920" height="1080"/>
	<path style="fill-rule:evenodd;clip-rule:evenodd;fill:#A49EFF;" d="M347.29,616.326H218.857c-10.683,0-19.343,8.66-19.343,19.343
		v0c0,10.683,8.66,19.343,19.343,19.343H347.29c10.683,0,19.343-8.66,19.343-19.343v0
		C366.633,624.986,357.973,616.326,347.29,616.326z"/>
	<g>
		<g>
			<g>
				<text transform="matrix(1 0 0 1 925.0732 104.6187)" style="fill:#FFFFFF; font-family:'OpenSans'; font-size:19.8285px;">Home</text>
				<text transform="matrix(1 0 0 1 1060.6074 104.6187)" style="fill:#674BB3; font-family:'OpenSans'; font-size:19.8285px;">Campaign</text>
				<text transform="matrix(1 0 0 1 1214.4688 104.6187)" style="fill:#674BB3; font-family:'OpenSans'; font-size:19.8285px;">Gallery</text>
				<text transform="matrix(1 0 0 1 1368.6563 104.6187)" style="fill:#674BB3; font-family:'OpenSans'; font-size:19.8285px;">Contact</text>
			</g>
		</g>
		<g>
			<g>
				<g>
					<text transform="matrix(1 0 0 1 203.352 295.0236)"><tspan x="0" y="0" style="fill:#674BB3; font-family:'PassionOne-Regular'; font-size:120.4521px;">Battle the fight!</tspan><tspan x="0" y="99.411" style="fill:#674BB3; font-family:'PassionOne-Regular'; font-size:120.4521px;">World Cancer Day</tspan></text>
				</g>
			</g>
			<g>
				<g>
					<text transform="matrix(1 0 0 1 202.0448 527.3365)" style="fill:#674BB3; font-family:'OpenSans'; font-size:23.2791px;">Lorem ipsum dolor sit amet, mollis vivendum</text>
					<text transform="matrix(1 0 0 1 202.0448 553.0826)" style="fill:#674BB3; font-family:'OpenSans'; font-size:23.2791px;">mediocritatem qui cu. Stet error principes ad</text>
					<text transform="matrix(1 0 0 1 202.0448 578.8297)" style="fill:#674BB3; font-family:'OpenSans'; font-size:23.2791px;">eam, velit primis prodesset ex duo.</text>
				</g>
			</g>
			<text transform="matrix(1 0 0 1 225.7367 618.5934)" style="fill:#674BB3; font-family:'OpenSans'; font-size:23.2791px;">You are not alone</text>
			<text transform="matrix(1 0 0 1 225.7367 644.5934)" style="fill:#FFFFFF; font-family:'OpenSans'; font-size:26.0164px;">More info</text>
		</g>
	</g>
</g>
</svg>
