<svg width="1440" height="943" viewBox="0 0 1440 943" fill="none" xmlns="http://www.w3.org/2000/svg">
<g opacity="0.2" clip-path="url(#clip0_175_850)">
<path d="M806.137 1120.67C604.736 1107.03 486.803 1038.13 416.094 977.07C283.985 862.996 276.54 741.628 138.937 632.525C24.8668 542.078 -104.156 519.13 -194.504 513.719" stroke="url(#paint0_linear_175_850)" stroke-miterlimit="10"/>
<path d="M816.209 1110.2C620.532 1094.2 501.66 1025.03 426.166 966.603C284.218 856.735 268.734 754.038 132.684 646.966C21.398 559.181 -103.14 530.391 -184.434 503.251" stroke="url(#paint1_linear_175_850)" stroke-miterlimit="10"/>
<path d="M826.28 1099.74C636.324 1081.37 516.479 1011.96 436.237 956.136C284.385 850.501 260.926 766.451 126.429 661.408C17.9316 576.283 -102.123 541.652 -174.361 492.785" stroke="url(#paint2_linear_175_850)" stroke-miterlimit="10"/>
<path d="M836.35 1089.27C652.118 1068.53 531.271 998.894 446.307 945.667C284.498 844.295 253.12 778.861 120.174 675.848C14.4628 593.387 -101.107 552.913 -164.291 482.315" stroke="url(#paint3_linear_175_850)" stroke-miterlimit="10"/>
<path d="M846.423 1078.8C667.912 1055.7 546.04 985.856 456.38 935.2C284.567 838.129 245.101 791.552 113.921 690.291C10.8258 610.709 -100.091 564.175 -154.22 471.849" stroke="url(#paint4_linear_175_850)" stroke-miterlimit="10"/>
<path d="M856.493 1068.33C683.704 1042.86 560.787 972.837 466.45 924.732C284.6 832 237.252 804.02 107.666 704.731C7.32759 627.851 -99.0737 575.434 -144.148 461.381" stroke="url(#paint5_linear_175_850)" stroke-miterlimit="10"/>
<path d="M866.564 1057.87C699.498 1030.03 575.52 959.842 476.521 914.266C284.603 825.913 229.407 816.483 101.41 719.174C3.83573 644.991 -98.0578 586.697 -134.077 450.915" stroke="url(#paint6_linear_175_850)" stroke-miterlimit="10"/>
<path d="M876.636 1047.4C715.292 1017.2 590.244 946.867 486.593 903.798C284.587 819.864 221.571 828.939 95.1565 733.614C0.347313 662.122 -97.0403 597.956 -124.007 440.447" stroke="url(#paint7_linear_175_850)" stroke-miterlimit="10"/>
<path d="M886.706 1036.93C731.086 1004.36 604.957 933.909 496.664 893.332C284.553 813.853 213.738 841.387 88.9014 748.056C-3.13524 679.247 -96.0249 609.22 -113.935 429.98" stroke="url(#paint8_linear_175_850)" stroke-miterlimit="10"/>
<path d="M896.777 1026.46C746.878 991.528 619.665 920.969 506.735 882.863C284.51 807.878 205.915 853.827 82.6469 762.497C-6.61337 696.363 -95.0089 620.48 -103.866 419.512" stroke="url(#paint9_linear_175_850)" stroke-miterlimit="10"/>
<path d="M906.85 1016C762.672 978.693 634.373 908.049 516.807 872.396C284.463 801.937 198.097 866.257 76.3941 776.937C-10.0819 713.472 -93.9911 631.741 -93.7931 409.044" stroke="url(#paint10_linear_175_850)" stroke-miterlimit="10"/>
<path d="M916.92 1005.53C778.466 965.861 649.077 895.142 526.878 861.929C284.41 796.026 190.287 878.678 70.1392 791.38C-13.5466 730.576 -92.9755 643.002 -83.7207 398.578" stroke="url(#paint11_linear_175_850)" stroke-miterlimit="10"/>
<path d="M926.991 995.062C794.258 953.027 663.782 882.251 536.948 851.461C284.357 790.146 182.487 891.088 63.8842 805.822C-17.0055 747.67 -91.958 654.265 -73.6502 388.11" stroke="url(#paint12_linear_175_850)" stroke-miterlimit="10"/>
<path d="M937.063 984.595C810.054 940.193 678.49 869.371 547.02 840.995C284.308 784.292 174.697 903.483 57.6312 820.263C-20.4546 764.752 -90.9404 665.525 -63.5778 377.644" stroke="url(#paint13_linear_175_850)" stroke-miterlimit="10"/>
<path d="M947.134 974.128C825.846 927.359 693.198 856.502 557.091 830.527C284.261 778.459 166.917 915.864 51.3746 834.705C-23.9034 781.828 -89.9265 676.788 -53.5091 367.176" stroke="url(#paint14_linear_175_850)" stroke-miterlimit="10"/>
<path d="M957.204 963.661C841.638 914.526 707.908 843.644 567.162 820.061C284.218 772.65 159.146 928.226 45.1196 849.147C-27.3408 798.893 -88.911 688.049 -43.4387 356.709" stroke="url(#paint15_linear_175_850)" stroke-miterlimit="10"/>
<path d="M967.277 953.192C857.434 901.691 722.623 830.795 577.234 809.592C284.185 766.857 151.391 940.568 38.8666 863.586C-30.7722 815.946 -87.8934 699.309 -33.3663 346.241" stroke="url(#paint16_linear_175_850)" stroke-miterlimit="10"/>
<path d="M977.347 942.725C873.226 888.856 737.311 818.168 587.305 799.125C284.099 761.516 143.65 952.888 32.6118 878.028C-34.1957 832.987 -86.8757 710.57 -23.2957 335.773" stroke="url(#paint17_linear_175_850)" stroke-miterlimit="10"/>
<path d="M987.418 932.258C889.02 876.024 752.047 805.228 597.375 788.658C284.106 755.549 136.023 965.034 26.3589 892.471C-37.5545 849.932 -85.8581 721.833 -13.2233 325.307" stroke="url(#paint18_linear_175_850)" stroke-miterlimit="10"/>
<path d="M997.49 921.791C904.814 863.19 766.784 792.29 607.447 778.19C284.112 749.578 128.217 977.444 20.1039 906.913C-41.0212 867.036 -84.8425 733.094 -3.15084 314.841" stroke="url(#paint19_linear_175_850)" stroke-miterlimit="10"/>
<path d="M1343.16 -131.935C1542.51 -81.7044 1646.26 8.59199 1704.26 82.4573C1812.62 220.464 1794.23 343.101 1909.17 477.138C2004.45 588.255 2129.13 634.64 2218.71 656.466" stroke="url(#paint20_linear_175_850)" stroke-miterlimit="10"/>
<path d="M1330.81 -123.306C1523.91 -71.7492 1628.55 18.9767 1691.92 91.0867C1811.06 226.679 1804.72 332.116 1918.53 463.843C2011.58 571.795 2130.51 623.2 2206.37 665.096" stroke="url(#paint21_linear_175_850)" stroke-miterlimit="10"/>
<path d="M1318.47 -114.676C1505.32 -61.794 1610.88 29.3535 1679.57 99.7161C1809.56 232.883 1815.2 321.133 1927.88 450.548C2018.7 555.332 2131.89 611.762 2194.02 673.725" stroke="url(#paint22_linear_175_850)" stroke-miterlimit="10"/>
<path d="M1306.12 -106.047C1486.72 -51.8408 1593.25 39.7166 1667.22 108.345C1808.13 239.064 1825.69 310.149 1937.24 437.253C2025.83 538.872 2133.27 600.322 2181.68 682.354" stroke="url(#paint23_linear_175_850)" stroke-miterlimit="10"/>
<path d="M1293.78 -97.4175C1468.13 -41.8856 1575.64 50.064 1654.88 116.975C1806.75 245.219 1836.44 298.923 1946.6 423.958C2033.17 522.221 2134.65 588.885 2169.33 690.984" stroke="url(#paint24_linear_175_850)" stroke-miterlimit="10"/>
<path d="M1281.44 -88.7881C1449.53 -31.9324 1558.06 60.3938 1642.54 125.604C1805.42 251.338 1846.98 287.889 1955.96 410.663C2040.34 505.723 2136.03 577.445 2156.99 699.613" stroke="url(#paint25_linear_175_850)" stroke-miterlimit="10"/>
<path d="M1269.09 -80.1592C1430.94 -21.9777 1540.49 70.7035 1630.19 134.233C1804.12 257.423 1857.52 276.859 1965.32 397.37C2047.5 489.233 2137.41 566.009 2144.64 708.244" stroke="url(#paint26_linear_175_850)" stroke-miterlimit="10"/>
<path d="M1256.75 -71.5298C1412.34 -12.0226 1522.95 80.996 1617.84 142.865C1802.85 263.473 1868.04 265.839 1974.68 384.077C2054.66 472.749 2138.79 554.573 2132.3 716.875" stroke="url(#paint27_linear_175_850)" stroke-miterlimit="10"/>
<path d="M1244.4 -62.8984C1393.74 -2.06739 1505.41 91.2708 1605.5 151.494C1801.61 269.487 1878.56 254.821 1984.04 370.781C2061.8 456.269 2140.17 543.133 2119.95 725.503" stroke="url(#paint28_linear_175_850)" stroke-miterlimit="10"/>
<path d="M1232.05 -54.269C1375.15 7.88583 1487.88 101.526 1593.15 160.123C1800.38 275.464 1889.06 243.81 1993.4 357.486C2068.94 439.795 2141.54 531.693 2107.61 734.132" stroke="url(#paint29_linear_175_850)" stroke-miterlimit="10"/>
<path d="M1219.71 -45.6396C1356.55 17.841 1470.36 111.766 1580.81 168.753C1799.16 281.411 1899.56 232.81 2002.76 344.191C2076.07 423.326 2142.92 520.256 2095.26 742.762" stroke="url(#paint30_linear_175_850)" stroke-miterlimit="10"/>
<path d="M1207.37 -37.0103C1337.96 27.7942 1452.84 121.989 1568.46 177.382C1797.95 287.324 1910.06 221.817 2012.12 330.896C2083.2 406.866 2144.3 508.818 2082.92 751.391" stroke="url(#paint31_linear_175_850)" stroke-miterlimit="10"/>
<path d="M1195.02 -28.3809C1319.36 37.7494 1435.32 132.2 1556.12 186.011C1796.75 293.21 1920.53 210.835 2021.48 317.601C2090.31 390.413 2145.68 497.378 2070.58 760.02" stroke="url(#paint32_linear_175_850)" stroke-miterlimit="10"/>
<path d="M1182.67 -19.7515C1300.76 47.7046 1417.81 142.396 1543.77 194.641C1795.55 299.066 1931 199.864 2030.83 304.308C2097.42 373.969 2147.06 485.942 2058.23 768.652" stroke="url(#paint33_linear_175_850)" stroke-miterlimit="10"/>
<path d="M1170.33 -11.1221C1282.17 57.6578 1400.29 152.581 1531.43 203.27C1794.35 304.9 1941.45 188.906 2040.19 291.013C2104.52 357.532 2148.44 474.503 2045.88 777.279" stroke="url(#paint34_linear_175_850)" stroke-miterlimit="10"/>
<path d="M1157.99 -2.49268C1263.57 67.613 1382.78 162.756 1519.09 211.9C1793.15 310.712 1951.89 177.965 2049.55 277.718C2111.61 341.105 2149.82 463.065 2033.54 785.908" stroke="url(#paint35_linear_175_850)" stroke-miterlimit="10"/>
<path d="M1145.64 6.13672C1244.98 77.5662 1365.26 172.921 1506.74 220.529C1791.95 316.503 1962.31 167.041 2058.91 264.423C2118.69 324.685 2151.2 451.627 2021.2 794.538" stroke="url(#paint36_linear_175_850)" stroke-miterlimit="10"/>
<path d="M1133.3 14.7661C1226.38 87.5214 1347.81 182.866 1494.4 229.158C1790.88 321.849 1972.71 156.136 2068.27 251.128C2125.76 308.278 2152.58 440.187 2008.85 803.167" stroke="url(#paint37_linear_175_850)" stroke-miterlimit="10"/>
<path d="M1120.95 23.395C1207.78 97.4741 1330.25 193.115 1482.05 237.787C1789.6 327.813 1982.96 145.389 2077.63 237.832C2132.75 291.958 2153.96 428.747 1996.51 811.796" stroke="url(#paint38_linear_175_850)" stroke-miterlimit="10"/>
<path d="M1108.61 32.0264C1189.19 107.431 1312.7 203.37 1469.71 246.419C1788.32 333.779 1993.44 134.408 2086.98 224.539C2139.87 275.5 2155.34 417.311 1984.16 820.428" stroke="url(#paint39_linear_175_850)" stroke-miterlimit="10"/>
<g opacity="0.25">
<path d="M123.411 97.5105L103.199 102.927L108.615 123.144L86.0718 129.186L80.6561 108.97L60.4445 114.387L54.4033 91.8387L74.615 86.4218L69.1993 66.2056L91.7423 60.1631L97.158 80.3793L117.368 74.9624L123.411 97.5105Z" fill="#00AAE5"/>
</g>
<g opacity="0.24">
<path d="M1356 576.291H1283.78V648.52H1203.24V576.291H1131.03V495.73H1203.24V423.5H1283.78V495.73H1356V576.291Z" fill="white"/>
</g>
<path d="M549.135 649.688H516.672V682.16H480.463V649.688H448V613.472H480.463V581H516.672V613.472H549.135V649.688Z" fill="#674BB3"/>
<g opacity="0.47">
<path d="M164.836 516.777H143.438V538.181H119.57V516.777H98.1699V492.903H119.57V471.498H143.438V492.903H164.838L164.836 516.777Z" fill="white"/>
</g>
<g opacity="0.2">
<path d="M414.909 712.879L395.248 718.89L401.258 738.555L379.329 745.26L373.317 725.595L353.657 731.606L346.953 709.674L366.613 703.663L360.602 683.998L382.531 677.292L388.541 696.958L408.201 690.946L414.909 712.879Z" fill="white"/>
</g>
<g opacity="0.41">
<path d="M958.604 843.141L980.935 846.679L984.473 824.342L1009.38 828.288L1005.84 850.625L1028.17 854.163L1024.23 879.076L1001.9 875.538L998.361 897.874L973.453 893.928L976.99 871.592L954.659 868.054L958.604 843.141Z" fill="white"/>
</g>
<g opacity="0.17">
<path d="M1108.29 109.467L1127.69 101.626L1119.85 82.2221L1141.49 73.4771L1149.33 92.8813L1168.73 85.0404L1177.47 106.684L1158.08 114.525L1165.91 133.93L1144.28 142.675L1136.44 123.27L1117.04 131.111L1108.29 109.467Z" fill="white"/>
</g>
<g opacity="0.17">
<path d="M514.612 272.011L534.012 264.172L526.173 244.768L547.812 236.022L555.651 255.427L575.051 247.586L583.794 269.23L564.394 277.071L572.234 296.475L550.594 305.22L542.755 285.816L523.355 293.657L514.612 272.011Z" fill="white"/>
</g>
</g>
<defs>
<linearGradient id="paint0_linear_175_850" x1="216.494" y1="910.024" x2="395.181" y2="724.397" gradientUnits="userSpaceOnUse">
<stop stop-color="#8CD7F8"/>
<stop offset="0.1322" stop-color="#76D2F7"/>
<stop offset="0.5435" stop-color="#37C2F4"/>
<stop offset="0.8441" stop-color="#0FB9F2"/>
<stop offset="1" stop-color="#00B5F1"/>
</linearGradient>
<linearGradient id="paint1_linear_175_850" x1="226.534" y1="899.826" x2="405.378" y2="714.036" gradientUnits="userSpaceOnUse">
<stop stop-color="#8CD7F8"/>
<stop offset="0.0084" stop-color="#8BD7F8" stop-opacity="0.9996"/>
<stop offset="0.4844" stop-color="#44C5F4" stop-opacity="0.9745"/>
<stop offset="0.827" stop-color="#18BAF2" stop-opacity="0.9565"/>
<stop offset="1" stop-color="#07B6F1" stop-opacity="0.9474"/>
</linearGradient>
<linearGradient id="paint2_linear_175_850" x1="236.71" y1="889.77" x2="415.717" y2="703.811" gradientUnits="userSpaceOnUse">
<stop stop-color="#8BD7F8"/>
<stop offset="0.4001" stop-color="#54C9F5" stop-opacity="0.9579"/>
<stop offset="0.8014" stop-color="#22BDF2" stop-opacity="0.9156"/>
<stop offset="1" stop-color="#0FB8F1" stop-opacity="0.8947"/>
</linearGradient>
<linearGradient id="paint3_linear_175_850" x1="246.41" y1="879.945" x2="425.925" y2="693.458" gradientUnits="userSpaceOnUse">
<stop stop-color="#8BD7F8"/>
<stop offset="0.2909" stop-color="#65CDF6" stop-opacity="0.9541"/>
<stop offset="0.7694" stop-color="#2CBFF2" stop-opacity="0.8785"/>
<stop offset="1" stop-color="#16B9F1" stop-opacity="0.8421"/>
</linearGradient>
<linearGradient id="paint4_linear_175_850" x1="249.913" y1="875.783" x2="435.746" y2="682.733" gradientUnits="userSpaceOnUse">
<stop stop-color="#8BD7F8"/>
<stop offset="0.1276" stop-color="#7CD3F7" stop-opacity="0.9731"/>
<stop offset="0.7215" stop-color="#38C2F3" stop-opacity="0.8481"/>
<stop offset="1" stop-color="#1EBBF1" stop-opacity="0.7895"/>
</linearGradient>
<linearGradient id="paint5_linear_175_850" x1="248.342" y1="877.134" x2="445.689" y2="672.122" gradientUnits="userSpaceOnUse">
<stop stop-color="#8BD7F8"/>
<stop offset="0.6516" stop-color="#45C5F4" stop-opacity="0.8285"/>
<stop offset="1" stop-color="#25BCF2" stop-opacity="0.7368"/>
</linearGradient>
<linearGradient id="paint6_linear_175_850" x1="243.582" y1="881.926" x2="455.697" y2="661.573" gradientUnits="userSpaceOnUse">
<stop stop-color="#8AD7F8"/>
<stop offset="0.5276" stop-color="#57C9F5" stop-opacity="0.8334"/>
<stop offset="1" stop-color="#2DBEF2" stop-opacity="0.6842"/>
</linearGradient>
<linearGradient id="paint7_linear_175_850" x1="236.829" y1="888.848" x2="465.735" y2="651.051" gradientUnits="userSpaceOnUse">
<stop stop-color="#8AD7F8"/>
<stop offset="0.3103" stop-color="#6ECFF6" stop-opacity="0.8857"/>
<stop offset="1" stop-color="#34BFF2" stop-opacity="0.6316"/>
</linearGradient>
<linearGradient id="paint8_linear_175_850" x1="228.842" y1="897.08" x2="475.788" y2="640.543" gradientUnits="userSpaceOnUse">
<stop stop-color="#8AD7F8"/>
<stop offset="1" stop-color="#3BC0F2" stop-opacity="0.5789"/>
</linearGradient>
<linearGradient id="paint9_linear_175_850" x1="220.093" y1="906.119" x2="485.85" y2="630.04" gradientUnits="userSpaceOnUse">
<stop stop-color="#8AD7F8"/>
<stop offset="1" stop-color="#43C2F2" stop-opacity="0.5263"/>
</linearGradient>
<linearGradient id="paint10_linear_175_850" x1="210.869" y1="915.657" x2="495.917" y2="619.539" gradientUnits="userSpaceOnUse">
<stop stop-color="#89D6F8"/>
<stop offset="1" stop-color="#4AC3F2" stop-opacity="0.4737"/>
</linearGradient>
<linearGradient id="paint11_linear_175_850" x1="201.345" y1="925.51" x2="505.985" y2="609.038" gradientUnits="userSpaceOnUse">
<stop stop-color="#89D6F8"/>
<stop offset="1" stop-color="#52C5F2" stop-opacity="0.4211"/>
</linearGradient>
<linearGradient id="paint12_linear_175_850" x1="191.625" y1="935.564" x2="516.054" y2="598.535" gradientUnits="userSpaceOnUse">
<stop stop-color="#89D6F8"/>
<stop offset="1" stop-color="#59C6F2" stop-opacity="0.3684"/>
</linearGradient>
<linearGradient id="paint13_linear_175_850" x1="181.774" y1="945.753" x2="526.123" y2="588.03" gradientUnits="userSpaceOnUse">
<stop stop-color="#89D6F8"/>
<stop offset="1" stop-color="#60C7F2" stop-opacity="0.3158"/>
</linearGradient>
<linearGradient id="paint14_linear_175_850" x1="171.833" y1="956.031" x2="536.192" y2="577.521" gradientUnits="userSpaceOnUse">
<stop stop-color="#88D6F8"/>
<stop offset="1" stop-color="#68C9F2" stop-opacity="0.2632"/>
</linearGradient>
<linearGradient id="paint15_linear_175_850" x1="161.825" y1="966.372" x2="546.259" y2="567.007" gradientUnits="userSpaceOnUse">
<stop stop-color="#88D6F8"/>
<stop offset="1" stop-color="#6FCAF3" stop-opacity="0.2105"/>
</linearGradient>
<linearGradient id="paint16_linear_175_850" x1="151.768" y1="976.755" x2="556.322" y2="556.489" gradientUnits="userSpaceOnUse">
<stop stop-color="#88D6F8"/>
<stop offset="1" stop-color="#77CCF3" stop-opacity="0.1579"/>
</linearGradient>
<linearGradient id="paint17_linear_175_850" x1="141.672" y1="987.168" x2="566.382" y2="545.963" gradientUnits="userSpaceOnUse">
<stop stop-color="#88D6F8"/>
<stop offset="1" stop-color="#7ECDF3" stop-opacity="0.1053"/>
</linearGradient>
<linearGradient id="paint18_linear_175_850" x1="131.559" y1="997.586" x2="576.435" y2="535.432" gradientUnits="userSpaceOnUse">
<stop stop-color="#87D6F8"/>
<stop offset="1" stop-color="#86CFF3" stop-opacity="0.0526"/>
</linearGradient>
<linearGradient id="paint19_linear_175_850" x1="121.388" y1="1008.05" x2="586.48" y2="524.894" gradientUnits="userSpaceOnUse">
<stop stop-color="#87D6F8"/>
<stop offset="1" stop-color="#8DD0F3" stop-opacity="0"/>
</linearGradient>
<linearGradient id="paint20_linear_175_850" x1="1890.57" y1="185.637" x2="1671.27" y2="338.863" gradientUnits="userSpaceOnUse">
<stop stop-color="#8CD7F8"/>
<stop offset="0.0381" stop-color="#89D6F8"/>
<stop offset="0.6706" stop-color="#62CDF6"/>
<stop offset="1" stop-color="#53CAF5"/>
</linearGradient>
<linearGradient id="paint21_linear_175_850" x1="1878.3" y1="194.068" x2="1658.84" y2="347.397" gradientUnits="userSpaceOnUse">
<stop stop-color="#89D6F8"/>
<stop offset="0.6094" stop-color="#67CFF6" stop-opacity="0.9679"/>
<stop offset="1" stop-color="#56CBF5" stop-opacity="0.9474"/>
</linearGradient>
<linearGradient id="paint22_linear_175_850" x1="1865.95" y1="202.494" x2="1646.39" y2="355.895" gradientUnits="userSpaceOnUse">
<stop stop-color="#86D6F8"/>
<stop offset="0.5223" stop-color="#6CD0F6" stop-opacity="0.945"/>
<stop offset="1" stop-color="#59CBF5" stop-opacity="0.8947"/>
</linearGradient>
<linearGradient id="paint23_linear_175_850" x1="1854.15" y1="210.666" x2="1634" y2="364.479" gradientUnits="userSpaceOnUse">
<stop stop-color="#83D5F8"/>
<stop offset="0.3931" stop-color="#72D1F7" stop-opacity="0.9379"/>
<stop offset="1" stop-color="#5CCCF5" stop-opacity="0.8421"/>
</linearGradient>
<linearGradient id="paint24_linear_175_850" x1="1849.62" y1="214.012" x2="1621.73" y2="373.234" gradientUnits="userSpaceOnUse">
<stop stop-color="#80D4F7"/>
<stop offset="0.1852" stop-color="#79D3F7" stop-opacity="0.961"/>
<stop offset="1" stop-color="#5FCDF6" stop-opacity="0.7895"/>
</linearGradient>
<linearGradient id="paint25_linear_175_850" x1="1851.43" y1="212.874" x2="1609.44" y2="381.954" gradientUnits="userSpaceOnUse">
<stop stop-color="#7DD4F7"/>
<stop offset="1" stop-color="#62CDF6" stop-opacity="0.7368"/>
</linearGradient>
<linearGradient id="paint26_linear_175_850" x1="1857.22" y1="208.922" x2="1597.12" y2="390.646" gradientUnits="userSpaceOnUse">
<stop stop-color="#7AD3F7"/>
<stop offset="1" stop-color="#65CEF6" stop-opacity="0.6842"/>
</linearGradient>
<linearGradient id="paint27_linear_175_850" x1="1865.46" y1="203.222" x2="1584.79" y2="399.323" gradientUnits="userSpaceOnUse">
<stop stop-color="#77D2F7"/>
<stop offset="1" stop-color="#68CFF6" stop-opacity="0.6316"/>
</linearGradient>
<linearGradient id="paint28_linear_175_850" x1="1875.24" y1="196.442" x2="1572.46" y2="407.99" gradientUnits="userSpaceOnUse">
<stop stop-color="#74D2F7"/>
<stop offset="1" stop-color="#6BCFF6" stop-opacity="0.5789"/>
</linearGradient>
<linearGradient id="paint29_linear_175_850" x1="1885.95" y1="188.998" x2="1560.12" y2="416.651" gradientUnits="userSpaceOnUse">
<stop stop-color="#71D1F7"/>
<stop offset="1" stop-color="#6ED0F6" stop-opacity="0.5263"/>
</linearGradient>
<linearGradient id="paint30_linear_175_850" x1="1897.24" y1="181.141" x2="1547.77" y2="425.308" gradientUnits="userSpaceOnUse">
<stop stop-color="#6ED0F6"/>
<stop offset="1" stop-color="#71D1F7" stop-opacity="0.4737"/>
</linearGradient>
<linearGradient id="paint31_linear_175_850" x1="1908.9" y1="173.023" x2="1535.43" y2="433.964" gradientUnits="userSpaceOnUse">
<stop stop-color="#6BCFF6"/>
<stop offset="1" stop-color="#74D2F7" stop-opacity="0.4211"/>
</linearGradient>
<linearGradient id="paint32_linear_175_850" x1="1920.8" y1="164.737" x2="1523.08" y2="442.619" gradientUnits="userSpaceOnUse">
<stop stop-color="#68CFF6"/>
<stop offset="1" stop-color="#77D2F7" stop-opacity="0.3684"/>
</linearGradient>
<linearGradient id="paint33_linear_175_850" x1="1932.86" y1="156.34" x2="1510.73" y2="451.274" gradientUnits="userSpaceOnUse">
<stop stop-color="#65CEF6"/>
<stop offset="1" stop-color="#7AD3F7" stop-opacity="0.3158"/>
</linearGradient>
<linearGradient id="paint34_linear_175_850" x1="1945.03" y1="147.867" x2="1498.39" y2="459.93" gradientUnits="userSpaceOnUse">
<stop stop-color="#62CDF6"/>
<stop offset="1" stop-color="#7DD4F7" stop-opacity="0.2632"/>
</linearGradient>
<linearGradient id="paint35_linear_175_850" x1="1957.28" y1="139.341" x2="1486.04" y2="468.586" gradientUnits="userSpaceOnUse">
<stop stop-color="#5FCDF6"/>
<stop offset="0.8148" stop-color="#79D3F7" stop-opacity="0.3567"/>
<stop offset="1" stop-color="#80D4F7" stop-opacity="0.2105"/>
</linearGradient>
<linearGradient id="paint36_linear_175_850" x1="1969.58" y1="130.777" x2="1473.69" y2="477.243" gradientUnits="userSpaceOnUse">
<stop stop-color="#5CCCF5"/>
<stop offset="0.6069" stop-color="#72D1F7" stop-opacity="0.489"/>
<stop offset="1" stop-color="#83D5F8" stop-opacity="0.1579"/>
</linearGradient>
<linearGradient id="paint37_linear_175_850" x1="1981.92" y1="122.186" x2="1461.35" y2="485.902" gradientUnits="userSpaceOnUse">
<stop stop-color="#59CBF5"/>
<stop offset="0.4777" stop-color="#6CD0F6" stop-opacity="0.5726"/>
<stop offset="1" stop-color="#86D6F8" stop-opacity="0.1053"/>
</linearGradient>
<linearGradient id="paint38_linear_175_850" x1="1994.28" y1="113.587" x2="1449" y2="494.561" gradientUnits="userSpaceOnUse">
<stop stop-color="#56CBF5"/>
<stop offset="0.3906" stop-color="#67CFF6" stop-opacity="0.63"/>
<stop offset="1" stop-color="#89D6F8" stop-opacity="0.0526"/>
</linearGradient>
<linearGradient id="paint39_linear_175_850" x1="2006.7" y1="104.947" x2="1436.66" y2="503.222" gradientUnits="userSpaceOnUse">
<stop stop-color="#53CAF5"/>
<stop offset="0.3294" stop-color="#62CDF6" stop-opacity="0.6706"/>
<stop offset="0.9619" stop-color="#89D6F8" stop-opacity="0.0381"/>
<stop offset="1" stop-color="#8CD7F8" stop-opacity="0"/>
</linearGradient>
<clipPath id="clip0_175_850">
<rect width="1440" height="943" fill="white"/>
</clipPath>
</defs>
</svg>
