<svg width="138" height="124" viewBox="0 0 138 124" fill="none" xmlns="http://www.w3.org/2000/svg">
<path d="M45.0108 76.0499L45.0453 66.8604C45.0253 73.7366 49.5538 80.622 58.6199 85.8568L58.5854 95.0463C49.5193 89.8133 44.9926 82.9262 45.0108 76.0499Z" fill="#7C87EC"/>
<path d="M50.625 75.1976L50.6631 66.8179C50.6795 60.8441 54.5979 54.8812 62.422 50.3327C78.1736 41.1795 103.885 41.1795 119.74 50.3327L119.702 58.7124C103.847 49.5592 78.1355 49.5573 62.3838 58.7124C54.5597 63.2608 50.6413 69.2238 50.625 75.1976Z" fill="#90A19E"/>
<path d="M131.685 65.5392L131.647 75.4333C131.665 70.8957 127.68 63.3222 119.701 58.7156L119.739 50.3359C127.718 54.9425 131.702 61.0017 131.685 65.5392Z" fill="#A8B5B3"/>
<path d="M119.491 53.6123C103.723 44.5081 78.1534 44.5081 62.4871 53.6123C46.8226 62.7165 46.9061 77.5276 62.6723 86.6318C78.4403 95.736 104.012 95.7342 119.678 86.6318C135.344 77.5276 135.259 62.7165 119.491 53.6123Z" fill="#5D728F" fill-opacity="0.1"/>
<path d="M137.122 67.124L137.087 76.4207C137.067 83.208 132.617 89.8791 123.725 95.0467C105.826 105.449 76.6046 105.449 58.5869 95.0467L58.6214 85.8572C76.6391 96.2596 105.86 96.2596 123.76 85.8572C132.652 80.6896 137.102 73.9113 137.122 67.124Z" fill="url(#paint0_linear_183_28664)"/>
<path d="M58.6207 85.8576C40.6048 75.4551 40.5086 58.5287 58.4083 48.128C76.308 37.7256 105.529 37.7256 123.547 48.128C141.564 58.5305 141.659 75.4569 123.759 85.8576C105.859 96.26 76.6366 96.26 58.6207 85.8576ZM119.492 50.483C103.724 41.3789 78.151 41.3789 62.4865 50.483C46.8201 59.5872 46.9037 74.4002 62.6717 83.5044C78.4397 92.6086 104.015 92.6086 119.679 83.5044C135.345 74.3984 135.26 59.5872 119.492 50.483Z" fill="#CDD1F8"/>
<path d="M53.9117 98.5427C52.9003 99.131 51.5076 99.0638 49.9624 98.2014C46.8194 96.4492 44.2355 92.0768 44.1919 88.4344C44.1702 86.5824 44.8075 85.2768 45.8515 84.6685L50.3038 82.0811C49.2579 82.6893 48.6206 83.9949 48.6442 85.8469C48.6896 89.4893 51.2734 93.8617 54.4147 95.6139C55.9599 96.4745 57.3526 96.5418 58.3639 95.9553C57.0293 96.7306 55.2481 97.7656 53.9117 98.5427Z" fill="#4F4B6E"/>
<path d="M60.0245 92.188C60.0699 95.8304 57.5569 97.3647 54.4156 95.6125C51.2725 93.8603 48.6887 89.4879 48.6451 85.8455C48.5997 82.2031 51.1128 80.6688 54.254 82.421C57.3971 84.1732 59.9809 88.5456 60.0245 92.188Z" fill="#4F4B6E"/>
<path d="M58.3644 95.9544L53.9121 98.5418C54.958 97.9335 55.5953 96.628 55.5717 94.7759L60.024 92.1885C60.0476 94.0405 59.4102 95.3461 58.3644 95.9544Z" fill="#7C87EC"/>
<path d="M55.5732 94.7768C55.6186 98.4192 53.1056 99.9536 49.9625 98.2014C46.8194 96.4492 44.2356 92.0768 44.192 88.4344C44.1466 84.792 46.6596 83.2577 49.8027 85.0099C52.9439 86.7621 55.5278 91.1344 55.5732 94.7768ZM54.5491 94.2067C54.5128 91.2198 52.3938 87.6336 49.8154 86.1974C47.2388 84.7611 45.178 86.0177 45.2143 89.0064C45.2506 91.9933 47.3696 95.5794 49.948 97.0157C52.5263 98.4501 54.5854 97.1936 54.5491 94.2067Z" fill="#7C87EC"/>
<path d="M45.8516 84.668L50.3038 82.0805C51.3152 81.4922 52.7078 81.5594 54.2531 82.4219C57.3961 84.1741 59.98 88.5464 60.0235 92.1888L55.5713 94.7762C55.5259 91.1338 52.9421 86.7615 49.8008 85.0093C48.2556 84.1486 46.8629 84.0815 45.8516 84.668Z" fill="url(#paint1_linear_183_28664)"/>
<path d="M9.34201 123.625C8.41416 124.188 7.12134 124.137 5.68689 123.336C2.81074 121.733 0.444817 117.731 0.40487 114.396C0.383081 112.678 0.984098 111.472 1.96461 110.926C13.9776 104.24 34.601 92.5811 46.614 85.8955C45.7352 86.3839 45.1977 87.4643 45.2159 89.0041C45.2522 91.991 47.3712 95.5771 49.9496 97.0133C51.2351 97.7306 52.3917 97.776 53.2233 97.2712C41.4645 104.4 21.099 116.498 9.34201 123.625Z" fill="#4F4B6E"/>
<path d="M3.25224 122.383C3.13422 122.334 3.01438 122.276 2.89091 122.209C1.31665 121.332 0.022016 119.14 0.000226991 117.317C-0.00158876 117.146 0.0074889 116.987 0.0274622 116.834C0.169091 115.728 0.310722 114.622 0.452351 113.517C0.416036 113.793 0.399693 114.087 0.403325 114.397C0.445087 117.731 2.80919 121.735 5.68535 123.338C5.90869 123.463 6.1284 123.569 6.34448 123.658C6.25188 123.619 6.12839 123.569 6.03579 123.53C5.98858 123.512 5.92685 123.485 5.88145 123.467C5.78885 123.429 5.66538 123.378 5.57278 123.34C5.48017 123.302 5.35671 123.251 5.2641 123.213C5.21689 123.195 5.15516 123.167 5.10977 123.149C5.01716 123.111 4.89368 123.06 4.80108 123.022C4.70847 122.984 4.58501 122.933 4.4924 122.895C4.44519 122.877 4.38346 122.85 4.33806 122.831C4.24546 122.793 4.12199 122.742 4.02939 122.704C3.93679 122.666 3.81332 122.615 3.72071 122.577C3.6735 122.557 3.61176 122.532 3.56636 122.514C3.46831 122.472 3.34485 122.421 3.25224 122.383Z" fill="#4F4B6E"/>
<path d="M53.2222 97.2729C41.4652 104.4 21.0978 116.498 9.34082 123.625C10.2741 123.058 10.8406 121.873 10.8207 120.202L54.5477 94.2061C54.5676 95.7022 54.0592 96.7663 53.2222 97.2729Z" fill="#4F4B6E"/>
<path d="M6.34558 123.657C6.25298 123.619 6.12949 123.568 6.03689 123.53C5.98968 123.512 5.92795 123.484 5.88255 123.466C5.78995 123.428 5.66648 123.377 5.57388 123.339C5.48128 123.301 5.35781 123.25 5.2652 123.212C5.21799 123.194 5.15626 123.167 5.11087 123.148C5.01826 123.11 4.89478 123.059 4.80218 123.021C4.70957 122.983 4.58611 122.932 4.4935 122.894C4.44629 122.876 4.38456 122.849 4.33917 122.831C4.24656 122.793 4.12309 122.742 4.03049 122.704C3.93789 122.665 3.81442 122.615 3.72182 122.576C3.67461 122.556 3.61286 122.531 3.56746 122.513C3.47486 122.475 3.35139 122.424 3.25879 122.386C4.66055 122.963 5.72821 122.179 5.70824 120.496L10.8287 120.205C10.8577 123.277 8.90579 124.71 6.34558 123.657Z" fill="#403C62"/>
<path d="M5.70175 120.493C5.72354 122.317 4.46522 123.086 2.89097 122.209C1.31671 121.331 0.0220678 119.14 0.000278757 117.317C-0.0215103 115.492 1.2368 114.724 2.81106 115.601C4.38532 116.476 5.67996 118.668 5.70175 120.493Z" fill="#403C62"/>
<path d="M1.96289 110.927C13.9759 104.242 34.5993 92.5827 46.6123 85.8971C47.4385 85.4377 48.566 85.4994 49.8153 86.1967C52.3918 87.633 54.5108 91.2191 54.549 94.206L10.822 120.202C10.782 116.868 8.41608 112.865 5.53993 111.261C4.14361 110.484 2.88529 110.413 1.96289 110.927Z" fill="url(#paint2_linear_183_28664)"/>
<path d="M0.0283203 116.834C0.169949 115.728 0.31158 114.622 0.453209 113.516C0.798202 110.827 2.93172 109.809 5.53914 111.263C8.4153 112.866 10.7812 116.868 10.8212 120.204L5.70074 120.494C5.67895 118.67 4.38431 116.48 2.81005 115.603C1.38468 114.804 0.217159 115.361 0.0283203 116.834Z" fill="#403C62"/>
<path d="M120.801 70.7726L112.81 53.5538L83.0424 48.9473L60.7014 61.8464L59.0654 59.0138L82.4051 45.5391L115.04 50.5887L123.768 69.3963L120.801 70.7726Z" fill="#6DB6FF"/>
<path d="M99.7633 84.9757L67.1287 79.9279L58.4004 61.1186L61.3673 59.7422L69.3585 76.9628L99.126 81.5676L121.467 68.6685L123.103 71.501L99.7633 84.9757Z" fill="#BDDEFF"/>
<path d="M127.52 68.13C128.601 71.0225 127.132 74.2419 124.239 75.3222C121.347 76.4026 118.126 74.9337 117.045 72.0412C115.965 69.1487 117.434 65.9275 120.326 64.8471C123.219 63.7686 126.44 65.2375 127.52 68.13Z" fill="#24B23F"/>
<path d="M127.132 68.2738C128.133 70.952 126.773 73.9335 124.094 74.9339C121.416 75.9344 118.435 74.5744 117.434 71.8962C116.434 69.2179 117.794 66.2365 120.472 65.236C123.15 64.2373 126.132 65.5973 127.132 68.2738Z" fill="url(#paint3_linear_183_28664)"/>
<path d="M116.467 71.5542L117.573 70.915L117.611 70.9277C118.762 71.2963 119.521 72.3949 119.461 73.6024L116.864 75.1022L116.467 71.5542Z" fill="#BDDEFF"/>
<path d="M119.16 50.1155C120.24 53.008 118.772 56.2273 115.879 57.3077C112.987 58.3881 109.765 56.9191 108.685 54.0266C107.605 51.1341 109.074 47.913 111.966 46.8344C114.86 45.754 118.08 47.223 119.16 50.1155Z" fill="#24B23F"/>
<path d="M118.774 50.26C119.774 52.9383 118.414 55.9198 115.736 56.9202C113.058 57.9207 110.076 56.5607 109.076 53.8825C108.075 51.2042 109.435 48.2228 112.114 47.2223C114.79 46.2218 117.773 47.5818 118.774 50.26Z" fill="url(#paint4_linear_183_28664)"/>
<path d="M117.878 56.706L117.141 55.119C116.173 54.311 114.639 54.7777 114.332 56.2975V56.8385L115.558 59.4805L117.878 56.706Z" fill="#6DB6FF"/>
<path d="M87.9609 45.2892C89.0412 48.1817 87.5723 51.401 84.6798 52.4814C81.7873 53.5617 78.5662 52.0928 77.4858 49.2003C76.4054 46.3078 77.8744 43.0867 80.7669 42.0063C83.6594 40.9278 86.8805 42.3967 87.9609 45.2892Z" fill="#24B23F"/>
<path d="M87.5706 45.4319C88.5711 48.1102 87.2111 51.0916 84.5329 52.0921C81.8546 53.0926 78.8732 51.7326 77.8727 49.0543C76.8722 46.3761 78.2322 43.3946 80.9104 42.3942C83.5887 41.3937 86.5701 42.7537 87.5706 45.4319Z" fill="url(#paint5_linear_183_28664)"/>
<path d="M88.777 46.5249L87.3189 46.2998C86.618 47.0951 86.4546 48.23 86.9013 49.1905L87.0792 49.5736L89.4996 49.9477L88.777 46.5249Z" fill="#6DB6FF"/>
<path d="M76.9053 48.7144L78.0111 48.0752L78.0492 48.0879C79.2004 48.4565 79.9594 49.5551 79.8995 50.7625L77.3011 52.2623L76.9053 48.7144Z" fill="#6DB6FF"/>
<path d="M65.1201 58.475C66.2004 61.3675 64.7315 64.5886 61.839 65.669C58.9465 66.7494 55.7253 65.2804 54.645 62.3879C53.5646 59.4954 55.0335 56.2761 57.926 55.1957C60.8185 54.1135 64.0397 55.5825 65.1201 58.475Z" fill="#24B23F"/>
<path d="M64.7317 58.6194C65.7322 61.2977 64.3722 64.2791 61.694 65.2796C59.0158 66.2801 56.0343 64.9201 55.0338 62.2418C54.0333 59.5636 55.3933 56.5821 58.0715 55.5817C60.7498 54.5812 63.7313 55.9412 64.7317 58.6194Z" fill="url(#paint6_linear_183_28664)"/>
<path d="M63.8382 65.0654L63.101 63.4784C62.1332 62.6704 60.5989 63.137 60.292 64.6568V65.1979L61.5176 67.8399L63.8382 65.0654Z" fill="#BDDEFF"/>
<path d="M73.4806 76.4895C74.5609 79.382 73.092 82.6032 70.1995 83.6817C67.307 84.7621 64.0858 83.2931 63.0073 80.4006C61.9269 77.5081 63.3959 74.2888 66.2884 73.2084C69.1808 72.1281 72.4002 73.597 73.4806 76.4895Z" fill="#24B23F"/>
<path d="M73.0921 76.635C74.0926 79.3133 72.7326 82.2948 70.0543 83.2952C67.3761 84.2957 64.3946 82.9357 63.3942 80.2575C62.3937 77.5792 63.7537 74.5978 66.4319 73.5973C69.1102 72.5968 72.0916 73.9568 73.0921 76.635Z" fill="url(#paint7_linear_183_28664)"/>
<path d="M74.2994 77.7281L72.8414 77.5029C72.1405 78.2982 71.9771 79.4331 72.4238 80.3936L72.6017 80.7768L75.0221 81.1508L74.2994 77.7281Z" fill="#BDDEFF"/>
<path d="M104.682 81.3167C105.762 84.2092 104.293 87.4303 101.401 88.5107C98.508 89.5911 95.2869 88.1221 94.2065 85.2296C93.1261 82.3371 94.5951 79.116 97.4876 78.0356C100.38 76.9552 103.601 78.4242 104.682 81.3167Z" fill="#24B23F"/>
<path d="M104.293 81.4612C105.294 84.1395 103.934 87.1209 101.256 88.1214C98.5773 89.1219 95.5958 87.7619 94.5953 85.0836C93.5948 82.4054 94.9549 79.4239 97.6331 78.4235C100.311 77.423 103.293 78.783 104.293 81.4612Z" fill="url(#paint8_linear_183_28664)"/>
<path d="M59.884 58.6595C58.9816 58.6595 58.248 58.3545 58.248 57.4502V20.4143C58.248 19.5119 58.9798 18.7783 59.884 18.7783C60.7865 18.7783 61.52 19.5101 61.52 20.4143V57.4502C61.5182 58.3545 60.7865 58.6595 59.884 58.6595Z" fill="#BDDEFF"/>
<path d="M68.2424 76.7006C67.34 76.7006 66.6064 76.3683 66.6064 75.4659V38.4299C66.6064 37.5275 67.3382 36.7939 68.2424 36.7939C69.1449 36.7939 69.8784 37.5257 69.8784 38.4299V75.4659C69.8784 76.3683 69.1449 76.7006 68.2424 76.7006Z" fill="#BDDEFF"/>
<path d="M99.4436 81.5268C98.5412 81.5268 97.8076 81.1945 97.8076 80.2921V43.2561C97.8076 42.3537 98.5394 41.6201 99.4436 41.6201C100.346 41.6201 101.08 42.3519 101.08 43.2561V80.2921C101.08 81.1945 100.348 81.5268 99.4436 81.5268Z" fill="#BDDEFF"/>
<path d="M122.284 68.3129C121.382 68.3129 120.648 68.0078 120.648 67.1036V30.0676C120.648 29.1652 121.38 28.4316 122.284 28.4316C123.187 28.4316 123.92 29.1634 123.92 30.0676V67.1036C123.92 68.006 123.189 68.3129 122.284 68.3129Z" fill="#BDDEFF"/>
<path d="M82.7239 45.4721C81.8215 45.4721 81.0879 45.167 81.0879 44.2628V7.22682C81.0879 6.32439 81.8196 5.59082 82.7239 5.59082C83.6263 5.59082 84.3599 6.32257 84.3599 7.22682V44.2628C84.3599 45.1652 83.6263 45.4721 82.7239 45.4721Z" fill="#6DB6FF"/>
<path d="M113.924 50.2992C113.022 50.2992 112.288 49.9923 112.288 49.0899V12.054C112.288 11.1515 113.02 10.418 113.924 10.418C114.827 10.418 115.56 11.1497 115.56 12.054V49.0899C115.56 49.9942 114.828 50.2992 113.924 50.2992Z" fill="#6DB6FF"/>
<path d="M120.801 29.1222L112.81 11.9016L83.0424 7.29687L60.7014 20.1959L59.0654 17.3634L82.4051 3.88867L115.04 8.93647L123.768 27.7441L120.801 29.1222Z" fill="#BDDEFF"/>
<path d="M99.7628 43.3257L67.1283 38.2761L59.2461 21.2952L62.213 19.917L69.358 35.311L99.1255 39.9157L119.752 28.0062L121.388 30.8388L99.7628 43.3257Z" fill="#BDDEFF"/>
<path d="M127.52 26.4757C128.601 29.3682 127.132 32.5876 124.239 33.6679C121.347 34.7483 118.126 33.2794 117.045 30.3869C115.965 27.4944 117.434 24.2732 120.326 23.1928C123.219 22.1143 126.44 23.5832 127.52 26.4757Z" fill="#24B23F"/>
<path d="M127.132 26.6203C128.133 29.2986 126.773 32.2801 124.094 33.2805C121.416 34.281 118.435 32.9211 117.434 30.2428C116.434 27.5646 117.794 24.5831 120.472 23.5826C123.15 22.5822 126.132 23.9421 127.132 26.6203Z" fill="url(#paint9_linear_183_28664)"/>
<path d="M125.165 25.9793C124.981 26.8545 123.81 27.3484 122.548 27.0851C121.286 26.8218 120.411 25.8994 120.595 25.0242C120.778 24.149 121.949 23.6552 123.209 23.9184C124.471 24.1835 125.346 25.1059 125.165 25.9793Z" fill="#81F695"/>
<path d="M116.467 29.9018L117.573 29.2627L117.611 29.2754C118.762 29.644 119.521 30.7425 119.461 31.95L116.864 33.4498L116.467 29.9018Z" fill="#BDDEFF"/>
<path d="M119.16 8.4621C120.24 11.3546 118.772 14.5739 115.879 15.6543C112.987 16.7347 109.765 15.2657 108.685 12.3732C107.605 9.48072 109.074 6.25957 111.966 5.17919C114.86 4.10245 118.08 5.57142 119.16 8.4621Z" fill="#24B23F"/>
<path d="M118.774 8.60749C119.774 11.2857 118.414 14.2672 115.736 15.2677C113.058 16.2682 110.076 14.9082 109.076 12.2299C108.075 9.55167 109.435 6.57021 112.114 5.56973C114.79 4.56925 117.773 5.93107 118.774 8.60749Z" fill="url(#paint10_linear_183_28664)"/>
<path d="M116.803 7.96761C116.619 8.84281 115.448 9.33671 114.188 9.07342C112.926 8.81014 112.051 7.88772 112.234 7.01252C112.418 6.13733 113.589 5.64343 114.851 5.90671C116.111 6.17181 116.986 7.09424 116.803 7.96761Z" fill="#81F695"/>
<path d="M87.9609 3.63596C89.0412 6.52846 87.5723 9.7496 84.6798 10.8282C81.7873 11.9085 78.5662 10.4396 77.4858 7.54714C76.4054 4.65464 77.8744 1.43531 80.7669 0.354935C83.6594 -0.725439 86.8805 0.743463 87.9609 3.63596Z" fill="#24B23F"/>
<path d="M87.5706 3.78153C88.5711 6.45977 87.2111 9.44124 84.5329 10.4417C81.8546 11.4422 78.8732 10.0822 77.8727 7.40395C76.8722 4.72571 78.2322 1.74425 80.9104 0.743765C83.5887 -0.256716 86.5701 1.10329 87.5706 3.78153Z" fill="url(#paint11_linear_183_28664)"/>
<path d="M88.777 4.87455L87.3189 4.64941C86.618 5.44471 86.4546 6.57952 86.9013 7.54006L87.0792 7.92324L89.4996 8.29727L88.777 4.87455Z" fill="#BDDEFF"/>
<path d="M85.6035 3.14046C85.4201 4.01566 84.2489 4.5095 82.9888 4.24622C81.7268 3.98294 80.8516 3.06057 81.035 2.18538C81.2184 1.31018 82.3896 0.816281 83.6497 1.07957C84.9117 1.34467 85.7869 2.26709 85.6035 3.14046Z" fill="#81F695"/>
<path d="M76.9053 7.06198L78.0111 6.42285L78.0492 6.4356C79.2004 6.80419 79.9594 7.90271 79.8995 9.11019L77.3011 10.61L76.9053 7.06198Z" fill="#BDDEFF"/>
<path d="M65.1201 16.8239C66.2004 19.7164 64.7315 22.9375 61.839 24.0179C58.9465 25.0983 55.7253 23.6293 54.645 20.7368C53.5646 17.8443 55.0335 14.625 57.926 13.5446C60.8185 12.4642 64.0397 13.9314 65.1201 16.8239Z" fill="#24B23F"/>
<path d="M64.7317 16.969C65.7322 19.6473 64.3722 22.6287 61.694 23.6292C59.0158 24.6297 56.0343 23.2697 55.0338 20.5915C54.0333 17.9132 55.3933 14.9317 58.0715 13.9313C60.7498 12.9308 63.7313 14.2908 64.7317 16.969Z" fill="url(#paint12_linear_183_28664)"/>
<path d="M62.7626 16.328C62.5792 17.2032 61.4081 17.697 60.148 17.4337C58.886 17.1704 58.0108 16.2481 58.1942 15.3729C58.3776 14.4977 59.5487 14.0038 60.8107 14.2671C62.0708 14.5303 62.9442 15.4528 62.7626 16.328Z" fill="#81F695"/>
<path d="M63.8382 23.4146L63.101 21.8277C62.1332 21.0196 60.5989 21.4881 60.292 23.0061V23.5472L61.5176 26.1891L63.8382 23.4146Z" fill="#BDDEFF"/>
<path d="M73.4806 34.8372C74.5609 37.7297 73.092 40.9508 70.1995 42.0294C67.307 43.1098 64.0858 41.6408 63.0073 38.7483C61.9269 35.8558 63.3959 32.6347 66.2884 31.5561C69.1808 30.4757 72.4002 31.9447 73.4806 34.8372Z" fill="#24B23F"/>
<path d="M73.0921 34.9798C74.0926 37.658 72.7326 40.6395 70.0543 41.64C67.3761 42.6405 64.3946 41.2805 63.3942 38.6022C62.3937 35.924 63.7537 32.9425 66.4319 31.942C69.1102 30.9434 72.0916 32.3034 73.0921 34.9798Z" fill="url(#paint13_linear_183_28664)"/>
<path d="M74.2994 36.0738L72.8414 35.8486C72.1405 36.6439 71.9771 37.7788 72.4238 38.7393L72.6017 39.1225L75.0221 39.4965L74.2994 36.0738Z" fill="#BDDEFF"/>
<path d="M71.1229 34.3416C70.9395 35.2168 69.7683 35.7107 68.5064 35.4474C67.2444 35.1842 66.3692 34.2617 66.5526 33.3865C66.736 32.5114 67.9071 32.0175 69.1691 32.2807C70.431 32.544 71.3062 33.4664 71.1229 34.3416Z" fill="#81F695"/>
<path d="M104.682 39.6653C105.762 42.5578 104.293 45.779 101.401 46.8593C98.508 47.9397 95.2869 46.4708 94.2065 43.5783C93.1261 40.6858 94.5951 37.4646 97.4876 36.3842C100.38 35.3039 103.601 36.7728 104.682 39.6653Z" fill="#24B23F"/>
<path d="M104.293 39.8098C105.294 42.488 103.934 45.4695 101.256 46.47C98.5773 47.4705 95.5958 46.1105 94.5953 43.4323C93.5948 40.754 94.9549 37.7726 97.6331 36.7721C100.311 35.7716 103.293 37.1316 104.293 39.8098Z" fill="url(#paint14_linear_183_28664)"/>
<path d="M102.324 39.1697C102.141 40.0449 100.969 40.5388 99.7075 40.2755C98.4456 40.0122 97.5704 39.0898 97.7538 38.2146C97.9372 37.3394 99.1083 36.8456 100.37 37.1089C101.63 37.3722 102.506 38.2945 102.324 39.1697Z" fill="#81F695"/>
<defs>
<linearGradient id="paint0_linear_183_28664" x1="58.5858" y1="84.9862" x2="137.122" y2="84.9862" gradientUnits="userSpaceOnUse">
<stop offset="0.1804" stop-color="#7C87EC"/>
<stop offset="0.768" stop-color="#CDD1F8"/>
</linearGradient>
<linearGradient id="paint1_linear_183_28664" x1="56.9095" y1="94.0042" x2="50.0954" y2="82.2016" gradientUnits="userSpaceOnUse">
<stop offset="0.0309" stop-color="#7C87EC"/>
<stop offset="0.5206" stop-color="#CDD1F8"/>
</linearGradient>
<linearGradient id="paint2_linear_183_28664" x1="31.9966" y1="107.976" x2="25.766" y2="97.1844" gradientUnits="userSpaceOnUse">
<stop offset="0.2371" stop-color="#4F4B6E"/>
<stop offset="0.8196" stop-color="#5E5A7A"/>
</linearGradient>
<linearGradient id="paint3_linear_183_28664" x1="122.283" y1="64.9082" x2="122.283" y2="75.2631" gradientUnits="userSpaceOnUse">
<stop stop-color="#8FFFA1"/>
<stop offset="0.2966" stop-color="#62DF78"/>
<stop offset="0.799" stop-color="#1AAB36"/>
</linearGradient>
<linearGradient id="paint4_linear_183_28664" x1="113.924" y1="46.8931" x2="113.924" y2="57.2478" gradientUnits="userSpaceOnUse">
<stop stop-color="#8FFFA1"/>
<stop offset="0.2966" stop-color="#62DF78"/>
<stop offset="0.799" stop-color="#1AAB36"/>
</linearGradient>
<linearGradient id="paint5_linear_183_28664" x1="82.722" y1="42.0662" x2="82.722" y2="52.4209" gradientUnits="userSpaceOnUse">
<stop stop-color="#8FFFA1"/>
<stop offset="0.2966" stop-color="#62DF78"/>
<stop offset="0.799" stop-color="#1AAB36"/>
</linearGradient>
<linearGradient id="paint6_linear_183_28664" x1="59.883" y1="55.2528" x2="59.883" y2="65.6077" gradientUnits="userSpaceOnUse">
<stop stop-color="#8FFFA1"/>
<stop offset="0.2966" stop-color="#62DF78"/>
<stop offset="0.799" stop-color="#1AAB36"/>
</linearGradient>
<linearGradient id="paint7_linear_183_28664" x1="68.2439" y1="73.2683" x2="68.2439" y2="83.623" gradientUnits="userSpaceOnUse">
<stop stop-color="#8FFFA1"/>
<stop offset="0.2966" stop-color="#62DF78"/>
<stop offset="0.799" stop-color="#1AAB36"/>
</linearGradient>
<linearGradient id="paint8_linear_183_28664" x1="99.4439" y1="78.0948" x2="99.4439" y2="88.4499" gradientUnits="userSpaceOnUse">
<stop stop-color="#8FFFA1"/>
<stop offset="0.2966" stop-color="#62DF78"/>
<stop offset="0.799" stop-color="#1AAB36"/>
</linearGradient>
<linearGradient id="paint9_linear_183_28664" x1="122.283" y1="23.2543" x2="122.283" y2="33.609" gradientUnits="userSpaceOnUse">
<stop stop-color="#8FFFA1"/>
<stop offset="0.2966" stop-color="#62DF78"/>
<stop offset="0.799" stop-color="#1AAB36"/>
</linearGradient>
<linearGradient id="paint10_linear_183_28664" x1="113.924" y1="5.2418" x2="113.924" y2="15.5965" gradientUnits="userSpaceOnUse">
<stop stop-color="#8FFFA1"/>
<stop offset="0.2966" stop-color="#62DF78"/>
<stop offset="0.799" stop-color="#1AAB36"/>
</linearGradient>
<linearGradient id="paint11_linear_183_28664" x1="82.722" y1="0.415296" x2="82.722" y2="10.77" gradientUnits="userSpaceOnUse">
<stop stop-color="#8FFFA1"/>
<stop offset="0.2966" stop-color="#62DF78"/>
<stop offset="0.799" stop-color="#1AAB36"/>
</linearGradient>
<linearGradient id="paint12_linear_183_28664" x1="59.883" y1="13.6019" x2="59.883" y2="23.9568" gradientUnits="userSpaceOnUse">
<stop stop-color="#8FFFA1"/>
<stop offset="0.2966" stop-color="#62DF78"/>
<stop offset="0.799" stop-color="#1AAB36"/>
</linearGradient>
<linearGradient id="paint13_linear_183_28664" x1="68.2439" y1="31.6143" x2="68.2439" y2="41.969" gradientUnits="userSpaceOnUse">
<stop stop-color="#8FFFA1"/>
<stop offset="0.2966" stop-color="#62DF78"/>
<stop offset="0.799" stop-color="#1AAB36"/>
</linearGradient>
<linearGradient id="paint14_linear_183_28664" x1="99.4439" y1="36.4429" x2="99.4439" y2="46.7979" gradientUnits="userSpaceOnUse">
<stop stop-color="#8FFFA1"/>
<stop offset="0.2966" stop-color="#62DF78"/>
<stop offset="0.799" stop-color="#1AAB36"/>
</linearGradient>
</defs>
</svg>
