<svg preserveAspectRatio="none" width="100%" height="100%" overflow="visible" style="display: block;" viewBox="0 0 99.773 100" fill="none" xmlns="http://www.w3.org/2000/svg">
<path id="Ellipse 3" opacity="0.5" d="M95 50C97.7614 50 100.026 52.2442 99.7502 54.9918C98.8691 63.7747 95.6741 72.2001 90.4508 79.3893C84.2444 87.9316 75.493 94.2899 65.4508 97.5528C55.4087 100.816 44.5913 100.816 34.5491 97.5528C24.507 94.2899 15.7556 87.9316 9.54915 79.3893C3.34275 70.8469 -9.23094e-07 60.559 0 50C9.23094e-07 39.441 3.34275 29.1531 9.54915 20.6107C15.7556 12.0684 24.507 5.71007 34.5492 2.44717C43.0005 -0.298838 52.0009 -0.733842 60.6262 1.14216C63.3245 1.72905 64.7591 4.57619 63.9058 7.20246V7.20246C63.0524 9.82873 60.2334 11.2327 57.5212 10.7134C50.9215 9.44993 44.081 9.8647 37.6393 11.9577C29.6056 14.5681 22.6044 19.6547 17.6393 26.4886C12.6742 33.3225 10 41.5528 10 50C10 58.4472 12.6742 66.6775 17.6393 73.5114C22.6044 80.3453 29.6056 85.4319 37.6393 88.0423C45.6731 90.6526 54.3269 90.6526 62.3607 88.0423C70.3944 85.4319 77.3956 80.3453 82.3607 73.5114C86.3419 68.0318 88.8502 61.6543 89.6879 54.9871C90.0322 52.2473 92.2386 50 95 50V50Z" fill="url(#paint0_linear_0_8)"/>
<defs>
<linearGradient id="paint0_linear_0_8" x1="8.65384" y1="31.0897" x2="98.718" y2="55.1282" gradientUnits="userSpaceOnUse">
<stop stop-color="white"/>
<stop offset="1" stop-color="white" stop-opacity="0"/>
</linearGradient>
</defs>
</svg>
