<svg preserveAspectRatio="none" width="100%" height="100%" overflow="visible" style="display: block;" viewBox="0 0 95.9878 50.0001" fill="none" xmlns="http://www.w3.org/2000/svg">
<path id="Ellipse 3" opacity="0.5" d="M91.2148 50.0001C93.9762 50.0001 96.2407 47.7558 95.9651 45.0081C94.9501 34.8909 90.8677 25.2792 84.2056 17.4932C76.4555 8.43565 65.7243 2.44504 53.9469 0.601588C42.1696 -1.24187 30.1211 1.18314 19.974 7.43935C11.2515 12.8172 4.42729 20.7218 0.369377 30.045C-0.73267 32.577 0.737732 35.4059 3.36708 36.2497V36.2497C5.99643 37.0935 8.78395 35.6278 9.94897 33.1242C13.2351 26.0622 18.5303 20.0774 25.2221 15.9515C33.3398 10.9465 42.9786 9.00653 52.4005 10.4813C61.8224 11.9561 70.4074 16.7485 76.6075 23.9946C81.7185 29.9679 84.9317 37.2845 85.9028 45.0129C86.247 47.7528 88.4534 50.0001 91.2148 50.0001V50.0001Z" fill="url(#paint0_linear_0_10)"/>
<defs>
<linearGradient id="paint0_linear_0_10" x1="4.86864" y1="31.0899" x2="94.9327" y2="55.1283" gradientUnits="userSpaceOnUse">
<stop stop-color="white"/>
<stop offset="1" stop-color="white" stop-opacity="0"/>
</linearGradient>
</defs>
</svg>
