<svg width="51" height="94" viewBox="0 0 51 94" fill="none" xmlns="http://www.w3.org/2000/svg">
<path d="M13.8164 93.05L49.1264 72.664C50.8704 71.657 50.6494 69.882 48.6354 68.719L43.3194 65.65C41.3054 64.487 38.2304 64.36 36.4864 65.367L1.17638 85.753C-0.567621 86.76 -0.346622 88.535 1.66738 89.698L6.98338 92.767C8.99738 93.93 12.0714 94.058 13.8164 93.05Z" fill="#1E3C63"/>
<path d="M45.5473 61.9439C46.7253 65.0989 45.1233 68.6119 41.9683 69.7899C38.8133 70.9679 35.3003 69.3659 34.1223 66.2109C32.9443 63.0559 34.5463 59.5429 37.7013 58.3649C40.8563 57.1859 44.3693 58.7889 45.5473 61.9439Z" fill="#5B8BFC"/>
<path d="M45.124 62.1016C46.215 65.0226 44.732 68.2756 41.811 69.3666C38.89 70.4576 35.637 68.9746 34.546 66.0536C33.455 63.1326 34.938 59.8796 37.859 58.7886C40.78 57.6966 44.033 59.1806 45.124 62.1016Z" fill="url(#paint0_linear_183_28821)"/>
<path d="M42.9761 61.4026C42.7771 62.3566 41.4991 62.8966 40.1231 62.6086C38.7471 62.3206 37.7931 61.3146 37.9921 60.3606C38.1911 59.4066 39.4691 58.8666 40.8451 59.1546C42.2221 59.4426 43.1761 60.4486 42.9761 61.4026Z" fill="#6178FF"/>
<path d="M39.8573 55.3344C40.9113 58.1564 39.4783 61.2994 36.6563 62.3534C33.8343 63.4074 30.6913 61.9744 29.6373 59.1524C28.5833 56.3304 30.0163 53.1874 32.8383 52.1334C35.6603 51.0794 38.8033 52.5124 39.8573 55.3344Z" fill="#61FF7B"/>
<path d="M39.478 55.4764C40.454 58.0894 39.127 60.9995 36.514 61.9755C33.901 62.9515 30.991 61.6244 30.015 59.0114C29.039 56.3984 30.366 53.4885 32.979 52.5125C35.593 51.5355 38.502 52.8634 39.478 55.4764Z" fill="url(#paint1_linear_183_28821)"/>
<path d="M37.5586 54.8515C37.3806 55.7045 36.2376 56.1875 35.0066 55.9305C33.7756 55.6735 32.9216 54.7725 33.0996 53.9195C33.2776 53.0665 34.4206 52.5835 35.6516 52.8405C36.8826 53.0975 37.7366 53.9975 37.5586 54.8515Z" fill="#61FF7B"/>
<path d="M36.3071 47.7355C37.4861 50.8905 35.8831 54.4035 32.7281 55.5815C29.5731 56.7595 26.0601 55.1575 24.8821 52.0025C23.7041 48.8475 25.3061 45.3345 28.4611 44.1565C31.6161 42.9785 35.1291 44.5805 36.3071 47.7355Z" fill="#5B8BFC"/>
<path d="M35.8837 47.8936C36.9747 50.8146 35.4917 54.0676 32.5707 55.1586C29.6497 56.2496 26.3967 54.7666 25.3057 51.8446C24.2147 48.9236 25.6977 45.6716 28.6187 44.5796C31.5397 43.4896 34.7927 44.9726 35.8837 47.8936Z" fill="url(#paint2_linear_183_28821)"/>
<path d="M33.7358 47.1956C33.5368 48.1496 32.2588 48.6896 30.8828 48.4016C29.5068 48.1136 28.5528 47.1076 28.7518 46.1536C28.9508 45.1996 30.2288 44.6596 31.6048 44.9476C32.9818 45.2346 33.9358 46.2416 33.7358 47.1956Z" fill="#6178FF"/>
<path d="M20.0981 55.9312C19.4641 54.8342 19.8401 53.4302 20.9381 52.7962L25.9801 49.8852C27.0771 49.2512 28.4811 49.6272 29.1141 50.7252C29.7481 51.8222 29.3721 53.2262 28.2741 53.8602L23.2321 56.7712C22.1361 57.4042 20.7321 57.0282 20.0981 55.9312Z" fill="url(#paint3_linear_183_28821)"/>
<path d="M15.8852 68.1352C15.2512 67.0372 15.6272 65.6342 16.7252 65.0002L30.1322 57.2592C31.2292 56.6252 32.6332 57.0012 33.2672 58.0992C33.9012 59.1962 33.5252 60.6002 32.4272 61.2342L19.0202 68.9752C17.9222 69.6082 16.5192 69.2322 15.8852 68.1352Z" fill="url(#paint4_linear_183_28821)"/>
<path d="M11.4721 80.4535C10.8381 79.3555 11.2141 77.9525 12.3121 77.3185L35.2191 64.0925C36.3161 63.4595 37.7201 63.8355 38.3541 64.9325C38.9881 66.0295 38.6121 67.4335 37.5141 68.0675L14.6071 81.2935C13.5091 81.9265 12.1061 81.5505 11.4721 80.4535Z" fill="url(#paint5_linear_183_28821)"/>
<path d="M30.7997 40.9998C31.8537 43.8218 30.4207 46.9648 27.5987 48.0188C24.7767 49.0728 21.6337 47.6398 20.5797 44.8178C19.5257 41.9958 20.9587 38.8528 23.7807 37.7988C26.6027 36.7438 29.7447 38.1778 30.7997 40.9998Z" fill="#61FF7B"/>
<path d="M30.4204 41.1411C31.3964 43.7541 30.0694 46.6641 27.4564 47.6401C24.8434 48.6161 21.9334 47.2891 20.9574 44.6761C19.9814 42.0631 21.3084 39.1531 23.9214 38.1771C26.5344 37.2011 29.4444 38.5281 30.4204 41.1411Z" fill="url(#paint6_linear_183_28821)"/>
<path d="M28.4993 40.5156C28.3213 41.3686 27.1783 41.8516 25.9473 41.5946C24.7163 41.3376 23.8623 40.4366 24.0413 39.5836C24.2193 38.7306 25.3623 38.2476 26.5933 38.5046C27.8243 38.7626 28.6773 39.6626 28.4993 40.5156Z" fill="#61FF7B"/>
<path d="M35.4071 28.5687C36.4611 31.3907 35.0281 34.5337 32.2051 35.5877C29.3831 36.6417 26.2401 35.2087 25.1861 32.3857C24.1321 29.5637 25.5651 26.4207 28.3871 25.3667C31.2101 24.3127 34.3531 25.7467 35.4071 28.5687Z" fill="#61FF7B"/>
<path d="M35.0278 28.7109C36.0038 31.3239 34.6768 34.2339 32.0638 35.2099C29.4508 36.1859 26.5408 34.8589 25.5648 32.2459C24.5888 29.6329 25.9158 26.7229 28.5288 25.7469C31.1428 24.7699 34.0518 26.0969 35.0278 28.7109Z" fill="url(#paint7_linear_183_28821)"/>
<path d="M33.1075 28.0859C32.9295 28.9389 31.7865 29.4219 30.5555 29.1649C29.3245 28.9079 28.4705 28.0069 28.6485 27.1539C28.8265 26.3009 29.9695 25.8179 31.2005 26.0749C32.4325 26.3319 33.2855 27.2319 33.1075 28.0859Z" fill="#61FF7B"/>
<path d="M44.9354 3.54774C45.9894 6.36974 44.5564 9.51275 41.7334 10.5668C38.9114 11.6208 35.7684 10.1877 34.7144 7.36474C33.6604 4.54174 35.0934 1.39974 37.9164 0.345744C40.7384 -0.707256 43.8814 0.72574 44.9354 3.54774Z" fill="#61FF7B"/>
<path d="M44.5571 3.68934C45.5331 6.30234 44.2061 9.21234 41.5931 10.1883C38.9801 11.1643 36.0701 9.83734 35.0941 7.22434C34.1181 4.61134 35.4451 1.70135 38.0581 0.725347C40.6711 -0.251653 43.5801 1.07634 44.5571 3.68934Z" fill="url(#paint8_linear_183_28821)"/>
<path d="M42.6358 3.06438C42.4578 3.91738 41.3148 4.40039 40.0838 4.14339C38.8528 3.88639 37.9988 2.98539 38.1768 2.13239C38.3548 1.27939 39.4978 0.796393 40.7288 1.05339C41.9608 1.31039 42.8148 2.21038 42.6358 3.06438Z" fill="#61FF7B"/>
<path d="M35.7357 23.6862C39.1035 23.6862 41.8337 20.9561 41.8337 17.5882C41.8337 14.2204 39.1035 11.4902 35.7357 11.4902C32.3679 11.4902 29.6377 14.2204 29.6377 17.5882C29.6377 20.9561 32.3679 23.6862 35.7357 23.6862Z" fill="#5B8BFC"/>
<path d="M41.0244 15.6133C42.1154 18.5343 40.6324 21.7873 37.7114 22.8783C34.7904 23.9693 31.5374 22.4863 30.4464 19.5653C29.3554 16.6443 30.8384 13.3913 33.7594 12.3003C36.6814 11.2083 39.9334 12.6923 41.0244 15.6133Z" fill="url(#paint9_linear_183_28821)"/>
<path d="M38.8777 14.9143C38.6787 15.8683 37.4007 16.4083 36.0247 16.1203C34.6487 15.8323 33.6937 14.8263 33.8937 13.8723C34.0927 12.9183 35.3707 12.3783 36.7467 12.6663C38.1227 12.9543 39.0767 13.9603 38.8777 14.9143Z" fill="#6178FF"/>
<path d="M11.0102 22.0931C10.3762 20.9951 10.7522 19.5921 11.8502 18.9581L35.2102 5.47113C36.3072 4.83713 37.7112 5.21313 38.3442 6.31113C38.9782 7.40813 38.6022 8.81214 37.5042 9.44614L14.1442 22.9331C13.0472 23.5671 11.6442 23.1911 11.0102 22.0931Z" fill="url(#paint10_linear_183_28821)"/>
<path d="M14.4135 29.9C13.7795 28.802 14.1555 27.399 15.2535 26.765L31.1225 17.603C32.2195 16.969 33.6235 17.345 34.2565 18.443C34.8905 19.541 34.5145 20.944 33.4165 21.578L17.5475 30.74C16.4505 31.373 15.0475 30.997 14.4135 29.9Z" fill="url(#paint11_linear_183_28821)"/>
<path d="M21.2651 35.6931C20.6311 34.5951 21.0071 33.1921 22.1051 32.5581L27.1621 29.6381C28.2591 29.0041 29.6631 29.3801 30.2961 30.4781C30.9301 31.5761 30.5541 32.9791 29.4561 33.6131L24.3991 36.5331C23.3021 37.1661 21.8991 36.7901 21.2651 35.6931Z" fill="url(#paint12_linear_183_28821)"/>
<path d="M26.9789 33.5587C28.1569 36.7137 26.5549 40.2267 23.3999 41.4047C20.2449 42.5827 16.7319 40.9807 15.5539 37.8257C14.3759 34.6707 15.9779 31.1577 19.1329 29.9797C22.2869 28.8017 25.7999 30.4037 26.9789 33.5587Z" fill="#5B8BFC"/>
<path d="M26.5546 33.7164C27.6456 36.6374 26.1626 39.8904 23.2416 40.9814C20.3206 42.0724 17.0676 40.5894 15.9766 37.6684C14.8856 34.7474 16.3686 31.4944 19.2896 30.4034C22.2116 29.3124 25.4636 30.7954 26.5546 33.7164Z" fill="url(#paint13_linear_183_28821)"/>
<path d="M24.4079 33.0178C24.2089 33.9718 22.9309 34.5119 21.5549 34.2239C20.1789 33.9359 19.2239 32.9299 19.4239 31.9759C19.6229 31.0219 20.9009 30.4818 22.2769 30.7698C23.6529 31.0578 24.6069 32.0648 24.4079 33.0178Z" fill="#6178FF"/>
<path d="M19.5233 27.991C20.5773 30.813 19.1443 33.956 16.3213 35.01C13.4993 36.064 10.3563 34.631 9.30232 31.809C8.24832 28.987 9.68132 25.844 12.5043 24.79C15.3263 23.735 18.4693 25.169 19.5233 27.991Z" fill="#61FF7B"/>
<path d="M19.144 28.1327C20.12 30.7457 18.793 33.6557 16.18 34.6317C13.567 35.6077 10.657 34.2807 9.681 31.6677C8.705 29.0547 10.032 26.1447 12.645 25.1687C15.259 24.1917 18.168 25.5197 19.144 28.1327Z" fill="url(#paint14_linear_183_28821)"/>
<path d="M17.2237 27.5081C17.0457 28.3611 15.9027 28.8441 14.6717 28.5871C13.4407 28.3301 12.5867 27.4291 12.7647 26.5761C12.9427 25.7231 14.0857 25.2391 15.3167 25.4971C16.5487 25.7541 17.4027 26.6541 17.2237 27.5081Z" fill="#61FF7B"/>
<path d="M16.7235 19.9601C17.9025 23.1151 16.2995 26.6281 13.1445 27.8061C9.98949 28.9841 6.47649 27.3821 5.29849 24.2271C4.11949 21.0721 5.72248 17.5591 8.87748 16.3811C12.0325 15.2031 15.5445 16.8051 16.7235 19.9601Z" fill="#5B8BFC"/>
<path d="M16.2998 20.1182C17.3908 23.0392 15.9078 26.2922 12.9868 27.3832C10.0658 28.4742 6.81275 26.9912 5.72175 24.0702C4.63075 21.1492 6.11375 17.8962 9.03475 16.8052C11.9568 15.7132 15.2088 17.1972 16.2998 20.1182Z" fill="url(#paint15_linear_183_28821)"/>
<path d="M14.1521 19.4192C13.9531 20.3732 12.6751 20.9132 11.2991 20.6252C9.92307 20.3372 8.96807 19.3312 9.16807 18.3772C9.36707 17.4232 10.6451 16.8832 12.0211 17.1712C13.3971 17.4592 14.3511 18.4652 14.1521 19.4192Z" fill="#6178FF"/>
<path d="M21.5971 66.0011C22.7751 69.1561 21.1731 72.6691 18.0181 73.8471C14.8631 75.0251 11.3501 73.4231 10.1721 70.2681C8.99411 67.1131 10.5961 63.6001 13.7511 62.4221C16.9061 61.2441 20.4191 62.8461 21.5971 66.0011Z" fill="#5B8BFC"/>
<path d="M21.1737 66.1588C22.2647 69.0798 20.7807 72.3328 17.8607 73.4238C14.9397 74.5148 11.6867 73.0318 10.5957 70.1108C9.50466 67.1898 10.9887 63.9368 13.9087 62.8458C16.8297 61.7548 20.0827 63.2378 21.1737 66.1588Z" fill="url(#paint16_linear_183_28821)"/>
<path d="M19.0271 65.4602C18.8281 66.4142 17.5501 66.9542 16.1741 66.6662C14.7981 66.3782 13.8431 65.3722 14.0431 64.4182C14.2421 63.4642 15.5201 62.9242 16.8961 63.2122C18.2721 63.5002 19.2261 64.5072 19.0271 65.4602Z" fill="#6178FF"/>
<path d="M25.2098 54.0218C26.2638 56.8438 24.8308 59.9868 22.0078 61.0408C19.1848 62.0948 16.0428 60.6618 14.9888 57.8388C13.9348 55.0168 15.3678 51.8738 18.1908 50.8198C21.0128 49.7658 24.1558 51.1998 25.2098 54.0218Z" fill="#61FF7B"/>
<path d="M24.8305 54.1641C25.8065 56.7771 24.4795 59.6871 21.8665 60.6631C19.2535 61.6391 16.3435 60.3121 15.3675 57.6991C14.3915 55.0861 15.7185 52.1761 18.3315 51.2001C20.9445 50.2231 23.8545 51.5501 24.8305 54.1641Z" fill="url(#paint17_linear_183_28821)"/>
<path d="M22.9102 53.539C22.7322 54.392 21.5892 54.875 20.3582 54.618C19.1272 54.361 18.2732 53.46 18.4512 52.607C18.6292 51.754 19.7722 51.271 21.0032 51.528C22.2352 51.785 23.0882 52.685 22.9102 53.539Z" fill="#61FF7B"/>
<path d="M16.5839 78.5442C17.6379 81.3662 16.2049 84.5092 13.3829 85.5632C10.5609 86.6172 7.41785 85.1842 6.36385 82.3612C5.30985 79.5392 6.74285 76.3962 9.56485 75.3422C12.3869 74.2882 15.5289 75.7222 16.5839 78.5442Z" fill="#61FF7B"/>
<path d="M16.2045 78.685C17.1805 81.298 15.8535 84.208 13.2405 85.184C10.6275 86.16 7.71754 84.833 6.74154 82.22C5.76554 79.607 7.09254 76.697 9.70554 75.721C12.3185 74.745 15.2285 76.072 16.2045 78.685Z" fill="url(#paint18_linear_183_28821)"/>
<path d="M14.2835 78.0605C14.1055 78.9135 12.9625 79.3965 11.7315 79.1395C10.5005 78.8825 9.64647 77.9815 9.82547 77.1285C10.0035 76.2755 11.1465 75.7925 12.3775 76.0495C13.6085 76.3075 14.4615 77.2075 14.2835 78.0605Z" fill="#61FF7B"/>
<defs>
<linearGradient id="paint0_linear_183_28821" x1="39.8346" y1="58.4292" x2="39.8346" y2="69.7243" gradientUnits="userSpaceOnUse">
<stop stop-color="#6178FF"/>
<stop offset="0.0822" stop-color="#5870FA"/>
<stop offset="0.799" stop-color="#102CCF"/>
</linearGradient>
<linearGradient id="paint1_linear_183_28821" x1="34.7469" y1="52.1912" x2="34.7469" y2="62.2957" gradientUnits="userSpaceOnUse">
<stop stop-color="#61FF7B"/>
<stop offset="0.0822" stop-color="#58F673"/>
<stop offset="0.799" stop-color="#10AE2F"/>
</linearGradient>
<linearGradient id="paint2_linear_183_28821" x1="30.5946" y1="44.222" x2="30.5946" y2="55.5171" gradientUnits="userSpaceOnUse">
<stop stop-color="#6178FF"/>
<stop offset="0.0822" stop-color="#5870FA"/>
<stop offset="0.799" stop-color="#102CCF"/>
</linearGradient>
<linearGradient id="paint3_linear_183_28821" x1="25.754" y1="55.3153" x2="23.4591" y2="51.3405" gradientUnits="userSpaceOnUse">
<stop offset="0.201" stop-color="#579BCF"/>
<stop offset="0.8033" stop-color="#9FCEF3"/>
<stop offset="1" stop-color="#B8E0FF"/>
</linearGradient>
<linearGradient id="paint4_linear_183_28821" x1="25.7232" y1="65.1042" x2="23.4285" y2="61.1295" gradientUnits="userSpaceOnUse">
<stop offset="0.201" stop-color="#579BCF"/>
<stop offset="0.8033" stop-color="#9FCEF3"/>
<stop offset="1" stop-color="#B8E0FF"/>
</linearGradient>
<linearGradient id="paint5_linear_183_28821" x1="26.0607" y1="74.6802" x2="23.7659" y2="70.7055" gradientUnits="userSpaceOnUse">
<stop offset="0.201" stop-color="#579BCF"/>
<stop offset="0.8033" stop-color="#9FCEF3"/>
<stop offset="1" stop-color="#B8E0FF"/>
</linearGradient>
<linearGradient id="paint6_linear_183_28821" x1="25.6888" y1="37.8566" x2="25.6888" y2="47.9611" gradientUnits="userSpaceOnUse">
<stop stop-color="#61FF7B"/>
<stop offset="0.0822" stop-color="#58F673"/>
<stop offset="0.799" stop-color="#10AE2F"/>
</linearGradient>
<linearGradient id="paint7_linear_183_28821" x1="30.2964" y1="25.4256" x2="30.2964" y2="35.5301" gradientUnits="userSpaceOnUse">
<stop stop-color="#61FF7B"/>
<stop offset="0.0822" stop-color="#58F673"/>
<stop offset="0.799" stop-color="#10AE2F"/>
</linearGradient>
<linearGradient id="paint8_linear_183_28821" x1="39.825" y1="0.404145" x2="39.825" y2="10.5086" gradientUnits="userSpaceOnUse">
<stop stop-color="#61FF7B"/>
<stop offset="0.0822" stop-color="#58F673"/>
<stop offset="0.799" stop-color="#10AE2F"/>
</linearGradient>
<linearGradient id="paint9_linear_183_28821" x1="35.7357" y1="11.9412" x2="35.7357" y2="23.2363" gradientUnits="userSpaceOnUse">
<stop stop-color="#6178FF"/>
<stop offset="0.0822" stop-color="#5870FA"/>
<stop offset="0.799" stop-color="#102CCF"/>
</linearGradient>
<linearGradient id="paint10_linear_183_28821" x1="25.825" y1="16.19" x2="23.5303" y2="12.2154" gradientUnits="userSpaceOnUse">
<stop offset="0.201" stop-color="#579BCF"/>
<stop offset="0.8033" stop-color="#9FCEF3"/>
<stop offset="1" stop-color="#B8E0FF"/>
</linearGradient>
<linearGradient id="paint11_linear_183_28821" x1="25.4821" y1="26.1588" x2="23.1875" y2="22.1843" gradientUnits="userSpaceOnUse">
<stop offset="0.201" stop-color="#579BCF"/>
<stop offset="0.8033" stop-color="#9FCEF3"/>
<stop offset="1" stop-color="#B8E0FF"/>
</linearGradient>
<linearGradient id="paint12_linear_183_28821" x1="26.9284" y1="35.0727" x2="24.6337" y2="31.0981" gradientUnits="userSpaceOnUse">
<stop offset="0.201" stop-color="#579BCF"/>
<stop offset="0.8033" stop-color="#9FCEF3"/>
<stop offset="1" stop-color="#B8E0FF"/>
</linearGradient>
<linearGradient id="paint13_linear_183_28821" x1="21.2659" y1="30.0445" x2="21.2659" y2="41.3396" gradientUnits="userSpaceOnUse">
<stop stop-color="#6178FF"/>
<stop offset="0.0822" stop-color="#5870FA"/>
<stop offset="0.799" stop-color="#102CCF"/>
</linearGradient>
<linearGradient id="paint14_linear_183_28821" x1="14.4128" y1="24.8475" x2="14.4128" y2="34.952" gradientUnits="userSpaceOnUse">
<stop stop-color="#61FF7B"/>
<stop offset="0.0822" stop-color="#58F673"/>
<stop offset="0.799" stop-color="#10AE2F"/>
</linearGradient>
<linearGradient id="paint15_linear_183_28821" x1="11.0111" y1="16.4461" x2="11.0111" y2="27.7412" gradientUnits="userSpaceOnUse">
<stop stop-color="#6178FF"/>
<stop offset="0.0822" stop-color="#5870FA"/>
<stop offset="0.799" stop-color="#102CCF"/>
</linearGradient>
<linearGradient id="paint16_linear_183_28821" x1="15.8845" y1="62.4869" x2="15.8845" y2="73.782" gradientUnits="userSpaceOnUse">
<stop stop-color="#6178FF"/>
<stop offset="0.0822" stop-color="#5870FA"/>
<stop offset="0.799" stop-color="#102CCF"/>
</linearGradient>
<linearGradient id="paint17_linear_183_28821" x1="20.099" y1="50.8787" x2="20.099" y2="60.9832" gradientUnits="userSpaceOnUse">
<stop stop-color="#61FF7B"/>
<stop offset="0.0822" stop-color="#58F673"/>
<stop offset="0.799" stop-color="#10AE2F"/>
</linearGradient>
<linearGradient id="paint18_linear_183_28821" x1="11.4729" y1="75.4005" x2="11.4729" y2="85.505" gradientUnits="userSpaceOnUse">
<stop stop-color="#61FF7B"/>
<stop offset="0.0822" stop-color="#58F673"/>
<stop offset="0.799" stop-color="#10AE2F"/>
</linearGradient>
</defs>
</svg>
