<svg width="248" height="136" viewBox="0 0 248 136" fill="none" xmlns="http://www.w3.org/2000/svg">
<rect y="12" width="248" height="124" rx="62" fill="#674BB3"/>
<path d="M116 86C116 113.614 93.6142 136 66 136C38.3858 136 16 113.614 16 86C16 58.3858 38.3858 36 66 36C93.6142 36 116 58.3858 116 86ZM33.4924 86C33.4924 103.953 48.0466 118.508 66 118.508C83.9534 118.508 98.5076 103.953 98.5076 86C98.5076 68.0466 83.9534 53.4924 66 53.4924C48.0466 53.4924 33.4924 68.0466 33.4924 86Z" fill="white" fill-opacity="0.1"/>
<mask id="mask0_176_21809" style="mask-type:alpha" maskUnits="userSpaceOnUse" x="0" y="-12" width="248" height="148">
<path d="M0 -12H248V74C248 108.242 220.242 136 186 136H62C27.7583 136 0 108.242 0 74V-12Z" fill="#674BB3"/>
</mask>
<g mask="url(#mask0_176_21809)">
<path d="M180.102 35.5077C177.729 33.6815 178.245 31.8552 178.233 31.711C178.233 31.711 174.066 31.4227 173.445 31.4707C172.823 31.5188 167.605 36.9013 165.881 38.6795C164.157 40.4577 163.926 46.7053 163.972 47.1378C164.018 47.5703 168.91 59.2485 168.91 59.2485L180.883 60.1616C180.883 60.1616 190.361 52.8086 189.664 46.4169C188.967 40.0252 182.475 37.3339 180.102 35.5077Z" fill="#1B3338"/>
<path d="M172.916 34.6224C172.767 34.559 172.667 34.5173 172.627 34.4976L172.424 34.9452L172.632 34.5002L172.424 34.946L172.216 35.3922C172.27 35.4206 172.348 35.4538 172.585 35.5543C179.209 38.362 182.959 41.2794 183.145 43.7696C183.43 47.5792 179.964 53.2679 179.027 54.7272L178.236 54.3147C178.702 53.6053 179.583 52.1884 180.308 50.5852C181.745 47.4109 181.829 45.1492 180.558 43.8629C177.862 41.1345 169.291 37.622 168.927 37.4738L168.381 37.2511L167.507 41.4554L168.142 41.5009C168.177 41.5034 171.663 41.7738 172.604 43.6011C173.31 44.974 171.622 48.8249 170.392 50.9299L171.289 51.4966C171.642 50.8926 174.705 45.5281 173.508 43.2007C172.554 41.3478 169.964 40.7441 168.756 40.5597L169.156 38.64C171.102 39.4656 177.699 42.3599 179.858 44.5442C181.766 46.4753 178.484 52.1413 177.058 54.1617L176.724 54.6348L179.426 56.0438L179.662 55.6967C179.86 55.405 184.52 48.4983 184.167 43.7813C183.887 40.034 177.894 36.7322 172.916 34.6224Z" fill="#132528"/>
<path d="M172.424 34.9455L172.424 34.9462L172.632 34.5005L172.424 34.9455Z" fill="#132528"/>
<path d="M170.319 35.5576L158.29 40.5906C158.29 40.5906 159.213 48.1983 159.181 48.4896C159.149 48.781 152.431 51.342 152.269 51.342C152.269 51.342 159.199 67.7969 164.659 69.6543C170.12 71.5118 178.265 50.6159 178.265 50.6159C178.265 50.6159 173.153 49.4882 171.778 48.4931C170.403 47.4981 170.319 35.5576 170.319 35.5576Z" fill="#D57163"/>
<path d="M158.289 40.5906C158.289 40.5906 159.212 48.1969 159.18 48.4896C159.151 48.7531 158.038 49.0731 157.849 49.1713C157.477 49.3651 157.553 49.4668 157.582 49.861C157.615 50.3085 157.615 50.7612 157.631 51.2097C157.637 51.3625 157.647 51.5292 157.75 51.6426C157.822 51.7214 157.927 51.7605 158.028 51.7937C158.993 52.1097 160.028 52.1442 161.043 52.1015C163.227 52.0097 165.445 51.5516 167.291 50.3849C168.043 49.9097 168.719 49.3259 169.359 48.7115C169.68 48.4038 170.005 48.0938 170.306 47.767C170.328 47.7433 170.374 47.6996 170.434 47.6441C170.677 47.4181 171.146 46.9944 171.127 46.9042C170.374 43.402 170.319 35.5576 170.319 35.5576L158.289 40.5906Z" fill="#A94D43"/>
<path d="M64.8047 8.6582L91.9658 13.25C92.5093 13.342 92.9585 13.7251 93.1357 14.2471L96.7949 25.0205C97.1599 26.0957 96.2437 27.1707 95.124 26.9814L67.9639 22.3906C67.4203 22.2987 66.9713 21.9156 66.7939 21.3936L63.1348 10.6201C62.7697 9.54498 63.6852 8.46932 64.8047 8.6582Z" fill="#E8F5F6" stroke="#674BB3"/>
<path d="M78.8389 12.5005L79.3445 13.8504L91.5293 15.9858L91.0432 14.5541L78.8389 12.5005Z" fill="#E05A5A"/>
<path d="M65.6436 10.2803L66.1298 11.712L76.236 13.4972L75.7201 12.0604L65.6436 10.2803Z" fill="#4FA2A4"/>
<path d="M82.0264 15.8628L82.4386 17.0767L92.4319 18.6476L92.0196 17.4336L82.0264 15.8628Z" fill="#B6CDC6"/>
<path d="M86.0479 18.0171L86.4601 19.231L92.9786 20.2558L92.5664 19.0418L86.0479 18.0171Z" fill="#B6CDC6"/>
<path d="M85.3564 19.4302L85.7687 20.6441L93.5258 21.8635L93.1137 20.6496L85.3564 19.4302Z" fill="#B6CDC6"/>
<path d="M88.8623 21.5039L89.2745 22.7178L94.0711 23.4718L93.6588 22.258L88.8623 21.5039Z" fill="#B6CDC6"/>
<path d="M87.2539 23.0981L87.6661 24.3121L94.7333 25.423L94.3211 24.209L87.2539 23.0981Z" fill="#B6CDC6"/>
<path d="M66.4385 13.04L66.8508 14.254L76.844 15.8249L76.4318 14.611L66.4385 13.04Z" fill="#B6CDC6"/>
<path d="M70.46 15.1938L70.8722 16.4078L77.3907 17.4324L76.9785 16.2185L70.46 15.1938Z" fill="#B6CDC6"/>
<path d="M69.7666 16.6069L70.1789 17.8208L77.936 19.0403L77.5238 17.8263L69.7666 16.6069Z" fill="#B6CDC6"/>
<path d="M73.2725 18.6807L73.6847 19.8946L78.4812 20.6486L78.069 19.4346L73.2725 18.6807Z" fill="#B6CDC6"/>
<path d="M71.666 20.2749L72.0782 21.4888L79.1454 22.5998L78.7332 21.3859L71.666 20.2749Z" fill="#B6CDC6"/>
<path d="M221.767 67.0116C221.066 66.5747 196.023 62.7296 195.76 62.8023C195.76 62.8023 185.34 111.143 185.603 111.667C185.865 112.192 215.274 117.173 215.274 117.173C215.274 117.173 223.693 70.5072 223.693 69.546C223.693 68.5847 222.467 67.4486 221.767 67.0116Z" fill="#1B3338"/>
<path d="M162.142 60.2919C156.405 60.2919 156.419 50.3359 156.419 50.3359L143.464 109.312L167.475 110.485L173.302 51.8481C173.302 51.8481 165.107 60.2919 162.142 60.2919Z" fill="#4FA2A4"/>
<path d="M170.486 54.5815C170.293 54.7602 170.095 54.9427 169.891 55.1281C170.09 55.7005 170.28 56.2437 170.387 56.55C166.407 59.5134 161.948 62.49 161.244 62.4354C161.069 62.4072 160.735 62.1524 160.293 61.7342L162.837 60.1724C162.583 60.2492 162.349 60.2918 162.142 60.2918C161.861 60.2918 161.594 60.2672 161.341 60.2218L159.752 61.1971C158.515 59.9216 156.768 57.8434 155.212 55.8325L155.005 56.7735C156.531 58.7202 159.988 62.9829 161.126 63.1665C161.162 63.1722 161.204 63.1789 161.26 63.1789C161.632 63.1789 162.64 62.8886 166.667 60.1202C168.907 58.5804 171.028 56.9963 171.049 56.9803L171.266 56.8179L171.177 56.5619C170.968 55.9667 170.715 55.2402 170.486 54.5815Z" fill="#409191"/>
<path d="M155.481 46.5482C154.287 46.2942 152.974 45.7271 152.974 45.7271L151.597 48.0292C146.351 51.0527 141.353 54.5725 140.638 54.8751C139.92 55.1791 128.732 83.688 124.283 100.793C124.229 101.003 133.895 106.584 133.895 106.584C133.895 106.584 136.558 105.711 137.38 105.89C140.904 106.659 151.321 109.532 151.747 109.362C151.964 109.276 151.443 91.682 151.895 87.8708C153.232 76.6195 158.383 55.4111 159.048 50.1895C159.298 48.2213 159.048 47.0752 159.048 47.0752C159.048 47.0752 156.805 46.8301 155.481 46.5482Z" fill="#E8F5F6"/>
<path d="M140.703 78.5747L138.3 103.106L139.038 103.178L141.441 78.6467L140.703 78.5747Z" fill="#B2D3CC"/>
<path d="M193.901 101.045C197.718 82.9463 198.704 57.7642 197.564 56.0437C194.336 51.173 176.67 45.2706 176.67 45.2706C176.67 45.2706 177.249 41.9206 172.817 40.5381C172.817 40.5381 172.054 41.8257 170.64 43.1663C170.64 43.1663 166.2 74.2232 165.266 78.9888C164.331 83.7544 165.362 110.982 165.362 110.982L197.564 114.394L189.056 109.557C189.056 109.557 192.788 106.318 193.901 101.045Z" fill="#E8F5F6"/>
<path d="M-2 106.709V136.435H239.383V118.38L30.7502 86.501L-2 106.709Z" fill="white"/>
<path d="M54.147 88.7729C54.147 88.7729 36.2736 111.145 36.9328 112.181C37.5921 113.217 69.0435 118.423 73.7583 118.54C74.098 118.549 87.3532 93.6976 86.1171 92.5521C84.8809 91.4067 55.7128 88.4337 54.147 88.7729Z" fill="#E8F5F6"/>
<path opacity="0.19" d="M53.4662 96.5751L50.1331 96.2427C50.1331 96.2427 44.5927 107.387 44.9977 107.953C45.4027 108.519 49.311 109.886 49.9425 109.72C50.3407 109.615 55.0206 97.9334 55.0182 97.6022C55.0167 97.4165 53.4662 96.5751 53.4662 96.5751Z" fill="#1F4A89"/>
<path d="M50.5196 95.1669C50.3125 95.3341 48.8534 98.1732 48.8723 98.2859C48.8911 98.3986 52.8211 99.7984 52.9271 99.714C53.0331 99.6294 54.0861 97.1335 54.1825 96.4772C54.2551 95.9833 50.8717 94.8824 50.5196 95.1669Z" fill="#333549"/>
<path d="M49.502 97.6301C49.3021 97.6741 45.071 106.554 45.1839 106.979C45.3302 107.53 48.6397 108.614 49.0524 108.226C49.234 108.055 53.144 99.127 52.9165 98.7832C52.689 98.4395 50.4609 97.4187 49.502 97.6301Z" fill="#E05A5A"/>
<path d="M45.8217 105.912C45.6377 105.982 45.1015 107.395 45.182 107.669C45.2626 107.942 48.156 108.849 48.3976 108.817C48.6392 108.785 49.1547 107.355 49.1547 107.209C49.1547 106.958 46.0011 105.843 45.8217 105.912Z" fill="#333549"/>
<path d="M49.3709 99.8078C49.3213 99.8175 47.6416 103.769 47.6783 103.842C47.715 103.916 49.4424 104.564 49.5282 104.527C49.6139 104.49 51.1871 100.63 51.1874 100.55C51.1879 100.463 49.4955 99.7833 49.3709 99.8078Z" fill="#EDEDEF"/>
<path d="M236.38 136.435C237.397 135.806 238.4 135.186 239.384 134.577V133.524C237.866 134.463 236.294 135.435 234.676 136.435H236.38Z" fill="#57B5B5"/>
<path d="M-2 135.133C0.333876 135.552 2.75266 135.987 5.24569 136.435H10.0244C5.83532 135.675 1.81369 134.945 -1.99992 134.254V135.133H-2Z" fill="#57B5B5"/>
<path d="M166.003 120.656L162.507 119.377L169.48 117.331C169.48 117.331 171.608 117.993 172.868 118.034C173.747 118.062 185.171 113.808 191.996 111.139L167.567 107.406C154.189 111.376 134.822 117.235 134.659 117.331C134.411 117.478 124.634 116.21 124.724 116.102C124.815 115.995 123.639 109.631 123.639 109.631C123.639 109.631 138.984 104.974 141.47 103.419L132.166 101.997C121.51 106.731 94.7123 117.331 94.5698 117.331C94.3947 117.331 63.6063 128.532 63.7436 129.149C63.8237 129.508 85.3501 133.339 103.717 136.434H137.918C148.789 131.018 165.946 121.968 166.003 121.826C166.084 121.624 166.003 120.656 166.003 120.656Z" fill="#489B9B"/>
<path d="M127.702 92.4636C127.702 92.4636 126.55 90.373 125.944 90.7225C125.338 91.072 125.277 92.766 125.277 92.766C125.277 92.766 113.4 97.6029 113.339 99.8447C113.279 102.087 119.033 110.485 119.033 110.485C119.033 110.485 138.212 103.601 138.292 102.933C138.372 102.265 137.947 95.5106 137.947 95.5106L127.702 92.4636Z" fill="#E8F5F6"/>
<path d="M121.153 94.2578C120.762 94.0626 60.594 84.6504 60.594 84.6504L60.1201 85.04C60.1201 85.04 73.9048 126.256 74.2654 126.346C74.6262 126.436 132.556 136.01 133.187 135.83C133.818 135.65 162.326 122.485 162.326 122.171C162.326 121.857 162.326 120.871 162.326 120.871L127.181 112.767C127.181 112.767 121.544 94.453 121.153 94.2578Z" fill="#1B3338"/>
<path d="M131.439 128.835L143.407 123.738V122.964L128.563 119.541L131.439 128.835Z" fill="#2B555B"/>
<path d="M134.367 132.712C134.128 132.032 133.6 130.363 132.927 128.211L132.165 128.534C132.391 129.257 132.504 129.615 132.686 130.187C133.782 133.65 133.782 133.65 134.143 133.65C134.258 133.65 134.402 133.649 162.325 121.418C162.325 121.126 162.325 120.87 162.325 120.87L161.81 120.751C152.142 124.985 136.885 131.655 134.367 132.712Z" fill="#2B555B"/>
<path d="M176.473 97.6147C176.473 97.6147 163.687 102.797 160.876 104.492C158.064 106.188 161.055 116.616 164.341 117.82C165.608 118.284 188.748 111.407 189.056 109.557C189.363 107.706 176.473 97.6147 176.473 97.6147Z" fill="#E8F5F6"/>
<path d="M123.012 101.601C120.928 94.9712 120.906 94.9565 120.736 94.8433C120.617 94.7643 120.531 94.7072 89.8401 89.6995C76.9771 87.6008 63.9926 85.4918 60.2996 84.8921L60.1201 85.0396C60.1201 85.0396 60.2012 85.2821 60.3505 85.7282C80.7937 89.0468 117.216 94.9787 120.211 95.5378C121.046 97.8835 128.539 122.088 132.765 135.797C133.013 135.826 133.159 135.838 133.187 135.83C133.224 135.819 133.36 135.762 133.582 135.666C132.744 132.951 130.094 124.363 127.455 115.855C125.59 109.844 124.095 105.048 123.012 101.601Z" fill="#2B555B"/>
<path opacity="0.19" d="M179.095 130.412C179.32 130.018 175.774 129.12 175.774 129.12L147.097 136.434H169.161C174.127 133.532 178.983 130.607 179.095 130.412Z" fill="#1F4A89"/>
<path d="M179.801 95.429C178.712 96.0243 168.79 99.9436 165.067 101.397C165.053 101.722 165.106 102.12 165.094 102.435C166.743 101.796 170.228 100.399 172.432 99.5046C180.133 96.3784 180.362 96.1444 180.471 96.0318C180.631 95.8678 180.813 95.6821 184.563 80.0864C186.403 72.4378 188.216 64.7405 188.235 64.6637L187.359 64.4863C184.598 76.2073 180.374 93.8311 179.801 95.429Z" fill="#B2D3CC"/>
<path d="M167.449 101.397C167.013 101.586 166.581 101.775 166.157 101.962C167.699 102.314 172.408 103.759 173.658 108.449C174.626 112.08 173.381 114.643 172.347 116.027C172.767 115.91 173.195 115.789 173.63 115.665C174.589 114.013 175.398 111.491 174.525 108.219C173.383 103.933 169.649 102.113 167.449 101.397Z" fill="#B2D3CC"/>
<path d="M177.004 130.345C177.217 129.661 176.993 127.524 176.993 127.524C176.993 127.524 165.438 124.852 164.487 124.818C163.536 124.785 145.34 134.267 145.084 135.087C145.084 135.087 145.019 135.757 144.99 136.434H166.617C171.625 133.71 176.89 130.71 177.004 130.345Z" fill="#1B3338"/>
<path d="M177.075 128.617C177.053 128.186 177.019 127.805 177.003 127.628C171.861 130.54 165.372 134.198 161.347 136.435H163.19C164.534 135.684 166.217 134.741 168.328 133.553C171.766 131.62 175.216 129.669 177.075 128.617Z" fill="#2B555B"/>
<path d="M145.062 135.334C145.044 135.551 145.018 135.887 144.999 136.242C145.188 136.294 145.426 136.357 145.728 136.435H149.41C147.494 135.959 145.802 135.533 145.062 135.334Z" fill="#2B555B"/>
<path d="M181.706 95.7588C181.24 95.6386 180.763 95.5576 180.283 95.5107C180.207 95.5924 180.122 95.6657 180.028 95.7263C179.79 95.8805 179.557 96.0309 179.32 96.172C179.391 96.2799 179.507 96.3589 179.673 96.3645C182.45 96.4576 185.117 97.9775 186.607 100.317C186.916 100.802 187.693 100.354 187.382 99.8651C186.095 97.8443 184.028 96.3581 181.706 95.7588Z" fill="#B2D3CC"/>
<path opacity="0.19" d="M189.925 136.435H212.191C212.085 134.472 211.99 133.179 211.923 133.138C211.808 133.07 201.604 134.626 189.925 136.435Z" fill="#1F4A89"/>
<path opacity="0.19" d="M56.1725 116.828C55.9458 115.56 39.3311 113.845 39.3311 113.845L-2 118.66V132.248C7.17735 133.842 16.6877 135.427 23.2089 136.435H33.265C39.2387 132.343 56.3685 117.924 56.1725 116.828Z" fill="#1F4A89"/>
<path d="M28.5695 135.356C30.9618 135.117 51.0045 118.776 51.0509 118.498C51.0973 118.22 51.0755 116.929 51.0755 116.929L49.4774 116.534L49.2984 113.956C49.2984 113.956 50.8774 113.261 50.8774 112.983C50.8774 112.705 50.6917 111.685 50.6917 111.685C50.6917 111.685 8.11062 102.125 4.44016 101.875C3.4794 101.81 1.06808 102.296 -2 103.101V130.498C11.9648 132.986 27.2732 135.485 28.5695 135.356Z" fill="#2E5156"/>
<path d="M29.0685 124.549C28.784 125.685 29.0674 132.204 29.423 132.063C29.7786 131.921 49.7103 117.461 49.7103 117.461L49.5412 113.845C49.5412 113.845 29.3529 123.413 29.0685 124.549Z" fill="#EBF2FF"/>
<path d="M27.4028 122.223C28.251 122.223 34.7974 119.285 46.5811 113.864C48.1754 113.131 49.6548 112.45 50.739 111.956C50.7119 111.798 50.6916 111.685 50.6916 111.685C50.6916 111.685 50.349 111.596 49.7262 111.434C48.8732 111.824 47.7349 112.347 46.2054 113.05C39.9856 115.912 28.4083 121.238 27.4051 121.327C26.6422 121.308 11.6432 118.712 -1.58998 116.421C-1.72786 116.398 -1.86305 116.374 -2 116.35V117.26C-1.91443 117.274 -1.82894 117.289 -1.74336 117.304C15.4234 120.275 26.7266 122.223 27.4028 122.223Z" fill="#376366"/>
<path d="M30.4489 121.126L29.9942 120.354C28.5597 121.195 27.2048 121.989 26.4851 123.449C25.7377 124.964 26.8641 133.919 27.2318 134.49C27.3959 134.745 27.8989 135.064 28.4552 135.36C28.5003 135.359 28.5401 135.358 28.5703 135.355C28.782 135.334 29.1378 135.183 29.6059 134.93C28.8447 134.569 28.1484 134.19 27.997 134.018C27.6438 133.076 26.7489 124.942 27.2905 123.844C27.8914 122.626 29.0766 121.931 30.4489 121.126Z" fill="#376366"/>
<path d="M12.7811 129.327C12.8401 129.154 13.2403 123.429 12.7811 122.758C12.5488 122.418 5.20136 121.083 -2 119.907V126.915C5.25357 128.175 12.7504 129.416 12.7811 129.327Z" fill="#B4BFD6"/>
<path d="M-1.67003 111.651C-1.15725 111.569 14.1924 106.912 14.0614 106.65C13.9305 106.389 6.04913 105.27 5.27595 105.242C5.18761 105.238 1.67247 106.221 -2 107.286V111.634C-1.8322 111.652 -1.7178 111.659 -1.67003 111.651Z" fill="#D1D7E5"/>
<path d="M216.72 122.675C209.061 122.884 202.857 124.665 202.863 126.654C202.869 128.642 209.083 130.084 216.741 129.876C224.4 129.667 230.604 127.886 230.598 125.897C230.592 123.909 224.379 122.467 216.72 122.675Z" fill="#489B9B"/>
<path d="M223.569 111.897L223.368 114.407C223.368 114.407 228.263 114.239 228.632 114.607C229 114.975 228.9 119.526 228.531 120.496C228.162 121.466 222.697 120.965 222.697 120.965V123.441C222.697 123.441 229.805 123.073 230.442 122.548C231.079 122.022 231.381 114.239 230.006 112.934C228.631 111.629 223.737 111.931 223.569 111.897Z" fill="#E05A5A"/>
<path d="M223.568 111.897L223.367 114.406C223.367 114.406 224.367 114.372 225.497 114.369V111.901C224.452 111.871 223.635 111.91 223.568 111.897Z" fill="#CC4C4C"/>
<path d="M222.697 123.44C222.697 123.44 223.976 123.374 225.498 123.258V121.094C224.078 121.091 222.697 120.964 222.697 120.964V123.44Z" fill="#CC4C4C"/>
<path d="M208.524 109.362C208.524 109.362 205.284 109.378 205.284 109.556C205.284 110.211 204.461 125.589 205.708 126.809C208.287 129.334 221.811 129.44 223.657 126.642C224.743 124.994 224.164 109.556 224.164 109.556L208.524 109.362Z" fill="#E05A5A"/>
<path d="M214.723 112.53C219.937 112.53 224.163 111.199 224.163 109.557C224.163 107.915 219.937 106.583 214.723 106.583C209.51 106.583 205.283 107.915 205.283 109.557C205.283 111.199 209.51 112.53 214.723 112.53Z" fill="#F46262"/>
<path d="M214.725 111.889C219.321 111.889 223.047 110.845 223.047 109.556C223.047 108.268 219.321 107.224 214.725 107.224C210.128 107.224 206.402 108.268 206.402 109.556C206.402 110.845 210.128 111.889 214.725 111.889Z" fill="#D35050"/>
<path d="M208.729 111.173C210.243 111.614 212.368 111.889 214.724 111.889C217.079 111.889 219.204 111.614 220.718 111.173C219.204 110.733 217.079 110.458 214.724 110.458C212.368 110.458 210.243 110.733 208.729 111.173Z" fill="#87483F"/>
<path opacity="0.78" d="M208.917 114.043C208.003 114.084 207.351 114.751 207.302 115.655C207.255 116.526 207.244 117.397 207.268 118.269C207.291 119.111 207.994 119.92 208.883 119.881C209.738 119.842 210.523 119.172 210.498 118.269C210.474 117.397 210.486 116.526 210.532 115.655C210.578 114.811 209.757 114.005 208.917 114.043Z" fill="white"/>
<path opacity="0.78" d="M210.462 121.475C210.36 121.287 210.222 121.137 210.046 121.023C209.89 120.881 209.707 120.784 209.497 120.735C209.282 120.667 209.067 120.658 208.853 120.706C208.638 120.716 208.438 120.779 208.252 120.897C208.143 120.981 208.034 121.065 207.925 121.149C207.725 121.35 207.587 121.587 207.51 121.86C207.491 122.003 207.471 122.146 207.452 122.289C207.453 122.449 207.477 122.603 207.522 122.751C207.538 122.948 207.599 123.133 207.709 123.304C207.81 123.492 207.949 123.643 208.125 123.756C208.281 123.899 208.464 123.995 208.674 124.045C208.817 124.064 208.96 124.083 209.103 124.102C209.395 124.102 209.666 124.028 209.918 123.882C210.027 123.798 210.136 123.714 210.245 123.63C210.445 123.429 210.584 123.192 210.661 122.919C210.753 122.556 210.738 122.324 210.667 121.963C210.633 121.791 210.561 121.62 210.462 121.475Z" fill="white"/>
<path d="M185.049 134.213L161.862 131.271C161.862 131.271 160.489 133.516 158.725 136.435H210.952C210.783 134.337 210.661 132.911 210.661 132.911L185.049 134.213Z" fill="#FFBD6C"/>
<path d="M209.581 130.778C209.125 130.645 184.514 133.485 184.514 133.485C184.514 133.485 183.895 132.184 182.18 131.27C179.901 130.056 163.881 128.763 163.881 128.763C163.881 128.763 161.554 132.357 159.044 136.435H210.198C209.971 133.281 209.743 130.825 209.581 130.778Z" fill="#F3F8FF"/>
<path d="M184.665 133.467C184.508 134.167 184.273 135.203 183.992 136.435H184.913C185.276 134.838 185.485 133.905 185.606 133.359C185.162 133.41 184.84 133.447 184.665 133.467Z" fill="#E4EAF2"/>
<path d="M167.352 132.145C167.245 132.181 166.158 134.124 164.895 136.435H167.128C167.709 134.742 168.124 133.499 168.14 133.359C168.196 132.877 167.617 132.055 167.352 132.145Z" fill="#E4EAF2"/>
<path d="M167.279 132.034C167.139 132.001 166.871 132.362 166.863 132.375L167.313 132.556C167.313 132.556 167.42 132.067 167.279 132.034Z" fill="#565868"/>
<path d="M167.194 132.26C166.484 132.016 165.693 133.347 165.681 133.359L167.365 133.844C167.365 133.844 167.875 132.494 167.194 132.26Z" fill="white"/>
<path d="M166.952 132.848C165.981 132.624 165.697 133.253 165.637 133.358C165.627 133.377 165.039 134.69 164.26 136.434H166.496C167.054 134.904 167.464 133.771 167.491 133.681C167.577 133.389 167.364 132.943 166.952 132.848Z" fill="#4FA2A4"/>
<path d="M47.0479 24.5132L45.8926 25.8257L62.3607 75.9255L118.198 84.7974L118.692 83.7763L103.495 33.4839L47.0479 24.5132Z" fill="#E8F5F6"/>
<path d="M102.456 34.602L46.2172 25.457L45.92 25.7947L45.8926 25.8257L45.8932 25.8277L46.0448 26.2889L101.798 35.355L117.426 84.6748L118.198 84.7975L118.288 84.6121L102.534 34.8662L102.456 34.602Z" fill="white"/>
<path d="M84.2305 35.144L89.5955 52.5099L104.38 54.7618L99.0155 37.3958L84.2305 35.144Z" fill="#B2D3CC"/>
<path d="M49.54 29.9927L50.9105 34.3461L83.7339 39.462L82.3633 35.1085L49.54 29.9927Z" fill="#4FA2A4"/>
<path d="M78.2295 53.8418L78.6263 55.1167L106.115 59.3624L105.719 58.0874L78.2295 53.8418Z" fill="#B2D3CC"/>
<path d="M82.6709 57.0859L83.0678 58.3609L106.866 61.8506L106.469 60.5757L82.6709 57.0859Z" fill="#B2D3CC"/>
<path d="M74.3975 57.9478L74.7943 59.2227L107.618 64.3385L107.221 63.0636L74.3975 57.9478Z" fill="#B2D3CC"/>
<path d="M79.875 60.9663L80.2719 62.2411L108.369 66.5545L107.972 65.2797L79.875 60.9663Z" fill="#B2D3CC"/>
<path d="M85.833 64.2925L86.2299 65.5673L109.121 69.0428L108.724 67.7679L85.833 64.2925Z" fill="#B2D3CC"/>
<path d="M86.667 67.3955L90.4486 78.424L113.339 81.8995L109.558 70.871L86.667 67.3955Z" fill="#B2D3CC"/>
<path d="M60.6631 63.4717L64.4447 74.5002L87.3355 77.9756L83.5539 66.947L60.6631 63.4717Z" fill="#B2D3CC"/>
<path d="M23.8501 44.4248L23.1982 45.1755L27.79 59.1409L49.6762 62.6887L50.2901 61.9533L46.0868 48.0289L23.8501 44.4248Z" fill="#E8F5F6"/>
<path d="M23.3083 45.0483L23.1982 45.1751L23.4103 45.82L45.1164 49.298L49.3676 62.6382L49.6762 62.6882L49.9419 62.37L45.7029 48.6491L23.3083 45.0483Z" fill="white"/>
<path d="M35.3889 54.543L27.7275 58.9508L27.7901 59.1411L28.425 59.2441L36.0248 55.0064C35.9875 54.9788 35.7802 54.7907 35.7435 54.765C35.6292 54.6849 35.5096 54.613 35.3889 54.543Z" fill="white"/>
<path d="M38.1705 54.8457C38.0383 54.9186 37.6744 55.0956 37.5332 55.1511L48.9925 62.5774L49.6768 62.6883L49.9035 62.4167L38.2594 54.7896C38.2301 54.8088 38.2013 54.8287 38.1705 54.8457Z" fill="white"/>
<path d="M36.8188 54.7898C35.9615 54.3126 28.5164 49.2133 23.4922 45.7183L23.7405 46.8245C24.8648 47.6055 27.3253 49.313 29.7847 51.0068C36.5551 55.6698 36.699 55.6816 36.8147 55.6912C36.8229 55.6918 36.8311 55.6925 36.8405 55.6924C36.9782 55.6918 37.3759 55.5374 41.6046 52.9753C43.8069 51.6409 45.9996 50.286 46.0214 50.2725L45.6317 49.6226C42.3698 51.6386 37.5275 54.4838 36.8188 54.7898Z" fill="white"/>
<path d="M22.426 42C20.6161 42.0092 19.5974 43.481 20.1506 45.2875C20.7037 47.094 22.6194 48.5511 24.4293 48.542C26.2392 48.5329 27.258 47.061 26.7048 45.2545C26.1515 43.448 24.2359 41.9909 22.426 42Z" fill="#E05A5A"/>
<path d="M25.2567 45.95C25.2472 45.9414 24.676 45.8729 24.676 45.8729C24.676 45.8729 23.7239 43.0963 23.6961 43.0959C23.6684 43.0954 22.5413 42.9041 22.4966 42.9215C22.4533 42.9385 21.6998 45.3612 21.7041 45.3978C21.7085 45.4343 21.9636 46.349 22.0596 46.3916C22.1555 46.4343 24.1314 46.718 24.1314 46.718L24.2873 47.2236L25.1632 47.3508L24.9729 46.8217L25.5002 46.882C25.5001 46.8822 25.2663 45.9586 25.2567 45.95ZM22.68 45.6717C22.6067 45.6126 23.0695 43.7268 23.1745 43.8823C23.2796 44.0381 23.8512 45.8197 23.8512 45.8197C23.8512 45.8197 22.7486 45.7272 22.68 45.6717Z" fill="white"/>
<path opacity="0.29" d="M215.841 83.2083C214.49 81.7777 219.194 77.3516 217.468 76.3961C215.742 75.4407 208.314 80.2061 209.012 84.3247C209.711 88.4431 216.513 89.2432 215.977 92.8165C215.441 96.3899 204.752 97.8701 206.766 103.976C208.78 110.081 220.668 109.696 221.076 107.416C221.484 105.136 216.898 104.489 217.22 101.878C217.542 99.2671 228.772 96.6859 226.052 89.9143C223.331 83.1428 217.193 84.639 215.841 83.2083Z" fill="white"/>
<path d="M94.7695 46.6932C90.9575 46.3174 89.2002 48.8244 89.2002 48.8244L90.1855 51.8514L103.342 53.8421L102.087 49.9872C102.087 49.9872 98.5815 47.069 94.7695 46.6932Z" fill="#E8F5F6"/>
<path d="M92.2458 38.2845C90.2403 37.9676 89.0539 39.404 89.5961 41.4927C90.1382 43.5815 92.2035 45.5317 94.209 45.8486C96.2145 46.1656 97.4008 44.7292 96.8587 42.6404C96.3166 40.5517 94.2513 38.6015 92.2458 38.2845Z" fill="#E8F5F6"/>
<path d="M68.3066 48.1343L68.7269 49.4127L87.3364 52.2382L86.9395 50.9632L68.3066 48.1343Z" fill="#B2D3CC"/>
<path d="M67.4736 45.6021L67.8939 46.8806L86.5842 49.7499L86.1872 48.475L67.4736 45.6021Z" fill="#B2D3CC"/>
<path d="M66.7314 43.3442L67.1518 44.6228L85.8328 47.5344L85.4359 46.2596L66.7314 43.3442Z" fill="#B2D3CC"/>
<path d="M65.9707 41.0269L66.3909 42.3052L85.0822 45.0461L84.6853 43.7712L65.9707 41.0269Z" fill="#B2D3CC"/>
<path d="M65.0977 38.374L65.5179 39.6525L84.3297 42.5579L83.9328 41.2831L65.0977 38.374Z" fill="#B2D3CC"/>
<path d="M51.5117 36.2861L51.932 37.5646L57.1874 38.4448L56.7906 37.17L51.5117 36.2861Z" fill="#B2D3CC"/>
<path d="M52.3135 38.6572L52.7337 39.9357L57.9892 40.8159L57.5923 39.541L52.3135 38.6572Z" fill="#B2D3CC"/>
<path d="M53.1152 41.0273L53.5355 42.3059L58.791 43.1861L58.3941 41.9112L53.1152 41.0273Z" fill="#B2D3CC"/>
<path d="M53.916 43.3979L54.3363 44.6765L59.5918 45.5567L59.1949 44.2817L53.916 43.3979Z" fill="#B2D3CC"/>
<path d="M54.7168 45.7681L55.137 47.0465L60.3925 47.9268L59.9956 46.6519L54.7168 45.7681Z" fill="#B2D3CC"/>
<path d="M137.81 116.697C137.847 116.66 137.868 116.639 137.868 116.639C137.868 116.639 137.847 116.659 137.81 116.697Z" fill="#D57163"/>
<path d="M161.242 107.827C161.242 107.827 148.811 112.794 147.226 112.43C145.81 112.104 142.587 109.32 138.458 109.498C138.458 109.498 138.497 108.917 137.065 108.712C133.176 108.154 128.374 116.298 128.659 119.737C128.679 119.982 130.221 118.518 130.221 118.518C130.221 118.518 129.394 120.36 129.737 120.995C130.978 123.292 137.144 117.349 137.81 116.698C137.848 116.66 137.869 116.639 137.869 116.639C137.869 116.639 137.848 116.66 137.81 116.698C137.335 117.167 134.154 120.367 134.239 121.683C134.299 122.607 140.091 118.566 142.84 117.878C145.589 117.189 145.764 118.391 147.976 118.938C150.188 119.484 162.186 115.638 163.486 115.144C164.785 114.651 166.632 110.392 161.242 107.827Z" fill="#D57163"/>
<path d="M142.354 27.7483L142.398 28.3393L143.699 28.3473L149.054 26.3972L149.147 25.7939L143.686 27.7573L142.354 27.7483Z" fill="#E8F5F6"/>
<path d="M173.015 35.9756L173.235 35.5244L173.015 35.9753L173.015 35.9756Z" fill="#132528"/>
<path d="M166.17 7.84401C153.083 4.95441 149.733 8.48172 147.715 11.2781C146.842 12.4881 146.751 15.0167 146.921 17.7518C147.132 21.1342 148.075 26.2758 148.101 28.1858C148.154 32.1584 145.408 48.0936 160.142 47.6322C176.074 47.1332 175.759 30.0504 175.759 30.0504C175.759 30.0504 179.257 10.7336 166.17 7.84401Z" fill="#D57163"/>
<path d="M150.066 25.3657C149.742 25.3656 149.623 26.4258 149.8 27.7338C149.977 29.0418 150.384 30.1024 150.708 30.1025C151.033 30.1027 151.152 29.0425 150.975 27.7345C150.798 26.4265 150.391 25.366 150.066 25.3657Z" fill="#1B3338"/>
<path d="M162.097 25.7939C161.787 25.7929 161.709 26.9029 161.922 28.2731C162.135 29.6433 162.559 30.7548 162.869 30.7558C163.179 30.7568 163.257 29.6468 163.044 28.2766C162.831 26.9064 162.407 25.7949 162.097 25.7939Z" fill="#1B3338"/>
<path d="M150.714 30.8938C150.673 30.8762 150.631 30.8586 150.59 30.841C150.535 30.8257 150.481 30.8206 150.427 30.8234C150.421 30.8238 150.415 30.823 150.41 30.8231C150.399 30.8197 150.388 30.8184 150.377 30.814C150.308 30.792 150.241 30.7886 150.176 30.8036C150.109 30.8062 150.048 30.8263 149.993 30.8638C149.893 30.9259 149.803 31.0483 149.785 31.1713C149.765 31.3035 149.782 31.4521 149.865 31.5701C149.893 31.6051 149.922 31.6402 149.951 31.6752C150.018 31.7397 150.096 31.7845 150.183 31.8096C150.26 31.8403 150.344 31.8485 150.424 31.8572C150.505 31.8659 150.584 31.8491 150.663 31.8381C150.728 31.8225 150.782 31.792 150.828 31.7466C150.88 31.7104 150.919 31.6623 150.946 31.6023C151.001 31.4919 151.016 31.3287 150.968 31.2042C150.919 31.0789 150.835 30.9578 150.714 30.8938Z" fill="#A94D43"/>
<path d="M162.775 31.5506L162.325 31.5479C162.062 31.5463 161.828 31.7825 161.86 32.0618C161.893 32.342 162.119 32.5802 162.401 32.5819L162.85 32.5846C163.114 32.5863 163.348 32.35 163.315 32.0707C163.283 31.7906 163.056 31.5524 162.775 31.5506Z" fill="#A94D43"/>
<path d="M148.383 23.1468C146.986 23.1222 145.69 23.6846 144.737 24.7202C143.697 25.8512 143.165 27.4659 143.279 29.1501C143.504 32.5052 146.16 35.2719 149.199 35.3175C149.214 35.3178 149.229 35.318 149.244 35.318C150.625 35.3266 151.903 34.7687 152.845 33.744C152.864 33.7231 152.882 33.7008 152.901 33.6795C152.8 33.4479 152.733 33.2075 152.705 32.9642C152.612 33.0877 152.515 33.2073 152.41 33.3205C151.559 34.246 150.407 34.7475 149.161 34.7266C146.438 34.6857 144.057 32.1874 143.854 29.1573C143.751 27.6288 144.231 26.1659 145.171 25.1435C146.013 24.228 147.152 23.7294 148.381 23.7371C148.395 23.7371 148.408 23.7373 148.421 23.7376C151.144 23.7784 153.524 26.2767 153.728 29.3068C153.741 29.4935 153.742 29.6787 153.737 29.8626C153.9 29.7075 154.098 29.5835 154.309 29.493C154.307 29.4334 154.307 29.374 154.303 29.3142C154.078 25.959 151.422 23.1924 148.383 23.1468Z" fill="#E8F5F6"/>
<path d="M162.388 23.5909C162.373 23.5907 162.358 23.5905 162.343 23.5904C160.962 23.5819 159.684 24.1398 158.742 25.1645C157.702 26.2954 157.17 27.9101 157.284 29.5944C157.509 32.9495 160.165 35.7161 163.204 35.7618C163.219 35.762 163.234 35.7622 163.249 35.7623C164.63 35.7708 165.907 35.2129 166.85 34.1883C167.89 33.0572 168.421 31.4426 168.308 29.7583C168.083 26.4033 165.427 23.6366 162.388 23.5909ZM166.415 33.7648C165.564 34.6902 164.408 35.1962 163.165 35.171C160.443 35.1301 158.062 32.6318 157.858 29.6017C157.756 28.0733 158.236 26.6103 159.176 25.5879C160.018 24.6723 161.157 24.1738 162.386 24.1814C162.399 24.1815 162.413 24.1816 162.426 24.1818C165.149 24.2227 167.529 26.721 167.733 29.7511C167.836 31.2795 167.355 32.7424 166.415 33.7648Z" fill="#E8F5F6"/>
<path d="M180.529 13.4054C180.529 13.4054 182.01 11.4508 180.623 10.6454C179.236 9.83992 179.012 9.60939 179.012 9.60939C179.012 9.60939 180.487 0.89308 169.832 0.0916774C159.177 -0.709642 152.075 4.00559 152.075 4.00559C152.075 4.00559 150.683 3.20561 149.757 4.21487C148.832 5.22413 149.576 5.82847 149.576 5.82847C149.576 5.82847 146.311 7.79212 145.534 11.1091C144.756 14.4262 146.921 17.7517 146.921 17.7517C146.921 17.7517 146.58 13.4759 148.466 12.6146C150.091 11.8722 151.077 13.459 155.143 13.7946C158.954 14.1092 166.689 10.6768 168.167 12.2683C171.418 15.7696 169.181 21.3045 169.627 22.3222C170.275 23.8024 171.571 25.2731 171.571 25.2731L172.059 29.1344L174.134 28.9684C174.134 28.9684 174.938 24.507 179.44 25.6144C179.44 25.6144 183.104 19.9293 182.501 17.1773C181.832 14.1269 180.529 13.4054 180.529 13.4054Z" fill="#1B3338"/>
<path d="M167.353 27.6209L167.549 28.2717L169.024 28.2808L175.428 25.6238L175.589 25.0654L168.764 27.6296L167.353 27.6209Z" fill="#E8F5F6"/>
<path d="M153.011 32.454C152.747 31.1688 153.914 30.242 154.944 29.4243C155.621 28.8867 156.156 28.4622 156.282 27.9258C156.562 26.7289 155.626 24.5602 155.518 24.3169L154.605 24.6787C154.954 25.4687 155.451 26.9627 155.3 27.6085C155.249 27.8237 154.716 28.2473 154.287 28.5876C153.168 29.4763 151.635 30.6932 152.025 32.5878C152.545 35.1154 155.916 35.3214 156.893 35.3274C157.036 35.3283 157.128 35.3249 157.152 35.3239L157.028 34.2907C156.992 34.2922 153.415 34.4175 153.011 32.454Z" fill="#A94D43"/>
<path d="M155.907 27.2032C154.511 27.1946 153.72 28.3822 153.688 28.4328L153.912 28.8879C153.912 28.8879 155.129 27.794 155.951 27.794C156.967 27.794 157.281 28.7894 157.294 28.8302L157.844 28.7019C157.692 28.1868 157.092 27.2105 155.907 27.2032Z" fill="#E8F5F6"/>
<path d="M146.568 24.6458C145.717 25.1549 145.053 25.89 145.084 26.2875C145.116 26.6851 145.831 26.5946 146.682 26.0854C147.533 25.5761 148.198 24.8411 148.166 24.4436C148.135 24.046 147.419 24.1365 146.568 24.6458Z" fill="white"/>
<path d="M160.507 24.9895C159.656 25.4987 158.992 26.2338 159.024 26.6313C159.055 27.0288 159.771 26.9383 160.622 26.4291C161.473 25.9199 162.137 25.1849 162.106 24.7873C162.074 24.3897 161.359 24.4803 160.507 24.9895Z" fill="white"/>
<path d="M177.421 23.1993C175.47 23.1847 173.603 25.6907 173.252 28.7966C172.9 31.9023 174.197 34.4318 176.148 34.4463C178.1 34.4607 179.966 31.9548 180.318 28.8491C180.669 25.7433 179.372 23.2138 177.421 23.1993Z" fill="#D57163"/>
<path d="M175.37 26.6278C174.498 28.1294 174.905 31.4544 174.954 31.8286L175.865 31.7392C175.744 30.8282 175.562 28.2419 176.15 27.2292C176.691 26.2984 178.355 26.3003 178.951 26.3795L179.005 25.3531C178.895 25.338 176.311 25.0071 175.37 26.6278Z" fill="#A94D43"/>
<path d="M175.275 28.2964L175.332 29.3304L177.55 29.3289L177.493 28.2949L175.275 28.2964Z" fill="#A94D43"/>
<path d="M152.021 3.97736C151.887 3.90944 151.511 3.74006 151.065 3.71045C150.513 4.41683 149.991 5.13509 149.559 5.81303C149.57 5.82249 149.577 5.82893 149.577 5.82893C149.577 5.82893 149.56 5.83905 149.531 5.85728C148.861 6.91715 148.416 7.87321 148.445 8.51351C148.495 9.63854 149.801 11.5802 150.956 12.8246C151.29 12.945 151.805 13.1398 152.145 13.2305C150.839 11.93 149.365 9.52712 149.32 8.52355C149.282 7.67589 150.583 5.78016 152.021 3.97736Z" fill="#132528"/>
<path d="M175.241 17.1872C173.21 18.2444 171.037 19.3808 169.76 20.1385C169.748 20.4009 169.69 20.7061 169.646 20.9765C169.628 21.1189 169.612 21.253 169.599 21.3784C171.876 19.996 177.579 16.7488 181.63 14.7297C181.445 14.3917 181.262 14.1322 181.1 13.937C179.585 14.7224 176.781 16.3856 175.241 17.1872Z" fill="#132528"/>
<path d="M145.916 10.9125C145.836 10.7611 145.777 10.5991 145.734 10.4302C145.656 10.65 145.588 10.8759 145.534 11.1094C145.483 11.3229 145.446 11.5364 145.419 11.7492C145.928 12.5014 146.667 13.1742 147.445 13.7474C147.572 13.4692 147.729 13.2198 147.921 13.0156C146.954 12.3067 146.282 11.6037 145.916 10.9125Z" fill="#132528"/>
<path d="M173.25 12.3312C172.133 13.2173 170.682 14.3465 169.702 15.1646C169.783 15.4889 169.842 15.8157 169.884 16.1418C172.338 14.0543 176.736 10.956 179.038 9.41261C179.062 9.19647 179.091 8.81337 179.079 8.32129C177.755 9.17949 174.653 11.2184 173.25 12.3312Z" fill="#132528"/>
<path d="M169.363 9.15318C168.715 10.1379 168.298 11.1647 168.035 12.1442C168.051 12.1578 168.066 12.1732 168.081 12.1872C168.112 12.2127 168.141 12.2392 168.168 12.2679L168.168 12.2681C168.384 12.5007 168.577 12.742 168.753 12.9891C168.976 11.9228 169.383 10.7708 170.098 9.68583C171.207 8.00206 175.785 5.05349 177.745 3.90186C177.562 3.62985 177.355 3.36219 177.121 3.10205C174.992 4.41754 170.45 7.50412 169.363 9.15318Z" fill="#132528"/>
<path d="M158.928 1.13761C157.51 3.04279 155.477 6.27516 155.892 8.21456C156.228 9.78884 157.056 12.2466 158.176 13.5412C158.594 13.465 159.022 13.3767 159.457 13.281C158.28 12.0048 157.082 9.63761 156.747 8.07035C156.434 6.60556 158.24 3.42513 160.36 0.780273C159.863 0.892023 159.385 1.01197 158.928 1.13761Z" fill="#132528"/>
<path d="M170.927 24.4678C171.104 24.679 171.268 24.9036 171.404 25.0766C171.509 25.2027 171.571 25.2734 171.571 25.2734C173.531 24.4171 179.068 21.6085 182.137 20.1196C182.271 19.7057 182.381 19.2972 182.457 18.9053C178.993 20.5736 172.816 23.6531 170.927 24.4677L170.927 24.4678Z" fill="#132528"/>
<path d="M168.943 0.0375977C167.134 1.57934 163.536 4.92707 162.697 6.57236C161.672 8.58361 162.214 10.9351 163.245 12.3849C163.568 12.3108 163.884 12.2412 164.19 12.1779C163.231 11.008 162.513 8.91986 163.479 7.02463C164.414 5.18988 168.389 1.64241 170.298 0.132869C170.145 0.117562 169.99 0.103677 169.832 0.0917159C169.533 0.0691318 169.237 0.0515664 168.943 0.0375977Z" fill="#132528"/>
<path opacity="0.13" d="M168.963 0.0390625C167.513 1.33598 164.186 3.75499 162.302 3.62919C160.864 3.53325 158.849 2.4815 157.666 1.51264C155.713 2.13813 154.214 2.83105 153.263 3.32765C153.624 3.84524 154.098 4.29183 154.66 4.65886C157.099 6.24929 160.223 6.65095 162.996 6.29136C165.847 5.92165 170.422 2.49814 172.546 0.519519C171.742 0.315509 170.842 0.168127 169.832 0.0920933C169.539 0.0700947 169.25 0.0529476 168.963 0.0390625Z" fill="#B8F7FF"/>
<path d="M163.945 37.0586C161.067 37.9231 158.102 38.2675 155.138 38.0655C154.513 38.0228 154.404 39.0212 155.029 39.0639C158.074 39.2714 161.14 38.9315 164.098 38.0428C164.699 37.8622 164.553 36.876 163.945 37.0586Z" fill="#A94D43"/>
<path d="M151.557 21.0479C150.898 20.7338 150.173 20.5687 149.439 20.564C149.012 20.5612 148.613 20.8461 148.563 21.3077C148.518 21.72 148.832 22.1836 149.262 22.1864C149.878 22.1903 150.427 22.3168 150.98 22.5809C151.364 22.7642 151.861 22.4766 152.007 22.0882C152.174 21.6435 151.941 21.2316 151.557 21.0479Z" fill="#1B3338"/>
<path d="M163.289 20.7856C162.272 20.2635 161.151 20.1094 160.011 20.2578C158.996 20.39 159.247 21.989 160.259 21.8572C161.132 21.7435 161.942 21.923 162.712 22.3186C163.614 22.7818 164.18 21.2437 163.289 20.7856Z" fill="#1B3338"/>
<path d="M160.957 39.9805C160.52 40.0292 160.084 40.0778 159.647 40.1264C159.381 40.156 159.208 40.4585 159.256 40.7052C159.311 40.985 159.569 41.1252 159.836 41.0955C160.273 41.0469 160.709 40.9982 161.146 40.9496C161.411 40.92 161.585 40.6176 161.537 40.3708C161.482 40.0911 161.224 39.9508 160.957 39.9805Z" fill="#A94D43"/>
<path d="M151.698 61.7783C151.051 61.6823 150.198 61.5558 149.859 61.4633C149.885 60.1937 151.594 52.6998 153.274 45.8507C153.086 45.776 152.973 45.7275 152.973 45.7275L152.243 46.9483C151.833 48.6372 151.227 51.168 150.654 53.6721C148.818 61.699 149.031 61.8409 149.326 62.0373C149.569 62.1986 150.17 62.3004 151.589 62.5107C152.064 62.5812 152.681 62.6728 153.153 62.7617C151.829 63.4404 149.554 64.8896 149.162 65.6463C149.084 65.7955 148.967 66.0211 149.402 69.4291C149.654 71.4093 150.045 74.0443 150.474 76.6584C150.828 78.8159 151.544 83.0025 152.182 85.6925C152.277 85.0325 152.381 84.3479 152.493 83.6442C152.139 81.9199 151.718 79.6368 151.245 76.7717C150.286 70.9607 149.747 66.5326 149.835 65.9611C150.201 65.3546 152.996 63.5504 154.08 63.1489C154.453 63.0103 154.469 62.7561 154.458 62.6532C154.413 62.2182 153.964 62.1145 151.698 61.7783Z" fill="#B2D3CC"/>
<path d="M174.8 61.5025C174.566 61.6875 173.374 61.8739 172.58 61.9982C170.942 62.2545 169.924 62.4355 169.629 62.9071C169.537 63.0536 169.514 63.2241 169.564 63.3871C169.819 64.2124 172.062 65.3854 173.144 65.9094C171.992 68.3536 167.065 78.8405 164.919 84.031C164.903 84.6923 164.892 85.3943 164.885 86.1279C165.981 83.0827 170.706 72.8083 173.973 65.8917L174.131 65.5559L173.794 65.3986C172.298 64.6995 170.629 63.714 170.318 63.2559C170.663 63.0476 171.92 62.851 172.695 62.7296C174.211 62.4924 175.083 62.3398 175.389 61.9586C175.525 61.7886 175.779 61.4721 176.795 52.9032C177.139 50.0004 177.455 47.1111 177.618 45.598C177.304 45.4876 177.062 45.404 176.9 45.3486C176.238 51.5397 175.166 60.6588 174.8 61.5025Z" fill="#B2D3CC"/>
<path d="M133.521 120.277C135.465 118.965 137.458 117.041 137.812 116.694C137.584 116.92 136.68 117.826 135.837 118.845C138.586 116.308 142.043 114.801 142.791 114.493C142.58 114.312 142.367 114.134 142.153 113.956C140.625 114.614 136.151 116.758 133.521 120.277Z" fill="#A94D43"/>
<path d="M130.265 121.456C130.501 121.538 130.783 121.537 131.098 121.471C132.157 119.497 135.265 114.278 139.581 111.968C139.361 111.808 139.141 111.648 138.921 111.488C134.268 114.144 131.128 119.769 130.265 121.456Z" fill="#A94D43"/>
<path d="M129.223 119.41C129.67 119.041 130.221 118.518 130.221 118.518C130.221 118.518 129.732 119.608 129.663 120.4C131.068 115.841 136.171 111.42 137.44 110.375C137.243 110.217 137.046 110.058 136.849 109.899C135.431 111.07 130.928 115.031 129.223 119.41Z" fill="#A94D43"/>
<path d="M142.267 111.679C142.096 111.644 141.546 111.641 141.464 111.538C141.41 111.471 141.446 111.356 141.442 111.263C141.426 110.956 141.314 110.676 141.112 110.442C140.632 109.887 139.886 109.802 139.198 109.764C138.721 109.738 138.664 110.476 139.141 110.503C139.847 110.542 140.646 110.605 140.694 111.46C140.713 111.792 140.772 112.04 141.098 112.195C141.595 112.432 142.205 112.366 142.72 112.585C143.313 112.836 144.125 113.388 143.839 114.134C143.667 114.581 144.368 114.824 144.539 114.379C145.087 112.953 143.462 111.922 142.267 111.679Z" fill="#EA7E73"/>
</g>
</svg>
