<svg width="124" height="124" viewBox="0 0 124 124" fill="none" xmlns="http://www.w3.org/2000/svg">
<g clip-path="url(#clip0_176_22037)">
<rect width="124" height="124" rx="62" fill="#FDD3A2"/>
<path d="M208 108C208 163.228 163.228 208 108 208C52.7715 208 8 163.228 8 108C8 52.7715 52.7715 8 108 8C163.228 8 208 52.7715 208 108ZM29.3 108C29.3 151.465 64.5352 186.7 108 186.7C151.465 186.7 186.7 151.465 186.7 108C186.7 64.5352 151.465 29.3 108 29.3C64.5352 29.3 29.3 64.5352 29.3 108Z" fill="black" fill-opacity="0.05"/>
<mask id="mask0_176_22037" style="mask-type:alpha" maskUnits="userSpaceOnUse" x="0" y="0" width="124" height="124">
<circle cx="62" cy="62" r="62" fill="#FDD3A2"/>
</mask>
<g mask="url(#mask0_176_22037)">
<path d="M36.6841 53C43.6894 53 49.3683 47.6274 49.3683 41C49.3683 34.3726 43.6894 29 36.6841 29C29.6789 29 24 34.3726 24 41C24 47.6274 29.6789 53 36.6841 53Z" fill="#E8F5F6"/>
<path d="M31.6584 38.5113C31.6584 38.5113 35.4034 41.6505 35.8541 41.5686C36.3049 41.4865 40.1813 36.0385 40.7549 36.1071C41.3286 36.1757 43.5005 38.3474 43.5005 38.3474C43.5005 38.3474 37.2729 47.0342 36.084 47.0342C34.8954 47.0342 29.4609 40.848 29.4609 40.848L31.6584 38.5113Z" fill="#5C9656"/>
<path d="M47.3506 145.853C48.2286 145.999 79.1051 158.122 81.3001 157.036C83.495 155.949 98.5676 104.732 97.9826 99.6108C97.3975 94.4897 80.7522 83.6602 75.3197 88.0501C69.8873 92.44 47.3506 145.853 47.3506 145.853Z" fill="#5970B7"/>
<path d="M68.2493 30.5752L67.6104 30.0248L67.9218 30.3093L67.5014 30.3228C67.449 29.7521 65.234 17.8791 63.5996 10.0701L63.9331 10C68.1988 30.3743 68.4249 30.3599 68.2493 30.5752Z" fill="white"/>
<path d="M86.871 142.36C88.4126 133.545 90.0283 123.869 91.2625 116.365L88.7629 115.954C87.635 122.811 86.2007 131.337 84.8145 139.328C77.6489 135.979 63.5693 131.329 54.7044 128.862C54.3506 129.664 54.0037 130.45 53.666 131.22C61.9299 133.534 76.175 137.981 84.2084 141.844L84.3586 141.947C83.3853 147.524 82.4846 152.553 81.7434 156.467C82.7387 154.729 84.6719 149.269 86.871 142.36Z" fill="#4E67A9"/>
<path d="M45.9253 101.027C45.9253 101.027 32.8831 174.328 35.2984 180.367C37.7136 186.405 43.6308 190.873 47.2532 190.631C50.8757 190.39 64.5213 185.439 66.0916 181.575C67.6609 177.711 77.5635 147.762 77.5635 147.762C77.5635 147.762 58.2633 142.12 58.1578 141.699C58.0523 141.277 62.4979 102.479 62.1644 102.412C61.831 102.345 45.9253 101.027 45.9253 101.027Z" fill="#FFA180"/>
<path d="M67.0313 30.8759L66.1045 25.2991C66.1045 25.2991 66.4641 24.9318 66.8625 24.8567C67.375 24.7604 67.7515 24.9302 67.7515 24.9302L69.2441 30.3795L67.0313 30.8759Z" fill="#848484"/>
<path d="M47.83 104.569C47.83 104.425 45.5188 103.333 45.5188 103.333C45.5188 103.333 46.4466 99.8464 46.1604 98.9397C45.8742 98.033 40.8655 96.0298 40.1978 88.6361C39.53 81.2425 45.0156 66.2635 51.5506 67.0267C51.5506 67.0267 51.9322 62.2088 55.0329 61.2549C58.1337 60.3009 59.9935 63.2108 59.9935 63.2108C59.9935 63.2108 60.0416 53.8612 64.0481 50.665C68.0547 47.4688 71.299 49.234 71.3463 51.5717C71.3944 53.9093 69.3902 54.6244 69.3902 54.6244C69.3902 54.6244 67.0526 63.7833 68.0066 63.7833C68.9605 63.7833 72.5382 49.9019 75.3528 47.6596C78.1673 45.4174 80.6477 46.8483 80.3615 51.4282C80.0753 56.0072 73.7311 79.1429 73.7311 79.1429C73.7311 79.1429 74.447 74.8974 79.6937 72.8941C84.9404 70.8907 86.6102 76.6145 85.7043 77.8074C84.7985 79.0002 80.8865 78.5232 80.4095 79.0002C79.9325 79.4772 81.8237 88.0165 77.563 93.693C73.3023 99.3695 63.2849 99.5603 62.7598 100.419C62.2347 101.277 61.8818 106.318 61.8818 106.318L47.83 104.569Z" fill="#FFA180"/>
<path d="M64.1326 79.7859C64.5091 79.4896 65.6557 78.5897 65.3577 74.1382C65.0833 70.0454 63.4489 63.0351 60.2063 60.2188C60.0029 61.9604 59.9953 63.2115 59.9953 63.2115C59.9953 63.2115 59.6036 62.6053 58.8869 62.0371C60.3448 63.6133 61.6743 67.2063 62.4172 71.1547C63.1491 75.0415 62.8503 77.4221 62.5675 77.7953C62.0238 78.2174 59.9184 76.8101 58.3001 74.9748C57.1689 71.0289 54.8363 66.4693 51.8731 65.3211C51.614 66.2819 51.5516 67.0282 51.5516 67.0282C51.073 66.9725 50.601 67.0105 50.1359 67.1134C52.2751 67.002 55.7379 73.126 56.4301 78.2723C56.7686 80.7847 56.2655 81.6821 56.0434 81.7243C54.0933 82.0932 51.4874 76.6007 50.3478 72.486L47.9062 73.1605C48.4381 75.0828 51.2205 84.2772 55.8417 84.2772C56.0637 84.2772 56.2901 84.2561 56.5214 84.2114C57.6096 84.002 59.2835 83.0362 59.0497 79.0912C60.0669 79.8206 61.2295 80.4064 62.3455 80.4064C62.9677 80.4056 63.5746 80.2241 64.1326 79.7859Z" fill="#CF7166"/>
<path d="M73.8974 78.5379C74.1718 77.5274 74.7653 75.335 75.4871 72.5972C72.3678 75.4852 71.082 80.3252 70.6253 82.6552C68.0108 82.2584 63.3836 81.9595 61.9434 84.4508L64.1367 85.7179C64.6964 84.7505 68.4193 84.7556 71.4103 85.3659L72.7576 85.6402L72.9215 84.276C72.9308 84.2026 73.6416 77.4143 77.1248 74.2704C75.0388 75.7816 74.2038 77.6093 73.8974 78.5379Z" fill="#CF7166"/>
<path d="M68.0508 50.9485C68.0508 50.9485 68.3065 52.7703 68.4492 52.8268C68.591 52.8842 76.9596 50.9485 76.9596 50.9485L76.6 48.9856C76.6 48.9856 74.1383 49.2135 74.1898 49.1266C74.2413 49.0405 70.2281 29.7814 70.104 29.6573C69.9799 29.5332 69.1837 28.9862 67.8913 29.2597C66.5988 29.5332 65.9766 30.5033 65.9766 30.727C65.9766 30.9507 70.0236 50.1135 70.0236 50.1135L68.0508 50.9485Z" fill="white"/>
<path d="M71.7588 51.5218L76.6593 73.8073C76.6593 73.8073 74.5641 74.8458 74.7312 75.4418C74.9651 76.2742 81.456 74.3629 81.147 73.6293C80.8457 72.9142 78.8086 73.2139 78.8086 73.2139L73.7366 51.0347L71.7588 51.5218Z" fill="white"/>
<path d="M66.3115 65.9282L68.7615 66.5699C68.7809 66.4964 70.0572 59.9808 70.79 57.0927C69.511 60.6334 68.4609 63.784 68.0067 63.784C67.2461 63.784 68.5775 57.9631 69.1481 55.6035C68.4584 57.7394 66.401 65.5863 66.3115 65.9282Z" fill="#CF7166"/>
<path d="M75.4108 49.0864C74.7903 49.1337 74.1647 49.1708 74.1909 49.1269C74.1968 49.1168 74.147 48.8458 74.0584 48.3916C72.6367 48.5951 71.2371 48.9184 69.8602 49.3337C69.9641 49.8276 70.0247 50.1129 70.0247 50.1129L69.6348 50.2784C71.5114 49.6731 73.4498 49.2789 75.4108 49.0864Z" fill="#848484"/>
<path d="M71.8818 52.0805L72.0649 52.9128C72.7292 52.7499 73.397 52.6064 74.069 52.4823L73.8792 51.6499C73.2097 51.7748 72.5437 51.9184 71.8818 52.0805Z" fill="#848484"/>
<path d="M79.478 73.1553C79.1006 73.1696 78.8102 73.2127 78.8102 73.2127L78.6431 72.4824C77.9213 72.6496 77.2088 72.8581 76.5031 73.0945L76.6601 73.807C76.6601 73.807 76.4306 73.921 76.1309 74.0941C77.2283 73.7116 78.3392 73.3663 79.478 73.1553Z" fill="#C2C9D7"/>
</g>
</g>
<defs>
<clipPath id="clip0_176_22037">
<rect width="124" height="124" rx="62" fill="white"/>
</clipPath>
</defs>
</svg>
