<svg width="124" height="204" viewBox="0 0 124 204" fill="none" xmlns="http://www.w3.org/2000/svg">
<g clip-path="url(#clip0_176_22165)">
<rect width="124" height="204" rx="62" fill="#FA8400"/>
<path d="M94 55C94 110.228 49.2285 155 -6 155C-61.2285 155 -106 110.228 -106 55C-106 -0.228475 -61.2285 -45 -6 -45C49.2285 -45 94 -0.228475 94 55ZM-84.7 55C-84.7 98.4648 -49.4648 133.7 -6 133.7C37.4648 133.7 72.7 98.4648 72.7 55C72.7 11.5352 37.4648 -23.7 -6 -23.7C-49.4648 -23.7 -84.7 11.5352 -84.7 55Z" fill="white" fill-opacity="0.1"/>
<mask id="mask0_176_22165" style="mask-type:alpha" maskUnits="userSpaceOnUse" x="0" y="0" width="124" height="204">
<rect y="204" width="204" height="124" rx="62" transform="rotate(-90 0 204)" fill="#FA8400"/>
</mask>
<g mask="url(#mask0_176_22165)">
<rect x="66" y="129" width="100" height="100" rx="50" fill="white" fill-opacity="0.1"/>
<path d="M97.117 62.0903H62.2666C61.7143 62.0903 61.2666 62.538 61.2666 63.0903V87.9435C61.2666 88.4957 61.7143 88.9435 62.2666 88.9435H97.117C97.6693 88.9435 98.117 88.4957 98.117 87.9435V63.0903C98.117 62.538 97.6693 62.0903 97.117 62.0903Z" fill="#E8F5F6" fill-opacity="0.8"/>
<path d="M98.1176 76.2471C98.1069 76.2463 98.097 76.2442 98.0864 76.2434C97.2764 76.1929 96.6378 76.8486 96.0761 77.4277C95.8575 77.6529 95.4981 78.0238 95.3393 78.0697C95.192 77.9387 94.9385 77.4781 94.7146 77.0709C93.9546 75.6891 92.6825 73.3762 90.5303 74.1389C88.3911 74.8973 87.5553 77.0669 87.2959 77.9603H83.1241L83.0446 78.3422C82.508 80.92 81.5534 83.1699 80.9479 83.3316C80.4164 82.605 80.0243 77.9913 79.7628 74.9098C79.2339 68.683 78.9801 66.9567 78.2011 66.6746C78.0178 66.6082 77.8201 66.6274 77.6442 66.7288C76.8578 67.1819 76.2774 69.7133 75.037 76.6156C74.7275 78.339 74.3872 80.2323 74.1422 81.2482C73.8743 80.4658 73.5581 79.0926 73.3515 77.8797L73.2835 77.4805H69.7386C69.5824 76.6498 69.1144 74.9672 67.8881 74.9672C66.71 74.9672 65.9273 76.4384 65.4595 77.3174C65.4018 77.426 65.3343 77.5531 65.2852 77.6377C64.787 77.7036 63.0481 77.6502 61.2666 77.5464V78.5095C65.5374 78.7684 65.7693 78.5402 65.9244 78.3851C66.0351 78.2744 66.1269 78.1065 66.307 77.7679C66.6 77.2168 67.2867 75.9269 67.8884 75.9269C68.352 75.9269 68.752 77.1619 68.8512 78.015L68.9001 78.4401H72.4755C73.2736 82.9031 73.9594 82.8 74.3328 82.7429C74.8601 82.6632 74.9666 82.4355 75.9817 76.7853C76.5048 73.8747 77.3432 69.2084 77.9444 67.8704C78.2994 69.0179 78.5884 72.4198 78.8067 74.9913C79.4151 82.1532 79.7529 84.2438 80.8188 84.2993C80.8375 84.3003 80.8561 84.3009 80.8748 84.3009C82.505 84.3009 83.5276 80.5766 83.9015 78.9202L88.0629 78.9194L88.14 78.5335C88.1453 78.5063 88.7087 75.8033 90.8513 75.0438C92.1309 74.5907 92.9774 75.9031 93.874 77.5336C94.1918 78.1114 94.4427 78.5677 94.7239 78.8062C95.4661 79.4355 96.2167 78.6611 96.7649 78.0959C97.1614 77.687 97.6546 77.1771 98.0258 77.2014C98.0573 77.2032 98.0877 77.2104 98.1173 77.2222L98.1176 76.2471Z" fill="#FA8400"/>
<path d="M79.6923 57.4119C87.6189 57.4119 94.0447 50.9861 94.0447 43.0595C94.0447 35.1328 87.6189 28.707 79.6923 28.707C71.7656 28.707 65.3398 35.1328 65.3398 43.0595C65.3398 50.9861 71.7656 57.4119 79.6923 57.4119Z" fill="#E8F5F6"/>
<path d="M86.8113 38.541C84.1289 35.4678 81.1891 37.7247 79.6913 39.3186C78.1937 37.7249 75.2537 35.4681 72.5713 38.541C67.9213 43.8683 78.8253 50.1493 79.6913 50.6358C80.5572 50.1491 91.4613 43.8683 86.8113 38.541Z" fill="#E55C5C"/>
<path d="M39.1953 201.25V252.459H33.1059L32.4341 200.802L39.1953 201.25Z" fill="#514A50"/>
<path d="M32.6326 216.473L32.4341 200.802L39.1953 201.245V216.473H32.6326Z" fill="#423C41"/>
<path d="M40.8548 202.841C40.8548 202.841 41.3106 214.463 41.1207 214.463C40.9308 214.463 30.5625 214.463 30.5625 214.463V202.538L40.8548 202.841Z" fill="#514A50"/>
<path d="M80.6914 198.901C80.6914 198.901 77.5912 174.292 75.3272 173.194C73.063 172.096 36.4044 172.452 36.4044 172.452V177.096C36.4044 177.096 70.9442 176.351 71.6857 177.508C72.4273 178.665 75.3272 198.901 75.3272 198.901L80.6914 198.901Z" fill="#423C41"/>
<path d="M-2.42605 140.544C-4.4514 142.974 4.54712 202.99 5.143 203.229C5.73888 203.467 87.1182 203.915 87.1182 203.915L86.2101 197.898L55.5361 196.749C55.5361 196.749 47.0388 140.892 46.2639 140.296C45.4888 139.7 -0.400405 138.113 -2.42605 140.544Z" fill="#A39EA0"/>
<path d="M1.56732 141.047C1.56732 140.484 2.28311 139.968 3.1986 139.537C4.17848 139.472 5.25832 139.419 6.41892 139.377C5.12122 139.746 2.74659 140.595 2.49287 141.073C2.54539 141.935 3.97191 154.492 5.66074 168.391C8.39562 190.897 9.18712 195.278 9.40523 196.1C10.9584 196.308 20.6089 196.434 26.6279 196.464L26.6232 197.389C21.5407 197.363 9.63784 197.265 8.88171 196.921C8.55498 196.772 8.3909 196.698 7.19913 187.892C6.57625 183.288 5.75099 176.78 4.81206 169.069C3.24519 156.198 1.56732 141.611 1.56732 141.047Z" fill="#91858A"/>
<path d="M12.0515 169.534C12.0515 169.534 9.94132 171.994 9.94132 172.343C9.94132 172.693 10.7879 194.786 12.8958 195.617C14.9514 196.428 42.6119 196.528 42.8627 197.004C43.5179 198.25 49.761 247.732 50.0014 247.973C50.1539 248.125 69.54 248.264 70.0418 247.963C70.2997 247.809 63.5239 198.339 63.5239 198.339C63.5239 198.339 72.2241 198.254 72.631 198.735C73.0378 199.216 78.2135 247.292 78.5426 247.474C78.5426 247.474 97.8145 247.705 98.1554 247.433C98.7101 246.99 90.3003 179.598 88.134 178.071C85.968 176.544 55.7979 176.612 55.7979 176.612C55.7979 176.612 54.3791 171.193 54.2859 170.852C54.1927 170.511 52.882 169.534 52.882 169.534L12.0515 169.534Z" fill="#4E67A9"/>
<path d="M57.7486 176.614C58.5463 176.616 59.5583 176.619 60.7242 176.627C60.9403 176.741 61.1198 176.862 61.2379 176.99C61.3925 177.157 61.7142 177.506 63.1926 188.284C63.4698 190.304 64.2482 196.049 64.458 198.332C64.0114 198.335 63.7042 198.337 63.5843 198.339C63.2018 194.586 61.0417 178.731 60.5556 177.566C60.2265 177.27 58.9179 176.864 57.7486 176.614Z" fill="#3C5995"/>
<path d="M42.8613 197.005C42.8349 196.955 42.5008 196.909 41.9274 196.865C41.7423 195.904 41.5357 194.842 41.3651 193.971L42.2387 193.8C42.509 195.18 42.7109 196.22 42.8613 197.005Z" fill="#3C5995"/>
<path d="M71.3351 196.163L72.2162 196.034L72.6094 198.721C72.51 198.64 72.1738 198.575 71.6809 198.525L71.3351 196.163Z" fill="#3C5995"/>
<path d="M14.9764 96.3495C14.0092 92.8289 15.4577 89.3617 18.2116 88.6051C20.9655 87.8486 23.982 90.0894 24.9491 93.6099C25.9162 97.1304 24.4677 100.598 21.7138 101.354C18.96 102.111 15.9435 99.87 14.9764 96.3495Z" fill="#56423B"/>
<path d="M62.7588 141.636C62.7588 141.636 48.5893 143.217 48.5893 142.93C48.5893 142.643 48.3018 116.501 53.2647 118.419C57.2404 119.955 62.7588 141.636 62.7588 141.636Z" fill="#5970B7"/>
<path d="M25.9869 110.141C26.4033 109.236 26.7638 98.8874 26.9059 94.2446H38.8049C38.6637 97.46 38.0796 111.355 38.5194 111.48C39.0168 111.62 47.5146 115.443 47.5146 115.443C47.5146 115.443 43.0817 125.785 33.6144 124.779C24.147 123.773 18.6945 113.945 18.6945 113.945C18.6945 113.945 25.4486 111.312 25.9869 110.141Z" fill="#FFA180"/>
<path d="M27.1092 99.2565C27.1092 99.2565 26.8371 99.2168 26.7522 99.2432C26.8258 97.3181 26.8667 95.5839 26.9077 94.2446H38.8066C38.6859 96.9997 38.2396 107.594 38.3909 110.65C37.2739 110.688 34.4693 110.652 32.1751 109.658C28.9046 108.242 27.1092 99.2565 27.1092 99.2565Z" fill="#CF7166"/>
<path d="M46.9705 78.1242C47.739 79.3216 47.5298 84.8442 47.515 90.3057C47.5031 94.5561 48.3691 98.148 47.4423 101.394C46.3455 105.235 43.4996 107.366 38.3438 107.366C33.3414 107.366 28.8904 103.208 27.6529 97.9969C27.282 96.4345 25.2979 90.2172 25.1952 88.0509C24.7815 79.3403 24.9854 78.2562 25.6834 76.0508C26.6698 72.9331 43.71 73.0435 46.9705 78.1242Z" fill="#FFA180"/>
<path d="M33.4478 69.8671C47.5436 70.3787 49.5158 82.9599 47.8139 85.7037C47.6406 84.3796 46.0352 74.9066 35.5954 74.9066C35.5954 74.9066 36.1918 87.3394 27.38 89.6437C26.6277 89.8405 26.7895 93.6608 26.804 97.456C26.8106 99.1953 26.6752 101.579 26.6043 102.453C26.5533 101.82 21.1977 101.756 18.913 93.6018C17.2245 87.575 18.656 69.3302 33.4478 69.8671Z" fill="#56423B"/>
<path d="M57.0977 176.613C57.0977 176.613 36.6086 176.398 24.8182 176.398C15.9248 176.398 11.5657 180.52 10.4517 181.562H8.95547C10.084 154.548 12.7883 127.689 12.659 126.978C12.5174 126.2 8.19196 119.904 8.47477 118.949C8.75787 117.994 24.1457 111.062 24.1457 111.062C24.1457 111.062 35.9706 122.102 37.0065 121.999C38.0425 121.895 39.9132 111.866 39.9132 111.866C39.9132 111.866 51.5873 116.587 53.7174 118.824C54.2284 119.36 52.4146 124.848 52.4146 124.848C52.4146 124.848 56.132 146.438 57.0977 176.613Z" fill="#5970B7"/>
<path d="M1.79431 141.636C1.79431 141.636 16.1107 143.217 16.0839 142.931C16.0572 142.644 13.4998 116.907 8.71493 118.824C4.88235 120.36 1.79431 141.636 1.79431 141.636Z" fill="#5970B7"/>
<path d="M45.7635 90.121C45.7837 91.1018 46.0605 91.8968 46.3822 91.8968C46.7039 91.8968 46.9484 91.1018 46.9286 90.121C46.9084 89.1402 46.6315 88.3452 46.3098 88.3452C45.9882 88.3452 45.7436 89.1402 45.7635 90.121Z" fill="#382A25"/>
<path d="M35.7222 90.1092C35.7207 91.1116 35.9747 91.9297 36.2896 91.9366C36.6044 91.9434 36.8608 91.1365 36.8623 90.1341C36.8638 89.1316 36.6097 88.3135 36.2952 88.3067C35.9806 88.2999 35.7236 89.1067 35.7222 90.1092Z" fill="#382A25"/>
<path d="M45.2668 84.4856C45.3905 84.3535 45.5716 84.2324 45.7618 84.2354C46.4129 84.2461 47.0642 84.3063 47.7055 84.4345C47.8934 84.4719 48.0753 84.5892 48.1854 84.7479C48.2901 84.8987 48.3494 85.1245 48.31 85.3043C48.2239 85.6937 47.8616 85.9729 47.4521 85.891C47.0343 85.8076 46.6123 85.7539 46.1885 85.7254C46.0944 85.7213 46.0004 85.7168 45.9063 85.715C45.7024 85.7117 45.5166 85.6717 45.3558 85.5325C45.2196 85.4147 45.105 85.2135 45.0955 85.0322C45.0851 84.8378 45.1309 84.6304 45.2668 84.4856Z" fill="#493832"/>
<path d="M37.8005 84.4856C37.6711 84.3535 37.4854 84.2324 37.2952 84.2354C36.6444 84.2461 35.9957 84.3063 35.3598 84.4345C35.1734 84.4719 34.9966 84.5892 34.8927 84.7479C34.7939 84.8987 34.7437 85.1245 34.7909 85.3043C34.8927 85.6937 35.2666 85.9729 35.6725 85.891C36.0868 85.8076 36.5067 85.7539 36.9293 85.7254C37.0231 85.7213 37.1172 85.7168 37.2112 85.715C37.4151 85.7117 37.599 85.6717 37.7542 85.5325C37.8857 85.4147 37.992 85.2135 37.994 85.0322C37.9967 84.8378 37.9424 84.6304 37.8005 84.4856Z" fill="#493832"/>
<path d="M44.0095 99.7439C43.5065 97.9957 40.0636 99.5056 40.0636 99.5056C40.0636 99.5056 36.5447 97.2604 36.3512 99.04C36.2117 100.325 36.9808 101.897 40.1745 102.057C43.3685 102.218 44.2697 100.648 44.0095 99.7439Z" fill="#FF766C"/>
<path d="M40.9886 100.885C43.1762 100.885 44.5538 99.9714 44.6484 99.9068L44.1814 99.156L44.4149 99.5314L44.1822 99.1554C44.0398 99.2512 40.6378 101.474 35.9194 98.2666L35.4758 99.0127C37.594 100.452 39.4831 100.885 40.9886 100.885Z" fill="#DF6360"/>
<path d="M22.3587 150.803C22.359 150.767 22.3815 147.234 22.4364 143.728C22.5516 136.371 22.6465 136.316 22.9279 136.154C23.0326 136.094 23.2778 135.953 33.8069 136.108L34.1882 136.113L34.1888 136.552C34.2039 150.548 33.9464 150.933 33.8493 151.078C33.7502 151.225 33.6069 151.44 30.2939 151.44C28.6644 151.44 26.2676 151.388 22.7326 151.251L22.356 151.236L22.3587 150.803ZM33.4152 136.992C29.8633 136.942 24.6022 136.898 23.4149 136.962C23.3876 137.236 23.362 137.708 23.338 138.323H33.414C33.4151 137.864 33.4155 137.418 33.4152 136.992ZM33.2173 150.455C33.344 149.296 33.3998 143.797 33.4122 139.213H23.3074C23.2193 142.102 23.159 146.884 23.135 150.375C27.4949 150.539 32.2279 150.614 33.2173 150.455Z" fill="#4E67A9"/>
<path d="M40.7082 96.6446C41.0833 96.5903 44.3859 96.0659 44.7886 94.3557C45.1331 92.8942 42.1727 89.5097 41.576 88.8462L40.9192 89.4338C42.4855 91.1757 44.0788 93.4684 43.9215 94.135C43.7188 94.9952 41.754 95.5905 40.5628 95.7635L40.7082 96.6446Z" fill="#CF7166"/>
<path d="M23.3242 100.524C23.0898 100.723 22.8375 100.895 22.5702 101.038C20.7709 99.3656 17.3797 95.3559 17.4369 88.9335C17.7212 88.7866 18.0224 88.6732 18.3379 88.5967C18.1518 95.0926 21.6728 99.0398 23.3242 100.524Z" fill="#493832"/>
<path d="M21.7253 81.2492C22.5981 77.2923 24.7964 74.0977 27.9153 72.2548C28.5732 71.8661 29.2688 71.5411 29.9955 71.269C29.1655 71.1025 28.2536 70.9981 27.2666 70.956C27.9195 70.6678 28.6162 70.431 29.3578 70.2515C30.1837 70.3717 30.9469 70.542 31.6398 70.7672C33.4189 70.3393 35.3752 70.2191 37.4984 70.404C39.0582 70.78 40.4161 71.3311 41.5924 72.0053C38.4442 71.2216 35.6152 71.015 33.126 71.3827C33.5616 71.6091 33.9575 71.8661 34.3184 72.1495C39.9036 71.8504 43.5264 73.7096 45.8096 75.7951C46.6791 77.0041 47.2937 78.2831 47.6973 79.5167C46.342 77.0807 42.8961 72.9045 35.225 73.0116C35.8173 73.703 36.128 74.3897 36.2927 74.9259C36.063 74.9161 35.8336 74.9061 35.5945 74.9061C35.5945 74.9061 35.6128 75.2963 35.5947 75.9491H35.5876C35.587 75.8987 35.5639 74.8559 34.6671 73.73C34.6876 75.9729 34.3451 80.9239 31.2354 84.2823C28.4981 87.2386 26.4541 88.6057 25.4074 89.1853C25.4148 89.2791 25.4172 89.3702 25.4258 89.4645L24.8807 89.5147L24.4409 93.2879L23.7851 92.5876C23.6343 92.4273 20.1124 88.5621 21.7253 81.2492ZM25.3546 88.1829C26.4131 87.5374 28.2349 86.2136 30.5822 83.6781C34.0005 79.9862 33.8124 73.9671 33.7433 72.8314C33.6163 72.7335 33.4833 72.6394 33.345 72.5486C31.9936 73.484 25.1086 78.7298 25.3546 88.1829ZM23.8017 91.0854L24.067 88.8221L24.3234 88.7274C24.3269 88.7262 24.3816 88.7049 24.4813 88.6589C24.0193 79.1606 30.4395 73.5956 32.4889 72.0703C32.2043 71.9347 31.9031 71.8106 31.5841 71.6987C30.4279 72.0011 29.3534 72.4391 28.3682 73.0214C25.4644 74.7372 23.4138 77.7273 22.5948 81.4409C21.5149 86.3371 22.9118 89.6109 23.8017 91.0854Z" fill="#493832"/>
<path d="M23.4091 93.8219C22.7749 91.11 23.4918 88.6236 25.0104 88.2685C26.529 87.9133 28.2742 89.824 28.9083 92.5359C29.5425 95.2479 28.8256 97.7342 27.307 98.0893C25.7884 98.4444 24.0432 96.5339 23.4091 93.8219Z" fill="#FFA180"/>
<path d="M26.5678 96.6111L27.5801 96.4809L26.2773 89.6431L25.2654 89.7733L26.5678 96.6111Z" fill="#CF7166"/>
<path d="M26.2971 93.5838L26.5576 92.727L24.7364 92.2837L24.4759 93.1407L26.2971 93.5838Z" fill="#CF7166"/>
<g opacity="0.17">
<path d="M40.8487 75.8904C40.8455 75.8934 40.8419 75.8961 40.8384 75.8991C39.4009 75.2863 37.6765 74.9058 35.5959 74.9058C35.5959 74.9058 35.6434 75.9005 35.5125 77.3787C35.3938 77.3772 35.2757 77.3745 35.1587 77.371C31.4167 77.254 27.104 75.6361 24.3204 72.8232C25.1086 72.1466 25.9846 71.5572 26.9671 71.0907C28.8275 72.2012 31.0229 72.8867 33.1578 72.1531C34.297 71.7614 35.0205 70.9818 35.4288 70.0269C37.9406 70.3453 40.0039 71.0833 41.6936 72.0709C42.1414 73.4022 42.099 74.7832 40.8487 75.8904Z" fill="#FFB484"/>
</g>
<path d="M55.1635 138.954L55.5707 142.401C55.2745 142.431 54.9783 142.461 54.6845 142.49L52.9711 127.978L53.8551 127.873L55.059 138.07C57.309 137.851 60.2125 137.566 61.6704 137.415C61.7523 137.717 61.8304 138.008 61.9043 138.285C60.9823 138.384 59.0901 138.573 55.1635 138.954Z" fill="#4E67A9"/>
<path d="M15.3205 142.95C15.8096 142.947 16.4144 142.962 16.7539 142.97C16.8331 142.251 16.9016 140.419 16.958 138.264L2.51733 137.259C2.56837 136.975 2.62209 136.681 2.67788 136.378L16.9803 137.373C17.0773 133.296 17.1322 128.49 17.1322 127.776H18.0225C18.0225 127.908 17.986 131.783 17.9091 135.632C17.7525 143.468 17.6115 143.588 17.3978 143.769L17.226 143.901L17.0281 143.872C16.9002 143.854 16.1999 143.85 15.3894 143.856L15.3205 142.95Z" fill="#4E67A9"/>
<path d="M20.8931 112.548C21.2098 112.402 21.5104 112.263 21.7926 112.134C34.4952 122.548 37.4698 124.518 38.1434 124.815C38.3334 124.573 38.6088 123.981 38.9296 123.181C38.2919 122.809 37.3882 122.296 36.7306 121.911C36.854 121.973 36.9488 122.004 37.0072 121.998C37.16 121.983 37.331 121.748 37.5114 121.365C38.1441 121.701 38.8352 122.096 39.2551 122.34C40.3487 119.428 41.7752 114.856 42.3236 112.873C42.5806 112.983 42.852 113.1 43.1357 113.223C42.7327 114.648 41.9957 117.054 41.4146 118.833C39.2314 125.521 38.7046 125.646 38.3559 125.729C38.32 125.738 38.2818 125.747 38.2307 125.747C37.7076 125.747 35.8244 124.796 20.9789 112.618C20.9487 112.594 20.9213 112.572 20.8931 112.548Z" fill="#4E67A9"/>
<path d="M36.249 121.625L36.2493 121.62C36.2739 121.637 36.2988 121.654 36.3223 121.669C36.2991 121.655 36.271 121.639 36.249 121.625Z" fill="#4E67A9"/>
<path d="M38.3066 198.901C38.3066 198.901 35.2064 174.292 32.9422 173.194C30.6779 172.096 -5.9807 172.452 -5.9807 172.452V177.096C-5.9807 177.096 28.5591 176.351 29.3007 177.508C30.0423 178.665 32.9422 198.901 32.9422 198.901L38.3066 198.901Z" fill="#514A50"/>
<path d="M54.3305 118.85C57.8684 120.82 61.8504 141.245 61.584 141.392C61.3176 141.538 50.023 142.995 50.023 142.995C50.023 142.995 47.9366 126.344 47.7108 123.632C47.4829 120.892 52.1495 117.636 54.3305 118.85Z" fill="#5970B7"/>
<path d="M50.5095 142.933L49.3848 127.808L50.2197 127.738L51.0308 138.646C52.9909 138.257 57.7276 137.962 61.0092 137.837C61.0723 138.149 61.131 138.448 61.1846 138.728C57.9579 138.846 53.0898 139.119 51.0973 139.539L51.3416 142.825C51.0096 142.868 50.7265 142.905 50.5095 142.933Z" fill="#4E67A9"/>
<path d="M35.5288 140.393C36.5279 139.108 40.6729 131.716 42.0729 131.179C43.4871 130.636 52.0329 131.923 52.3746 133.778C52.6391 135.213 44.3907 132.974 44.2729 133.308C44.155 133.642 48.4335 135.102 48.6999 136.376C48.9662 137.651 47.7673 138.444 47.7673 138.444C47.7673 138.444 48.0071 139.265 47.3144 140.256C46.6216 141.248 45.529 141.304 45.529 141.304C45.529 141.304 45.6089 142.069 44.8095 142.919C44.0101 143.768 42.1182 144.731 41.2654 143.711C40.4127 142.692 41.8517 141.956 41.8517 141.956L40.8923 141.163C40.8923 141.163 39.7733 142.692 38.5207 144.151C38.2666 144.447 37.1516 144.96 35.5288 145.587V140.393Z" fill="#FFA180"/>
<path d="M46.0534 141.052C45.9088 140.412 43.4276 138.616 42.2781 137.837L41.7936 138.881C43.099 139.766 44.9893 141.096 45.1364 141.435C45.1886 141.663 45.5153 141.702 45.601 141.917C45.7239 141.55 45.6985 141.304 45.6985 141.304C45.6985 141.304 45.8616 141.295 46.1006 141.228C46.0833 141.169 46.0663 141.109 46.0534 141.052Z" fill="#CF7166"/>
<path d="M48.3887 138.029C47.4653 136.675 44.7114 135.366 43.1961 134.742C43.1184 134.976 42.9003 135.458 42.8021 135.684C44.5327 136.415 47.2648 137.663 47.8825 138.881C47.8732 138.715 47.936 138.444 47.936 138.444C47.936 138.444 48.1572 138.297 48.3887 138.029Z" fill="#CF7166"/>
<path d="M50.9457 128.991C50.6703 129.518 38.7245 146.885 38.5514 147.642C38.5182 147.787 38.9322 148.674 38.9322 148.674L55.9643 149.03L69.1387 129.771L68.8106 129.03L50.9457 128.991Z" fill="#E0E1E2"/>
<path d="M43.8268 132.641C43.7403 132.796 43.5448 133.291 43.4533 133.442L45.4591 134.044C45.2634 133.927 44.4448 133.489 44.4651 133.431C44.5003 133.332 46.583 133.619 46.583 133.619L43.8268 132.641Z" fill="#CF7166"/>
<path d="M55.0078 129.601C52.0176 129.591 51.592 129.592 51.5049 129.608C51.3042 129.643 51.2037 129.661 44.6177 139.303C42.164 142.895 39.7063 146.517 38.6646 148.054C38.7771 148.344 38.9306 148.674 38.9306 148.674L39.0736 148.677C43.9038 141.546 50.8455 131.372 51.7032 130.315C52.1028 130.309 53.4615 130.313 55.0052 130.319C57.7664 130.328 61.5481 130.34 64.712 130.319C66.6296 130.306 67.9236 130.288 68.8036 130.258L69.1367 129.771L69.0304 129.531C66.1125 129.638 58.8613 129.614 55.0078 129.601Z" fill="#EDEDED"/>
<path d="M39.8565 136.601C40.0771 136.239 40.4133 136.04 40.778 135.903C40.5878 135.564 40.4959 135.184 40.7073 134.799C40.8407 134.556 41.0619 134.4 41.2981 134.287C41.5432 134.169 41.904 134.024 42.1807 134.037C42.1668 133.99 42.157 133.927 42.1486 133.903C42.0973 133.755 42.0389 133.61 41.978 133.466C41.8602 133.186 41.7483 132.885 41.8047 132.571C41.9152 131.959 42.4681 131.697 42.9746 131.547C43.3942 131.423 43.6204 132.104 43.199 132.228C42.9952 132.289 42.7643 132.342 42.6009 132.494C42.4125 132.67 42.4745 132.87 42.5613 133.09C42.7076 133.46 43.0511 134.013 42.835 134.417C42.6294 134.801 42.1361 134.742 41.7912 134.859C41.6357 134.912 41.3819 134.987 41.2945 135.155C41.1722 135.388 41.4254 135.671 41.5589 135.832C41.7094 136.013 41.7226 136.369 41.4472 136.443C41.1309 136.529 40.7662 136.608 40.5247 136.86C40.2399 137.157 40.3647 137.469 40.5635 137.775C40.8123 138.158 40.2491 138.561 40.0006 138.179C39.6848 137.692 39.5329 137.131 39.8565 136.601Z" fill="#FFB49D"/>
<path d="M63.177 142.726C63.177 142.726 65.5858 143.411 64.5515 140.836C63.5173 138.26 59.517 135.919 58.9052 136.426C58.2934 136.932 61.4961 140.795 61.4961 140.795L61.1342 141.34C61.1342 141.34 57.4368 140.507 55.5258 140.689C53.9287 140.842 54.4095 142.026 54.4095 142.026C54.4095 142.026 53.5822 142.235 53.5375 142.765C53.4928 143.296 54.5154 144.344 54.5154 144.344C54.5154 144.344 53.631 144.454 53.6539 145.034C53.6768 145.613 55.7626 147.465 55.7626 147.465C55.7626 147.465 55.1017 148.048 55.1268 148.319C55.1601 148.678 55.4119 149.019 55.4119 149.019L52.2511 148.953C52.2511 148.953 52.1484 153.674 52.2511 154.287C52.2869 154.501 55.1293 156.773 56.2794 156.887C57.5027 157.008 59.0691 154.633 59.3919 153.872C59.9081 152.654 58.9552 149.743 58.9326 149.622C58.9099 149.501 59.6876 149.332 60.119 148.678C60.5506 148.024 60.7072 147.047 60.7072 147.047C60.7072 147.047 61.7384 147.357 62.4727 146.631C63.2074 145.905 63.2451 142.871 63.177 142.726Z" fill="#FFA180"/>
<path d="M54.4102 142.027C54.4102 142.027 54.2857 141.716 54.3773 141.392C55.901 141.668 59.8756 142.544 61.7578 144.431L61.1829 145.079C59.2611 143.152 54.8472 142.363 53.9529 142.22C54.1782 142.086 54.4102 142.027 54.4102 142.027Z" fill="#CF7166"/>
<path d="M61.1393 141.332L61.4956 140.795C61.4956 140.795 61.2147 140.456 60.8361 139.967C62.0026 140.787 62.8316 141.86 63.3867 142.772C63.2588 142.75 63.1761 142.726 63.1761 142.726C63.2057 142.789 63.2153 143.395 63.1569 144.12C62.7959 143.375 62.1475 142.27 61.1393 141.332Z" fill="#CF7166"/>
<path d="M54.5151 144.344C54.5151 144.344 53.742 143.552 53.57 142.996C55.3134 143.763 59.7004 145.575 59.7471 145.595L59.4439 146.424C59.4059 146.409 56.5115 145.213 54.4811 144.349C54.502 144.346 54.5151 144.344 54.5151 144.344Z" fill="#CF7166"/>
<path d="M55.1799 148.135C55.3327 147.845 55.7632 147.465 55.7632 147.465C55.7632 147.465 55.7096 147.418 55.6258 147.341C55.931 147.462 56.4481 147.699 57.3799 148.14L57.0384 148.954C56.3172 148.612 55.5005 148.239 55.2307 148.135C55.214 148.137 55.1973 148.136 55.1799 148.135Z" fill="#CF7166"/>
<path d="M8.25433 119.418C5.83211 123.231 1.62395 141.342 1.77948 141.491C1.935 141.64 14.2792 143.167 14.4867 142.892C14.5797 142.768 14.9569 139.135 15.2777 134.979C15.6731 129.86 15.9275 123.905 14.7821 122.232C12.7076 119.199 9.59346 117.31 8.25433 119.418Z" fill="#5970B7"/>
<path d="M6.53266 142.161C9.59317 142.388 12.819 142.579 13.708 142.586C13.8239 142.034 13.9769 140.58 14.1394 138.707C10.6028 138.035 5.492 137.738 2.5778 137.688C2.6462 137.398 2.71824 137.097 2.79334 136.784C3.46319 136.794 4.28827 136.818 5.31272 136.864C7.33286 136.954 11.1755 137.194 14.217 137.791C14.4761 134.664 14.7486 130.692 14.9307 127.743L15.67 127.795C15.677 128.295 15.6762 128.813 15.6684 129.341C15.5737 130.798 15.4196 133.095 15.2473 135.382C14.8813 140.247 14.6766 142.133 14.4864 142.892C14.3652 143.053 10.091 142.597 6.53266 142.161Z" fill="#4E67A9"/>
<path d="M13.2772 140.483C13.7848 140.872 13.4185 146.854 13.8292 147.028C14.2399 147.201 35.5314 140.393 35.5314 140.393L37.6484 144.707C37.6484 144.707 11.2682 156.718 8.70136 156.009C6.13423 155.299 5.94209 140.38 6.50695 140.073C7.07125 139.765 12.7575 140.084 13.2772 140.483Z" fill="#FFA180"/>
<path d="M9.79725 147.254C10.6329 147.003 12.2915 146.559 13.6535 146.201C13.6862 146.675 13.739 146.99 13.8286 147.028C13.8691 147.045 14.1145 146.994 14.5205 146.89C12.8871 147.318 10.4475 147.97 9.79725 148.176V147.254Z" fill="#CF7166"/>
<path d="M54.7266 152.521L53.9063 152.34L54.5586 148.998C54.8973 149.006 55.4007 149.019 55.4102 149.019L54.7266 152.521Z" fill="#CF7166"/>
</g>
</g>
<defs>
<clipPath id="clip0_176_22165">
<rect width="124" height="204" rx="62" fill="white"/>
</clipPath>
</defs>
</svg>
