<svg width="124" height="252" viewBox="0 0 124 252" fill="none" xmlns="http://www.w3.org/2000/svg">
<g clip-path="url(#clip0_176_22069)">
<rect width="124" height="252" rx="62" fill="#5F8DD9"/>
<rect x="-22" y="-14" width="100" height="100" rx="50" fill="white" fill-opacity="0.1"/>
<mask id="mask0_176_22069" style="mask-type:alpha" maskUnits="userSpaceOnUse" x="0" y="0" width="124" height="252">
<rect y="252" width="252" height="124" rx="62" transform="rotate(-90 0 252)" fill="#5F8DD9"/>
</mask>
<g mask="url(#mask0_176_22069)">
<path d="M42.782 183.443L28.8426 125.196L114.411 124.64L128.899 183.443H123.879L109.936 133.39C109.936 133.39 39.2291 133.35 39.0246 134.079C38.8479 134.708 46.4148 173.133 48.3961 183.443H42.782Z" fill="white"/>
<path d="M44.7849 193.482H131.354C134.483 193.482 136.667 190.666 135.926 187.589L121.039 125.775C119.977 121.368 115.932 118.151 111.453 118.151H25.565C22.4365 118.151 20.2522 120.968 20.9933 124.045L36.0423 186.53C37.0106 190.549 40.6995 193.482 44.7849 193.482Z" fill="#E2E2E2"/>
<path d="M42.7813 183.443H128.899L114.41 124.64L28.8422 125.196L42.7813 183.443Z" fill="white"/>
<g clip-path="url(#clip1_176_22069)">
<mask id="mask1_176_22069" style="mask-type:luminance" maskUnits="userSpaceOnUse" x="29" y="124" width="102" height="57">
<path d="M130.772 180.341L117 124H29L42.7723 180.341H130.772Z" fill="white"/>
</mask>
<g mask="url(#mask1_176_22069)">
<path d="M130.772 180.341L117 124H29L42.7723 180.341H130.772Z" fill="white"/>
<mask id="mask2_176_22069" style="mask-type:luminance" maskUnits="userSpaceOnUse" x="59" y="124" width="72" height="57">
<path d="M117.001 124H59.7578L73.5301 180.341H130.773L117.001 124Z" fill="white"/>
</mask>
<g mask="url(#mask2_176_22069)">
<path d="M117.001 124H59.7578L73.5301 180.341H130.773L117.001 124Z" fill="white"/>
<path d="M100.617 130.058H79.1025C78.266 130.058 77.7495 130.719 77.9489 131.535C78.1482 132.35 78.9879 133.011 79.8244 133.011H101.339C102.175 133.011 102.692 132.35 102.493 131.535C102.293 130.719 101.453 130.058 100.617 130.058Z" fill="#D9D9D9"/>
<path d="M110.917 134.223H70.8389C70.4743 134.223 70.2492 134.511 70.3361 134.867C70.423 135.222 70.789 135.511 71.1536 135.511H111.231C111.596 135.511 111.821 135.222 111.734 134.867C111.647 134.511 111.281 134.223 110.917 134.223Z" fill="#D9D9D9"/>
<path d="M115.584 138.54H68.283C67.2535 138.54 66.6179 139.353 66.8632 140.357L68.3441 146.415C68.5895 147.419 69.6229 148.233 70.6524 148.233H117.953C118.983 148.233 119.619 147.419 119.373 146.415L117.892 140.357C117.647 139.353 116.613 138.54 115.584 138.54Z" fill="#F5F5F5"/>
<path d="M73.3152 146.415C75.0311 146.415 76.0905 145.059 75.6816 143.386C75.2726 141.713 73.5502 140.357 71.8343 140.357C70.1185 140.357 69.059 141.713 69.468 143.386C69.8769 145.059 71.5994 146.415 73.3152 146.415Z" fill="#D9D9D9"/>
<path d="M83.5976 140.66H77.7724C76.9359 140.66 76.4194 141.321 76.6188 142.137C76.8181 142.952 77.6578 143.614 78.4943 143.614H84.3196C85.156 143.614 85.6725 142.952 85.4731 142.137C85.2738 141.321 84.4341 140.66 83.5976 140.66Z" fill="#D9D9D9"/>
<path d="M90.8288 144.825H77.9356C77.571 144.825 77.3458 145.113 77.4327 145.469C77.5196 145.824 77.8857 146.113 78.2503 146.113H91.1435C91.5081 146.113 91.7332 145.824 91.6463 145.469C91.5594 145.113 91.1934 144.825 90.8288 144.825Z" fill="#D9D9D9"/>
<path d="M115.717 140.357H111.368C110.853 140.357 110.535 140.764 110.658 141.266C110.78 141.768 111.297 142.174 111.812 142.174H116.161C116.676 142.174 116.994 141.768 116.871 141.266C116.749 140.764 116.232 140.357 115.717 140.357Z" fill="#D9D9D9"/>
<path d="M118.249 149.444H70.9481C69.9186 149.444 69.2829 150.258 69.5283 151.262L71.0091 157.32C71.2545 158.324 72.288 159.137 73.3175 159.137H120.618C121.648 159.137 122.284 158.324 122.038 157.32L120.557 151.262C120.312 150.258 119.279 149.444 118.249 149.444Z" fill="#F5F5F5"/>
<path d="M75.9803 157.32C77.6961 157.32 78.7556 155.964 78.3466 154.291C77.9377 152.618 76.2152 151.262 74.4994 151.262C72.7835 151.262 71.7241 152.618 72.133 154.291C72.542 155.964 74.2644 157.32 75.9803 157.32Z" fill="#D9D9D9"/>
<path d="M86.2627 151.565H80.4374C79.6009 151.565 79.0845 152.226 79.2838 153.042C79.4832 153.857 80.3229 154.518 81.1593 154.518H86.9846C87.8211 154.518 88.3375 153.857 88.1382 153.042C87.9388 152.226 87.0991 151.565 86.2627 151.565Z" fill="#D9D9D9"/>
<path d="M93.4948 155.73H80.6016C80.237 155.73 80.0119 156.018 80.0988 156.374C80.1856 156.729 80.5517 157.017 80.9163 157.017H93.8095C94.1741 157.017 94.3992 156.729 94.3123 156.374C94.2254 156.018 93.8594 155.73 93.4948 155.73Z" fill="#D9D9D9"/>
<path d="M118.383 151.262H114.034C113.519 151.262 113.201 151.669 113.324 152.17C113.446 152.672 113.963 153.079 114.478 153.079H118.827C119.342 153.079 119.66 152.672 119.537 152.17C119.415 151.669 118.898 151.262 118.383 151.262Z" fill="#D9D9D9"/>
<path d="M120.915 160.349H73.6141C72.5846 160.349 71.9489 161.163 72.1943 162.167L73.6752 168.225C73.9205 169.229 74.954 170.042 75.9835 170.042H123.284C124.314 170.042 124.95 169.229 124.704 168.225L123.223 162.167C122.978 161.163 121.945 160.349 120.915 160.349Z" fill="#F5F5F5"/>
<path d="M78.6463 168.225C80.3621 168.225 81.4216 166.869 81.0126 165.196C80.6037 163.523 78.8812 162.167 77.1654 162.167C75.4496 162.167 74.3901 163.523 74.799 165.196C75.208 166.869 76.9304 168.225 78.6463 168.225Z" fill="#D9D9D9"/>
<path d="M88.9287 162.47H83.1034C82.267 162.47 81.7505 163.131 81.9498 163.946C82.1492 164.762 82.9889 165.423 83.8254 165.423H89.6506C90.4871 165.423 91.0036 164.762 90.8042 163.946C90.6048 163.131 89.7651 162.47 88.9287 162.47Z" fill="#D9D9D9"/>
<path d="M96.1598 166.634H83.2666C82.902 166.634 82.6769 166.922 82.7638 167.278C82.8507 167.633 83.2167 167.922 83.5813 167.922H96.4745C96.8391 167.922 97.0643 167.633 96.9774 167.278C96.8905 166.922 96.5245 166.634 96.1598 166.634Z" fill="#D9D9D9"/>
<path d="M121.048 162.167H116.699C116.184 162.167 115.866 162.573 115.989 163.075C116.111 163.577 116.628 163.984 117.143 163.984H121.492C122.007 163.984 122.325 163.577 122.202 163.075C122.08 162.573 121.563 162.167 121.048 162.167Z" fill="#D9D9D9"/>
<path d="M123.581 171.254H76.2801C75.2506 171.254 74.6149 172.068 74.8603 173.071L76.3412 179.13C76.5865 180.133 77.62 180.947 78.6495 180.947H125.95C126.98 180.947 127.616 180.133 127.37 179.13L125.889 173.071C125.644 172.068 124.611 171.254 123.581 171.254Z" fill="#F5F5F5"/>
<path d="M81.3113 179.129C83.0272 179.129 84.0866 177.773 83.6777 176.1C83.2687 174.427 81.5463 173.071 79.8304 173.071C78.1146 173.071 77.0551 174.427 77.4641 176.1C77.873 177.773 79.5955 179.129 81.3113 179.129Z" fill="#D9D9D9"/>
<path d="M91.5937 173.374H85.7685C84.932 173.374 84.4155 174.035 84.6149 174.851C84.8142 175.666 85.6539 176.327 86.4904 176.327H92.3156C93.1521 176.327 93.6686 175.666 93.4692 174.851C93.2699 174.035 92.4302 173.374 91.5937 173.374Z" fill="#D9D9D9"/>
<path d="M98.8259 177.539H85.9327C85.568 177.539 85.3429 177.827 85.4298 178.183C85.5167 178.538 85.8827 178.826 86.2473 178.826H99.1405C99.5052 178.826 99.7303 178.538 99.6434 178.183C99.5565 177.827 99.1905 177.539 98.8259 177.539Z" fill="#D9D9D9"/>
<path d="M123.714 173.071H119.365C118.85 173.071 118.532 173.478 118.655 173.98C118.777 174.482 119.294 174.889 119.809 174.889H124.158C124.673 174.889 124.991 174.482 124.868 173.98C124.746 173.478 124.229 173.071 123.714 173.071Z" fill="#D9D9D9"/>
</g>
<path d="M73.5301 180.341L59.7578 124H29.0005L42.7728 180.341H73.5301Z" fill="#674BB3"/>
<path d="M34.182 131.521L34.0495 131.462C34.0805 131.364 34.1117 131.263 34.1432 131.159C34.1756 131.054 34.2068 130.949 34.2371 130.844C34.2681 130.738 34.2978 130.635 34.3262 130.535H33.7732L33.7432 130.412H34.4345L34.4667 130.544C34.4443 130.622 34.4214 130.702 34.3982 130.785C34.3747 130.867 34.3509 130.95 34.3269 131.033C34.3028 131.117 34.2785 131.2 34.254 131.282C34.2305 131.364 34.2065 131.443 34.182 131.521ZM35.274 131.497L35.167 131.059L35.0277 130.915L35.0248 130.903C35.0454 130.822 35.0852 130.761 35.1442 130.718C35.2033 130.676 35.2768 130.655 35.3648 130.655C35.4383 130.655 35.5055 130.669 35.5663 130.697C35.6268 130.724 35.6782 130.763 35.7206 130.814C35.7627 130.863 35.792 130.922 35.8086 130.989L35.9326 131.497H35.8037L35.68 130.991C35.6635 130.923 35.6279 130.869 35.5732 130.827C35.5183 130.785 35.4552 130.764 35.3837 130.764C35.3299 130.764 35.2823 130.777 35.2411 130.803C35.2007 130.828 35.174 130.863 35.161 130.908L35.1625 130.914L35.2933 131.049L35.4029 131.497H35.274ZM36.2189 131.506C36.191 131.506 36.1649 131.497 36.1408 131.479C36.1175 131.459 36.1025 131.436 36.0958 131.409C36.0894 131.383 36.0933 131.361 36.1075 131.342C36.1225 131.323 36.1439 131.314 36.1719 131.314C36.1999 131.314 36.2255 131.323 36.2488 131.342C36.273 131.361 36.2882 131.383 36.2946 131.409C36.3013 131.436 36.2972 131.459 36.2822 131.479C36.268 131.497 36.2469 131.506 36.2189 131.506ZM36.5372 131.497L36.4787 131.258C36.4693 131.219 36.4695 131.188 36.4791 131.164C36.4897 131.139 36.5099 131.122 36.5395 131.112L36.538 131.106C36.4908 131.091 36.4478 131.061 36.409 131.017C36.3702 130.972 36.3442 130.923 36.3311 130.87C36.3163 130.809 36.3223 130.76 36.3492 130.721C36.3771 130.683 36.4196 130.664 36.4765 130.664C36.5252 130.664 36.5685 130.678 36.6065 130.706C36.6445 130.735 36.6688 130.77 36.6794 130.814C36.6892 130.854 36.6831 130.888 36.6611 130.917C36.64 130.945 36.6082 130.959 36.5658 130.959C36.5233 130.959 36.4872 130.945 36.4576 130.917H36.4715C36.4904 130.96 36.5147 130.991 36.5442 131.011C36.5748 131.03 36.6154 131.039 36.6662 131.039H36.7811L36.8048 131.136H36.7023C36.6184 131.136 36.5872 131.18 36.6087 131.268L36.6387 131.391H37.0503L36.8763 130.679H37.0053L37.2052 131.497H36.5372ZM36.5345 130.882C36.5552 130.882 36.5703 130.876 36.5797 130.864C36.589 130.851 36.5912 130.834 36.5865 130.815C36.5816 130.795 36.5714 130.779 36.5561 130.767C36.5407 130.755 36.5226 130.749 36.5019 130.749C36.4822 130.749 36.4671 130.755 36.4566 130.767C36.4472 130.779 36.4449 130.795 36.4498 130.815C36.4545 130.834 36.4647 130.851 36.4803 130.864C36.4967 130.876 36.5148 130.882 36.5345 130.882ZM37.4993 131.506C37.4713 131.506 37.4453 131.497 37.4211 131.479C37.3978 131.459 37.3828 131.436 37.3762 131.409C37.3697 131.383 37.3736 131.361 37.3878 131.342C37.4028 131.323 37.4243 131.314 37.4522 131.314C37.4802 131.314 37.5059 131.323 37.5292 131.342C37.5533 131.361 37.5686 131.383 37.575 131.409C37.5817 131.436 37.5775 131.459 37.5625 131.479C37.5483 131.497 37.5272 131.506 37.4993 131.506ZM38.1102 131.497L38.0788 131.368C38.0811 131.365 38.0881 131.355 38.0997 131.339C38.111 131.322 38.1255 131.301 38.1432 131.276C38.1606 131.249 38.1792 131.222 38.1989 131.192C38.2195 131.162 38.2401 131.132 38.2606 131.102C38.2812 131.071 38.3003 131.043 38.3179 131.018C38.3356 130.993 38.3498 130.973 38.3606 130.958C38.3967 130.906 38.4213 130.861 38.4345 130.821C38.4484 130.781 38.45 130.739 38.4391 130.694C38.431 130.661 38.4153 130.631 38.3921 130.603C38.3685 130.575 38.3393 130.553 38.3043 130.537C38.27 130.519 38.2327 130.511 38.1923 130.511C38.154 130.511 38.1223 130.519 38.0973 130.535C38.0733 130.551 38.0553 130.571 38.0434 130.594C38.0325 130.617 38.0272 130.64 38.0274 130.662L37.8963 130.615C37.8974 130.594 37.9026 130.571 37.9119 130.546C37.9221 130.519 37.9377 130.494 37.9587 130.47C37.9797 130.446 38.0075 130.426 38.0421 130.411C38.0767 130.396 38.1189 130.388 38.1686 130.388C38.2379 130.388 38.3006 130.403 38.3564 130.432C38.4133 130.461 38.4608 130.499 38.4991 130.546C38.5371 130.591 38.5626 130.64 38.5754 130.693C38.5866 130.738 38.5876 130.782 38.5785 130.826C38.5694 130.869 38.5555 130.91 38.5367 130.947C38.5176 130.983 38.4983 131.015 38.4788 131.041C38.4686 131.054 38.4546 131.073 38.437 131.099C38.4201 131.123 38.4018 131.149 38.382 131.179C38.362 131.207 38.3424 131.235 38.3232 131.262C38.3039 131.289 38.2869 131.313 38.2722 131.333C38.2585 131.353 38.2489 131.367 38.2434 131.374H38.7514L38.7814 131.497H38.1102ZM39.3021 131.521C39.2544 131.521 39.2033 131.511 39.1487 131.491C39.094 131.471 39.0418 131.439 38.9921 131.397C38.9434 131.354 38.9027 131.3 38.8702 131.235L38.9756 131.189C39.0072 131.251 39.0485 131.301 39.0996 131.341C39.1503 131.379 39.2063 131.398 39.2674 131.398C39.3378 131.398 39.3901 131.377 39.4243 131.335C39.4582 131.291 39.4669 131.236 39.4504 131.168C39.4393 131.123 39.4195 131.082 39.3912 131.047C39.3629 131.012 39.3281 130.984 39.287 130.964C39.2468 130.944 39.2035 130.933 39.1569 130.933C39.1185 130.933 39.084 130.943 39.0532 130.961C39.0222 130.978 38.9999 131.001 38.9864 131.03L38.8402 130.979L38.7748 130.412H39.3293L39.3593 130.535H38.9119L38.9517 130.882L38.9598 130.883C38.9797 130.863 39.0056 130.847 39.0377 130.833C39.0697 130.82 39.1079 130.814 39.1525 130.814C39.2146 130.814 39.2758 130.829 39.336 130.859C39.3962 130.889 39.4483 130.931 39.4922 130.983C39.5371 131.036 39.568 131.096 39.5848 131.165C39.6011 131.232 39.5997 131.292 39.5807 131.345C39.5616 131.399 39.5281 131.442 39.4801 131.474C39.4329 131.505 39.3735 131.521 39.3021 131.521ZM40.1636 131.521C40.1066 131.521 40.0528 131.511 40.0024 131.491C39.9516 131.47 39.9055 131.442 39.864 131.407C39.8234 131.373 39.7887 131.335 39.7597 131.292C39.7315 131.249 39.712 131.205 39.7011 131.161C39.6858 131.098 39.6851 131.042 39.6992 130.994C39.714 130.945 39.7326 130.894 39.755 130.841C39.7704 130.807 39.786 130.773 39.8017 130.74C39.8171 130.705 39.8328 130.67 39.8488 130.634C39.8647 130.597 39.8818 130.559 39.8999 130.518C39.918 130.478 39.937 130.435 39.9569 130.39L40.08 130.461C40.0603 130.503 40.0414 130.543 40.0234 130.579C40.0064 130.615 39.9903 130.649 39.9752 130.68C39.9598 130.711 39.9455 130.739 39.9322 130.765C39.9198 130.791 39.9077 130.813 39.8961 130.833L39.9022 130.84C39.9092 130.834 39.9231 130.829 39.9436 130.824C39.9649 130.818 39.99 130.815 40.019 130.815C40.076 130.815 40.1339 130.83 40.1929 130.859C40.2518 130.888 40.3042 130.929 40.3502 130.982C40.397 131.033 40.4286 131.093 40.4452 131.161C40.4575 131.211 40.4593 131.259 40.4505 131.303C40.4424 131.346 40.4254 131.385 40.3994 131.418C40.3741 131.45 40.3415 131.476 40.3014 131.494C40.2613 131.512 40.2153 131.521 40.1636 131.521ZM40.132 131.398C40.1787 131.398 40.2172 131.389 40.2477 131.37C40.279 131.349 40.3008 131.322 40.3132 131.288C40.3252 131.252 40.3257 131.212 40.3146 131.167C40.3035 131.121 40.2829 131.081 40.2528 131.047C40.2234 131.012 40.1882 130.984 40.1473 130.965C40.1071 130.945 40.0643 130.935 40.0188 130.935C39.9742 130.935 39.9358 130.945 39.9034 130.965C39.8721 130.985 39.8499 131.013 39.8368 131.049C39.8245 131.083 39.8238 131.122 39.8346 131.167C39.8455 131.211 39.8656 131.251 39.8949 131.286C39.924 131.321 39.9592 131.348 40.0004 131.368C40.0426 131.388 40.0865 131.398 40.132 131.398ZM40.8733 131.521L40.7502 131.45C40.7699 131.407 40.7883 131.368 40.8052 131.332C40.8233 131.295 40.84 131.262 40.8554 131.232C40.8705 131.2 40.8843 131.172 40.8968 131.147C40.9101 131.121 40.9225 131.097 40.9341 131.077L40.928 131.071C40.921 131.076 40.9073 131.082 40.887 131.088C40.8665 131.093 40.8412 131.095 40.8112 131.095C40.7552 131.095 40.6973 131.081 40.6373 131.052C40.5784 131.022 40.5255 130.982 40.4788 130.93C40.4329 130.878 40.4015 130.818 40.385 130.75C40.3685 130.683 40.3702 130.621 40.3899 130.567C40.4098 130.512 40.4438 130.469 40.492 130.438C40.5401 130.406 40.5983 130.39 40.6666 130.39C40.7236 130.39 40.7775 130.4 40.8282 130.422C40.8797 130.442 40.9257 130.469 40.9662 130.503C41.0078 130.538 41.0427 130.576 41.0708 130.62C41.0988 130.662 41.1182 130.706 41.1291 130.75C41.1444 130.813 41.1452 130.869 41.1313 130.918C41.1173 130.967 41.0986 131.017 41.0752 131.07C41.0552 131.115 41.0349 131.161 41.0141 131.208C40.9931 131.253 40.9708 131.301 40.9471 131.353C40.9245 131.404 40.8999 131.46 40.8733 131.521ZM40.8114 130.976C40.857 130.976 40.8955 130.966 40.9267 130.946C40.9581 130.925 40.9799 130.898 40.9922 130.864C41.0053 130.828 41.0064 130.789 40.9956 130.744C40.9847 130.7 40.9648 130.66 40.9356 130.626C40.9063 130.591 40.871 130.563 40.8298 130.543C40.7887 130.522 40.7447 130.512 40.6981 130.512C40.6526 130.512 40.6142 130.522 40.5828 130.543C40.5513 130.562 40.5295 130.589 40.5174 130.624C40.5051 130.659 40.5045 130.699 40.5156 130.744C40.5267 130.79 40.547 130.83 40.5763 130.865C40.6064 130.9 40.6421 130.927 40.6832 130.947C40.7242 130.966 40.7669 130.976 40.8114 130.976Z" fill="white"/>
<path d="M36.2376 136.646L35.5919 134.005L35.1687 134.368L34.721 133.879L35.5484 133.176H36.0405L36.8887 136.646H36.2376ZM38.9157 136.724C38.7335 136.724 38.5516 136.692 38.3701 136.627C38.1919 136.562 38.0257 136.465 37.8715 136.336C37.7206 136.207 37.5917 136.045 37.4846 135.851L38.043 135.614C38.1214 135.772 38.2227 135.895 38.3467 135.982C38.4733 136.066 38.6128 136.108 38.7653 136.108C38.8581 136.108 38.9395 136.089 39.0095 136.05C39.0796 136.011 39.1312 135.958 39.1643 135.89C39.1966 135.819 39.201 135.735 39.1773 135.638C39.1528 135.538 39.1054 135.452 39.035 135.381C38.9671 135.307 38.882 135.251 38.7797 135.212C38.68 135.17 38.5672 135.149 38.4412 135.149H38.148L38.007 134.572H38.2754C38.3682 134.572 38.4483 134.554 38.5159 134.519C38.5859 134.48 38.6371 134.425 38.6695 134.354C38.7018 134.283 38.7065 134.2 38.6836 134.107C38.6639 134.026 38.6279 133.953 38.5756 133.889C38.5234 133.824 38.4597 133.774 38.3848 133.738C38.309 133.7 38.2264 133.68 38.1369 133.68C38.0375 133.68 37.9602 133.703 37.905 133.748C37.849 133.79 37.8073 133.843 37.78 133.908C37.7561 133.973 37.742 134.037 37.738 134.102L37.0884 133.864C37.1013 133.755 37.1399 133.641 37.2043 133.525C37.2678 133.406 37.3643 133.305 37.4937 133.225C37.6223 133.141 37.791 133.099 37.9997 133.099C38.2185 133.099 38.4197 133.142 38.6034 133.229C38.7896 133.313 38.9465 133.427 39.074 133.569C39.2016 133.711 39.2859 133.866 39.327 134.034C39.3586 134.163 39.3658 134.281 39.3489 134.388C39.331 134.491 39.2981 134.58 39.2499 134.654C39.2044 134.725 39.1495 134.779 39.0852 134.814L39.0947 134.853C39.2102 134.892 39.3193 134.952 39.4219 135.032C39.5245 135.113 39.6145 135.21 39.6918 135.323C39.7684 135.433 39.8237 135.557 39.8576 135.696C39.9042 135.887 39.8972 136.061 39.8365 136.22C39.7749 136.375 39.6657 136.498 39.5089 136.588C39.3521 136.679 39.1543 136.724 38.9157 136.724ZM40.5567 134.548C40.4374 134.548 40.3248 134.507 40.2189 134.427C40.1155 134.343 40.0496 134.242 40.0212 134.126C39.9928 134.01 40.0101 133.911 40.0732 133.83C40.1396 133.75 40.2325 133.709 40.3518 133.709C40.4711 133.709 40.582 133.75 40.6846 133.83C40.7905 133.911 40.8577 134.01 40.8861 134.126C40.9146 134.242 40.8959 134.343 40.8303 134.427C40.7672 134.507 40.676 134.548 40.5567 134.548ZM40.9773 136.268C40.858 136.268 40.7454 136.228 40.6395 136.147C40.5361 136.063 40.4702 135.963 40.4418 135.847C40.4133 135.73 40.4307 135.632 40.4938 135.551C40.5602 135.47 40.6531 135.43 40.7724 135.43C40.8917 135.43 41.0026 135.47 41.1052 135.551C41.2111 135.632 41.2783 135.73 41.3067 135.847C41.3351 135.963 41.3165 136.063 41.2509 136.147C41.1878 136.228 41.0966 136.268 40.9773 136.268ZM43.4703 136.724C43.2516 136.724 43.0434 136.679 42.8456 136.588C42.6471 136.494 42.4651 136.367 42.2997 136.205C42.1368 136.04 41.9953 135.848 41.8754 135.629C41.7554 135.409 41.6642 135.171 41.6018 134.916C41.5378 134.654 41.5121 134.414 41.5247 134.194C41.5372 133.974 41.5847 133.782 41.6671 133.617C41.7527 133.452 41.8723 133.325 42.0258 133.234C42.1793 133.144 42.3655 133.099 42.5842 133.099C42.8029 133.099 43.0111 133.144 43.2089 133.234C43.4066 133.325 43.5869 133.452 43.7499 133.617C43.916 133.782 44.0592 133.974 44.1791 134.194C44.2991 134.414 44.3911 134.654 44.4551 134.916C44.5175 135.171 44.5424 135.409 44.5298 135.629C44.5173 135.848 44.4681 136.04 44.3825 136.205C44.2993 136.367 44.1814 136.494 44.0287 136.588C43.8752 136.679 43.6891 136.724 43.4703 136.724ZM43.3246 136.128C43.487 136.128 43.6132 136.074 43.7031 135.968C43.793 135.861 43.8453 135.716 43.8599 135.532C43.8779 135.347 43.8588 135.141 43.8027 134.911C43.7451 134.675 43.6627 134.467 43.5554 134.286C43.4508 134.102 43.3278 133.958 43.1865 133.855C43.0445 133.748 42.8923 133.695 42.7299 133.695C42.5708 133.695 42.4463 133.748 42.3564 133.855C42.2657 133.958 42.2114 134.102 42.1934 134.286C42.178 134.467 42.1991 134.675 42.2568 134.911C42.3128 135.141 42.3932 135.347 42.4979 135.532C42.6059 135.716 42.7309 135.861 42.8729 135.968C43.015 136.074 43.1656 136.128 43.3246 136.128ZM46.8101 136.724C46.5914 136.724 46.3832 136.679 46.1854 136.588C45.9869 136.494 45.8049 136.367 45.6395 136.205C45.4766 136.04 45.3351 135.848 45.2152 135.629C45.0952 135.409 45.004 135.171 44.9416 134.916C44.8776 134.654 44.852 134.414 44.8645 134.194C44.8771 133.974 44.9245 133.782 45.0069 133.617C45.0925 133.452 45.2121 133.325 45.3656 133.234C45.5191 133.144 45.7053 133.099 45.924 133.099C46.1427 133.099 46.351 133.144 46.5487 133.234C46.7464 133.325 46.9267 133.452 47.0897 133.617C47.2558 133.782 47.399 133.974 47.519 134.194C47.6389 134.414 47.7309 134.654 47.7949 134.916C47.8573 135.171 47.8822 135.409 47.8696 135.629C47.8571 135.848 47.8079 136.04 47.7223 136.205C47.6391 136.367 47.5212 136.494 47.3685 136.588C47.215 136.679 47.0289 136.724 46.8101 136.724ZM46.6644 136.128C46.8268 136.128 46.953 136.074 47.0429 135.968C47.1328 135.861 47.1851 135.716 47.1997 135.532C47.2177 135.347 47.1986 135.141 47.1425 134.911C47.0849 134.675 47.0025 134.467 46.8952 134.286C46.7906 134.102 46.6676 133.958 46.5264 133.855C46.3843 133.748 46.2321 133.695 46.0697 133.695C45.9106 133.695 45.7861 133.748 45.6962 133.855C45.6055 133.958 45.5512 134.102 45.5332 134.286C45.5178 134.467 45.5389 134.675 45.5966 134.911C45.6526 135.141 45.733 135.347 45.8377 135.532C45.9457 135.716 46.0707 135.861 46.2127 135.968C46.3548 136.074 46.5054 136.128 46.6644 136.128ZM50.2273 136.646L49.8008 134.902H50.1885C50.1376 135.005 50.031 135.057 49.8685 135.057C49.6995 135.057 49.5481 135.007 49.4143 134.906C49.2804 134.806 49.1942 134.677 49.1555 134.519C49.116 134.357 49.1387 134.226 49.2235 134.126C49.311 134.023 49.4408 133.971 49.6131 133.971C49.7954 133.971 49.9526 134.024 50.0847 134.131C50.2193 134.234 50.3076 134.372 50.3494 134.543L50.7807 136.307L50.5345 136.215L51.2567 135.57C51.3162 135.515 51.3515 135.47 51.3627 135.435C51.3765 135.396 51.3754 135.344 51.3596 135.28L51.054 134.029H51.6902L52.0149 135.357C52.037 135.448 52.0373 135.523 52.0159 135.585C51.9944 135.646 51.9452 135.709 51.8682 135.774L51.3549 136.196L50.8437 136.646H50.2273ZM49.7932 134.708C49.8495 134.708 49.8899 134.69 49.9144 134.654C49.9421 134.619 49.9493 134.574 49.9359 134.519C49.9225 134.464 49.8931 134.418 49.848 134.383C49.8062 134.347 49.7571 134.33 49.7008 134.33C49.6445 134.33 49.6024 134.347 49.5746 134.383C49.5469 134.418 49.5397 134.464 49.5531 134.519C49.5665 134.574 49.5959 134.619 49.641 134.654C49.6861 134.69 49.7369 134.708 49.7932 134.708ZM51.9962 136.704C51.814 136.704 51.6498 136.65 51.5036 136.54C51.3567 136.427 51.2627 136.286 51.2216 136.118C51.1805 135.95 51.205 135.813 51.2949 135.706C51.3848 135.599 51.5192 135.546 51.6982 135.546C51.8837 135.546 52.0496 135.601 52.1958 135.711C52.3419 135.821 52.436 135.961 52.4778 136.133C52.5181 136.297 52.4936 136.435 52.4045 136.545C52.3146 136.651 52.1785 136.704 51.9962 136.704ZM51.9012 136.336C51.9642 136.336 52.0108 136.317 52.0411 136.278C52.0706 136.236 52.0779 136.184 52.0629 136.123C52.0478 136.061 52.0157 136.011 51.9665 135.973C51.9164 135.931 51.86 135.91 51.797 135.91C51.734 135.91 51.6878 135.931 51.6583 135.973C51.628 136.011 51.6203 136.061 51.6354 136.123C51.6504 136.184 51.6829 136.236 51.7329 136.278C51.7822 136.317 51.8382 136.336 51.9012 136.336ZM53.4456 136.675C53.3263 136.675 53.2137 136.635 53.1078 136.554C53.0044 136.47 52.9385 136.37 52.9101 136.254C52.8816 136.137 52.8989 136.039 52.9621 135.958C53.0285 135.877 53.1213 135.837 53.2406 135.837C53.3599 135.837 53.4709 135.877 53.5735 135.958C53.6794 136.039 53.7466 136.137 53.775 136.254C53.8034 136.37 53.7848 136.47 53.7192 136.554C53.6561 136.635 53.5649 136.675 53.4456 136.675Z" fill="white"/>
<path d="M66.3007 171.103H45.4852C44.4557 171.103 43.82 171.916 44.0654 172.92L44.6947 175.495C44.9401 176.498 45.9736 177.312 47.0031 177.312H67.8186C68.8481 177.312 69.4838 176.498 69.2384 175.495L68.609 172.92C68.3637 171.916 67.3302 171.103 66.3007 171.103Z" fill="white"/>
<path d="M48.6233 176.631C49.9959 176.631 50.8435 175.546 50.5164 174.207C50.1892 172.869 48.8112 171.784 47.4386 171.784C46.0659 171.784 45.2183 172.869 45.5455 174.207C45.8726 175.546 47.2506 176.631 48.6233 176.631Z" fill="#D9D9D9"/>
<path d="M59.0576 171.973H52.2226C51.665 171.973 51.3206 172.414 51.4535 172.958C51.5864 173.501 52.1462 173.942 52.7039 173.942H59.5388C60.0965 173.942 60.4408 173.501 60.3079 172.958C60.175 172.414 59.6152 171.973 59.0576 171.973Z" fill="#D9D9D9"/>
<path d="M65.5436 175.154H52.6504C52.2858 175.154 52.0607 175.442 52.1476 175.797C52.2345 176.153 52.6005 176.441 52.9651 176.441H65.8583C66.2229 176.441 66.4481 176.153 66.3612 175.797C66.2743 175.442 65.9082 175.154 65.5436 175.154Z" fill="#D9D9D9"/>
</g>
</g>
<path d="M106.497 104.303C107.092 106.815 105.186 109.224 102.605 109.224H76.026C74.1719 109.224 72.5607 107.95 72.1336 106.146L62.6532 66.0972C62.0585 63.585 63.964 61.1758 66.5456 61.1758H93.1244C94.9786 61.1758 96.5897 62.45 97.0168 64.2544L106.497 104.303Z" fill="#E8F5F6"/>
<path d="M93.8789 70.1733H68.1577L66.8977 64.8511H92.6192L93.8789 70.1733Z" fill="#E05A5A"/>
<path d="M96.2217 80.0705H70.5002L69.4318 75.5581H95.1533L96.2217 80.0705Z" fill="#B6CDC6"/>
<path d="M97.6387 86.0471H80.8611L79.7928 81.5347H96.5703L97.6387 86.0471Z" fill="#B6CDC6"/>
<path d="M99.0527 92.0241H79.0871L78.019 87.5117H97.9849L99.0527 92.0241Z" fill="#B6CDC6"/>
<path d="M100.469 98.0011H88.1229L87.0549 93.4888H99.4004L100.469 98.0011Z" fill="#B6CDC6"/>
<path d="M102.184 105.255H83.9934L82.9253 100.743H101.116L102.184 105.255Z" fill="#B6CDC6"/>
<path d="M44.7858 195.21H131.355C133.365 195.21 135.213 194.328 136.428 192.789C137.661 191.227 138.092 189.184 137.61 187.184L122.722 125.37C121.474 120.186 116.734 116.423 111.454 116.423H25.5662C23.5566 116.423 21.708 117.305 20.4938 118.844C19.2612 120.406 18.8302 122.448 19.3118 124.448L34.3609 186.933C35.5158 191.729 39.8999 195.21 44.7858 195.21ZM111.454 119.879C115.154 119.879 118.478 122.529 119.357 126.178L134.244 187.992C134.476 188.956 134.281 189.925 133.709 190.65C133.147 191.362 132.312 191.754 131.356 191.754H44.7863C41.4812 191.754 38.512 189.386 37.7266 186.125L22.6774 123.64C22.4454 122.677 22.6404 121.708 23.2125 120.983C23.7744 120.271 24.61 119.879 25.5662 119.879H111.454Z" fill="white"/>
<path d="M59.0518 218.679L46.4318 198.715C46.4318 198.715 51.0519 194.306 49.4653 187.884C47.8329 181.279 42.7254 177.839 42.5348 177.102C41.8476 174.443 45.0776 168.06 41.9333 164.92C38.789 161.781 32.5717 168.118 32.9979 181.305L26.9072 155.951C26.9072 155.951 16.5515 163.187 19.5422 182.936C21.4385 195.46 40.144 226.802 41.5503 226.637C42.957 226.472 59.0518 218.679 59.0518 218.679Z" fill="#E18B71"/>
<path d="M59.836 204.661C62.1735 208.158 87.363 243.556 90.4405 244.741C94.7536 246.4 114.114 198.447 123.875 191.863C137.08 182.956 155.891 178.292 155.891 178.292C155.891 178.292 153.369 170.841 155.48 168.637C157.591 166.434 200.928 161.613 206.9 165.125C210.398 167.182 210.733 174.206 210.733 174.206C210.733 174.206 228.398 175.023 240.879 185.702C257.103 199.584 269.164 258.922 275.772 303.908H129.891C131.011 289.139 132.111 276.343 132.111 276.343C132.111 276.343 108.32 311.752 83.3287 296.543C60.3682 282.57 36.2004 238.555 30.4744 222.493C26.5466 211.476 56.7155 199.993 59.836 204.661Z" fill="#F0F0F0"/>
<path d="M28.7477 163.353L29.3279 165.803C27.819 168.258 25.708 172.42 26.0789 174.885C26.4395 177.279 30.1932 181.291 32.9369 183.886L30.6536 171.404L32.9974 181.306C32.9281 179.158 33.0372 177.195 33.2784 175.422L35.2217 185.949C34.7196 186.324 34.2201 186.702 33.7234 187.085C32.6947 186.208 24.895 179.44 24.2503 175.16C23.6873 171.427 27.0911 165.618 28.7477 163.353Z" fill="#B65C47"/>
<path opacity="0.1" d="M75.2931 124.894C75.6977 124.943 76.1107 124.957 76.5315 124.932C76.6953 124.922 76.8559 124.902 77.0164 124.882L85.1426 124.83C84.8739 125.258 84.5111 125.632 84.0651 125.942C81.9404 127.42 78.9797 127.779 76.2482 127.426C73.9612 127.13 71.8219 126.221 69.8933 124.929L75.2931 124.894Z" fill="#B8F7FF"/>
<path d="M90.4403 244.74C90.9267 244.927 91.6056 244.479 92.4395 243.535C89.9934 246.766 87.3435 249.828 83.8958 252.055C82.399 253.022 80.8473 250.731 82.3474 249.763C84.9496 248.082 87.0558 245.879 88.9723 243.5C89.6394 244.191 90.1434 244.626 90.4403 244.74Z" fill="#CECECE"/>
<path d="M46.0618 219.529C51.7357 216.15 57.9445 212.925 64.424 211.187C64.9642 211.944 65.5375 212.745 66.1396 213.585C59.5997 215.143 53.2866 218.442 47.6101 221.821C42.7392 224.722 38.2115 228.289 34.9169 232.867C34.45 231.892 34.0099 230.949 33.5946 230.037C36.9778 225.77 41.3569 222.33 46.0618 219.529Z" fill="#CECECE"/>
<path d="M52.4979 81.1543C54.3462 81.1543 55.9538 82.4206 56.3867 84.2174L61.2363 104.346C61.8372 106.84 59.9676 109.247 57.4021 109.282L29.6679 109.661C27.8165 109.686 26.1898 108.437 25.7355 106.642L20.546 86.1356C19.9064 83.6083 21.8167 81.1543 24.4237 81.1543H52.4979Z" fill="#E8F5F6"/>
<path d="M26.0281 87.5112H53.4678L52.5027 83.7983H25.0629L26.0281 87.5112Z" fill="#4FA2A4"/>
<path d="M30.6114 106.433L26.5917 90.1675H54.0312L58.0508 106.433H30.6114Z" fill="#B6CDC6"/>
</g>
</g>
<defs>
<clipPath id="clip0_176_22069">
<rect width="124" height="252" rx="62" fill="white"/>
</clipPath>
<clipPath id="clip1_176_22069">
<rect width="88" height="58" fill="white" transform="matrix(1 0 0.237453 0.971399 29 124)"/>
</clipPath>
</defs>
</svg>
