<svg width="124" height="204" viewBox="0 0 124 204" fill="none" xmlns="http://www.w3.org/2000/svg">
<g clip-path="url(#clip0_176_22551)">
<rect width="124" height="204" rx="62" fill="#29ABE2"/>
<path d="M162 236C162 291.228 117.228 336 62 336C6.77153 336 -38 291.228 -38 236C-38 180.772 6.77153 136 62 136C117.228 136 162 180.772 162 236ZM-16.7 236C-16.7 279.465 18.5352 314.7 62 314.7C105.465 314.7 140.7 279.465 140.7 236C140.7 192.535 105.465 157.3 62 157.3C18.5352 157.3 -16.7 192.535 -16.7 236Z" fill="black" fill-opacity="0.05"/>
<mask id="mask0_176_22551" style="mask-type:alpha" maskUnits="userSpaceOnUse" x="0" y="0" width="124" height="204">
<rect width="124" height="204" rx="62" fill="#29ABE2"/>
</mask>
<g mask="url(#mask0_176_22551)">
<path d="M245.5 208.223C245.31 205.779 244.865 203.242 244.224 200.657H-32.8945C-32.7326 203.272 -32.4552 205.792 -32.0815 208.223H245.5Z" fill="#C2DAD2"/>
<path d="M113.353 168.355L114.973 168.288C114.97 168.234 114.742 162.746 114.229 157.046C113.167 145.258 111.948 144.057 111.489 143.605C109.765 141.907 103.942 141.688 101.519 141.672C97.918 141.648 93.1995 142.005 91.7703 143.085C91.0159 143.655 90.0387 145.332 89.1705 153.304C88.7024 157.602 88.4952 161.755 88.4932 161.796L90.1123 161.876C90.1145 161.835 90.3197 157.724 90.783 153.473C91.6611 145.413 92.6392 144.461 92.7477 144.379C93.4657 143.836 96.7892 143.292 101.167 143.292C101.28 143.292 101.394 143.293 101.509 143.293C106.622 143.326 109.634 144.054 110.351 144.76C110.646 145.05 111.678 146.802 112.613 157.186C113.123 162.847 113.35 168.3 113.353 168.355Z" fill="#1F3C44"/>
<path d="M85.4136 101.489C81.4503 104.732 85.7739 117.533 85.4136 118.518C85.0532 119.503 81.6748 133.474 85.4352 137.794C88.5661 141.391 92.9795 141.12 92.9795 141.12L93.3398 146.705L87.7446 148.582C87.7446 148.582 99.4648 163.098 99.8251 162.918C100.185 162.738 115.497 147.606 116.038 147.425C116.578 147.245 109.553 145.984 109.553 145.984L110.093 134.635C110.093 134.635 116.398 122.386 114.957 115C113.516 107.614 116.218 96.0848 103.248 96.6253C90.2778 97.1657 85.4137 101.489 85.4137 101.489L85.4136 101.489Z" fill="#E18B71"/>
<path d="M110.093 134.635C110.093 134.635 111.758 131.398 113.182 127.249H111.994C111.994 127.249 110.813 133.374 106.67 136.616C102.527 139.859 92.5899 141.086 92.5889 141.087C92.8449 141.12 92.979 141.12 92.979 141.12L93.3341 146.625C95.9294 146.523 104.673 146.187 109.709 142.697L110.093 134.635Z" fill="#B65C47"/>
<path d="M46.0529 126.799C46.0529 126.979 46.0529 128.6 45.8727 128.961C45.6926 129.321 38.9873 128.961 38.9873 128.961C38.9873 128.961 39.2076 127.159 39.3878 127.159C39.5679 127.159 46.0529 126.799 46.0529 126.799Z" fill="white"/>
<path d="M41.0995 98.9667C45.616 101.777 46.1435 114.999 46.5038 115.54C46.8641 116.08 53.5293 117.341 53.169 120.584C52.8087 123.826 47.1412 124.586 47.1412 124.586C47.1412 124.586 47.7788 127.273 47.1412 127.621C46.5036 127.97 40.1987 126.709 39.8384 128.69C39.4781 130.672 46.1435 131.392 46.1435 131.933C46.1435 132.473 45.4229 139.138 42.3604 142.021C39.298 144.903 33.7135 143.642 33.3534 143.642C32.9933 143.642 31.552 154.27 31.552 154.27L15.3391 151.388C15.3391 151.388 17.8611 141.12 17.8611 138.958C17.8611 136.797 5.6115 115.179 9.93485 105.452C14.2582 95.7241 32.993 93.9225 41.0995 98.9667Z" fill="#D57163"/>
<path d="M41.0988 98.9667C45.6154 101.777 46.1428 114.999 46.5031 115.54C46.8634 116.08 53.5287 117.341 53.1683 120.584C52.808 123.826 47.1405 124.586 47.1405 124.586C47.1405 124.586 47.7781 127.273 47.1405 127.621C46.503 127.97 40.198 126.709 39.8377 128.69C39.4774 130.672 46.1428 131.392 46.1428 131.933C46.1428 132.473 45.4222 139.138 42.3598 142.021C39.2973 144.903 33.7128 143.642 33.3527 143.642C32.9926 143.642 31.5514 154.27 31.5514 154.27L15.3385 151.388C15.3385 151.388 17.0497 138.508 17.0497 136.346C17.0497 134.185 5.61064 115.179 9.9342 105.452C14.2576 95.7241 32.9924 93.9225 41.0988 98.9667Z" fill="#D57163"/>
<path d="M25.9665 139.499C21.463 135.356 22.3636 126.168 22.3636 126.168C22.3636 126.168 17.4096 124.575 17.2295 124.637C17.2295 124.637 17.6799 128.33 17.6799 128.51C17.6799 128.69 20.0217 128.69 20.0217 128.69C20.0217 128.69 18.5807 140.579 22.7291 145.158C24.6105 147.235 28.6377 147.857 32.4774 147.917C32.8351 145.648 33.1957 143.642 33.3521 143.642C33.678 143.642 38.2774 144.673 41.4191 142.737C39.5611 142.85 30.0221 143.229 25.9663 139.498L25.9665 139.499Z" fill="#A94D43"/>
<path d="M14.3482 132.744C14.4383 132.834 18.7616 132.113 18.6716 132.023C18.6716 132.023 17.1787 118.242 17.3396 118.152C17.5005 118.062 21.6439 116.186 21.6439 116.186L24.2787 120.274L27.8315 119.485C27.8315 119.485 26.0044 112.275 26.1661 110.575C26.3278 108.875 29.3123 109.075 29.4413 108.074C29.5703 107.074 28.3093 103.651 29.0297 103.11C29.7502 102.57 42 99.8045 42.2702 100.016C42.5405 100.228 43.4412 95.7245 36.2354 93.9232C29.0295 92.1218 11.3758 93.3827 7.41256 103.11C3.44952 112.838 14.348 132.744 14.348 132.744L14.3482 132.744Z" fill="#1F3C44"/>
<path d="M41.8196 118.152C42.0683 118.152 42.2699 116.942 42.2699 115.45C42.2699 113.957 42.0683 112.748 41.8196 112.748C41.5708 112.748 41.3691 113.957 41.3691 115.45C41.3691 116.942 41.5708 118.152 41.8196 118.152Z" fill="#1F3C44"/>
<path d="M42.4016 119.818C42.3803 119.742 42.3415 119.675 42.2858 119.619C42.2555 119.596 42.225 119.572 42.1947 119.549C42.1244 119.508 42.0487 119.487 41.9674 119.487C41.8886 119.482 41.8093 119.484 41.731 119.494C41.6145 119.508 41.501 119.523 41.3889 119.559C41.2781 119.594 41.1791 119.664 41.1196 119.766C41.0867 119.818 41.0688 119.874 41.066 119.934C41.0525 119.993 41.0554 120.053 41.074 120.113C41.0891 120.149 41.1043 120.185 41.1194 120.221C41.1595 120.288 41.2133 120.342 41.2809 120.382C41.3168 120.397 41.3525 120.412 41.3884 120.427C41.4682 120.449 41.5481 120.449 41.628 120.427C41.6823 120.41 41.7385 120.4 41.7947 120.39C41.8521 120.386 41.9096 120.384 41.967 120.388C42.029 120.39 42.0867 120.377 42.1405 120.349C42.1963 120.331 42.2446 120.3 42.2854 120.256C42.3293 120.215 42.3604 120.167 42.3784 120.111C42.4065 120.057 42.4196 120 42.4172 119.938C42.4118 119.898 42.4064 119.858 42.4012 119.818H42.4016Z" fill="#B65C47"/>
<path d="M43.1639 107.634C42.9894 107.094 42.4116 106.696 41.8344 106.879C41.3648 107.028 40.8879 107.138 40.4006 107.21C39.8395 107.293 39.4811 108.031 39.6456 108.54C39.844 109.153 40.3737 109.384 40.9753 109.295C41.4626 109.223 41.9396 109.112 42.4093 108.964C42.9473 108.793 43.3485 108.204 43.1639 107.634Z" fill="#1F3C44"/>
<path d="M45.0687 110.575H44.168V121.797H45.0687V110.575Z" fill="white"/>
<path d="M21.6441 117.432L21.6436 116.531C21.8801 116.53 44.387 116.272 44.6145 116.27L44.6248 117.17C43.6939 117.181 21.8247 117.432 21.6441 117.432Z" fill="white"/>
<path d="M24.9475 120.643C25.3777 124.109 23.7629 126.973 21.341 127.04C18.9191 127.107 16.6069 124.351 16.1768 120.885C15.7467 117.419 17.3615 114.555 19.7833 114.488C22.2052 114.421 24.5174 117.177 24.9475 120.643Z" fill="#D57163"/>
<path d="M23.1747 123.478L22.2742 123.454C22.3296 121.405 21.9366 119.933 21.1065 119.078C20.2384 118.183 19.0834 118.18 18.5283 118.178C18.2458 118.177 18.059 118.176 17.9023 118.02L18.5392 117.383C18.4435 117.287 18.3411 117.274 18.3369 117.273C18.3648 117.277 18.4569 117.277 18.5309 117.277C19.1561 117.279 20.6203 117.283 21.7526 118.45C22.7581 119.487 23.2365 121.178 23.1745 123.478L23.1747 123.478Z" fill="#B65C47"/>
<path d="M22.1057 119.515L19.3408 120.135L19.5379 121.014L22.3028 120.394L22.1057 119.515Z" fill="#B65C47"/>
<path d="M23.805 149.046C42.3598 147.965 47.4937 183.904 47.6739 186.246C47.854 188.587 49.025 234.254 47.0433 235.335C45.0618 236.415 0.0261065 237.496 -1.77526 236.415C-3.57662 235.335 -6.4589 186.876 3.0886 160.395C8.61467 145.068 23.805 149.047 23.805 149.047V149.046Z" fill="#438888"/>
<path d="M4.62433 196.026L4.41812 195.876C4.13244 195.655 3.92597 195.496 4.69976 181.934C5.07572 175.345 5.51692 168.718 5.52134 168.651L6.41991 168.711C5.78174 178.284 4.9355 192.603 5.06691 195.04C7.57927 194.867 18.6202 194.643 24.0634 194.54L23.4082 168.693L24.3086 168.67L24.987 195.424L24.5337 195.432C17.0197 195.573 5.61724 195.828 4.83141 195.957L4.62413 196.026L4.62433 196.026ZM4.85228 195.95L4.84689 195.952C4.8489 195.951 4.85047 195.95 4.85228 195.95Z" fill="#387775"/>
<path d="M24.3426 187.747L4.69922 188.23L4.72136 189.131L24.3647 188.648L24.3426 187.747Z" fill="#387775"/>
<path d="M59.835 190.952C59.835 190.952 58.3939 202.008 58.9342 218.761C59.1204 224.533 61.6364 241.702 61.6364 241.702C61.6364 241.702 55.3313 251.727 55.8717 254.43C56.4122 257.132 59.8349 258.393 59.8349 258.393C59.8349 258.393 61.456 260.554 62.5369 260.915C63.6179 261.275 64.6986 260.194 64.6986 260.194C64.6986 260.194 68.4818 262.536 70.4633 261.635C72.4448 260.734 72.5759 258.414 72.0844 257.856C70.7334 256.321 70.1029 258.933 69.2922 258.483C68.0227 257.777 66.9504 255.601 67.0405 254.25C67.1342 252.846 69.5625 248.845 70.4633 249.206C71.3641 249.566 69.3823 254.069 70.8236 254.97C72.2646 255.871 76.2278 257.312 76.9485 255.511C77.6691 253.709 74.0483 253.889 74.0573 253.349C74.0661 252.809 77.3087 250.106 75.6875 247.584C74.0663 245.062 70.1031 242.36 70.1031 242.36L70.8238 194.803L59.835 190.952V190.952Z" fill="#E18B71"/>
<path d="M89.1074 117.566C89.1074 119.034 88.8451 120.223 88.5219 120.223C88.1987 120.223 87.9365 119.034 87.9365 117.566C87.9365 116.099 88.1985 114.909 88.5219 114.909C88.8453 114.909 89.1074 116.099 89.1074 117.566Z" fill="#1F3C44"/>
<path d="M101.493 120.223C101.816 120.223 102.078 119.034 102.078 117.566C102.078 116.099 101.816 114.909 101.493 114.909C101.169 114.909 100.907 116.099 100.907 117.566C100.907 119.034 101.169 120.223 101.493 120.223Z" fill="#1F3C44"/>
<path d="M88.9369 121.296C88.9157 121.22 88.8769 121.154 88.8211 121.098C88.7331 121.017 88.6247 120.966 88.5028 120.966H88.0249C87.9629 120.963 87.9051 120.976 87.8513 121.004C87.7956 121.023 87.7472 121.053 87.7063 121.097C87.6623 121.138 87.6313 121.187 87.6132 121.242C87.5849 121.296 87.5721 121.354 87.5745 121.416C87.5799 121.456 87.5852 121.496 87.5906 121.536C87.612 121.612 87.6505 121.678 87.7063 121.734C87.7943 121.815 87.9026 121.866 88.0246 121.866H88.5026C88.5646 121.868 88.6223 121.855 88.6761 121.827C88.7318 121.809 88.7802 121.778 88.8209 121.734C88.8649 121.693 88.8959 121.645 88.914 121.589C88.9421 121.536 88.9552 121.478 88.9528 121.416C88.9474 121.376 88.9419 121.336 88.9367 121.296L88.9369 121.296Z" fill="#B65C47"/>
<path d="M102.277 121.481C102.256 121.404 102.217 121.338 102.161 121.282C102.131 121.259 102.1 121.235 102.07 121.212C102 121.171 101.924 121.15 101.843 121.15H101.475C101.413 121.148 101.355 121.161 101.302 121.189C101.246 121.207 101.197 121.238 101.157 121.282C101.113 121.323 101.081 121.371 101.063 121.427C101.035 121.48 101.022 121.538 101.025 121.6C101.03 121.64 101.036 121.68 101.041 121.72C101.062 121.796 101.101 121.863 101.157 121.919C101.187 121.942 101.217 121.966 101.248 121.989C101.318 122.03 101.394 122.051 101.475 122.051H101.843C101.905 122.053 101.962 122.04 102.016 122.012C102.072 121.994 102.12 121.963 102.161 121.919C102.205 121.878 102.236 121.83 102.254 121.774C102.282 121.72 102.295 121.663 102.293 121.601C102.288 121.561 102.282 121.521 102.277 121.481L102.277 121.481Z" fill="#B65C47"/>
<path d="M88.9077 109.839C88.4053 109.868 87.9032 109.874 87.4002 109.858C86.8345 109.839 86.2937 110.368 86.3192 110.939C86.3461 111.54 86.7941 111.999 87.4002 112.019C87.9032 112.036 88.4053 112.03 88.9077 112.001C89.471 111.968 90.0157 111.527 89.9886 110.92C89.9637 110.362 89.5124 109.804 88.9077 109.839Z" fill="#1F3C44"/>
<path d="M103.159 110.178C102.421 109.542 101.418 109.501 100.484 109.445C99.9008 109.41 99.4033 109.967 99.4033 110.526C99.4033 111.14 99.899 111.572 100.484 111.607C100.735 111.622 100.987 111.639 101.236 111.672C101.362 111.689 101.485 111.719 101.609 111.738C101.658 111.745 101.686 111.755 101.696 111.759C102.135 112.091 102.745 112.12 103.159 111.707C103.548 111.317 103.603 110.561 103.159 110.178L103.159 110.178Z" fill="#1F3C44"/>
<path d="M94.8069 125.401C93.9039 125.401 92.9953 125.167 92.2343 124.717C91.3175 124.174 90.7217 123.374 90.5562 122.465C90.239 120.721 92.1104 119.333 93.2286 118.503C93.473 118.322 93.7739 118.099 93.8576 118.003C93.9954 117.575 93.7494 115.323 93.4375 113.452L94.3258 113.304C94.6681 115.356 94.9961 117.922 94.6167 118.492C94.4861 118.687 94.235 118.878 93.7653 119.227C92.8154 119.931 91.2255 121.111 91.4425 122.305C91.5605 122.953 92.0046 123.534 92.6934 123.942C93.6844 124.529 94.9827 124.666 96.0811 124.3L96.3661 125.154C95.8696 125.32 95.3392 125.401 94.8069 125.401Z" fill="#B65C47"/>
<path d="M102.034 127.002L91.1357 128.062L91.223 128.959L102.122 127.898L102.034 127.002Z" fill="#B65C47"/>
<path d="M95.5012 131.302L95.4932 130.401C95.6715 130.394 97.5495 130.178 98.6912 130.044L98.7963 130.939C97.8677 131.048 95.6878 131.302 95.5012 131.302Z" fill="#B65C47"/>
<path d="M83.7748 108.147C83.7748 108.147 84.2438 103.56 85.1443 102.84C86.0451 102.119 106.401 101.218 107.302 102.299C108.203 103.38 107.302 109.865 108.022 110.406C108.743 110.946 110.544 111.847 110.544 111.847V119.866L112.166 119.953C112.166 119.953 112.871 116.779 113.149 116.835C113.427 116.891 118.097 116.954 118.097 116.954C118.097 116.954 122.794 104.101 120.452 101.218C118.11 98.3362 116.399 98.5514 116.399 98.5514C116.399 98.5514 118.831 97.9761 117.75 97.4356C116.669 96.8951 114.687 97.2554 114.958 97.4356C115.228 97.6158 117.029 95.6342 115.768 95.8144C114.507 95.9945 114.147 97.0753 114.147 97.0753C114.147 97.0753 114.327 92.9321 107.122 91.671C99.916 90.4099 95.4125 92.9319 95.2323 92.7519C95.0522 92.5718 95.9529 92.0313 93.9714 92.0313C91.9899 92.0313 87.185 92.2895 83.7033 95.2739C81.1813 97.4356 79.0197 103.921 83.7748 108.147V108.147Z" fill="#1F3C44"/>
<path d="M93.2495 144.633L93.3395 146.705C93.3395 146.705 89.2114 148.098 89.384 148.032C89.5565 147.965 96.8147 158.925 99.6707 158.579C102.527 158.234 112.596 147.424 112.344 147.335C112.093 147.246 109.533 146.218 109.462 146.254C109.391 146.29 109.642 144.453 109.642 144.453C109.855 144.453 129.728 150.848 130.989 152.289C132.25 153.73 147.382 185.255 145.941 187.236C144.5 189.218 130.989 194.622 130.989 194.622C130.989 194.622 133.027 237.708 132.52 237.766C115.227 239.748 69.1103 238.667 69.1103 238.667L70.8216 194.802C70.8216 194.802 57.0029 192.1 56.7967 191.65C56.5904 191.199 65.057 158.774 67.2187 156.432C69.3804 154.09 93.2493 144.633 93.2493 144.633L93.2495 144.633Z" fill="#4FA2A4"/>
<path d="M113.713 173.816C116.2 173.816 118.216 171.961 118.216 169.673C118.216 167.384 116.2 165.529 113.713 165.529C111.225 165.529 109.209 167.384 109.209 169.673C109.209 171.961 111.225 173.816 113.713 173.816Z" fill="#E8F5F6"/>
<path d="M73.4355 173.546L72.535 173.529C72.5129 173.893 71.5506 181.792 70.5866 189.65L57.7835 187.285C57.7071 187.59 57.6342 187.882 57.5654 188.161L70.4769 190.546C70.3068 191.933 70.1377 193.31 69.9748 194.635C70.5082 194.741 70.8234 194.802 70.8234 194.802L70.8056 195.259C71.7862 187.286 73.4355 173.834 73.4355 173.546Z" fill="#438888"/>
<path d="M102.415 179.473L102.437 179.922C102.439 179.972 102.685 184.975 103.122 189.957C104.033 200.348 104.855 200.534 105.345 200.646C105.598 200.703 106.169 200.727 106.959 200.727C111.183 200.727 121.648 200.029 123.03 199.935L123.417 199.909L125.176 178.315L102.415 179.473ZM124.195 179.267L123.978 181.929L103.496 182.82C103.447 181.989 103.401 181.155 103.359 180.327L124.195 179.267ZM122.583 199.063C116.274 199.485 106.903 200.001 105.595 199.777C104.862 198.993 104.047 191.579 103.551 183.719L123.904 182.834L122.583 199.063V199.063Z" fill="#438888"/>
<path d="M115.497 166.16C115.497 166.701 100.752 202.938 100.752 202.938L102.493 203.999H132.412L147.383 168.142L146.031 166.599L115.497 166.16Z" fill="#E55C5C"/>
<path d="M144.5 186.877C144.671 186.82 153.809 202.017 149.184 205.972C144.56 209.926 136.394 208.854 135.313 208.133C134.232 207.413 131.89 202.729 131.89 202.729C131.89 202.729 127.567 203.089 125.946 202.188C124.324 201.288 125.585 199.666 125.585 199.666C125.585 199.666 123.63 198.755 123.527 197.68C123.423 196.604 124.865 195.523 124.865 195.523C124.865 195.523 123.243 194.802 125.045 193.181C126.846 191.56 134.142 192.01 134.142 192.01C134.142 192.01 126.306 189.939 128.467 188.317C130.629 186.696 136.214 188.678 137.114 190.119C138.015 191.56 137.708 191.313 137.708 191.313C137.708 191.313 142.338 187.597 144.5 186.876L144.5 186.877Z" fill="#E18B71"/>
<path d="M101.719 203.527L102.493 203.999H102.498L117.181 168.592H147.194L147.383 168.142L146.988 167.691H116.58L101.719 203.527Z" fill="#FB6D6D"/>
<path d="M99.9612 163.726C99.9915 163.729 100.025 163.732 100.064 163.732C100.548 163.732 101.978 163.233 110.323 155.568C112.709 153.376 114.909 151.289 116.334 149.924C117.879 148.444 118.558 147.782 118.864 147.466C118.544 147.357 118.227 147.249 117.913 147.143C116.717 148.316 113.321 151.593 109.683 154.933C101.904 162.076 100.345 162.789 100.045 162.828C99.9094 162.793 99.3567 162.523 97.4785 160.576L99.9183 158.528C99.8316 158.552 99.7488 158.57 99.6721 158.58C99.3895 158.614 99.0633 158.536 98.7054 158.37L96.8809 159.902L97.2241 160.31C96.132 159.164 94.6312 157.496 92.5731 155.071C89.8254 151.835 87.3473 148.726 86.3701 147.424C86.0918 147.539 85.8097 147.656 85.5225 147.775C86.8145 149.577 90.5682 154.099 91.7725 155.52C98.6133 163.591 99.5925 163.689 99.9612 163.726Z" fill="#438888"/>
<path d="M119.815 122.078C119.291 125.604 116.769 128.435 114.181 128.399C111.593 128.364 109.919 125.477 110.443 121.951C110.966 118.425 113.488 115.595 116.076 115.63C118.664 115.665 120.338 118.552 119.815 122.078Z" fill="#E18B71"/>
<path d="M113.338 125.746L112.438 125.711C112.457 125.202 112.657 120.703 113.602 119.493C114.494 118.35 116.234 118.222 116.964 118.222C116.971 118.222 116.978 118.222 116.985 118.222L116.999 119.123H116.982C116.519 119.12 114.986 119.184 114.312 120.047C113.735 120.787 113.408 123.935 113.338 125.746Z" fill="#B65C47"/>
<path d="M116.6 121.374L113.229 121.56L113.278 122.459L116.649 122.273L116.6 121.374Z" fill="#B65C47"/>
<path d="M13.5872 152.107C14.4217 152.183 16.0181 151.973 17.8672 151.73C20.4672 151.388 23.7034 150.962 25.0247 151.369C25.861 151.626 26.943 152.462 27.989 153.27C29.4058 154.365 30.8599 155.488 32.0802 155.488C32.4323 155.488 32.7649 155.395 33.0713 155.18C33.7971 154.672 34.3796 154.086 34.8248 153.553C34.6089 153.34 34.3898 153.133 34.1672 152.933C33.7607 153.426 33.2242 153.974 32.5548 154.442C31.7268 155.02 30.0341 153.712 28.5397 152.557C27.3787 151.66 26.2819 150.813 25.2894 150.508C23.7804 150.043 20.5763 150.465 17.7495 150.837C16.0286 151.063 14.4032 151.277 13.6688 151.21C13.3823 151.184 13.2577 151.064 13.1891 150.976C12.9754 150.702 12.9295 150.219 12.9511 149.71C12.6508 149.823 12.3501 149.946 12.0498 150.08C12.0685 150.624 12.1791 151.145 12.4785 151.529C12.7439 151.87 13.1169 152.065 13.5874 152.107L13.5872 152.107Z" fill="#387775"/>
<path d="M116.332 104.222C116.442 104.033 116.396 103.701 116.17 103.606C113.677 102.551 110.824 102.349 108.229 103.168C108.029 103.231 107.832 103.305 107.64 103.386C107.677 103.669 107.7 103.99 107.715 104.333C108.084 104.153 108.481 104.024 108.876 103.918C109.622 103.719 110.385 103.603 111.157 103.573C112.709 103.512 114.283 103.777 115.716 104.384C115.94 104.478 116.198 104.451 116.332 104.222L116.332 104.222Z" fill="#162F35"/>
<path d="M88.6244 100.509C87.409 98.9308 87.4248 96.8175 87.9452 94.9804C88.1697 94.1882 88.4801 93.4272 88.8214 92.6797C88.448 92.7802 88.07 92.8962 87.6902 93.0296C87.0675 94.5218 86.6138 96.0836 86.7181 97.7162C86.7863 98.7833 87.0828 99.8448 87.685 100.737C88.0873 101.333 88.5941 101.843 89.1634 102.275C89.6307 102.238 90.1266 102.203 90.6442 102.168C89.869 101.746 89.1644 101.21 88.6244 100.508V100.509Z" fill="#162F35"/>
<path d="M106.07 100.737C106.593 99.9134 107.645 99.4746 108.602 99.596C109.228 99.6753 109.749 100.064 110.355 100.207C110.952 100.348 111.558 100.249 112.108 99.9878C113.28 99.4309 113.884 98.1664 114.059 96.9372C114.076 96.8182 114.089 96.6993 114.1 96.5801C114.013 96.1056 113.771 95.3459 113.108 94.5488C113.253 95.2717 113.286 96.018 113.185 96.7428C113.03 97.8432 112.483 99.0357 111.31 99.3272C110.7 99.4789 110.181 99.1924 109.633 98.9631C109.123 98.75 108.578 98.6435 108.025 98.6892C106.887 98.7831 105.797 99.3914 105.223 100.397C104.966 100.848 104.817 101.356 104.777 101.873C105.103 101.891 105.403 101.912 105.675 101.936C105.707 101.516 105.837 101.103 106.07 100.737L106.07 100.737Z" fill="#162F35"/>
<path d="M99.228 101.653C98.8196 101.214 98.8099 100.643 98.8942 100.076C99.0621 98.9486 99.5873 97.8799 100.365 97.0477C100.815 96.5662 101.336 96.175 101.922 95.8743C102.438 95.6097 101.983 94.8323 101.467 95.0965C100.268 95.7114 99.273 96.7241 98.6599 97.9232C98.3583 98.5132 98.1356 99.1486 98.0307 99.8038C97.9197 100.496 97.8961 101.222 98.2518 101.837C98.6378 101.828 99.0197 101.821 99.3971 101.815C99.3385 101.763 99.2812 101.711 99.2278 101.653L99.228 101.653Z" fill="#162F35"/>
<path d="M92.5881 101.941C92.6062 101.978 92.6272 102.013 92.6463 102.05C92.9819 102.032 93.3222 102.015 93.6662 101.998C93.5908 101.89 93.5202 101.778 93.4564 101.662C92.9948 100.821 92.8981 99.8536 93.0088 98.9121C93.1344 97.8442 93.5273 96.8042 93.9696 95.8311C94.3984 94.888 94.9023 93.979 95.4753 93.1156C95.5936 92.9372 95.718 92.7633 95.8424 92.5895C95.4781 92.7163 95.2688 92.788 95.2329 92.7522C95.1043 92.6236 95.5256 92.3117 95.0574 92.1436C94.3518 93.1392 93.7334 94.1967 93.2241 95.3059C92.2824 97.3565 91.5308 99.786 92.5881 101.942V101.941Z" fill="#162F35"/>
<path opacity="0.18" d="M107.121 91.6716C106.847 91.6237 106.578 91.5827 106.312 91.5454C104.12 92.9225 100.917 94.714 98.3846 94.8241C95.6642 94.9425 93.7981 93.2746 92.7861 92.064C91.4727 92.1348 89.6871 92.3529 87.8574 92.9722C89.0932 94.4807 92.0556 97.5147 96.2229 98.01C101.807 98.674 110.952 92.8823 110.952 92.8823C109.992 92.386 108.745 91.9555 107.122 91.6714L107.121 91.6716Z" fill="#ADEFFF"/>
<path d="M20.7436 193.542C20.7436 193.722 20.5635 201.629 20.7436 201.639C20.9238 201.648 43.6217 196.064 43.6217 196.064C43.6217 196.064 42.8391 189.995 44.2211 188.436C45.6032 186.876 50.2869 186.696 50.2869 186.156C50.2869 185.615 49.026 184.143 50.2869 183.799C51.548 183.454 52.2684 183.994 52.9891 185.616C53.7097 187.237 48.6656 191.56 48.8458 191.56C49.0259 191.56 54.6105 194.803 58.2132 194.623C61.8161 194.443 68.6615 187.777 70.643 188.318C72.6245 188.858 69.562 191.921 69.562 191.921C69.562 191.921 70.2827 192.101 69.562 194.803C68.8414 197.505 63.4371 203.81 59.2939 204.531C55.1507 205.251 47.9449 202.549 47.4046 202.549C46.8643 202.549 15.3392 217.141 11.3761 214.258C7.41308 211.376 8.85408 193.542 8.85408 193.542H20.7434L20.7436 193.542Z" fill="#D57163"/>
<path d="M14.5291 203.54C14.8842 203.54 18.4235 202.446 21.3299 201.528L21.3241 201.509C20.9664 201.593 20.7604 201.639 20.7439 201.639C20.7074 201.637 20.6857 201.31 20.6743 200.79C18.3302 201.527 14.8684 202.592 14.499 202.64C14.5111 202.639 14.5213 202.639 14.5291 202.639V203.54Z" fill="#A94D43"/>
<path d="M69.5619 191.92C69.5619 191.92 70.2043 191.277 70.7101 190.529C70.1981 190.649 69.6704 191.144 69.2325 191.613C66.8884 194.125 60.1325 195.883 57.2422 196.693C57.3646 196.971 57.4796 197.251 57.5871 197.532C60.7292 196.66 67.2751 194.929 69.8193 192.3C69.7262 191.962 69.5619 191.92 69.5619 191.92Z" fill="#A94D43"/>
<path d="M58.3418 199.825C58.407 200.048 58.4714 200.273 58.5348 200.497C58.5538 200.565 58.5685 200.633 58.5862 200.7C64.0302 199.647 67.2431 197.257 69.3123 195.491C69.4212 195.244 69.5079 195.011 69.5635 194.803C69.6572 194.452 69.726 194.144 69.7758 193.873C67.9361 195.547 64.244 198.594 58.3418 199.825Z" fill="#A94D43"/>
<path d="M61.5449 201.568C61.5411 201.569 61.406 201.602 58.8887 202.223C58.9338 202.514 58.9755 202.805 59.0179 203.096C61.9323 202.413 63.3989 201.836 65.1084 201.003C65.7857 200.357 66.4236 199.672 66.9956 198.988C64.6234 200.351 61.8988 201.472 61.5449 201.568Z" fill="#A94D43"/>
<path d="M22.1084 97.4867C22.0948 97.4458 22.0794 97.405 22.0743 97.3866C22.0386 97.251 21.9933 97.1113 21.9162 96.993C21.702 96.6639 21.3726 96.5915 21.0046 96.6411C20.4026 96.7221 19.8286 96.8973 19.2773 97.1517C18.1978 97.65 17.279 98.479 16.6589 99.4915C16.3551 99.9872 17.1341 100.44 17.4367 99.9461C18.0036 99.0204 18.8689 98.2807 19.8742 97.8669C20.1252 97.7635 20.3862 97.6815 20.6502 97.6179C20.7933 97.5836 20.938 97.5533 21.0835 97.5324C21.1126 97.5282 21.1419 97.5238 21.1714 97.5204C21.1673 97.6167 21.2514 97.8055 21.2825 97.8867C21.3477 98.0563 21.4422 98.2045 21.5935 98.3092C21.8801 98.5076 22.2572 98.4976 22.5104 98.248C22.8502 97.9132 22.4804 97.4247 22.1086 97.4869L22.1084 97.4867Z" fill="#25454C"/>
<path d="M30.5734 94.9148C29.4876 94.6709 28.3497 94.7106 27.2884 95.0508C27.0569 95.1251 26.9075 95.3634 26.9739 95.6047C27.0364 95.8323 27.2952 95.9939 27.5279 95.9193C28.4413 95.6264 29.4078 95.5751 30.334 95.7833C30.5712 95.8367 30.8213 95.7111 30.8879 95.4687C30.9501 95.2424 30.8117 94.9684 30.5734 94.9148Z" fill="#25454C"/>
<path d="M34.9559 96.8689C34.9324 96.8386 34.9089 96.8081 34.8854 96.7778C34.8293 96.722 34.7631 96.6833 34.6869 96.662C34.4241 96.5519 34.1614 96.442 33.8986 96.3318C33.8386 96.3132 33.7788 96.3104 33.719 96.3238C33.659 96.3266 33.6033 96.3443 33.5517 96.3772C33.4582 96.4319 33.3692 96.5389 33.3447 96.6464C33.3184 96.7618 33.3241 96.8911 33.3901 96.9935C33.4136 97.0238 33.437 97.0543 33.4605 97.0845C33.5167 97.1403 33.5828 97.179 33.6593 97.2003L34.4474 97.5305C34.5071 97.5494 34.5671 97.552 34.6269 97.5385C34.6867 97.5357 34.7427 97.5181 34.7942 97.4852C34.8877 97.4304 34.9767 97.3235 35.0012 97.216C35.0275 97.1006 35.0219 96.9712 34.9559 96.8689Z" fill="#25454C"/>
<path d="M13.8943 104.421C13.0926 104.471 12.3417 104.771 11.73 105.293C11.4327 105.546 11.1646 105.878 11.0691 106.264C10.9656 106.683 11.0578 107.131 11.3593 107.446C11.5226 107.617 11.8341 107.623 11.9962 107.446C12.1641 107.263 12.1704 106.991 11.9962 106.809C11.989 106.802 11.9848 106.798 11.9809 106.794C11.9783 106.79 11.9652 106.769 11.9529 106.748C11.9463 106.728 11.9402 106.708 11.9352 106.688C11.9324 106.677 11.9288 106.632 11.9268 106.625V106.605C11.9268 106.58 11.926 106.55 11.9298 106.523C11.9348 106.509 11.9399 106.494 11.9417 106.487C11.9491 106.459 11.9589 106.432 11.9687 106.405C11.9727 106.397 11.9794 106.382 11.9874 106.367C12.0053 106.333 12.0249 106.3 12.046 106.268C12.0574 106.25 12.0696 106.233 12.0816 106.216C12.0903 106.206 12.1202 106.169 12.1289 106.16C12.1806 106.102 12.236 106.047 12.2933 105.994C12.3174 105.972 12.3419 105.951 12.3668 105.93C12.3728 105.925 12.4071 105.896 12.4258 105.881C12.442 105.869 12.4717 105.846 12.4767 105.843C12.5086 105.82 12.5411 105.798 12.5738 105.776C12.6338 105.736 12.6954 105.699 12.758 105.663C12.8208 105.628 12.8846 105.594 12.9496 105.563C12.9744 105.551 12.9995 105.54 13.0246 105.529C13.031 105.527 13.0882 105.503 13.0948 105.501C13.2297 105.45 13.3681 105.408 13.5085 105.377C13.5777 105.361 13.6476 105.349 13.7174 105.338C13.7328 105.336 13.7597 105.332 13.7763 105.331C13.8155 105.327 13.8546 105.324 13.8939 105.322C14.1286 105.307 14.3557 105.125 14.3443 104.872C14.3341 104.64 14.1457 104.406 13.8939 104.421L13.8943 104.421Z" fill="#25454C"/>
<path d="M18.5208 106.518C18.4855 106.409 18.4182 106.304 18.3139 106.249C18.2101 106.194 18.0817 106.165 17.9668 106.204C17.6135 106.323 17.2251 106.462 16.9847 106.765C16.8927 106.881 16.8346 106.981 16.779 107.119C16.7389 107.218 16.7235 107.318 16.7129 107.425C16.6937 107.62 16.7454 107.849 16.8644 108.006C16.9378 108.104 17.0112 108.18 17.1335 108.214C17.2415 108.243 17.3849 108.23 17.4806 108.168C17.5769 108.106 17.6614 108.014 17.6877 107.899C17.7128 107.789 17.7136 107.647 17.6423 107.552C17.6317 107.538 17.6247 107.522 17.6157 107.507C17.6139 107.501 17.6118 107.494 17.6104 107.488C17.6104 107.484 17.6113 107.48 17.6113 107.476C17.6147 107.461 17.618 107.446 17.6227 107.431C17.6373 107.401 17.6538 107.373 17.672 107.346C17.6885 107.328 17.7055 107.312 17.7232 107.296C17.7986 107.243 17.8789 107.199 17.963 107.16C18.0434 107.129 18.1246 107.1 18.2067 107.072C18.318 107.035 18.4153 106.969 18.4759 106.865C18.5325 106.769 18.5563 106.627 18.5212 106.518H18.5208Z" fill="#25454C"/>
<path d="M112.228 144.813C112.797 146.25 113.546 149.449 114.23 157.044C114.743 162.743 114.972 168.231 114.974 168.286L113.354 168.353C113.352 168.298 113.125 162.845 112.615 157.184C111.726 147.315 110.533 145.063 110.185 144.633L110.005 144.453L112.228 144.813Z" fill="#1F3C44"/>
<path d="M90.1967 160.438H88.5723C88.671 158.86 88.8654 156.114 89.1714 153.305C89.7221 148.247 90.3167 145.725 90.8706 144.41H92.7149C92.5085 144.623 91.6029 145.958 90.784 153.474C90.4871 156.198 90.2964 158.863 90.1969 160.438L90.1967 160.438Z" fill="#1F3C44"/>
<path d="M88.9122 188.321C88.9672 188.318 94.7454 187.356 95.7429 185.377C96.3943 184.085 95.4064 175.869 95.0881 173.382C94.6758 170.159 93.5965 162.515 92.484 161.125C91.5415 159.948 89.9693 159.625 88.8161 159.561C87.4303 159.485 85.604 159.756 84.9504 160.41C84.7582 160.602 84.5594 160.801 83.6965 164.476C83.2034 166.577 82.6088 169.348 82.0653 172.079C79.8511 183.202 80.2585 184.017 80.4118 184.323C81.1127 185.725 85.2509 187.683 86.5026 188.25L87.1714 186.773C84.9104 185.749 82.3046 184.276 81.8911 183.649C81.8039 182.923 82.3097 179.159 83.6494 172.425C84.7679 166.802 85.813 162.399 86.1523 161.528C86.8855 161.141 90.1112 160.755 91.2186 162.139C91.5919 162.605 92.4937 165.973 93.4482 173.34C94.2355 179.419 94.4931 183.929 94.2836 184.669C93.8027 185.511 89.9674 186.548 88.7812 186.706C88.7988 186.704 88.8119 186.703 88.8204 186.703L88.9124 188.322L88.9122 188.321Z" fill="#1F3C44"/>
<path d="M90.4383 185.558L87.8567 186.461C87.8567 186.461 85.3377 185.193 85.1556 185.193C84.9734 185.193 83.6982 187.197 83.6982 187.197C83.6982 187.197 86.3571 189.231 86.6129 189.201C87.232 189.128 87.6069 188.472 87.6069 188.472C87.6069 188.472 88.0704 189.747 88.6169 189.565C89.1633 189.383 91.3493 188.29 91.5314 188.29C91.7136 188.29 90.4383 185.558 90.4383 185.558Z" fill="#E8F5F6"/>
<path d="M88.1082 186.374C88.0684 186.762 88.0375 187.151 88.0215 187.54C87.9974 188.116 88.003 188.692 88.0303 189.266C87.7757 188.938 87.6057 188.473 87.6057 188.473C87.6057 188.473 87.4291 188.782 87.1177 189C87.099 188.454 87.101 187.909 87.1287 187.364C87.1493 186.958 87.1855 186.554 87.2316 186.151C87.5929 186.33 87.8557 186.463 87.8557 186.463L88.1082 186.374V186.374Z" fill="#CEE3E4"/>
<path d="M73.6794 62H51C50.4477 62 50 62.4477 50 63V89.6427C50 90.195 50.4477 90.6427 51 90.6427H73.6794C74.2316 90.6427 74.6794 90.195 74.6794 89.6427V63C74.6794 62.4477 74.2316 62 73.6794 62Z" fill="#E8F5F6"/>
<path d="M69.8961 64.5225H54.2422C53.6899 64.5225 53.2422 64.9702 53.2422 65.5225V66.4048C53.2422 66.9571 53.6899 67.4048 54.2422 67.4048H69.8961C70.4484 67.4048 70.8961 66.957 70.8961 66.4048V65.5225C70.8961 64.9702 70.4484 64.5225 69.8961 64.5225Z" fill="white"/>
<path d="M62.6905 69.7461H54.2422C53.6899 69.7461 53.2422 70.1938 53.2422 70.7461V71.6284C53.2422 72.1807 53.6899 72.6284 54.2422 72.6284H62.6905C63.2428 72.6284 63.6905 72.1807 63.6905 71.6284V70.7461C63.6905 70.1938 63.2428 69.7461 62.6905 69.7461Z" fill="white"/>
<path d="M68.9962 69.7461H67.0332C66.4809 69.7461 66.0332 70.1938 66.0332 70.7461V71.6284C66.0332 72.1807 66.4809 72.6284 67.0332 72.6284H68.9962C69.5485 72.6284 69.9962 72.1807 69.9962 71.6284V70.7461C69.9962 70.1938 69.5485 69.7461 68.9962 69.7461Z" fill="#E55C5C"/>
<path d="M68.9962 74.4302H67.0332C66.4809 74.4302 66.0332 74.8779 66.0332 75.4302V76.3125C66.0332 76.8648 66.4809 77.3125 67.0332 77.3125H68.9962C69.5485 77.3125 69.9962 76.8648 69.9962 76.3125V75.4302C69.9962 74.8779 69.5485 74.4302 68.9962 74.4302Z" fill="#4FA2A4"/>
<path d="M68.9962 79.1138H67.0332C66.4809 79.1138 66.0332 79.5615 66.0332 80.1138V80.9961C66.0332 81.5484 66.4809 81.9961 67.0332 81.9961H68.9962C69.5485 81.9961 69.9962 81.5484 69.9962 80.9961V80.1138C69.9962 79.5615 69.5485 79.1138 68.9962 79.1138Z" fill="#E55C5C"/>
<path d="M68.9962 83.7974H67.0332C66.4809 83.7974 66.0332 84.2451 66.0332 84.7974V85.6797C66.0332 86.232 66.4809 86.6797 67.0332 86.6797H68.9962C69.5485 86.6797 69.9962 86.232 69.9962 85.6797V84.7974C69.9962 84.2451 69.5485 83.7974 68.9962 83.7974Z" fill="#4FA2A4"/>
<path d="M62.6905 74.4302H54.2422C53.6899 74.4302 53.2422 74.8779 53.2422 75.4302V76.3125C53.2422 76.8648 53.6899 77.3125 54.2422 77.3125H62.6905C63.2428 77.3125 63.6905 76.8648 63.6905 76.3125V75.4302C63.6905 74.8779 63.2428 74.4302 62.6905 74.4302Z" fill="white"/>
<path d="M62.6905 79.1138H54.2422C53.6899 79.1138 53.2422 79.5615 53.2422 80.1138V80.9961C53.2422 81.5484 53.6899 81.9961 54.2422 81.9961H62.6905C63.2428 81.9961 63.6905 81.5484 63.6905 80.9961V80.1138C63.6905 79.5615 63.2428 79.1138 62.6905 79.1138Z" fill="white"/>
<path d="M62.6905 83.7974H54.2422C53.6899 83.7974 53.2422 84.2451 53.2422 84.7974V85.6797C53.2422 86.232 53.6899 86.6797 54.2422 86.6797H62.6905C63.2428 86.6797 63.6905 86.232 63.6905 85.6797V84.7974C63.6905 84.2451 63.2428 83.7974 62.6905 83.7974Z" fill="white"/>
</g>
<path d="M146 37C146 64.6142 123.614 87 96 87C68.3858 87 46 64.6142 46 37C46 9.38576 68.3858 -13 96 -13C123.614 -13 146 9.38576 146 37ZM56.65 37C56.65 58.7324 74.2676 76.35 96 76.35C117.732 76.35 135.35 58.7324 135.35 37C135.35 15.2676 117.732 -2.35 96 -2.35C74.2676 -2.35 56.65 15.2676 56.65 37Z" fill="white" fill-opacity="0.1"/>
</g>
<defs>
<clipPath id="clip0_176_22551">
<rect width="124" height="204" rx="62" fill="white"/>
</clipPath>
</defs>
</svg>
