<svg width="124" height="200" viewBox="0 0 124 200" fill="none" xmlns="http://www.w3.org/2000/svg">
<rect y="200" width="200" height="124" rx="62" transform="rotate(-90 0 200)" fill="#54994D"/>
<mask id="mask0_176_22708" style="mask-type:alpha" maskUnits="userSpaceOnUse" x="0" y="2" width="124" height="198">
<rect y="200" width="198" height="124" rx="62" transform="rotate(-90 0 200)" fill="#29ABE2"/>
</mask>
<g mask="url(#mask0_176_22708)">
<path d="M172 117C172 155.66 140.66 187 102 187C63.3401 187 32 155.66 32 117C32 78.3401 63.3401 47 102 47C140.66 47 172 78.3401 172 117ZM46.91 117C46.91 147.425 71.5746 172.09 102 172.09C132.425 172.09 157.09 147.425 157.09 117C157.09 86.5746 132.425 61.91 102 61.91C71.5746 61.91 46.91 86.5746 46.91 117Z" fill="white" fill-opacity="0.1"/>
<path d="M98.7541 186.707L96.3887 186.61C96.3921 186.53 96.7254 178.516 97.4747 170.193C99.0247 152.979 100.805 151.226 101.476 150.565C103.993 148.086 112.495 147.766 116.034 147.743C121.292 147.707 128.183 148.229 130.27 149.807C131.371 150.639 132.799 153.088 134.066 164.729C134.75 171.005 135.052 177.07 135.055 177.13L132.691 177.247C132.688 177.187 132.388 171.183 131.712 164.976C130.429 153.206 129.001 151.815 128.843 151.695C127.794 150.903 122.941 150.109 116.548 150.109C116.383 150.109 116.216 150.109 116.049 150.11C108.583 150.158 104.184 151.22 103.137 152.252C102.707 152.675 101.199 155.234 99.8333 170.397C99.0887 178.664 98.757 186.627 98.7538 186.707L98.7541 186.707Z" fill="#1F3C44"/>
<path d="M94.0361 155.464C94.5468 155.485 105.858 153.644 106.91 152.328C107.962 151.013 105.858 144.174 106.384 143.91C106.91 143.647 129.007 142.595 129.007 142.595C129.007 142.595 127.429 151.013 128.481 152.065C129.533 153.118 138.214 154.17 137.951 154.433C137.688 154.696 123.746 174.951 114.013 174.162C104.28 173.373 94.0361 155.464 94.0361 155.464Z" fill="#B65C47"/>
<path d="M95.0278 98.2147C93.7756 107.956 94.8426 137.568 101.873 143.396C108.903 149.224 112.16 148.198 118.995 147.979C125.832 147.76 134.517 143.665 135.985 140.196C137.453 136.728 139.622 101.785 137.825 94.9995C136.028 88.214 124.036 83.5982 114.834 83.8933C105.632 84.1886 96.081 90.022 95.0278 98.2147Z" fill="#E18B71"/>
<path d="M107.822 115.569C107.882 117.457 107.402 119.004 106.748 119.025C106.095 119.046 105.516 117.533 105.455 115.645C105.395 113.757 105.875 112.21 106.529 112.189C107.182 112.168 107.761 113.681 107.822 115.569Z" fill="#1F3C44"/>
<path d="M128.325 101.837C126.647 101.263 124.917 101.23 123.191 101.584C122.425 101.741 122.023 102.701 122.238 103.395C122.488 104.202 123.281 104.505 124.049 104.348C125.273 104.097 126.475 104.25 127.645 104.65C128.385 104.903 129.221 104.293 129.392 103.583C129.589 102.764 129.067 102.091 128.325 101.837Z" fill="#1F3C44"/>
<path d="M108.061 105.512C107.617 104.807 106.76 104.693 106.065 105.057C105.543 105.329 105.01 105.302 104.392 105.094C103.651 104.845 102.816 105.449 102.645 106.161C102.449 106.978 102.969 107.658 103.712 107.907C105.023 108.348 106.399 108.137 107.605 107.507C108.298 107.145 108.453 106.136 108.061 105.512Z" fill="#1F3C44"/>
<path d="M97.3217 121.896C98.1715 126.279 96.8209 129.925 94.305 130.041C91.7892 130.157 89.061 126.698 88.2112 122.315C87.3614 117.933 88.712 114.287 91.2279 114.171C93.7438 114.055 96.472 117.514 97.3217 121.896V121.896Z" fill="#E18B71"/>
<path d="M94.0692 127.145C93.4068 118.506 90.5838 117.636 90.5557 117.629L90.791 116.603C91.1578 116.682 94.3963 117.648 95.1183 127.065L94.0692 127.145V127.145Z" fill="#B65C47"/>
<path d="M91.2616 121.636L91.1738 122.685L93.8044 122.905L93.8922 121.857L91.2616 121.636Z" fill="#B65C47"/>
<path d="M109.224 132.034L108.939 131.021C109.024 130.997 117.538 128.648 127.175 129.806L127.05 130.851C117.618 129.718 109.307 132.011 109.224 132.034Z" fill="#B65C47"/>
<path d="M116.475 134.064C115.958 134.064 115.643 134.051 115.604 134.049L115.651 132.998C115.68 132.999 118.493 133.117 121.554 132.606L121.727 133.644C119.569 134.004 117.571 134.064 116.475 134.064V134.064Z" fill="#B65C47"/>
<path d="M92.2486 114.227L94.0498 115.524L94.5376 119.943L96 119.37C96 119.37 95.7454 106.306 96.0715 105.199C96.3977 104.092 98.7048 102.176 98.7048 102.176C98.7048 102.176 98.4433 94.0251 99.4528 92.6766C100.462 91.3282 110.081 87.5983 116.654 87.3873C123.227 87.1765 132.022 90.5791 133.115 91.8601C134.209 93.141 134.06 101.069 134.06 101.069C134.06 101.069 136.546 103.958 136.882 104.423C137.218 104.888 137.648 118.297 137.648 118.297L138.963 118.255L140.134 113.743L141.415 112.649C141.415 112.649 142.85 99.9701 142.232 97.0949C141.613 94.2196 138.349 90.9029 138.612 90.8944C138.874 90.8859 141.999 89.8476 140.912 88.7724C139.825 87.6972 138.103 88.5906 138.103 88.5906C138.103 88.5906 140.046 86.374 138.723 86.1534C137.4 85.9325 135.733 87.3075 135.733 87.3075C135.733 87.3075 137.803 73.6094 116.274 75.5562C99.4329 77.0792 92.4395 87.3748 91.5483 92.4042C91.0411 95.2651 92.2481 114.227 92.2481 114.227L92.2486 114.227Z" fill="#1F3C44"/>
<path d="M102.964 152.328C102.964 152.328 110.614 170.112 115.996 169.244C121.378 168.375 131.9 151.802 131.9 151.802C131.9 151.802 159.259 156.8 161.889 160.483C164.519 164.166 182.144 206.782 182.144 206.518C182.144 206.255 157.943 218.093 157.943 218.093L156.102 210.727L154.523 265.443H72.6028L73.7645 210.201L56.9287 207.308C56.9287 207.308 62.1898 166.008 66.3987 162.325C70.6075 158.642 102.964 152.329 102.964 152.329L102.964 152.328Z" fill="#4FA2A4"/>
<path d="M136.195 152.637C130.805 159.281 119.989 172.181 117.56 173.087C117.229 173.21 115.635 173.141 108.943 167.087C104.862 163.395 100.399 158.859 97.7324 156.149C97.5171 155.93 97.3178 155.727 95.4534 153.88C95.0584 153.965 94.652 154.052 94.2373 154.142C96.1296 156.02 96.548 156.445 96.9823 156.887C107.159 167.231 114.579 174.153 117.451 174.152C117.627 174.152 117.787 174.126 117.928 174.073C120.967 172.939 133.456 157.7 137.357 152.874C136.954 152.791 136.564 152.712 136.195 152.637L136.195 152.637Z" fill="#3F9292"/>
<path d="M73.5096 210.157C79.372 209.37 89.8386 207.883 90.5911 207.509C91.3616 207.126 91.4836 206.054 85.8819 186.065C85.081 183.207 84.3243 180.506 84.2863 180.182C84.2876 180.194 84.2876 180.205 84.2876 180.213H83.2353C83.2353 180.491 83.5659 181.7 84.8687 186.349C85.345 188.049 85.962 190.25 86.6004 192.578C79.14 192.636 65.8254 194.685 58.5333 195.905C58.4769 196.279 58.4219 196.647 58.3682 197.01C65.5657 195.831 79.2362 193.781 86.8899 193.637C88.423 199.263 89.9783 205.288 89.9413 206.616C88.2963 207.019 78.7227 208.422 69.9792 209.551L73.5094 210.157L73.5096 210.157Z" fill="#3F9292"/>
<path d="M98.2297 194.681C101.862 194.681 104.806 191.972 104.806 188.631C104.806 185.289 101.862 182.581 98.2297 182.581C94.5977 182.581 91.6533 185.289 91.6533 188.631C91.6533 191.972 94.5977 194.681 98.2297 194.681Z" fill="#E8F5F6"/>
<path d="M100.401 152.333C99.5694 154.431 98.4751 159.103 97.4767 170.193C96.7274 178.516 96.3938 186.53 96.3906 186.61L98.756 186.707C98.7595 186.627 99.091 178.664 99.8355 170.397C101.133 155.987 102.559 152.961 103.067 152.333H100.401Z" fill="#1F3C44"/>
<path d="M104.541 166.798L88.5933 202.063L86.6537 199.154L67.1875 203.889C67.1875 203.889 75.0793 236.771 87.706 234.93C92.3922 234.246 95.512 228.369 98.2283 222.303C106.12 204.678 115.995 170.008 115.995 170.008L104.542 166.798L104.541 166.798Z" fill="#E18B71"/>
<path d="M107.174 172.321L103.849 168.332L104.806 166.534C104.806 166.534 101.387 164.166 100.598 159.694C99.8084 155.222 105.069 150.75 104.543 149.435C104.017 148.12 96.6519 145.752 98.23 143.385C99.8083 141.017 109.152 144.197 112.372 148C112.372 148 120.327 142.858 126.903 140.228C133.48 137.597 137.518 139.275 136.9 140.491C136.281 141.707 125.588 147.068 125.588 147.068C125.588 147.068 126.903 147.331 127.166 148.646C127.43 149.961 126.64 151.277 126.64 151.277C126.64 151.277 128.745 151.54 129.534 152.855C130.323 154.17 129.214 155.791 129.214 155.791C129.214 155.791 130.849 157.064 130.586 159.432C130.323 161.799 126.903 166.797 123.484 168.376C120.064 169.954 115.997 170.007 115.997 170.007L114.781 174.179L107.174 172.321Z" fill="#E18B71"/>
<path d="M127.434 159.606C126.983 158.948 126.392 158.43 125.712 158.046C125.904 157.542 125.909 156.967 125.73 156.449C125.421 155.558 124.693 154.979 123.836 154.643C123.422 154.48 122.988 154.393 122.549 154.333C122.274 154.296 121.618 154.299 121.478 153.993C121.436 153.901 121.458 153.892 121.519 153.785C121.633 153.583 121.737 153.376 121.779 153.147C121.864 152.683 121.761 152.205 121.522 151.801C120.926 150.791 119.766 150.563 118.691 150.445C118.337 150.406 118.033 150.775 118.033 151.103C118.033 151.491 118.336 151.721 118.691 151.76C119.146 151.81 119.657 151.867 120.049 152.123C120.289 152.279 120.551 152.579 120.494 152.886C120.453 153.1 120.275 153.288 120.205 153.496C120.115 153.758 120.113 154.045 120.19 154.312C120.346 154.848 120.796 155.222 121.299 155.414C121.745 155.584 122.23 155.588 122.693 155.681C123.137 155.77 123.587 155.906 123.958 156.175C124.467 156.546 124.814 157.36 124.305 157.852C123.92 158.223 124.154 158.78 124.595 158.951C125.165 159.171 125.669 159.539 126.076 159.992C126.23 160.164 126.841 160.963 126.44 161.069C125.623 161.286 125.969 162.555 126.79 162.337C127.321 162.196 127.723 161.75 127.834 161.213C127.951 160.645 127.755 160.072 127.435 159.606H127.434Z" fill="#F89A81"/>
<path d="M72.1221 118.658H20.2998V153.118H72.1221V118.658Z" fill="#E8F5F6"/>
<path d="M76.1315 50H20.3633V98.4027H76.1315V50Z" fill="#E8F5F6"/>
<path d="M127.956 50H104.28V68.9402H127.956V50Z" fill="#E8F5F6"/>
<path d="M128.056 139.202C121.508 141.325 117.249 144.467 114.43 146.546C113.141 147.496 112.123 148.247 111.518 148.399C111.04 148.52 110.244 147.694 109.324 146.738C107.533 144.877 104.889 142.131 100.342 141.62C100.576 141.974 100.818 142.301 101.068 142.593C100.582 142.558 100.138 142.567 99.7441 142.621C104.209 142.94 106.717 145.546 108.566 147.467C109.661 148.606 110.488 149.466 111.405 149.466C111.526 149.466 111.648 149.451 111.773 149.419C112.581 149.218 113.565 148.491 115.055 147.392C117.818 145.354 121.995 142.273 128.381 140.202C133.111 138.668 135.289 138.747 136.287 139.092C136.349 138.79 136.413 138.44 136.477 138.05C134.785 137.55 131.963 137.934 128.056 139.202H128.056Z" fill="#B65C47"/>
<path d="M123.581 148.891C124.29 148.538 125.51 147.946 126.508 147.536C126.069 147.167 125.586 147.068 125.586 147.068C125.586 147.068 126.195 146.763 127.131 146.282C127.159 146.271 127.186 146.261 127.214 146.25C127.145 146.262 127.076 146.278 127.005 146.301C125.822 146.69 123.826 147.666 122.955 148.103C123.175 148.358 123.383 148.621 123.581 148.891L123.581 148.891Z" fill="#B65C47"/>
<path d="M107.291 120.835C107.267 120.783 107.244 120.732 107.22 120.68C107.158 120.583 107.077 120.507 106.977 120.452C106.923 120.431 106.871 120.411 106.817 120.39C106.728 120.369 106.64 120.372 106.552 120.388C106.543 120.389 106.534 120.388 106.525 120.389C106.461 120.358 106.394 120.339 106.322 120.338C106.234 120.321 106.147 120.327 106.06 120.358C105.976 120.381 105.902 120.422 105.841 120.483C105.77 120.531 105.716 120.595 105.677 120.673C105.657 120.726 105.636 120.779 105.616 120.832C105.588 120.949 105.592 121.066 105.627 121.181C105.651 121.233 105.675 121.284 105.698 121.336C105.76 121.433 105.841 121.509 105.942 121.565C105.958 121.573 105.974 121.581 105.991 121.588C106.057 121.616 106.125 121.644 106.194 121.666C106.23 121.677 106.266 121.684 106.304 121.689C106.394 121.699 106.489 121.715 106.581 121.707C106.655 121.701 106.729 121.686 106.802 121.672C106.821 121.668 106.839 121.664 106.858 121.659C106.943 121.636 107.016 121.594 107.078 121.534C107.148 121.485 107.202 121.422 107.241 121.344C107.286 121.267 107.31 121.185 107.311 121.097C107.328 121.009 107.321 120.922 107.291 120.835L107.291 120.835Z" fill="#B65C47"/>
<path d="M67.1875 122.077H24.5723V125.76H67.1875V122.077Z" fill="#B6CDC6"/>
<path d="M67.1875 53.4189H24.5723V57.1017H67.1875V53.4189Z" fill="#B6CDC6"/>
<path d="M57.7848 131.022H24.6396V134.172H57.7848V131.022Z" fill="#B6CDC6"/>
<path d="M57.7848 136.197H24.6396V139.347H57.7848V136.197Z" fill="#B6CDC6"/>
<path d="M57.7848 141.372H24.6396V144.522H57.7848V141.372Z" fill="#B6CDC6"/>
<path d="M57.7848 146.548H24.6396V149.699H57.7848V146.548Z" fill="#B6CDC6"/>
<path d="M47.4602 104.979C48.3319 104.979 49.0386 104.272 49.0386 103.401C49.0386 102.529 48.3319 101.822 47.4602 101.822C46.5885 101.822 45.8818 102.529 45.8818 103.401C45.8818 104.272 46.5885 104.979 47.4602 104.979Z" fill="#E8F5F6"/>
<path d="M47.4602 109.977C48.3319 109.977 49.0386 109.27 49.0386 108.399C49.0386 107.527 48.3319 106.82 47.4602 106.82C46.5885 106.82 45.8818 107.527 45.8818 108.399C45.8818 109.27 46.5885 109.977 47.4602 109.977Z" fill="#E8F5F6"/>
<path d="M47.4602 114.975C48.3319 114.975 49.0386 114.268 49.0386 113.396C49.0386 112.525 48.3319 111.818 47.4602 111.818C46.5885 111.818 45.8818 112.525 45.8818 113.396C45.8818 114.268 46.5885 114.975 47.4602 114.975Z" fill="#E8F5F6"/>
<path d="M84.8137 61.5742C85.6854 61.5742 86.3921 60.8676 86.3921 59.9959C86.3921 59.1241 85.6854 58.4175 84.8137 58.4175C83.942 58.4175 83.2354 59.1241 83.2354 59.9959C83.2354 60.8676 83.942 61.5742 84.8137 61.5742Z" fill="#E8F5F6"/>
<path d="M89.8127 61.5742C90.6845 61.5742 91.3911 60.8676 91.3911 59.9959C91.3911 59.1241 90.6845 58.4175 89.8127 58.4175C88.941 58.4175 88.2344 59.1241 88.2344 59.9959C88.2344 60.8676 88.941 61.5742 89.8127 61.5742Z" fill="#E8F5F6"/>
<path d="M94.8109 61.5742C95.6826 61.5742 96.3893 60.8676 96.3893 59.9959C96.3893 59.1241 95.6826 58.4175 94.8109 58.4175C93.9392 58.4175 93.2324 59.1241 93.2324 59.9959C93.2324 60.8676 93.9392 61.5742 94.8109 61.5742Z" fill="#E8F5F6"/>
<path d="M57.7176 62.3633H24.5723V66.0461H57.7176V62.3633Z" fill="#B6CDC6"/>
<path d="M57.7176 71.3066H24.5723V74.9894H57.7176V71.3066Z" fill="#B6CDC6"/>
<path d="M57.7176 80.251H24.5723V83.9337H57.7176V80.251Z" fill="#B6CDC6"/>
<path d="M57.7176 89.1948H24.5723V92.8776H57.7176V89.1948Z" fill="#B6CDC6"/>
<path d="M69.0303 61.5737H63.2432V67.3609H69.0303V61.5737Z" fill="white"/>
<path d="M69.0303 70.2544H63.2432V76.0416H69.0303V70.2544Z" fill="white"/>
<path d="M69.0303 78.9355H63.2432V84.7227H69.0303V78.9355Z" fill="white"/>
<path d="M69.0303 87.6172H63.2432V93.4044H69.0303V87.6172Z" fill="white"/>
<path d="M64.5592 62.3626L65.9942 63.941L67.7159 61.3105L69.0311 62.0995L66.1375 66.5714L63.5068 63.415L64.5592 62.3626Z" fill="#5C9656"/>
<path d="M64.5592 71.3065L65.9942 72.8848L67.7159 70.2544L69.0311 71.0436L66.1375 75.5155L63.5068 72.3588L64.5592 71.3065Z" fill="#5C9656"/>
<path d="M64.5592 88.6693L65.9942 90.2476L67.7159 87.6172L69.0311 88.4064L66.1375 92.8783L63.5068 89.7216L64.5592 88.6693Z" fill="#5C9656"/>
<path d="M68.768 80.2518L67.7159 79.1997L66.1375 80.7781L64.5592 79.1997L63.5068 80.2518L65.0852 81.8301L63.5068 83.4085L64.5592 84.4609L66.1375 82.8825L67.7159 84.4609L68.768 83.4085L67.1896 81.8301L68.768 80.2518Z" fill="#E55C5C"/>
<path d="M134.444 215.863C134.364 215.859 125.926 214.453 124.469 211.564C123.518 209.677 124.96 197.68 125.425 194.047C126.027 189.342 127.604 178.179 129.228 176.15C130.604 174.43 132.9 173.959 134.584 173.866C136.608 173.755 139.275 174.15 140.229 175.104C140.51 175.385 140.8 175.675 142.06 181.042C142.78 184.11 143.649 188.157 144.442 192.144C147.676 208.388 147.081 209.577 146.857 210.025C145.833 212.072 139.79 214.932 137.962 215.759L136.986 213.603C140.287 212.107 144.093 209.956 144.696 209.04C144.823 207.98 144.085 202.484 142.129 192.651C140.495 184.44 138.969 178.009 138.474 176.738C137.403 176.172 132.693 175.609 131.076 177.629C130.531 178.311 129.214 183.229 127.82 193.987C126.67 202.863 126.294 209.449 126.6 210.53C127.302 211.759 132.903 213.274 134.635 213.505C134.61 213.501 134.591 213.5 134.578 213.5L134.444 215.863Z" fill="#1F3C44"/>
<path d="M126.651 85.997C126.002 83.6345 124.666 81.6149 122.731 80.1123C119.898 77.9132 116.41 76.5635 112.846 76.0127C111.277 76.2865 109.807 76.6405 108.432 77.0597C110.722 76.9802 113.024 77.2527 115.24 77.8773C117.338 78.4685 119.363 79.3738 121.171 80.5947C123.013 81.8384 124.429 83.505 125.157 85.6198C125.507 86.6349 125.71 87.6777 125.823 88.7335C126.286 88.8643 126.738 89.0006 127.176 89.1402C127.092 88.0812 126.934 87.0302 126.651 85.9973V85.997Z" fill="#162F35"/>
<path d="M120.211 85.5719C118.977 84.2681 117.076 83.7787 115.339 83.6993C111.519 83.5241 108.033 85.5057 105.274 87.9793C104.254 88.894 103.29 89.883 102.433 90.9558C103.238 90.6044 104.167 90.2395 105.175 89.882C105.305 89.7525 105.436 89.6236 105.569 89.4965C106.754 88.3589 108.045 87.3281 109.482 86.5235C110.95 85.7008 112.588 85.1405 114.273 85.027C115.796 84.9246 117.504 85.1399 118.774 86.0543C119.324 86.4501 119.698 86.9668 119.962 87.545C120.453 87.6011 120.947 87.671 121.441 87.7513C121.187 86.9533 120.811 86.2056 120.211 85.5722L120.211 85.5719Z" fill="#162F35"/>
<path d="M111.013 121.077C109.576 122.512 107.649 123.34 105.573 123.406C103.459 123.474 101.453 122.748 99.9166 121.364C98.3858 119.984 97.5072 118.115 97.4427 116.1C97.3778 114.085 98.1351 112.163 99.5742 110.688C101.019 109.208 102.977 108.356 105.088 108.288C105.179 108.285 105.269 108.284 105.359 108.284C107.37 108.284 109.274 109.005 110.744 110.33C112.275 111.709 113.154 113.579 113.218 115.594C113.231 116.003 113.209 116.408 113.155 116.807C113.528 116.414 113.91 116.03 114.27 115.641C114.27 115.614 114.271 115.587 114.27 115.56C114.196 113.256 113.194 111.121 111.449 109.549C109.709 107.981 107.437 107.16 105.054 107.236C102.671 107.313 100.457 108.278 98.8214 109.953C97.1803 111.635 96.3172 113.83 96.3911 116.134C96.4647 118.438 97.4669 120.573 99.2125 122.146C100.878 123.646 103.03 124.463 105.302 124.463C105.403 124.463 105.505 124.461 105.607 124.458C107.69 124.391 109.643 123.646 111.194 122.341C111.079 121.931 111.016 121.509 111.014 121.077L111.013 121.077Z" fill="#E8F5F6"/>
<path d="M128.18 123.728C123.385 123.728 119.415 120.05 119.266 115.4C119.114 110.652 123 106.66 127.929 106.502C130.324 106.428 132.584 107.247 134.324 108.814C136.069 110.387 137.071 112.522 137.145 114.826C137.219 117.13 136.356 119.325 134.715 121.007C133.079 122.682 130.866 123.647 128.482 123.724C128.381 123.727 128.28 123.728 128.18 123.728ZM128.234 107.549C128.144 107.549 128.054 107.551 127.963 107.554C123.614 107.693 120.184 111.198 120.318 115.366C120.452 119.533 124.094 122.811 128.448 122.672C130.558 122.604 132.516 121.752 133.961 120.271C135.4 118.797 136.157 116.875 136.093 114.86C136.028 112.845 135.15 110.975 133.619 109.596C132.148 108.271 130.245 107.549 128.234 107.549Z" fill="#E8F5F6"/>
<path d="M94.5442 115.742L95.67 114.158L97.2741 114.106L97.2403 113.054L95.1146 113.123L93.7354 115.064C94.024 115.266 94.2927 115.493 94.5445 115.742L94.5442 115.742Z" fill="#E8F5F6"/>
<path d="M117.263 125.339C114.897 125.339 111.491 124.888 110.455 122.433C109.141 119.318 112.834 115.823 114.609 114.144C114.83 113.935 115.076 113.702 115.186 113.583C115.244 113.029 114.998 110.817 114.721 108.978L116.022 108.782C116.486 111.866 116.61 113.669 116.392 114.142C116.294 114.355 116.103 114.542 115.513 115.099C114.075 116.46 110.707 119.647 111.667 121.922C112.671 124.303 117.637 124.147 119.465 123.886L119.652 125.188C119.543 125.204 118.559 125.339 117.263 125.339Z" fill="#B65C47"/>
<path d="M114.188 114.339L113.209 113.953C113.25 113.85 114.232 111.416 116.644 111.338C119.051 111.258 120.294 113.604 120.346 113.703L119.413 114.191C119.404 114.174 118.438 112.388 116.755 112.388C116.729 112.388 116.704 112.388 116.678 112.389C114.964 112.444 114.219 114.262 114.188 114.339V114.339Z" fill="#E8F5F6"/>
<path d="M107.698 110.766C107.698 111.347 106.697 111.819 105.462 111.819C104.227 111.819 103.227 111.348 103.227 110.766C103.227 110.185 104.227 109.714 105.462 109.714C106.697 109.714 107.698 110.185 107.698 110.766Z" fill="white"/>
<path d="M123.214 75.4956C119.557 76.9089 114.905 78.705 113.207 78.751C111.526 78.7964 109.422 77.9727 107.925 77.2125C105.841 77.8826 103.98 78.7031 102.33 79.6217C103.728 80.9822 106.954 83.4845 111.935 83.6876C118.801 83.9677 130.315 77.4179 130.32 77.4153C128.565 76.4783 126.254 75.7731 123.214 75.4959L123.214 75.4956Z" fill="#336770"/>
<path d="M123.483 53.1562H109.015V56.839H123.483V53.1562Z" fill="#B6CDC6"/>
<path d="M123.483 58.9438H109.015V60.7854H123.483V58.9438Z" fill="#B6CDC6"/>
<path d="M123.483 61.5737H109.015V63.4153H123.483V61.5737Z" fill="#B6CDC6"/>
<path d="M123.483 64.2046H109.015V66.0461H123.483V64.2046Z" fill="#B6CDC6"/>
</g>
</svg>
